<?xml version="1.0" encoding="UTF-8" standalone="no"?><svg xmlns="http://www.w3.org/2000/svg" xmlns:xlink="http://www.w3.org/1999/xlink" contentScriptType="application/ecmascript" contentStyleType="text/css" height="397px" preserveAspectRatio="none" style="width:767px;height:397px;" version="1.1" viewBox="0 0 767 397" width="767px" zoomAndPan="magnify"><defs><filter height="300%" id="f1xq99itjtun32" width="300%" x="-1" y="-1"><feGaussianBlur result="blurOut" stdDeviation="2.0"/><feColorMatrix in="blurOut" result="blurOut2" type="matrix" values="0 0 0 0 0 0 0 0 0 0 0 0 0 0 0 0 0 0 .4 0"/><feOffset dx="4.0" dy="4.0" in="blurOut2" result="blurOut3"/><feBlend in="SourceGraphic" in2="blurOut3" mode="normal"/></filter></defs><g><!--MD5=[474a687950c0c91cb5d6698c98d55883]
cluster org.keyple.calypso.transaction--><polygon fill="#FFFFFF" filter="url(#f1xq99itjtun32)" points="22,24,242,24,249,47.6094,745,47.6094,745,385,22,385,22,24" style="stroke: #000000; stroke-width: 1.5;"/><line style="stroke: #000000; stroke-width: 1.5;" x1="22" x2="249" y1="47.6094" y2="47.6094"/><text fill="#000000" font-family="sans-serif" font-size="14" font-weight="bold" lengthAdjust="spacingAndGlyphs" textLength="214" x="26" y="40.5332">org.keyple.calypso.transaction</text><!--MD5=[e8e21ba3995782366e9aa9ad2c6b2d5f]
class PoResource--><rect fill="#FEFECE" filter="url(#f1xq99itjtun32)" height="75.6719" id="PoResource" style="stroke: #A80036; stroke-width: 1.5;" width="190" x="214" y="60"/><ellipse cx="264.75" cy="76" fill="#ADD1B2" rx="11" ry="11" style="stroke: #A80036; stroke-width: 1.0;"/><path d="M266.75,72.5 Q266.9531,72 267.1875,71.75 Q267.4219,71.5 267.6875,71.5 Q268.1563,71.5 268.4531,71.7813 Q268.75,72.0625 268.75,72.7188 L268.75,74.2813 Q268.75,74.9375 268.4688,75.2188 Q268.1875,75.5 267.75,75.5 Q267.3594,75.5 267.1094,75.3281 Q266.8594,75.1563 266.75,74.7031 Q266.7031,74.3906 266.5313,74.2188 Q266.2188,73.8906 265.6563,73.7031 Q265.0938,73.5 264.5313,73.5 Q263.8281,73.5 263.2344,73.7813 Q262.6563,74.0625 262.2031,74.6875 Q261.75,75.3125 261.75,76.1719 L261.75,77.0938 Q261.75,78.125 262.5938,78.8125 Q263.4375,79.5 264.9375,79.5 Q265.8281,79.5 266.4531,79.2969 Q266.8125,79.1875 267.2188,78.8281 Q267.4844,78.625 267.625,78.5625 Q267.7656,78.5 267.9375,78.5 Q268.2656,78.5 268.5,78.7656 Q268.75,79.0156 268.75,79.375 Q268.75,79.7188 268.4063,80.125 Q267.9063,80.7188 267.1094,81.0469 Q266.0625,81.5 264.7813,81.5 Q263.2813,81.5 262.0781,80.9063 Q261.1094,80.4375 260.4219,79.4219 Q259.75,78.4063 259.75,77.2031 L259.75,76.1094 Q259.75,74.8594 260.3438,73.7656 Q260.9531,72.6719 262,72.0938 Q263.0625,71.5 264.25,71.5 Q264.9688,71.5 265.5938,71.75 Q266.2188,72 266.75,72.5 Z "/><ellipse cx="290.25" cy="75.5" fill="#84BE84" rx="3" ry="3" style="stroke: #038048; stroke-width: 1.0;"/><text fill="#000000" font-family="sans-serif" font-size="12" lengthAdjust="spacingAndGlyphs" textLength="69" x="296.25" y="80.9102">PoResource</text><line style="stroke: #A80036; stroke-width: 1.5;" x1="215" x2="403" y1="92" y2="92"/><line style="stroke: #A80036; stroke-width: 1.5;" x1="215" x2="403" y1="100" y2="100"/><ellipse cx="225" cy="111" fill="#84BE84" rx="3" ry="3" style="stroke: #038048; stroke-width: 1.0;"/><text fill="#000000" font-family="sans-serif" font-size="11" lengthAdjust="spacingAndGlyphs" textLength="63" x="234" y="115.4189">PoResource(</text><text fill="#FF0000" font-family="sans-serif" font-size="11" lengthAdjust="spacingAndGlyphs" textLength="98" x="297" y="115.4189">SeReader seReader</text><text fill="#000000" font-family="sans-serif" font-size="11" lengthAdjust="spacingAndGlyphs" textLength="3" x="395" y="115.4189">,</text><text fill="#000000" font-family="sans-serif" font-size="11" lengthAdjust="spacingAndGlyphs" textLength="111" x="234" y="129.2549">CalypsoPo calypsoPo);</text><!--MD5=[346f733d3079e77ece8ec0605238a57f]
class CalypsoPo--><rect fill="#FEFECE" filter="url(#f1xq99itjtun32)" height="172.5234" id="CalypsoPo" style="stroke: #A80036; stroke-width: 1.5;" width="242" x="38" y="196"/><ellipse cx="105.75" cy="212" fill="#ADD1B2" rx="11" ry="11" style="stroke: #A80036; stroke-width: 1.0;"/><path d="M107.75,208.5 Q107.9531,208 108.1875,207.75 Q108.4219,207.5 108.6875,207.5 Q109.1563,207.5 109.4531,207.7813 Q109.75,208.0625 109.75,208.7188 L109.75,210.2813 Q109.75,210.9375 109.4688,211.2188 Q109.1875,211.5 108.75,211.5 Q108.3594,211.5 108.1094,211.3281 Q107.8594,211.1563 107.75,210.7031 Q107.7031,210.3906 107.5313,210.2188 Q107.2188,209.8906 106.6563,209.7031 Q106.0938,209.5 105.5313,209.5 Q104.8281,209.5 104.2344,209.7813 Q103.6563,210.0625 103.2031,210.6875 Q102.75,211.3125 102.75,212.1719 L102.75,213.0938 Q102.75,214.125 103.5938,214.8125 Q104.4375,215.5 105.9375,215.5 Q106.8281,215.5 107.4531,215.2969 Q107.8125,215.1875 108.2188,214.8281 Q108.4844,214.625 108.625,214.5625 Q108.7656,214.5 108.9375,214.5 Q109.2656,214.5 109.5,214.7656 Q109.75,215.0156 109.75,215.375 Q109.75,215.7188 109.4063,216.125 Q108.9063,216.7188 108.1094,217.0469 Q107.0625,217.5 105.7813,217.5 Q104.2813,217.5 103.0781,216.9063 Q102.1094,216.4375 101.4219,215.4219 Q100.75,214.4063 100.75,213.2031 L100.75,212.1094 Q100.75,210.8594 101.3438,209.7656 Q101.9531,208.6719 103,208.0938 Q104.0625,207.5 105.25,207.5 Q105.9688,207.5 106.5938,207.75 Q107.2188,208 107.75,208.5 Z "/><ellipse cx="131.25" cy="211.5" fill="#84BE84" rx="3" ry="3" style="stroke: #038048; stroke-width: 1.0;"/><text fill="#000000" font-family="sans-serif" font-size="12" font-weight="bold" lengthAdjust="spacingAndGlyphs" textLength="24" x="137.25" y="216.9102">final</text><text fill="#000000" font-family="sans-serif" font-size="12" lengthAdjust="spacingAndGlyphs" textLength="60" x="164.25" y="216.9102">CalypsoPo</text><line style="stroke: #A80036; stroke-width: 1.5;" x1="39" x2="279" y1="228" y2="228"/><line style="stroke: #A80036; stroke-width: 1.5;" x1="39" x2="279" y1="236" y2="236"/><polygon fill="#4177AF" points="49,243,45,249,53,249" style="stroke: #1963A0; stroke-width: 1.0;"/><text fill="#000000" font-family="sans-serif" font-size="11" lengthAdjust="spacingAndGlyphs" textLength="55" x="58" y="251.4189">CalypsoPo(</text><text fill="#FF0000" font-family="sans-serif" font-size="11" lengthAdjust="spacingAndGlyphs" textLength="157" x="113" y="251.4189">SeResponse selectionResponse</text><text fill="#000000" font-family="sans-serif" font-size="11" lengthAdjust="spacingAndGlyphs" textLength="4" x="270" y="251.4189">)</text><text fill="#000000" font-family="sans-serif" font-size="11" lengthAdjust="spacingAndGlyphs" textLength="0" x="61" y="265.2549"/><ellipse cx="49" cy="274.6719" fill="#84BE84" rx="3" ry="3" style="stroke: #038048; stroke-width: 1.0;"/><text fill="#000000" font-family="sans-serif" font-size="11" lengthAdjust="spacingAndGlyphs" textLength="92" x="58" y="279.0908">String getDfName()</text><ellipse cx="49" cy="288.5078" fill="#84BE84" rx="3" ry="3" style="stroke: #038048; stroke-width: 1.0;"/><text fill="#000000" font-family="sans-serif" font-size="11" lengthAdjust="spacingAndGlyphs" textLength="171" x="58" y="292.9268">String getApplicationSerialNumber()</text><ellipse cx="49" cy="302.3438" fill="#84BE84" rx="3" ry="3" style="stroke: #038048; stroke-width: 1.0;"/><text fill="#000000" font-family="sans-serif" font-size="11" lengthAdjust="spacingAndGlyphs" textLength="107" x="58" y="306.7627">String getStartupInfo()</text><text fill="#000000" font-family="sans-serif" font-size="11" lengthAdjust="spacingAndGlyphs" textLength="0" x="61" y="320.5986"/><ellipse cx="49" cy="330.0156" fill="#84BE84" rx="3" ry="3" style="stroke: #038048; stroke-width: 1.0;"/><text fill="#4169E1" font-family="sans-serif" font-size="11" font-style="italic" font-weight="bold" lengthAdjust="spacingAndGlyphs" textLength="89" x="58" y="334.4346">boolean is_Xxx()</text><text fill="#000000" font-family="sans-serif" font-size="11" lengthAdjust="spacingAndGlyphs" textLength="0" x="61" y="348.2705"/><ellipse cx="49" cy="357.6875" fill="#84BE84" rx="3" ry="3" style="stroke: #038048; stroke-width: 1.0;"/><text fill="#4169E1" font-family="sans-serif" font-size="11" font-style="italic" font-weight="bold" lengthAdjust="spacingAndGlyphs" textLength="96" x="58" y="362.1064">Xxx getData_Xxx()</text><!--MD5=[e4d4ea7db949ad9d239210033b878e09]
class PoSecuritySetting--><rect fill="#FEFECE" filter="url(#f1xq99itjtun32)" height="48" id="PoSecuritySetting" style="stroke: #A80036; stroke-width: 1.5;" width="166" x="439" y="74"/><ellipse cx="454" cy="90" fill="#ADD1B2" rx="11" ry="11" style="stroke: #A80036; stroke-width: 1.0;"/><path d="M456,86.5 Q456.2031,86 456.4375,85.75 Q456.6719,85.5 456.9375,85.5 Q457.4063,85.5 457.7031,85.7813 Q458,86.0625 458,86.7188 L458,88.2813 Q458,88.9375 457.7188,89.2188 Q457.4375,89.5 457,89.5 Q456.6094,89.5 456.3594,89.3281 Q456.1094,89.1563 456,88.7031 Q455.9531,88.3906 455.7813,88.2188 Q455.4688,87.8906 454.9063,87.7031 Q454.3438,87.5 453.7813,87.5 Q453.0781,87.5 452.4844,87.7813 Q451.9063,88.0625 451.4531,88.6875 Q451,89.3125 451,90.1719 L451,91.0938 Q451,92.125 451.8438,92.8125 Q452.6875,93.5 454.1875,93.5 Q455.0781,93.5 455.7031,93.2969 Q456.0625,93.1875 456.4688,92.8281 Q456.7344,92.625 456.875,92.5625 Q457.0156,92.5 457.1875,92.5 Q457.5156,92.5 457.75,92.7656 Q458,93.0156 458,93.375 Q458,93.7188 457.6563,94.125 Q457.1563,94.7188 456.3594,95.0469 Q455.3125,95.5 454.0313,95.5 Q452.5313,95.5 451.3281,94.9063 Q450.3594,94.4375 449.6719,93.4219 Q449,92.4063 449,91.2031 L449,90.1094 Q449,88.8594 449.5938,87.7656 Q450.2031,86.6719 451.25,86.0938 Q452.3125,85.5 453.5,85.5 Q454.2188,85.5 454.8438,85.75 Q455.4688,86 456,86.5 Z "/><ellipse cx="473" cy="89.5" fill="#84BE84" rx="3" ry="3" style="stroke: #038048; stroke-width: 1.0;"/><text fill="#000000" font-family="sans-serif" font-size="12" font-weight="bold" lengthAdjust="spacingAndGlyphs" textLength="24" x="479" y="94.9102">final</text><text fill="#000000" font-family="sans-serif" font-size="12" lengthAdjust="spacingAndGlyphs" textLength="96" x="506" y="94.9102">PoSecuritySetting</text><line style="stroke: #A80036; stroke-width: 1.5;" x1="440" x2="604" y1="106" y2="106"/><line style="stroke: #A80036; stroke-width: 1.5;" x1="440" x2="604" y1="114" y2="114"/><!--MD5=[8eb5cec01ad571a9feeff1db4f73a667]
class PoTransaction--><rect fill="#FEFECE" filter="url(#f1xq99itjtun32)" height="144.8516" id="PoTransaction" style="stroke: #A80036; stroke-width: 1.5;" width="414" x="315" y="210"/><ellipse cx="472.25" cy="226" fill="#ADD1B2" rx="11" ry="11" style="stroke: #A80036; stroke-width: 1.0;"/><path d="M474.25,222.5 Q474.4531,222 474.6875,221.75 Q474.9219,221.5 475.1875,221.5 Q475.6563,221.5 475.9531,221.7813 Q476.25,222.0625 476.25,222.7188 L476.25,224.2813 Q476.25,224.9375 475.9688,225.2188 Q475.6875,225.5 475.25,225.5 Q474.8594,225.5 474.6094,225.3281 Q474.3594,225.1563 474.25,224.7031 Q474.2031,224.3906 474.0313,224.2188 Q473.7188,223.8906 473.1563,223.7031 Q472.5938,223.5 472.0313,223.5 Q471.3281,223.5 470.7344,223.7813 Q470.1563,224.0625 469.7031,224.6875 Q469.25,225.3125 469.25,226.1719 L469.25,227.0938 Q469.25,228.125 470.0938,228.8125 Q470.9375,229.5 472.4375,229.5 Q473.3281,229.5 473.9531,229.2969 Q474.3125,229.1875 474.7188,228.8281 Q474.9844,228.625 475.125,228.5625 Q475.2656,228.5 475.4375,228.5 Q475.7656,228.5 476,228.7656 Q476.25,229.0156 476.25,229.375 Q476.25,229.7188 475.9063,230.125 Q475.4063,230.7188 474.6094,231.0469 Q473.5625,231.5 472.2813,231.5 Q470.7813,231.5 469.5781,230.9063 Q468.6094,230.4375 467.9219,229.4219 Q467.25,228.4063 467.25,227.2031 L467.25,226.1094 Q467.25,224.8594 467.8438,223.7656 Q468.4531,222.6719 469.5,222.0938 Q470.5625,221.5 471.75,221.5 Q472.4688,221.5 473.0938,221.75 Q473.7188,222 474.25,222.5 Z "/><ellipse cx="497.75" cy="225.5" fill="#84BE84" rx="3" ry="3" style="stroke: #038048; stroke-width: 1.0;"/><text fill="#000000" font-family="sans-serif" font-size="12" lengthAdjust="spacingAndGlyphs" textLength="80" x="503.75" y="230.9102">PoTransaction</text><line style="stroke: #A80036; stroke-width: 1.5;" x1="316" x2="728" y1="242" y2="242"/><line style="stroke: #A80036; stroke-width: 1.5;" x1="316" x2="728" y1="250" y2="250"/><ellipse cx="326" cy="261" fill="#84BE84" rx="3" ry="3" style="stroke: #038048; stroke-width: 1.0;"/><text fill="#000000" font-family="sans-serif" font-size="11" lengthAdjust="spacingAndGlyphs" textLength="388" x="335" y="265.4189">PoTransaction(PoResource poResource, PoSecuritySetting[0..1] securitySetting)</text><text fill="#000000" font-family="sans-serif" font-size="11" lengthAdjust="spacingAndGlyphs" textLength="0" x="338" y="279.2549"/><ellipse cx="326" cy="288.6719" fill="#84BE84" rx="3" ry="3" style="stroke: #038048; stroke-width: 1.0;"/><text fill="#4169E1" font-family="sans-serif" font-size="11" font-style="italic" font-weight="bold" lengthAdjust="spacingAndGlyphs" textLength="131" x="335" y="293.0908">prepareCommand_Xxx()</text><text fill="#000000" font-family="sans-serif" font-size="11" lengthAdjust="spacingAndGlyphs" textLength="0" x="338" y="306.9268"/><ellipse cx="326" cy="316.3438" fill="#84BE84" rx="3" ry="3" style="stroke: #038048; stroke-width: 1.0;"/><text fill="#4169E1" font-family="sans-serif" font-size="11" font-style="italic" font-weight="bold" lengthAdjust="spacingAndGlyphs" textLength="182" x="335" y="320.7627">boolean processCommands_Xxx()</text><text fill="#000000" font-family="sans-serif" font-size="11" lengthAdjust="spacingAndGlyphs" textLength="0" x="338" y="334.5986"/><ellipse cx="326" cy="344.0156" fill="#84BE84" rx="3" ry="3" style="stroke: #038048; stroke-width: 1.0;"/><text fill="#4169E1" font-family="sans-serif" font-size="11" font-style="italic" font-weight="bold" lengthAdjust="spacingAndGlyphs" textLength="202" x="335" y="348.4346">Xxx_SecureData getXxx_SecureData()</text><!--MD5=[127e9a2466ec7ea86d71a4cf335a990c]
link PoResource to PoSecuritySetting--><!--MD5=[e4e6b0c197a4fe408c8d4c7214bc9356]
link PoResource to PoTransaction--><path d="M352.36,136.152 C374.256,154.911 401.723,178.446 428.138,201.079 " fill="none" id="PoResource-&gt;PoTransaction" style="stroke: #A80036; stroke-width: 1.0;"/><polygon fill="#FFFFFF" points="438.197,209.697,436.2431,202.7557,429.0842,201.8896,431.0381,208.8309,438.197,209.697" style="stroke: #A80036; stroke-width: 1.0;"/><text fill="#000000" font-family="sans-serif" font-size="13" lengthAdjust="spacingAndGlyphs" textLength="7" x="351.7127" y="157.0568">1</text><text fill="#000000" font-family="sans-serif" font-size="13" lengthAdjust="spacingAndGlyphs" textLength="7" x="422.6031" y="199.2627">1</text><!--MD5=[7ef23bb65cbd7f21990abf12f0f9fb41]
link PoSecuritySetting to PoTransaction--><path d="M522,122.114 C522,141.072 522,169.146 522,196.473 " fill="none" id="PoSecuritySetting-&gt;PoTransaction" style="stroke: #A80036; stroke-width: 1.0;"/><polygon fill="#FFFFFF" points="522,209.785,526,203.785,522,197.785,518,203.785,522,209.785" style="stroke: #A80036; stroke-width: 1.0;"/><text fill="#000000" font-family="sans-serif" font-size="13" lengthAdjust="spacingAndGlyphs" textLength="22" x="497.3188" y="143.4798">0..1</text><text fill="#000000" font-family="sans-serif" font-size="13" lengthAdjust="spacingAndGlyphs" textLength="7" x="514.6391" y="198.9822">1</text><!--MD5=[37dbed8b9216f61bc352547fd6848c07]
reverse link PoResource to CalypsoPo--><path d="M269.955,146.505 C257.489,161.672 243.287,178.95 229.304,195.963 " fill="none" id="PoResource&lt;-CalypsoPo" style="stroke: #A80036; stroke-width: 1.0;"/><polygon fill="#FFFFFF" points="278.283,136.372,271.3831,138.4674,270.6635,145.6425,277.5634,143.5471,278.283,136.372" style="stroke: #A80036; stroke-width: 1.0;"/><text fill="#000000" font-family="sans-serif" font-size="13" lengthAdjust="spacingAndGlyphs" textLength="7" x="265.8297" y="157.3118">1</text><text fill="#000000" font-family="sans-serif" font-size="13" lengthAdjust="spacingAndGlyphs" textLength="7" x="228.2537" y="185.0753">1</text><!--MD5=[572abbbd1bd1ebe88bb8c8f82c5c771d]
@startuml
package org.keyple.calypso.transaction #FFFFFF {

  +class PoResource {
    +PoResource(<color:red>SeReader seReader</color>,
    CalypsoPo calypsoPo);
  }

  +class "<b>final</b> CalypsoPo" as CalypsoPo {
    ~CalypsoPo(<color:red>SeResponse selectionResponse</color>)

    +String getDfName()
    +String getApplicationSerialNumber()
    +String getStartupInfo()

    +<color:royalBlue><b><i>boolean is_Xxx()</i></b></color>

    +<color:royalBlue><b><i>Xxx getData_Xxx()</i></b></color>
  }

  +class "<b>final</b> PoSecuritySetting" as PoSecuritySetting {
  }

  +class PoTransaction {
    +PoTransaction(PoResource poResource, PoSecuritySetting[0..1] securitySetting)

    +<color:royalBlue><b><i>prepareCommand_Xxx()</i></b></color>

    +<color:royalBlue><b><i>boolean processCommands_Xxx()</i></b></color>

    +<color:royalBlue><b><i>Xxx_SecureData getXxx_SecureData()</i></b></color>
  }

  PoResource -right[hidden]- PoSecuritySetting
  PoTransaction "1" o-up- "1" PoResource
  PoTransaction "1" o-up- "0..1" PoSecuritySetting
  PoResource "1" o-down- "1" CalypsoPo
}
@enduml

PlantUML version 1.2020.07(Sun Apr 19 15:42:40 MUT 2020)
(GPL source distribution)
Java Runtime: OpenJDK Runtime Environment
JVM: OpenJDK 64-Bit Server VM
Java Version: 11.0.6+8-b765.40
Operating System: Windows 10
Default Encoding: Cp1252
Language: fr
Country: FR
--></g></svg>