<?xml version="1.0" encoding="UTF-8" standalone="no"?><svg xmlns="http://www.w3.org/2000/svg" xmlns:xlink="http://www.w3.org/1999/xlink" contentScriptType="application/ecmascript" contentStyleType="text/css" height="398px" preserveAspectRatio="none" style="width:760px;height:398px;" version="1.1" viewBox="0 0 760 398" width="760px" zoomAndPan="magnify"><defs/><g><!--MD5=[e8e21ba3995782366e9aa9ad2c6b2d5f]
class PoResource--><rect fill="#FEFECE" height="75.6719" id="PoResource" style="stroke: #A80036; stroke-width: 1.5;" width="191" x="127.5" y="79"/><ellipse cx="149.25" cy="95" fill="#ADD1B2" rx="11" ry="11" style="stroke: #FFFFCC; stroke-width: 1.0;"/><path d="M151.25,91.5 Q151.4531,91 151.6875,90.75 Q151.9219,90.5 152.1875,90.5 Q152.6563,90.5 152.9531,90.7813 Q153.25,91.0625 153.25,91.7188 L153.25,93.2813 Q153.25,93.9375 152.9688,94.2188 Q152.6875,94.5 152.25,94.5 Q151.8594,94.5 151.6094,94.3281 Q151.3594,94.1563 151.25,93.7031 Q151.2031,93.3906 151.0313,93.2188 Q150.7188,92.8906 150.1563,92.7031 Q149.5938,92.5 149.0313,92.5 Q148.3281,92.5 147.7344,92.7813 Q147.1563,93.0625 146.7031,93.6875 Q146.25,94.3125 146.25,95.1719 L146.25,96.0938 Q146.25,97.125 147.0938,97.8125 Q147.9375,98.5 149.4375,98.5 Q150.3281,98.5 150.9531,98.2969 Q151.3125,98.1875 151.7188,97.8281 Q151.9844,97.625 152.125,97.5625 Q152.2656,97.5 152.4375,97.5 Q152.7656,97.5 153,97.7656 Q153.25,98.0156 153.25,98.375 Q153.25,98.7188 152.9063,99.125 Q152.4063,99.7188 151.6094,100.0469 Q150.5625,100.5 149.2813,100.5 Q147.7813,100.5 146.5781,99.9063 Q145.6094,99.4375 144.9219,98.4219 Q144.25,97.4063 144.25,96.2031 L144.25,95.1094 Q144.25,93.8594 144.8438,92.7656 Q145.4531,91.6719 146.5,91.0938 Q147.5625,90.5 148.75,90.5 Q149.4688,90.5 150.0938,90.75 Q150.7188,91 151.25,91.5 Z "/><ellipse cx="169.75" cy="94.5" fill="#84BE84" rx="3" ry="3" style="stroke: #038048; stroke-width: 1.0;"/><text fill="#000000" font-family="sans-serif" font-size="12" lengthAdjust="spacingAndGlyphs" textLength="69" x="175.75" y="99.9102">SeResource</text><rect fill="#FFFFFF" height="17.0938" style="stroke: #000000; stroke-width: 1.0; stroke-dasharray: 2.0,2.0;" width="62" x="259.5" y="76"/><text fill="#000000" font-family="sans-serif" font-size="12" font-style="italic" lengthAdjust="spacingAndGlyphs" textLength="60" x="260.5" y="89.457">CalypsoPo</text><line style="stroke: #A80036; stroke-width: 1.5;" x1="128.5" x2="317.5" y1="111" y2="111"/><line style="stroke: #A80036; stroke-width: 1.5;" x1="128.5" x2="317.5" y1="119" y2="119"/><ellipse cx="138.5" cy="130" fill="#84BE84" rx="3" ry="3" style="stroke: #038048; stroke-width: 1.0;"/><text fill="#000000" font-family="sans-serif" font-size="11" lengthAdjust="spacingAndGlyphs" textLength="64" x="147.5" y="134.4189">SeResource(</text><text fill="#FF0000" font-family="sans-serif" font-size="11" lengthAdjust="spacingAndGlyphs" textLength="98" x="211.5" y="134.4189">SeReader seReader</text><text fill="#000000" font-family="sans-serif" font-size="11" lengthAdjust="spacingAndGlyphs" textLength="3" x="309.5" y="134.4189">,</text><text fill="#000000" font-family="sans-serif" font-size="11" lengthAdjust="spacingAndGlyphs" textLength="73" x="147.5" y="148.2549">CalypsoPo po);</text><!--MD5=[43918d86839edc1befb88ea50efcfbfb]
class SamResource--><rect fill="#FEFECE" height="75.6719" id="SamResource" style="stroke: #A80036; stroke-width: 1.5;" width="191" x="555.5" y="79"/><ellipse cx="572.3" cy="95" fill="#ADD1B2" rx="11" ry="11" style="stroke: #FFFFCC; stroke-width: 1.0;"/><path d="M574.3,91.5 Q574.5031,91 574.7375,90.75 Q574.9719,90.5 575.2375,90.5 Q575.7063,90.5 576.0031,90.7813 Q576.3,91.0625 576.3,91.7188 L576.3,93.2813 Q576.3,93.9375 576.0188,94.2188 Q575.7375,94.5 575.3,94.5 Q574.9094,94.5 574.6594,94.3281 Q574.4094,94.1563 574.3,93.7031 Q574.2531,93.3906 574.0813,93.2188 Q573.7688,92.8906 573.2063,92.7031 Q572.6438,92.5 572.0813,92.5 Q571.3781,92.5 570.7844,92.7813 Q570.2063,93.0625 569.7531,93.6875 Q569.3,94.3125 569.3,95.1719 L569.3,96.0938 Q569.3,97.125 570.1438,97.8125 Q570.9875,98.5 572.4875,98.5 Q573.3781,98.5 574.0031,98.2969 Q574.3625,98.1875 574.7688,97.8281 Q575.0344,97.625 575.175,97.5625 Q575.3156,97.5 575.4875,97.5 Q575.8156,97.5 576.05,97.7656 Q576.3,98.0156 576.3,98.375 Q576.3,98.7188 575.9563,99.125 Q575.4563,99.7188 574.6594,100.0469 Q573.6125,100.5 572.3313,100.5 Q570.8313,100.5 569.6281,99.9063 Q568.6594,99.4375 567.9719,98.4219 Q567.3,97.4063 567.3,96.2031 L567.3,95.1094 Q567.3,93.8594 567.8938,92.7656 Q568.5031,91.6719 569.55,91.0938 Q570.6125,90.5 571.8,90.5 Q572.5188,90.5 573.1438,90.75 Q573.7688,91 574.3,91.5 Z "/><ellipse cx="591.7" cy="94.5" fill="#84BE84" rx="3" ry="3" style="stroke: #038048; stroke-width: 1.0;"/><text fill="#000000" font-family="sans-serif" font-size="12" lengthAdjust="spacingAndGlyphs" textLength="69" x="597.7" y="99.9102">SeResource</text><rect fill="#FFFFFF" height="17.0938" style="stroke: #000000; stroke-width: 1.0; stroke-dasharray: 2.0,2.0;" width="73" x="676.5" y="76"/><text fill="#000000" font-family="sans-serif" font-size="12" font-style="italic" lengthAdjust="spacingAndGlyphs" textLength="71" x="677.5" y="89.457">CalypsoSam</text><line style="stroke: #A80036; stroke-width: 1.5;" x1="556.5" x2="745.5" y1="111" y2="111"/><line style="stroke: #A80036; stroke-width: 1.5;" x1="556.5" x2="745.5" y1="119" y2="119"/><ellipse cx="566.5" cy="130" fill="#84BE84" rx="3" ry="3" style="stroke: #038048; stroke-width: 1.0;"/><text fill="#000000" font-family="sans-serif" font-size="11" lengthAdjust="spacingAndGlyphs" textLength="64" x="575.5" y="134.4189">SeResource(</text><text fill="#FF0000" font-family="sans-serif" font-size="11" lengthAdjust="spacingAndGlyphs" textLength="98" x="639.5" y="134.4189">SeReader seReader</text><text fill="#000000" font-family="sans-serif" font-size="11" lengthAdjust="spacingAndGlyphs" textLength="3" x="737.5" y="134.4189">,</text><text fill="#000000" font-family="sans-serif" font-size="11" lengthAdjust="spacingAndGlyphs" textLength="90" x="575.5" y="148.2549">CalypsoSam sam);</text><!--MD5=[e4d4ea7db949ad9d239210033b878e09]
class PoSecuritySetting--><rect fill="#FEFECE" height="48" id="PoSecuritySetting" style="stroke: #A80036; stroke-width: 1.5;" width="166" x="354" y="93"/><ellipse cx="369" cy="109" fill="#ADD1B2" rx="11" ry="11" style="stroke: #FFFFCC; stroke-width: 1.0;"/><path d="M371,105.5 Q371.2031,105 371.4375,104.75 Q371.6719,104.5 371.9375,104.5 Q372.4063,104.5 372.7031,104.7813 Q373,105.0625 373,105.7188 L373,107.2813 Q373,107.9375 372.7188,108.2188 Q372.4375,108.5 372,108.5 Q371.6094,108.5 371.3594,108.3281 Q371.1094,108.1563 371,107.7031 Q370.9531,107.3906 370.7813,107.2188 Q370.4688,106.8906 369.9063,106.7031 Q369.3438,106.5 368.7813,106.5 Q368.0781,106.5 367.4844,106.7813 Q366.9063,107.0625 366.4531,107.6875 Q366,108.3125 366,109.1719 L366,110.0938 Q366,111.125 366.8438,111.8125 Q367.6875,112.5 369.1875,112.5 Q370.0781,112.5 370.7031,112.2969 Q371.0625,112.1875 371.4688,111.8281 Q371.7344,111.625 371.875,111.5625 Q372.0156,111.5 372.1875,111.5 Q372.5156,111.5 372.75,111.7656 Q373,112.0156 373,112.375 Q373,112.7188 372.6563,113.125 Q372.1563,113.7188 371.3594,114.0469 Q370.3125,114.5 369.0313,114.5 Q367.5313,114.5 366.3281,113.9063 Q365.3594,113.4375 364.6719,112.4219 Q364,111.4063 364,110.2031 L364,109.1094 Q364,107.8594 364.5938,106.7656 Q365.2031,105.6719 366.25,105.0938 Q367.3125,104.5 368.5,104.5 Q369.2188,104.5 369.8438,104.75 Q370.4688,105 371,105.5 Z "/><ellipse cx="388" cy="108.5" fill="#84BE84" rx="3" ry="3" style="stroke: #038048; stroke-width: 1.0;"/><text fill="#000000" font-family="sans-serif" font-size="12" font-weight="bold" lengthAdjust="spacingAndGlyphs" textLength="24" x="394" y="113.9102">final</text><text fill="#000000" font-family="sans-serif" font-size="12" lengthAdjust="spacingAndGlyphs" textLength="96" x="421" y="113.9102">PoSecuritySetting</text><line style="stroke: #A80036; stroke-width: 1.5;" x1="355" x2="519" y1="125" y2="125"/><line style="stroke: #A80036; stroke-width: 1.5;" x1="355" x2="519" y1="133" y2="133"/><!--MD5=[346f733d3079e77ece8ec0605238a57f]
class CalypsoPo--><rect fill="#FEFECE" height="172.5234" id="CalypsoPo" style="stroke: #A80036; stroke-width: 1.5;" width="242" x="38" y="215"/><ellipse cx="105.75" cy="231" fill="#ADD1B2" rx="11" ry="11" style="stroke: #FFFFCC; stroke-width: 1.0;"/><path d="M107.75,227.5 Q107.9531,227 108.1875,226.75 Q108.4219,226.5 108.6875,226.5 Q109.1563,226.5 109.4531,226.7813 Q109.75,227.0625 109.75,227.7188 L109.75,229.2813 Q109.75,229.9375 109.4688,230.2188 Q109.1875,230.5 108.75,230.5 Q108.3594,230.5 108.1094,230.3281 Q107.8594,230.1563 107.75,229.7031 Q107.7031,229.3906 107.5313,229.2188 Q107.2188,228.8906 106.6563,228.7031 Q106.0938,228.5 105.5313,228.5 Q104.8281,228.5 104.2344,228.7813 Q103.6563,229.0625 103.2031,229.6875 Q102.75,230.3125 102.75,231.1719 L102.75,232.0938 Q102.75,233.125 103.5938,233.8125 Q104.4375,234.5 105.9375,234.5 Q106.8281,234.5 107.4531,234.2969 Q107.8125,234.1875 108.2188,233.8281 Q108.4844,233.625 108.625,233.5625 Q108.7656,233.5 108.9375,233.5 Q109.2656,233.5 109.5,233.7656 Q109.75,234.0156 109.75,234.375 Q109.75,234.7188 109.4063,235.125 Q108.9063,235.7188 108.1094,236.0469 Q107.0625,236.5 105.7813,236.5 Q104.2813,236.5 103.0781,235.9063 Q102.1094,235.4375 101.4219,234.4219 Q100.75,233.4063 100.75,232.2031 L100.75,231.1094 Q100.75,229.8594 101.3438,228.7656 Q101.9531,227.6719 103,227.0938 Q104.0625,226.5 105.25,226.5 Q105.9688,226.5 106.5938,226.75 Q107.2188,227 107.75,227.5 Z "/><ellipse cx="131.25" cy="230.5" fill="#84BE84" rx="3" ry="3" style="stroke: #038048; stroke-width: 1.0;"/><text fill="#000000" font-family="sans-serif" font-size="12" font-weight="bold" lengthAdjust="spacingAndGlyphs" textLength="24" x="137.25" y="235.9102">final</text><text fill="#000000" font-family="sans-serif" font-size="12" lengthAdjust="spacingAndGlyphs" textLength="60" x="164.25" y="235.9102">CalypsoPo</text><line style="stroke: #A80036; stroke-width: 1.5;" x1="39" x2="279" y1="247" y2="247"/><line style="stroke: #A80036; stroke-width: 1.5;" x1="39" x2="279" y1="255" y2="255"/><polygon fill="#4177AF" points="49,262,45,268,53,268" style="stroke: #1963A0; stroke-width: 1.0;"/><text fill="#000000" font-family="sans-serif" font-size="11" lengthAdjust="spacingAndGlyphs" textLength="55" x="58" y="270.4189">CalypsoPo(</text><text fill="#FF0000" font-family="sans-serif" font-size="11" lengthAdjust="spacingAndGlyphs" textLength="157" x="113" y="270.4189">SeResponse selectionResponse</text><text fill="#000000" font-family="sans-serif" font-size="11" lengthAdjust="spacingAndGlyphs" textLength="4" x="270" y="270.4189">)</text><text fill="#000000" font-family="sans-serif" font-size="11" lengthAdjust="spacingAndGlyphs" textLength="0" x="61" y="284.2549"/><ellipse cx="49" cy="293.6719" fill="#84BE84" rx="3" ry="3" style="stroke: #038048; stroke-width: 1.0;"/><text fill="#000000" font-family="sans-serif" font-size="11" lengthAdjust="spacingAndGlyphs" textLength="92" x="58" y="298.0908">String getDfName()</text><ellipse cx="49" cy="307.5078" fill="#84BE84" rx="3" ry="3" style="stroke: #038048; stroke-width: 1.0;"/><text fill="#000000" font-family="sans-serif" font-size="11" lengthAdjust="spacingAndGlyphs" textLength="171" x="58" y="311.9268">String getApplicationSerialNumber()</text><ellipse cx="49" cy="321.3438" fill="#84BE84" rx="3" ry="3" style="stroke: #038048; stroke-width: 1.0;"/><text fill="#000000" font-family="sans-serif" font-size="11" lengthAdjust="spacingAndGlyphs" textLength="107" x="58" y="325.7627">String getStartupInfo()</text><text fill="#000000" font-family="sans-serif" font-size="11" lengthAdjust="spacingAndGlyphs" textLength="0" x="61" y="339.5986"/><ellipse cx="49" cy="349.0156" fill="#84BE84" rx="3" ry="3" style="stroke: #038048; stroke-width: 1.0;"/><text fill="#4169E1" font-family="sans-serif" font-size="11" font-style="italic" font-weight="bold" lengthAdjust="spacingAndGlyphs" textLength="89" x="58" y="353.4346">boolean is_Xxx()</text><text fill="#000000" font-family="sans-serif" font-size="11" lengthAdjust="spacingAndGlyphs" textLength="0" x="61" y="367.2705"/><ellipse cx="49" cy="376.6875" fill="#84BE84" rx="3" ry="3" style="stroke: #038048; stroke-width: 1.0;"/><text fill="#4169E1" font-family="sans-serif" font-size="11" font-style="italic" font-weight="bold" lengthAdjust="spacingAndGlyphs" textLength="96" x="58" y="381.1064">Xxx getData_Xxx()</text><!--MD5=[8eb5cec01ad571a9feeff1db4f73a667]
class PoTransaction--><rect fill="#FEFECE" height="144.8516" id="PoTransaction" style="stroke: #A80036; stroke-width: 1.5;" width="431" x="315.5" y="229"/><ellipse cx="481.25" cy="245" fill="#ADD1B2" rx="11" ry="11" style="stroke: #FFFFCC; stroke-width: 1.0;"/><path d="M483.25,241.5 Q483.4531,241 483.6875,240.75 Q483.9219,240.5 484.1875,240.5 Q484.6563,240.5 484.9531,240.7813 Q485.25,241.0625 485.25,241.7188 L485.25,243.2813 Q485.25,243.9375 484.9688,244.2188 Q484.6875,244.5 484.25,244.5 Q483.8594,244.5 483.6094,244.3281 Q483.3594,244.1563 483.25,243.7031 Q483.2031,243.3906 483.0313,243.2188 Q482.7188,242.8906 482.1563,242.7031 Q481.5938,242.5 481.0313,242.5 Q480.3281,242.5 479.7344,242.7813 Q479.1563,243.0625 478.7031,243.6875 Q478.25,244.3125 478.25,245.1719 L478.25,246.0938 Q478.25,247.125 479.0938,247.8125 Q479.9375,248.5 481.4375,248.5 Q482.3281,248.5 482.9531,248.2969 Q483.3125,248.1875 483.7188,247.8281 Q483.9844,247.625 484.125,247.5625 Q484.2656,247.5 484.4375,247.5 Q484.7656,247.5 485,247.7656 Q485.25,248.0156 485.25,248.375 Q485.25,248.7188 484.9063,249.125 Q484.4063,249.7188 483.6094,250.0469 Q482.5625,250.5 481.2813,250.5 Q479.7813,250.5 478.5781,249.9063 Q477.6094,249.4375 476.9219,248.4219 Q476.25,247.4063 476.25,246.2031 L476.25,245.1094 Q476.25,243.8594 476.8438,242.7656 Q477.4531,241.6719 478.5,241.0938 Q479.5625,240.5 480.75,240.5 Q481.4688,240.5 482.0938,240.75 Q482.7188,241 483.25,241.5 Z "/><ellipse cx="506.75" cy="244.5" fill="#84BE84" rx="3" ry="3" style="stroke: #038048; stroke-width: 1.0;"/><text fill="#000000" font-family="sans-serif" font-size="12" lengthAdjust="spacingAndGlyphs" textLength="80" x="512.75" y="249.9102">PoTransaction</text><line style="stroke: #A80036; stroke-width: 1.5;" x1="316.5" x2="745.5" y1="261" y2="261"/><line style="stroke: #A80036; stroke-width: 1.5;" x1="316.5" x2="745.5" y1="269" y2="269"/><ellipse cx="326.5" cy="280" fill="#84BE84" rx="3" ry="3" style="stroke: #038048; stroke-width: 1.0;"/><text fill="#000000" font-family="sans-serif" font-size="11" lengthAdjust="spacingAndGlyphs" textLength="405" x="335.5" y="284.4189">PoTransaction(SeResource&lt;CalypsoPo&gt; po, PoSecuritySetting[0..1] securitySetting)</text><text fill="#000000" font-family="sans-serif" font-size="11" lengthAdjust="spacingAndGlyphs" textLength="0" x="338.5" y="298.2549"/><ellipse cx="326.5" cy="307.6719" fill="#84BE84" rx="3" ry="3" style="stroke: #038048; stroke-width: 1.0;"/><text fill="#000000" font-family="sans-serif" font-size="11" font-weight="bold" lengthAdjust="spacingAndGlyphs" textLength="23" x="335.5" y="312.0908">final</text><text fill="#000000" font-family="sans-serif" font-size="11" lengthAdjust="spacingAndGlyphs" textLength="0" x="361.5" y="312.0908"/><text fill="#4169E1" font-family="sans-serif" font-size="11" font-style="italic" font-weight="bold" lengthAdjust="spacingAndGlyphs" textLength="131" x="361.5" y="312.0908">prepareCommand_Xxx()</text><text fill="#000000" font-family="sans-serif" font-size="11" lengthAdjust="spacingAndGlyphs" textLength="0" x="338.5" y="325.9268"/><ellipse cx="326.5" cy="335.3438" fill="#84BE84" rx="3" ry="3" style="stroke: #038048; stroke-width: 1.0;"/><text fill="#000000" font-family="sans-serif" font-size="11" font-weight="bold" lengthAdjust="spacingAndGlyphs" textLength="23" x="335.5" y="339.7627">final</text><text fill="#000000" font-family="sans-serif" font-size="11" lengthAdjust="spacingAndGlyphs" textLength="0" x="361.5" y="339.7627"/><text fill="#4169E1" font-family="sans-serif" font-size="11" font-style="italic" font-weight="bold" lengthAdjust="spacingAndGlyphs" textLength="182" x="361.5" y="339.7627">boolean processCommands_Xxx()</text><text fill="#000000" font-family="sans-serif" font-size="11" lengthAdjust="spacingAndGlyphs" textLength="0" x="338.5" y="353.5986"/><ellipse cx="326.5" cy="363.0156" fill="#84BE84" rx="3" ry="3" style="stroke: #038048; stroke-width: 1.0;"/><text fill="#000000" font-family="sans-serif" font-size="11" font-weight="bold" lengthAdjust="spacingAndGlyphs" textLength="23" x="335.5" y="367.4346">final</text><text fill="#000000" font-family="sans-serif" font-size="11" lengthAdjust="spacingAndGlyphs" textLength="0" x="361.5" y="367.4346"/><text fill="#4169E1" font-family="sans-serif" font-size="11" font-style="italic" font-weight="bold" lengthAdjust="spacingAndGlyphs" textLength="202" x="361.5" y="367.4346">Xxx_SecureData getXxx_SecureData()</text><!--MD5=[e4e6b0c197a4fe408c8d4c7214bc9356]
link PoResource to PoTransaction--><path d="M285.7,155.152 C318.347,174.496 359.562,198.917 398.842,222.192 " fill="none" id="PoResource-&gt;PoTransaction" style="stroke: #A80036; stroke-width: 1.0;"/><polygon fill="#FFFFFF" points="410.134,228.883,407.0116,222.383,399.8106,222.7652,402.933,229.2652,410.134,228.883" style="stroke: #A80036; stroke-width: 1.0;"/><text fill="#000000" font-family="sans-serif" font-size="13" lengthAdjust="spacingAndGlyphs" textLength="7" x="288.135" y="176.0568">1</text><text fill="#000000" font-family="sans-serif" font-size="13" lengthAdjust="spacingAndGlyphs" textLength="7" x="390.3088" y="218.0903">1</text><!--MD5=[7ef23bb65cbd7f21990abf12f0f9fb41]
link PoSecuritySetting to PoTransaction--><path d="M448.905,141.114 C458.847,160.417 473.657,189.17 487.973,216.963 " fill="none" id="PoSecuritySetting-&gt;PoTransaction" style="stroke: #A80036; stroke-width: 1.0;"/><polygon fill="#FFFFFF" points="494.062,228.785,494.8706,221.6194,488.5671,218.117,487.7586,225.2826,494.062,228.785" style="stroke: #A80036; stroke-width: 1.0;"/><text fill="#000000" font-family="sans-serif" font-size="13" lengthAdjust="spacingAndGlyphs" textLength="22" x="427.1256" y="162.4798">0..1</text><text fill="#000000" font-family="sans-serif" font-size="13" lengthAdjust="spacingAndGlyphs" textLength="7" x="482.8918" y="217.9822">1</text><!--MD5=[37dbed8b9216f61bc352547fd6848c07]
reverse link PoResource to CalypsoPo--><path d="M205.568,167.707 C200.44,182.333 194.676,198.768 188.997,214.963 " fill="none" id="PoResource&lt;-CalypsoPo" style="stroke: #A80036; stroke-width: 1.0;"/><polygon fill="#FFFFFF" points="209.894,155.372,204.1341,159.7106,205.9237,166.6962,211.6836,162.3575,209.894,155.372" style="stroke: #A80036; stroke-width: 1.0;"/><text fill="#000000" font-family="sans-serif" font-size="13" lengthAdjust="spacingAndGlyphs" textLength="7" x="200.2474" y="176.3118">1</text><text fill="#000000" font-family="sans-serif" font-size="13" lengthAdjust="spacingAndGlyphs" textLength="7" x="184.3569" y="204.0753">1</text><!--MD5=[a40139effe78355afd96e1fe38f816a4]
reverse link PoSecuritySetting to SamResource--><path d="M533.399,117 C540.745,117 548.091,117 555.437,117 " fill="none" id="PoSecuritySetting&lt;-SamResource" style="stroke: #A80036; stroke-width: 1.0;"/><polygon fill="#FFFFFF" points="520.176,117,526.176,121,532.176,117,526.176,113,520.176,117" style="stroke: #A80036; stroke-width: 1.0;"/><text fill="#000000" font-family="sans-serif" font-size="13" lengthAdjust="spacingAndGlyphs" textLength="7" x="532.0737" y="113.7983">1</text><text fill="#000000" font-family="sans-serif" font-size="13" lengthAdjust="spacingAndGlyphs" textLength="22" x="528.0128" y="131.698">0..1</text><!--MD5=[4fae7473818f03b79e7e0ec0aa516fd0]
link PoResource to SamResource--><!--MD5=[9dfa7ba939daa372bf3d9d2258287cc4]
@startuml
skinparam stereotypeIBorderColor BUSINESS
skinparam stereotypeCBorderColor BUSINESS
skinparam stereotypeEBorderColor BUSINESS
skinparam shadowing false

together {
  +class "SeResource<CalypsoPo>" as PoResource {
    +SeResource(<color:red>SeReader seReader</color>,
    CalypsoPo po);
  }

  +class "SeResource<CalypsoSam>" as SamResource {
    +SeResource(<color:red>SeReader seReader</color>,
    CalypsoSam sam);
  }

  +class "<b>final</b> PoSecuritySetting" as PoSecuritySetting {
  }

  +class "<b>final</b> CalypsoPo" as CalypsoPo {
    ~CalypsoPo(<color:red>SeResponse selectionResponse</color>)

    +String getDfName()
    +String getApplicationSerialNumber()
    +String getStartupInfo()

    +<color:royalBlue><b><i>boolean is_Xxx()</i></b></color>

    +<color:royalBlue><b><i>Xxx getData_Xxx()</i></b></color>
  }

  +class PoTransaction {
    +PoTransaction(SeResource<CalypsoPo> po, PoSecuritySetting[0..1] securitySetting)

    +<b>final</b> <color:royalBlue><b><i>prepareCommand_Xxx()</i></b></color>

    +<b>final</b> <color:royalBlue><b><i>boolean processCommands_Xxx()</i></b></color>

    +<b>final</b> <color:royalBlue><b><i>Xxx_SecureData getXxx_SecureData()</i></b></color>
  }

  PoTransaction "1" o-up- "1" PoResource
  PoTransaction "1" o-up- "0..1" PoSecuritySetting
  PoResource "1" o-down- "1" CalypsoPo
  SamResource "0..1 " -right-o " 1" PoSecuritySetting
  PoResource -right[hidden]- SamResource
}
@enduml

PlantUML version 1.2020.09(Sun May 10 14:51:06 MUT 2020)
(GPL source distribution)
Java Runtime: OpenJDK Runtime Environment
JVM: OpenJDK 64-Bit Server VM
Java Version: 11.0.6+8-b765.40
Operating System: Windows 10
Default Encoding: Cp1252
Language: fr
Country: FR
--></g></svg>