<?xml version="1.0" encoding="UTF-8" standalone="no"?><svg xmlns="http://www.w3.org/2000/svg" xmlns:xlink="http://www.w3.org/1999/xlink" contentScriptType="application/ecmascript" contentStyleType="text/css" height="1145px" preserveAspectRatio="none" style="width:1199px;height:1145px;" version="1.1" viewBox="0 0 1199 1145" width="1199px" zoomAndPan="magnify"><defs><filter height="300%" id="f1unw11m1kdclp" width="300%" x="-1" y="-1"><feGaussianBlur result="blurOut" stdDeviation="2.0"/><feColorMatrix in="blurOut" result="blurOut2" type="matrix" values="0 0 0 0 0 0 0 0 0 0 0 0 0 0 0 0 0 0 .4 0"/><feOffset dx="4.0" dy="4.0" in="blurOut2" result="blurOut3"/><feBlend in="SourceGraphic" in2="blurOut3" mode="normal"/></filter></defs><g><!--MD5=[ce7bfceea28453858a30d77f1599b96e]
cluster org.eclipse.keyple--><polygon fill="#FFFFFF" filter="url(#f1unw11m1kdclp)" points="22,24,157,24,164,47.6094,1177,47.6094,1177,1133,22,1133,22,24" style="stroke: #000000; stroke-width: 1.5;"/><line style="stroke: #000000; stroke-width: 1.5;" x1="22" x2="164" y1="47.6094" y2="47.6094"/><text fill="#000000" font-family="sans-serif" font-size="14" font-weight="bold" lengthAdjust="spacingAndGlyphs" textLength="129" x="26" y="40.5332">org.eclipse.keyple</text><!--MD5=[01435ace8273dc3cae88e7f376e4d373]
cluster core--><polygon fill="#FFFFFF" filter="url(#f1unw11m1kdclp)" points="382,227,420,227,427,250.6094,1153,250.6094,1153,1109,382,1109,382,227" style="stroke: #000000; stroke-width: 1.5;"/><line style="stroke: #000000; stroke-width: 1.5;" x1="382" x2="427" y1="250.6094" y2="250.6094"/><text fill="#000000" font-family="sans-serif" font-size="14" font-weight="bold" lengthAdjust="spacingAndGlyphs" textLength="32" x="386" y="243.5332">core</text><!--MD5=[50877fe469a156400d2d04beeda3ce9c]
cluster seproxy--><polygon fill="#FFFFFF" filter="url(#f1unw11m1kdclp)" points="408,271,470,271,477,294.6094,836,294.6094,836,426,408,426,408,271" style="stroke: #000000; stroke-width: 1.5;"/><line style="stroke: #000000; stroke-width: 1.5;" x1="408" x2="477" y1="294.6094" y2="294.6094"/><text fill="#000000" font-family="sans-serif" font-size="14" font-weight="bold" lengthAdjust="spacingAndGlyphs" textLength="56" x="412" y="287.5332">seproxy</text><!--MD5=[3400e5e1a9d8ffd8780970ed03335273]
cluster selection--><polygon fill="#FFFFFF" filter="url(#f1unw11m1kdclp)" points="406,459,477,459,484,482.6094,1129,482.6094,1129,1085,406,1085,406,459" style="stroke: #000000; stroke-width: 1.5;"/><line style="stroke: #000000; stroke-width: 1.5;" x1="406" x2="484" y1="482.6094" y2="482.6094"/><text fill="#000000" font-family="sans-serif" font-size="14" font-weight="bold" lengthAdjust="spacingAndGlyphs" textLength="65" x="410" y="475.5332">selection</text><!--MD5=[e49a056d45e206961a86949c8ace11e3]
cluster calypso.transaction--><polygon fill="#FFFFFF" filter="url(#f1unw11m1kdclp)" points="46,68,188,68,195,91.6094,358,91.6094,358,1064,46,1064,46,68" style="stroke: #000000; stroke-width: 1.5;"/><line style="stroke: #000000; stroke-width: 1.5;" x1="46" x2="195" y1="91.6094" y2="91.6094"/><text fill="#000000" font-family="sans-serif" font-size="14" font-weight="bold" lengthAdjust="spacingAndGlyphs" textLength="136" x="50" y="84.5332">calypso.transaction</text><!--MD5=[233c6f1f7c69be3daec88cbd55acc2d5]
class SeSelector--><rect fill="#FEFECE" filter="url(#f1unw11m1kdclp)" height="103.3438" id="SeSelector" style="stroke: #A80036; stroke-width: 1.5;" width="395" x="424.5" y="307"/><ellipse cx="582.25" cy="323" fill="#ADD1B2" rx="11" ry="11" style="stroke: #A80036; stroke-width: 1.0;"/><path d="M584.25,319.5 Q584.4531,319 584.6875,318.75 Q584.9219,318.5 585.1875,318.5 Q585.6563,318.5 585.9531,318.7813 Q586.25,319.0625 586.25,319.7188 L586.25,321.2813 Q586.25,321.9375 585.9688,322.2188 Q585.6875,322.5 585.25,322.5 Q584.8594,322.5 584.6094,322.3281 Q584.3594,322.1563 584.25,321.7031 Q584.2031,321.3906 584.0313,321.2188 Q583.7188,320.8906 583.1563,320.7031 Q582.5938,320.5 582.0313,320.5 Q581.3281,320.5 580.7344,320.7813 Q580.1563,321.0625 579.7031,321.6875 Q579.25,322.3125 579.25,323.1719 L579.25,324.0938 Q579.25,325.125 580.0938,325.8125 Q580.9375,326.5 582.4375,326.5 Q583.3281,326.5 583.9531,326.2969 Q584.3125,326.1875 584.7188,325.8281 Q584.9844,325.625 585.125,325.5625 Q585.2656,325.5 585.4375,325.5 Q585.7656,325.5 586,325.7656 Q586.25,326.0156 586.25,326.375 Q586.25,326.7188 585.9063,327.125 Q585.4063,327.7188 584.6094,328.0469 Q583.5625,328.5 582.2813,328.5 Q580.7813,328.5 579.5781,327.9063 Q578.6094,327.4375 577.9219,326.4219 Q577.25,325.4063 577.25,324.2031 L577.25,323.1094 Q577.25,321.8594 577.8438,320.7656 Q578.4531,319.6719 579.5,319.0938 Q580.5625,318.5 581.75,318.5 Q582.4688,318.5 583.0938,318.75 Q583.7188,319 584.25,319.5 Z "/><ellipse cx="607.75" cy="322.5" fill="#84BE84" rx="3" ry="3" style="stroke: #038048; stroke-width: 1.0;"/><text fill="#000000" font-family="sans-serif" font-size="12" lengthAdjust="spacingAndGlyphs" textLength="60" x="613.75" y="327.9102">SeSelector</text><line style="stroke: #A80036; stroke-width: 1.5;" x1="425.5" x2="818.5" y1="339" y2="339"/><line style="stroke: #A80036; stroke-width: 1.5;" x1="425.5" x2="818.5" y1="347" y2="347"/><ellipse cx="435.5" cy="358" fill="#84BE84" rx="3" ry="3" style="stroke: #038048; stroke-width: 1.0;"/><text fill="#000000" font-family="sans-serif" font-size="11" lengthAdjust="spacingAndGlyphs" textLength="369" x="444.5" y="362.4189">SeSelector(SeProtocol seProtocol, AtrFilter atrFilter, AidSelector aidSelector)</text><ellipse cx="435.5" cy="371.8359" fill="#84BE84" rx="3" ry="3" style="stroke: #038048; stroke-width: 1.0;"/><text fill="#000000" font-family="sans-serif" font-size="11" lengthAdjust="spacingAndGlyphs" textLength="130" x="444.5" y="376.2549">SeProtocol getSeProtocol()</text><ellipse cx="435.5" cy="385.6719" fill="#84BE84" rx="3" ry="3" style="stroke: #038048; stroke-width: 1.0;"/><text fill="#000000" font-family="sans-serif" font-size="11" lengthAdjust="spacingAndGlyphs" textLength="102" x="444.5" y="390.0908">AtrFilter getAtrFilter()</text><ellipse cx="435.5" cy="399.5078" fill="#84BE84" rx="3" ry="3" style="stroke: #038048; stroke-width: 1.0;"/><text fill="#000000" font-family="sans-serif" font-size="11" lengthAdjust="spacingAndGlyphs" textLength="138" x="444.5" y="403.9268">AidSelector getAidSelector()</text><!--MD5=[2bff4e731e7da2a8565e3debd2f462d8]
class SeSelection--><rect fill="#FEFECE" filter="url(#f1unw11m1kdclp)" height="186.3594" id="SeSelection" style="stroke: #A80036; stroke-width: 1.5;" width="368" x="745" y="732"/><ellipse cx="872.75" cy="748" fill="#ADD1B2" rx="11" ry="11" style="stroke: #A80036; stroke-width: 1.0;"/><path d="M874.75,744.5 Q874.9531,744 875.1875,743.75 Q875.4219,743.5 875.6875,743.5 Q876.1563,743.5 876.4531,743.7813 Q876.75,744.0625 876.75,744.7188 L876.75,746.2813 Q876.75,746.9375 876.4688,747.2188 Q876.1875,747.5 875.75,747.5 Q875.3594,747.5 875.1094,747.3281 Q874.8594,747.1563 874.75,746.7031 Q874.7031,746.3906 874.5313,746.2188 Q874.2188,745.8906 873.6563,745.7031 Q873.0938,745.5 872.5313,745.5 Q871.8281,745.5 871.2344,745.7813 Q870.6563,746.0625 870.2031,746.6875 Q869.75,747.3125 869.75,748.1719 L869.75,749.0938 Q869.75,750.125 870.5938,750.8125 Q871.4375,751.5 872.9375,751.5 Q873.8281,751.5 874.4531,751.2969 Q874.8125,751.1875 875.2188,750.8281 Q875.4844,750.625 875.625,750.5625 Q875.7656,750.5 875.9375,750.5 Q876.2656,750.5 876.5,750.7656 Q876.75,751.0156 876.75,751.375 Q876.75,751.7188 876.4063,752.125 Q875.9063,752.7188 875.1094,753.0469 Q874.0625,753.5 872.7813,753.5 Q871.2813,753.5 870.0781,752.9063 Q869.1094,752.4375 868.4219,751.4219 Q867.75,750.4063 867.75,749.2031 L867.75,748.1094 Q867.75,746.8594 868.3438,745.7656 Q868.9531,744.6719 870,744.0938 Q871.0625,743.5 872.25,743.5 Q872.9688,743.5 873.5938,743.75 Q874.2188,744 874.75,744.5 Z "/><ellipse cx="898.25" cy="747.5" fill="#84BE84" rx="3" ry="3" style="stroke: #038048; stroke-width: 1.0;"/><text fill="#000000" font-family="sans-serif" font-size="12" font-weight="bold" lengthAdjust="spacingAndGlyphs" textLength="24" x="904.25" y="752.9102">final</text><text fill="#000000" font-family="sans-serif" font-size="12" lengthAdjust="spacingAndGlyphs" textLength="66" x="931.25" y="752.9102">SeSelection</text><line style="stroke: #A80036; stroke-width: 1.5;" x1="746" x2="1112" y1="764" y2="764"/><line style="stroke: #A80036; stroke-width: 1.5;" x1="746" x2="1112" y1="772" y2="772"/><ellipse cx="756" cy="783" fill="#84BE84" rx="3" ry="3" style="stroke: #038048; stroke-width: 1.0;"/><text fill="#000000" font-family="sans-serif" font-size="11" lengthAdjust="spacingAndGlyphs" textLength="323" x="765" y="787.4189">SeSelection(MultiSeRequestProcessing multiSeRequestProcessing,</text><text fill="#000000" font-family="sans-serif" font-size="11" lengthAdjust="spacingAndGlyphs" textLength="152" x="765" y="801.2549">ChannelControl channelControl)</text><text fill="#000000" font-family="sans-serif" font-size="11" lengthAdjust="spacingAndGlyphs" textLength="0" x="768" y="815.0908"/><ellipse cx="756" cy="824.5078" fill="#84BE84" rx="3" ry="3" style="stroke: #038048; stroke-width: 1.0;"/><text fill="#000000" font-family="sans-serif" font-size="11" lengthAdjust="spacingAndGlyphs" textLength="342" x="765" y="828.9268">int prepareSelection(AbstractSeSelectionRequest seSelectionRequest)</text><text fill="#000000" font-family="sans-serif" font-size="11" lengthAdjust="spacingAndGlyphs" textLength="0" x="768" y="842.7627"/><ellipse cx="756" cy="852.1797" fill="#84BE84" rx="3" ry="3" style="stroke: #038048; stroke-width: 1.0;"/><text fill="#000000" font-family="sans-serif" font-size="11" lengthAdjust="spacingAndGlyphs" textLength="306" x="765" y="856.5986">SelectionsResult processExplicitSelection(SeReader seReader)</text><text fill="#000000" font-family="sans-serif" font-size="11" lengthAdjust="spacingAndGlyphs" textLength="0" x="768" y="870.4346"/><ellipse cx="756" cy="879.8516" fill="#84BE84" rx="3" ry="3" style="stroke: #038048; stroke-width: 1.0;"/><text fill="#000000" font-family="sans-serif" font-size="11" lengthAdjust="spacingAndGlyphs" textLength="283" x="765" y="884.2705">AbstractDefaultSelectionsRequest getSelectionOperation()</text><ellipse cx="756" cy="893.6875" fill="#84BE84" rx="3" ry="3" style="stroke: #038048; stroke-width: 1.0;"/><text fill="#000000" font-family="sans-serif" font-size="11" lengthAdjust="spacingAndGlyphs" textLength="205" x="765" y="898.1064">SelectionsResult processDefaultSelection(</text><text fill="#000000" font-family="sans-serif" font-size="11" lengthAdjust="spacingAndGlyphs" textLength="274" x="765" y="911.9424">AbstractDefaultSelectionsResponse selectionResponse)</text><!--MD5=[60234a7c460e6555bb7d6c6c7e00297f]
class AbstractSeSelectionRequest--><rect fill="#FEFECE" filter="url(#f1unw11m1kdclp)" height="144.8516" id="AbstractSeSelectionRequest" style="stroke: #A80036; stroke-width: 1.5;" width="293" x="437.5" y="495"/><ellipse cx="495.75" cy="511" fill="#A9DCDF" rx="11" ry="11" style="stroke: #A80036; stroke-width: 1.0;"/><path d="M497.5,512.5 L494.2031,512.5 L493.7656,513.5 L493.7656,513.5 L494.2344,513.5 L494.75,514.125 L494.75,514.5 L494.75,514.875 L494.2344,515.5 L493.7656,515.5 L491.875,515.5 L491.2656,515.5 L490.75,514.875 L490.75,514.5 L490.75,514.125 L491.2656,513.5 L491.875,513.5 L494.1875,507.5 L493.3125,507.5 L492.2656,507.5 L491.75,506.875 L491.75,506.5 L491.75,506.125 L492.2656,505.5 L493.3125,505.5 L496.9844,505.5 L499.6719,513.5 L500.2344,513.5 L500.2344,513.5 L500.75,514.125 L500.75,514.5 L500.75,514.875 L500.2344,515.5 L499.6719,515.5 L497.7813,515.5 L497.2656,515.5 L496.75,514.875 L496.75,514.5 L496.75,514.125 L497.2656,513.5 L497.7813,513.5 L497.7813,513.5 L497.5,512.5 Z M496.9531,510.5 L495.75,506.9219 L494.7188,510.5 L496.9531,510.5 Z "/><ellipse cx="521.25" cy="510.5" fill="#84BE84" rx="3" ry="3" style="stroke: #038048; stroke-width: 1.0;"/><text fill="#000000" font-family="sans-serif" font-size="12" font-style="italic" lengthAdjust="spacingAndGlyphs" textLength="157" x="527.25" y="515.9102">AbstractSeSelectionRequest</text><line style="stroke: #A80036; stroke-width: 1.5;" x1="438.5" x2="729.5" y1="527" y2="527"/><line style="stroke: #A80036; stroke-width: 1.5;" x1="438.5" x2="729.5" y1="535" y2="535"/><ellipse cx="448.5" cy="546" fill="#84BE84" rx="3" ry="3" style="stroke: #038048; stroke-width: 1.0;"/><text fill="#000000" font-family="sans-serif" font-size="11" lengthAdjust="spacingAndGlyphs" textLength="255" x="457.5" y="550.4189">AbstractSeSelectionRequest(SeSelector seSelector)</text><text fill="#000000" font-family="sans-serif" font-size="11" lengthAdjust="spacingAndGlyphs" textLength="0" x="460.5" y="564.2549"/><polygon fill="#FFFF44" points="448.5,568.6719,452.5,572.6719,448.5,576.6719,444.5,572.6719" style="stroke: #B38D22; stroke-width: 1.0;"/><text fill="#000000" font-family="sans-serif" font-size="11" font-weight="bold" lengthAdjust="spacingAndGlyphs" textLength="23" x="457.5" y="578.0908">final</text><text fill="#000000" font-family="sans-serif" font-size="11" lengthAdjust="spacingAndGlyphs" textLength="225" x="483.5" y="578.0908">addApduRequest(ApduRequest apduRequest)</text><polygon fill="#4177AF" points="448.5,583.5078,444.5,589.5078,452.5,589.5078" style="stroke: #1963A0; stroke-width: 1.0;"/><text fill="#000000" font-family="sans-serif" font-size="11" font-weight="bold" lengthAdjust="spacingAndGlyphs" textLength="23" x="457.5" y="591.9268">final</text><text fill="#000000" font-family="sans-serif" font-size="11" lengthAdjust="spacingAndGlyphs" textLength="163" x="483.5" y="591.9268">SeRequest getSelectionRequest()</text><polygon fill="#FFFF44" points="448.5,596.3438,452.5,600.3438,448.5,604.3438,444.5,600.3438" style="stroke: #B38D22; stroke-width: 1.0;"/><text fill="#000000" font-family="sans-serif" font-size="11" font-style="italic" lengthAdjust="spacingAndGlyphs" textLength="267" x="457.5" y="605.7627">AbstractMatchingSe parse(SeResponse seResponse)</text><text fill="#000000" font-family="sans-serif" font-size="11" lengthAdjust="spacingAndGlyphs" textLength="0" x="460.5" y="619.5986"/><ellipse cx="448.5" cy="629.0156" fill="#84BE84" rx="3" ry="3" style="stroke: #038048; stroke-width: 1.0;"/><text fill="#000000" font-family="sans-serif" font-size="11" lengthAdjust="spacingAndGlyphs" textLength="132" x="457.5" y="633.4346">SeSelector getSeSelector()</text><!--MD5=[aa5d6839ccbb06c03d79569335a94e56]
class AbstractMatchingSe--><rect fill="#FEFECE" filter="url(#f1unw11m1kdclp)" height="158.6875" id="AbstractMatchingSe" style="stroke: #A80036; stroke-width: 1.5;" width="288" x="422" y="745.5"/><ellipse cx="501.75" cy="761.5" fill="#A9DCDF" rx="11" ry="11" style="stroke: #A80036; stroke-width: 1.0;"/><path d="M503.5,763 L500.2031,763 L499.7656,764 L499.7656,764 L500.2344,764 L500.75,764.625 L500.75,765 L500.75,765.375 L500.2344,766 L499.7656,766 L497.875,766 L497.2656,766 L496.75,765.375 L496.75,765 L496.75,764.625 L497.2656,764 L497.875,764 L500.1875,758 L499.3125,758 L498.2656,758 L497.75,757.375 L497.75,757 L497.75,756.625 L498.2656,756 L499.3125,756 L502.9844,756 L505.6719,764 L506.2344,764 L506.2344,764 L506.75,764.625 L506.75,765 L506.75,765.375 L506.2344,766 L505.6719,766 L503.7813,766 L503.2656,766 L502.75,765.375 L502.75,765 L502.75,764.625 L503.2656,764 L503.7813,764 L503.7813,764 L503.5,763 Z M502.9531,761 L501.75,757.4219 L500.7188,761 L502.9531,761 Z "/><ellipse cx="527.25" cy="761" fill="#84BE84" rx="3" ry="3" style="stroke: #038048; stroke-width: 1.0;"/><text fill="#000000" font-family="sans-serif" font-size="12" font-style="italic" lengthAdjust="spacingAndGlyphs" textLength="109" x="533.25" y="766.4102">AbstractMatchingSe</text><line style="stroke: #A80036; stroke-width: 1.5;" x1="423" x2="709" y1="777.5" y2="777.5"/><line style="stroke: #A80036; stroke-width: 1.5;" x1="423" x2="709" y1="785.5" y2="785.5"/><polygon fill="#FFFF44" points="433,791.5,437,795.5,433,799.5,429,795.5" style="stroke: #B38D22; stroke-width: 1.0;"/><text fill="#000000" font-family="sans-serif" font-size="11" lengthAdjust="spacingAndGlyphs" textLength="262" x="442" y="800.9189">AbstractMatchingSe(SeResponse selectionResponse,</text><text fill="#000000" font-family="sans-serif" font-size="11" lengthAdjust="spacingAndGlyphs" textLength="184" x="442" y="814.7549">TransmissionMode transmissionMode)</text><text fill="#000000" font-family="sans-serif" font-size="11" lengthAdjust="spacingAndGlyphs" textLength="0" x="445" y="828.5908"/><ellipse cx="433" cy="838.0078" fill="#84BE84" rx="3" ry="3" style="stroke: #038048; stroke-width: 1.0;"/><text fill="#000000" font-family="sans-serif" font-size="11" lengthAdjust="spacingAndGlyphs" textLength="206" x="442" y="842.4268">TransmissionMode getTransmissionMode()</text><ellipse cx="433" cy="851.8438" fill="#84BE84" rx="3" ry="3" style="stroke: #038048; stroke-width: 1.0;"/><text fill="#000000" font-family="sans-serif" font-size="11" lengthAdjust="spacingAndGlyphs" textLength="82" x="442" y="856.2627">boolean hasAtr()</text><ellipse cx="433" cy="865.6797" fill="#84BE84" rx="3" ry="3" style="stroke: #038048; stroke-width: 1.0;"/><text fill="#000000" font-family="sans-serif" font-size="11" lengthAdjust="spacingAndGlyphs" textLength="96" x="442" y="870.0986">byte[] getAtrBytes()</text><ellipse cx="433" cy="879.5156" fill="#84BE84" rx="3" ry="3" style="stroke: #038048; stroke-width: 1.0;"/><text fill="#000000" font-family="sans-serif" font-size="11" lengthAdjust="spacingAndGlyphs" textLength="81" x="442" y="883.9346">boolean hasFci()</text><ellipse cx="433" cy="893.3516" fill="#84BE84" rx="3" ry="3" style="stroke: #038048; stroke-width: 1.0;"/><text fill="#000000" font-family="sans-serif" font-size="11" lengthAdjust="spacingAndGlyphs" textLength="95" x="442" y="897.7705">byte[] getFciBytes()</text><!--MD5=[d2d35555969a91c84a420819b098404b]
class SeResource_T--><rect fill="#FEFECE" filter="url(#f1unw11m1kdclp)" height="89.5078" id="SeResource_T" style="stroke: #A80036; stroke-width: 1.5;" width="308" x="422" y="979"/><ellipse cx="437" cy="995" fill="#ADD1B2" rx="11" ry="11" style="stroke: #A80036; stroke-width: 1.0;"/><path d="M439,991.5 Q439.2031,991 439.4375,990.75 Q439.6719,990.5 439.9375,990.5 Q440.4063,990.5 440.7031,990.7813 Q441,991.0625 441,991.7188 L441,993.2813 Q441,993.9375 440.7188,994.2188 Q440.4375,994.5 440,994.5 Q439.6094,994.5 439.3594,994.3281 Q439.1094,994.1563 439,993.7031 Q438.9531,993.3906 438.7813,993.2188 Q438.4688,992.8906 437.9063,992.7031 Q437.3438,992.5 436.7813,992.5 Q436.0781,992.5 435.4844,992.7813 Q434.9063,993.0625 434.4531,993.6875 Q434,994.3125 434,995.1719 L434,996.0938 Q434,997.125 434.8438,997.8125 Q435.6875,998.5 437.1875,998.5 Q438.0781,998.5 438.7031,998.2969 Q439.0625,998.1875 439.4688,997.8281 Q439.7344,997.625 439.875,997.5625 Q440.0156,997.5 440.1875,997.5 Q440.5156,997.5 440.75,997.7656 Q441,998.0156 441,998.375 Q441,998.7188 440.6563,999.125 Q440.1563,999.7188 439.3594,1000.0469 Q438.3125,1000.5 437.0313,1000.5 Q435.5313,1000.5 434.3281,999.9063 Q433.3594,999.4375 432.6719,998.4219 Q432,997.4063 432,996.2031 L432,995.1094 Q432,993.8594 432.5938,992.7656 Q433.2031,991.6719 434.25,991.0938 Q435.3125,990.5 436.5,990.5 Q437.2188,990.5 437.8438,990.75 Q438.4688,991 439,991.5 Z "/><ellipse cx="456" cy="994.5" fill="#84BE84" rx="3" ry="3" style="stroke: #038048; stroke-width: 1.0;"/><text fill="#000000" font-family="sans-serif" font-size="12" font-weight="bold" lengthAdjust="spacingAndGlyphs" textLength="24" x="462" y="999.9102">final</text><text fill="#000000" font-family="sans-serif" font-size="12" lengthAdjust="spacingAndGlyphs" textLength="69" x="489" y="999.9102">SeResource</text><rect fill="#FFFFFF" height="17.0938" style="stroke: #000000; stroke-width: 1.0; stroke-dasharray: 2.0,2.0;" width="167" x="566" y="976"/><text fill="#000000" font-family="sans-serif" font-size="12" font-style="italic" lengthAdjust="spacingAndGlyphs" textLength="165" x="567" y="989.457">T extends AbstractMatchingSe</text><line style="stroke: #A80036; stroke-width: 1.5;" x1="423" x2="729" y1="1011" y2="1011"/><line style="stroke: #A80036; stroke-width: 1.5;" x1="423" x2="729" y1="1019" y2="1019"/><polygon fill="#FFFF44" points="433,1025,437,1029,433,1033,429,1029" style="stroke: #B38D22; stroke-width: 1.0;"/><text fill="#000000" font-family="sans-serif" font-size="11" lengthAdjust="spacingAndGlyphs" textLength="240" x="442" y="1034.4189">SeResource(SeReader seReader, T matchingSe);</text><ellipse cx="433" cy="1043.8359" fill="#84BE84" rx="3" ry="3" style="stroke: #038048; stroke-width: 1.0;"/><text fill="#000000" font-family="sans-serif" font-size="11" lengthAdjust="spacingAndGlyphs" textLength="125" x="442" y="1048.2549">SeReader getSeReader();</text><ellipse cx="433" cy="1057.6719" fill="#84BE84" rx="3" ry="3" style="stroke: #038048; stroke-width: 1.0;"/><text fill="#000000" font-family="sans-serif" font-size="11" lengthAdjust="spacingAndGlyphs" textLength="91" x="442" y="1062.0908">T getMatchingSe();</text><!--MD5=[bb5d923135655fe334dd8e21d863bc58]
class InvalidatedPo--><rect fill="#FEFECE" filter="url(#f1unw11m1kdclp)" height="75.6719" id="InvalidatedPo" style="stroke: #A80036; stroke-width: 1.5;" width="117" x="143.5" y="104"/><ellipse cx="158.5" cy="120" fill="#EB937F" rx="11" ry="11" style="stroke: #A80036; stroke-width: 1.0;"/><path d="M157,121 L157,123 L161,123 L161,122 L161,121.5156 L161.625,121 L162,121 L162.375,121 L163,121.5156 L163,122 L163,125 L155,125 L154.5156,125 L154,124.375 L154,124 L154,123.625 L154.5156,123 L155,123 L155,123 L155,117 L155,117 L154.5156,117 L154,116.375 L154,116 L154,115.625 L154.5156,115 L155,115 L163,115 L163,118 L163,118.4844 L162.375,119 L162,119 L161.625,119 L161,118.4844 L161,118 L161,117 L157,117 L157,119 L158,119 L158,118.5156 L158,118.5156 L158.625,118 L159,118 L159.375,118 L160,118.5156 L160,119 L160,121 L160,121.4844 L159.375,122 L159.375,122 L159,122 L158.625,122 L158,121.4844 L158,121.4844 L158,121 L157,121 Z "/><ellipse cx="177.5" cy="119.5" fill="#84BE84" rx="3" ry="3" style="stroke: #038048; stroke-width: 1.0;"/><text fill="#000000" font-family="sans-serif" font-size="12" lengthAdjust="spacingAndGlyphs" textLength="74" x="183.5" y="124.9102">InvalidatedPo</text><line style="stroke: #A80036; stroke-width: 1.5;" x1="144.5" x2="259.5" y1="136" y2="136"/><text fill="#000000" font-family="sans-serif" font-size="11" lengthAdjust="spacingAndGlyphs" textLength="37" x="149.5" y="151.4189">REJECT</text><text fill="#000000" font-family="sans-serif" font-size="11" lengthAdjust="spacingAndGlyphs" textLength="40" x="149.5" y="165.2549">ACCEPT</text><line style="stroke: #A80036; stroke-width: 1.5;" x1="144.5" x2="259.5" y1="171.6719" y2="171.6719"/><!--MD5=[910d44511a3d946a5594aedf23a2c57e]
class PoSelector--><rect fill="#FEFECE" filter="url(#f1unw11m1kdclp)" height="75.6719" id="PoSelector" style="stroke: #A80036; stroke-width: 1.5;" width="280" x="62" y="320.5"/><ellipse cx="148.75" cy="336.5" fill="#ADD1B2" rx="11" ry="11" style="stroke: #A80036; stroke-width: 1.0;"/><path d="M150.75,333 Q150.9531,332.5 151.1875,332.25 Q151.4219,332 151.6875,332 Q152.1563,332 152.4531,332.2813 Q152.75,332.5625 152.75,333.2188 L152.75,334.7813 Q152.75,335.4375 152.4688,335.7188 Q152.1875,336 151.75,336 Q151.3594,336 151.1094,335.8281 Q150.8594,335.6563 150.75,335.2031 Q150.7031,334.8906 150.5313,334.7188 Q150.2188,334.3906 149.6563,334.2031 Q149.0938,334 148.5313,334 Q147.8281,334 147.2344,334.2813 Q146.6563,334.5625 146.2031,335.1875 Q145.75,335.8125 145.75,336.6719 L145.75,337.5938 Q145.75,338.625 146.5938,339.3125 Q147.4375,340 148.9375,340 Q149.8281,340 150.4531,339.7969 Q150.8125,339.6875 151.2188,339.3281 Q151.4844,339.125 151.625,339.0625 Q151.7656,339 151.9375,339 Q152.2656,339 152.5,339.2656 Q152.75,339.5156 152.75,339.875 Q152.75,340.2188 152.4063,340.625 Q151.9063,341.2188 151.1094,341.5469 Q150.0625,342 148.7813,342 Q147.2813,342 146.0781,341.4063 Q145.1094,340.9375 144.4219,339.9219 Q143.75,338.9063 143.75,337.7031 L143.75,336.6094 Q143.75,335.3594 144.3438,334.2656 Q144.9531,333.1719 146,332.5938 Q147.0625,332 148.25,332 Q148.9688,332 149.5938,332.25 Q150.2188,332.5 150.75,333 Z "/><ellipse cx="174.25" cy="336" fill="#84BE84" rx="3" ry="3" style="stroke: #038048; stroke-width: 1.0;"/><text fill="#000000" font-family="sans-serif" font-size="12" font-weight="bold" lengthAdjust="spacingAndGlyphs" textLength="24" x="180.25" y="341.4102">final</text><text fill="#000000" font-family="sans-serif" font-size="12" lengthAdjust="spacingAndGlyphs" textLength="60" x="207.25" y="341.4102">PoSelector</text><line style="stroke: #A80036; stroke-width: 1.5;" x1="63" x2="341" y1="352.5" y2="352.5"/><line style="stroke: #A80036; stroke-width: 1.5;" x1="63" x2="341" y1="360.5" y2="360.5"/><ellipse cx="73" cy="371.5" fill="#84BE84" rx="3" ry="3" style="stroke: #038048; stroke-width: 1.0;"/><text fill="#000000" font-family="sans-serif" font-size="11" lengthAdjust="spacingAndGlyphs" textLength="248" x="82" y="375.9189">PoSelector(SeProtocol seProtocol, AtrFilter atrFilter,</text><text fill="#000000" font-family="sans-serif" font-size="11" lengthAdjust="spacingAndGlyphs" textLength="254" x="82" y="389.7549">AidSelector aidToSelect, InvalidatedPo invalidatedPo)</text><!--MD5=[eb197b32301e657fb343d0b6ac62ab90]
class PoSelectionRequest--><rect fill="#FEFECE" filter="url(#f1unw11m1kdclp)" height="172.5234" id="PoSelectionRequest" style="stroke: #A80036; stroke-width: 1.5;" width="273" x="68.5" y="481"/><ellipse cx="125.25" cy="497" fill="#ADD1B2" rx="11" ry="11" style="stroke: #A80036; stroke-width: 1.0;"/><path d="M127.25,493.5 Q127.4531,493 127.6875,492.75 Q127.9219,492.5 128.1875,492.5 Q128.6563,492.5 128.9531,492.7813 Q129.25,493.0625 129.25,493.7188 L129.25,495.2813 Q129.25,495.9375 128.9688,496.2188 Q128.6875,496.5 128.25,496.5 Q127.8594,496.5 127.6094,496.3281 Q127.3594,496.1563 127.25,495.7031 Q127.2031,495.3906 127.0313,495.2188 Q126.7188,494.8906 126.1563,494.7031 Q125.5938,494.5 125.0313,494.5 Q124.3281,494.5 123.7344,494.7813 Q123.1563,495.0625 122.7031,495.6875 Q122.25,496.3125 122.25,497.1719 L122.25,498.0938 Q122.25,499.125 123.0938,499.8125 Q123.9375,500.5 125.4375,500.5 Q126.3281,500.5 126.9531,500.2969 Q127.3125,500.1875 127.7188,499.8281 Q127.9844,499.625 128.125,499.5625 Q128.2656,499.5 128.4375,499.5 Q128.7656,499.5 129,499.7656 Q129.25,500.0156 129.25,500.375 Q129.25,500.7188 128.9063,501.125 Q128.4063,501.7188 127.6094,502.0469 Q126.5625,502.5 125.2813,502.5 Q123.7813,502.5 122.5781,501.9063 Q121.6094,501.4375 120.9219,500.4219 Q120.25,499.4063 120.25,498.2031 L120.25,497.1094 Q120.25,495.8594 120.8438,494.7656 Q121.4531,493.6719 122.5,493.0938 Q123.5625,492.5 124.75,492.5 Q125.4688,492.5 126.0938,492.75 Q126.7188,493 127.25,493.5 Z "/><ellipse cx="150.75" cy="496.5" fill="#84BE84" rx="3" ry="3" style="stroke: #038048; stroke-width: 1.0;"/><text fill="#000000" font-family="sans-serif" font-size="12" font-weight="bold" lengthAdjust="spacingAndGlyphs" textLength="24" x="156.75" y="501.9102">final</text><text fill="#000000" font-family="sans-serif" font-size="12" lengthAdjust="spacingAndGlyphs" textLength="113" x="183.75" y="501.9102">PoSelectionRequest</text><line style="stroke: #A80036; stroke-width: 1.5;" x1="69.5" x2="340.5" y1="513" y2="513"/><line style="stroke: #A80036; stroke-width: 1.5;" x1="69.5" x2="340.5" y1="521" y2="521"/><ellipse cx="79.5" cy="532" fill="#84BE84" rx="3" ry="3" style="stroke: #038048; stroke-width: 1.0;"/><text fill="#000000" font-family="sans-serif" font-size="11" lengthAdjust="spacingAndGlyphs" textLength="211" x="88.5" y="536.4189">PoSelectionRequest(PoSelector seSelector)</text><text fill="#000000" font-family="sans-serif" font-size="11" lengthAdjust="spacingAndGlyphs" textLength="0" x="91.5" y="550.2549"/><ellipse cx="79.5" cy="559.6719" fill="#84BE84" rx="3" ry="3" style="stroke: #038048; stroke-width: 1.0;"/><text fill="#000000" font-family="sans-serif" font-size="11" lengthAdjust="spacingAndGlyphs" textLength="143" x="88.5" y="564.0908">prepareSelectFile(byte[] path)</text><ellipse cx="79.5" cy="573.5078" fill="#84BE84" rx="3" ry="3" style="stroke: #038048; stroke-width: 1.0;"/><text fill="#000000" font-family="sans-serif" font-size="11" lengthAdjust="spacingAndGlyphs" textLength="133" x="88.5" y="577.9268">prepareSelectFile(shord lid)</text><ellipse cx="79.5" cy="587.3438" fill="#84BE84" rx="3" ry="3" style="stroke: #038048; stroke-width: 1.0;"/><text fill="#000000" font-family="sans-serif" font-size="11" lengthAdjust="spacingAndGlyphs" textLength="222" x="88.5" y="591.7627">prepareSelectFile(SelectControl selectControl)</text><text fill="#000000" font-family="sans-serif" font-size="11" lengthAdjust="spacingAndGlyphs" textLength="0" x="91.5" y="605.5986"/><ellipse cx="79.5" cy="615.0156" fill="#84BE84" rx="3" ry="3" style="stroke: #038048; stroke-width: 1.0;"/><text fill="#000000" font-family="sans-serif" font-size="11" lengthAdjust="spacingAndGlyphs" textLength="247" x="88.5" y="619.4346">prepareReadRecordFile(byte sfi, int recordNumber)</text><text fill="#000000" font-family="sans-serif" font-size="11" lengthAdjust="spacingAndGlyphs" textLength="0" x="91.5" y="633.2705"/><polygon fill="#FFFF44" points="79.5,637.6875,83.5,641.6875,79.5,645.6875,75.5,641.6875" style="stroke: #B38D22; stroke-width: 1.0;"/><text fill="#000000" font-family="sans-serif" font-size="11" lengthAdjust="spacingAndGlyphs" textLength="216" x="88.5" y="647.1064">CalypsoPo parse(SeResponse seResponse)</text><!--MD5=[e8e21ba3995782366e9aa9ad2c6b2d5f]
class PoResource--><rect fill="#FEFECE" filter="url(#f1unw11m1kdclp)" height="48" id="PoResource" style="stroke: #A80036; stroke-width: 1.5;" width="203" x="129.5" y="1000"/><ellipse cx="144.5" cy="1016" fill="#ADD1B2" rx="11" ry="11" style="stroke: #A80036; stroke-width: 1.0;"/><path d="M146.5,1012.5 Q146.7031,1012 146.9375,1011.75 Q147.1719,1011.5 147.4375,1011.5 Q147.9063,1011.5 148.2031,1011.7813 Q148.5,1012.0625 148.5,1012.7188 L148.5,1014.2813 Q148.5,1014.9375 148.2188,1015.2188 Q147.9375,1015.5 147.5,1015.5 Q147.1094,1015.5 146.8594,1015.3281 Q146.6094,1015.1563 146.5,1014.7031 Q146.4531,1014.3906 146.2813,1014.2188 Q145.9688,1013.8906 145.4063,1013.7031 Q144.8438,1013.5 144.2813,1013.5 Q143.5781,1013.5 142.9844,1013.7813 Q142.4063,1014.0625 141.9531,1014.6875 Q141.5,1015.3125 141.5,1016.1719 L141.5,1017.0938 Q141.5,1018.125 142.3438,1018.8125 Q143.1875,1019.5 144.6875,1019.5 Q145.5781,1019.5 146.2031,1019.2969 Q146.5625,1019.1875 146.9688,1018.8281 Q147.2344,1018.625 147.375,1018.5625 Q147.5156,1018.5 147.6875,1018.5 Q148.0156,1018.5 148.25,1018.7656 Q148.5,1019.0156 148.5,1019.375 Q148.5,1019.7188 148.1563,1020.125 Q147.6563,1020.7188 146.8594,1021.0469 Q145.8125,1021.5 144.5313,1021.5 Q143.0313,1021.5 141.8281,1020.9063 Q140.8594,1020.4375 140.1719,1019.4219 Q139.5,1018.4063 139.5,1017.2031 L139.5,1016.1094 Q139.5,1014.8594 140.0938,1013.7656 Q140.7031,1012.6719 141.75,1012.0938 Q142.8125,1011.5 144,1011.5 Q144.7188,1011.5 145.3438,1011.75 Q145.9688,1012 146.5,1012.5 Z "/><ellipse cx="163.5" cy="1015.5" fill="#84BE84" rx="3" ry="3" style="stroke: #038048; stroke-width: 1.0;"/><text fill="#000000" font-family="sans-serif" font-size="12" font-weight="bold" lengthAdjust="spacingAndGlyphs" textLength="24" x="169.5" y="1020.9102">final</text><text fill="#000000" font-family="sans-serif" font-size="12" lengthAdjust="spacingAndGlyphs" textLength="69" x="196.5" y="1020.9102">SeResource</text><rect fill="#FFFFFF" height="17.0938" style="stroke: #000000; stroke-width: 1.0; stroke-dasharray: 2.0,2.0;" width="62" x="273.5" y="997"/><text fill="#000000" font-family="sans-serif" font-size="12" font-style="italic" lengthAdjust="spacingAndGlyphs" textLength="60" x="274.5" y="1010.457">CalypsoPo</text><line style="stroke: #A80036; stroke-width: 1.5;" x1="130.5" x2="331.5" y1="1032" y2="1032"/><line style="stroke: #A80036; stroke-width: 1.5;" x1="130.5" x2="331.5" y1="1040" y2="1040"/><!--MD5=[346f733d3079e77ece8ec0605238a57f]
class CalypsoPo--><rect fill="#FEFECE" filter="url(#f1unw11m1kdclp)" height="48" id="CalypsoPo" style="stroke: #A80036; stroke-width: 1.5;" width="92" x="185" y="801"/><ellipse cx="200" cy="817" fill="#ADD1B2" rx="11" ry="11" style="stroke: #A80036; stroke-width: 1.0;"/><path d="M202,813.5 Q202.2031,813 202.4375,812.75 Q202.6719,812.5 202.9375,812.5 Q203.4063,812.5 203.7031,812.7813 Q204,813.0625 204,813.7188 L204,815.2813 Q204,815.9375 203.7188,816.2188 Q203.4375,816.5 203,816.5 Q202.6094,816.5 202.3594,816.3281 Q202.1094,816.1563 202,815.7031 Q201.9531,815.3906 201.7813,815.2188 Q201.4688,814.8906 200.9063,814.7031 Q200.3438,814.5 199.7813,814.5 Q199.0781,814.5 198.4844,814.7813 Q197.9063,815.0625 197.4531,815.6875 Q197,816.3125 197,817.1719 L197,818.0938 Q197,819.125 197.8438,819.8125 Q198.6875,820.5 200.1875,820.5 Q201.0781,820.5 201.7031,820.2969 Q202.0625,820.1875 202.4688,819.8281 Q202.7344,819.625 202.875,819.5625 Q203.0156,819.5 203.1875,819.5 Q203.5156,819.5 203.75,819.7656 Q204,820.0156 204,820.375 Q204,820.7188 203.6563,821.125 Q203.1563,821.7188 202.3594,822.0469 Q201.3125,822.5 200.0313,822.5 Q198.5313,822.5 197.3281,821.9063 Q196.3594,821.4375 195.6719,820.4219 Q195,819.4063 195,818.2031 L195,817.1094 Q195,815.8594 195.5938,814.7656 Q196.2031,813.6719 197.25,813.0938 Q198.3125,812.5 199.5,812.5 Q200.2188,812.5 200.8438,812.75 Q201.4688,813 202,813.5 Z "/><text fill="#000000" font-family="sans-serif" font-size="12" lengthAdjust="spacingAndGlyphs" textLength="60" x="214" y="821.9102">CalypsoPo</text><line style="stroke: #A80036; stroke-width: 1.5;" x1="186" x2="276" y1="833" y2="833"/><line style="stroke: #A80036; stroke-width: 1.5;" x1="186" x2="276" y1="841" y2="841"/><!--MD5=[b6f444e9989ed3901bbb997f3cd0228e]
link AbstractSeSelectionRequest to AbstractMatchingSe--><path d="M578.962,640.011 C576.653,672.784 573.91,711.728 571.542,745.329 " fill="none" id="AbstractSeSelectionRequest-AbstractMatchingSe" style="stroke: #A80036; stroke-width: 1.0;"/><text fill="#000000" font-family="sans-serif" font-size="13" lengthAdjust="spacingAndGlyphs" textLength="42" x="576" y="698.4951">selects</text><polygon fill="#000000" points="592.5,707.3516,595.5,713.3516,598.5,707.3516,592.5,707.3516" style="stroke: #000000; stroke-width: 1.0;"/><!--MD5=[88781fa7e55557e435fb378f4fb7ccec]
link AbstractSeSelectionRequest to SeSelection--><path d="M680.56,640.011 C715.727,666.055 756.155,695.994 794.043,724.054 " fill="none" id="AbstractSeSelectionRequest-&gt;SeSelection" style="stroke: #A80036; stroke-width: 1.0;"/><polygon fill="#FFFFFF" points="804.656,731.913,802.2143,725.1278,795.012,724.772,797.4537,731.5572,804.656,731.913" style="stroke: #A80036; stroke-width: 1.0;"/><text fill="#000000" font-family="sans-serif" font-size="13" lengthAdjust="spacingAndGlyphs" textLength="5" x="684.819" y="661.456">*</text><text fill="#000000" font-family="sans-serif" font-size="13" lengthAdjust="spacingAndGlyphs" textLength="7" x="787.0689" y="721.0365">1</text><!--MD5=[9ae6c60bb290397dbb57f7e4bfa5525c]
link AbstractMatchingSe to SeResource_T--><path d="M569.995,904.709 C571.034,925.16 572.132,946.799 573.101,965.899 " fill="none" id="AbstractMatchingSe-&gt;SeResource_T" style="stroke: #A80036; stroke-width: 1.0;"/><polygon fill="#A80036" points="573.766,978.987,577.4569,972.7921,573.1581,967.0024,569.4672,973.1973,573.766,978.987" style="stroke: #A80036; stroke-width: 1.0;"/><text fill="#000000" font-family="sans-serif" font-size="13" lengthAdjust="spacingAndGlyphs" textLength="7" x="563.0375" y="925.7701">1</text><text fill="#000000" font-family="sans-serif" font-size="13" lengthAdjust="spacingAndGlyphs" textLength="7" x="565.8521" y="968.1004">1</text><!--MD5=[d338ce3d336fa3499d15f5ecafc4488f]
link SeSelector to AbstractSeSelectionRequest--><path d="M612.704,410.138 C608.737,431.748 603.998,457.562 599.526,481.926 " fill="none" id="SeSelector-&gt;AbstractSeSelectionRequest" style="stroke: #A80036; stroke-width: 1.0;"/><polygon fill="#FFFFFF" points="597.146,494.89,602.1636,489.7108,599.3127,483.0872,594.2951,488.2664,597.146,494.89" style="stroke: #A80036; stroke-width: 1.0;"/><text fill="#000000" font-family="sans-serif" font-size="13" lengthAdjust="spacingAndGlyphs" textLength="7" x="603.9046" y="432.0203">1</text><text fill="#000000" font-family="sans-serif" font-size="13" lengthAdjust="spacingAndGlyphs" textLength="7" x="591.1407" y="484.098">1</text><!--MD5=[2974701ccc045126a3331657366aa38c]
link InvalidatedPo to PoSelector--><path d="M192.052,180.363 C188.767,214.86 188.37,266.443 190.863,305.061 " fill="none" id="InvalidatedPo-&gt;PoSelector" style="stroke: #A80036; stroke-width: 1.0;"/><ellipse cx="191.4286" cy="312.2308" fill="#FFFFFF" rx="8" ry="8" style="stroke: #A80036; stroke-width: 1.0;"/><line style="stroke: #A80036; stroke-width: 1.0;" x1="190.7993" x2="192.058" y1="304.2556" y2="320.206"/><line style="stroke: #A80036; stroke-width: 1.0;" x1="199.4038" x2="183.4534" y1="311.6014" y2="312.8602"/><!--MD5=[2974701ccc045126a3331657366aa38c]
link InvalidatedPo to PoSelector--><path d="M212.534,180.363 C216.074,215.473 216.445,268.283 213.648,307.108 " fill="none" id="InvalidatedPo-&gt;PoSelector-1" style="stroke: #A80036; stroke-width: 1.0;"/><polygon fill="#A80036" points="212.527,320.206,217.0241,314.5689,213.5503,308.2497,209.0532,313.8868,212.527,320.206" style="stroke: #A80036; stroke-width: 1.0;"/><text fill="#000000" font-family="sans-serif" font-size="13" lengthAdjust="spacingAndGlyphs" textLength="7" x="206.655" y="201.3014">1</text><text fill="#000000" font-family="sans-serif" font-size="13" lengthAdjust="spacingAndGlyphs" textLength="7" x="206.7787" y="309.5155">1</text><!--MD5=[745a9eb240b2395580f3266b2171dd51]
link PoSelector to PoSelectionRequest--><path d="M202.536,396.507 C202.826,416.511 203.199,442.261 203.567,467.639 " fill="none" id="PoSelector-&gt;PoSelectionRequest" style="stroke: #A80036; stroke-width: 1.0;"/><polygon fill="#FFFFFF" points="203.759,480.844,207.6715,474.7866,203.5849,468.8453,199.6724,474.9027,203.759,480.844" style="stroke: #A80036; stroke-width: 1.0;"/><text fill="#000000" font-family="sans-serif" font-size="13" lengthAdjust="spacingAndGlyphs" textLength="7" x="195.0451" y="417.6783">1</text><text fill="#000000" font-family="sans-serif" font-size="13" lengthAdjust="spacingAndGlyphs" textLength="7" x="196.3516" y="470.2402">1</text><!--MD5=[315c59765b6a4685fded372235c6d6fb]
link PoSelectionRequest to CalypsoPo--><path d="M213.73,654.289 C218.997,706.043 225.315,768.135 228.658,800.986 " fill="none" id="PoSelectionRequest-CalypsoPo" style="stroke: #A80036; stroke-width: 1.0;"/><text fill="#000000" font-family="sans-serif" font-size="13" lengthAdjust="spacingAndGlyphs" textLength="42" x="219" y="698.4951">selects</text><polygon fill="#000000" points="235.5,707.3516,238.5,713.3516,241.5,707.3516,235.5,707.3516" style="stroke: #000000; stroke-width: 1.0;"/><!--MD5=[a71187334cf42e66c7bfc6a1e31411da]
link CalypsoPo to PoResource--><path d="M231,849.372 C231,883.379 231,946.8 231,986.856 " fill="none" id="CalypsoPo-&gt;PoResource" style="stroke: #A80036; stroke-width: 1.0;"/><polygon fill="#A80036" points="231,999.963,235,993.963,231,987.963,227,993.963,231,999.963" style="stroke: #A80036; stroke-width: 1.0;"/><text fill="#000000" font-family="sans-serif" font-size="13" lengthAdjust="spacingAndGlyphs" textLength="7" x="223.1906" y="870.3938">1</text><text fill="#000000" font-family="sans-serif" font-size="13" lengthAdjust="spacingAndGlyphs" textLength="7" x="223.1031" y="989.2937">1</text><!--MD5=[7c16b6c2ba894db9496e807d455aae12]
reverse link SeSelector to PoSelector--><path d="M404.083,358.5 C383.049,358.5 362.122,358.5 342.146,358.5 " fill="none" id="SeSelector&lt;-PoSelector" style="stroke: #A80036; stroke-width: 1.0;"/><polygon fill="none" points="404.254,351.5,424.254,358.5,404.254,365.5,404.254,351.5" style="stroke: #A80036; stroke-width: 1.0;"/><text fill="#000000" font-family="sans-serif" font-size="13" lengthAdjust="spacingAndGlyphs" textLength="46" x="360.25" y="351.9951">extends</text><!--MD5=[bc8f446fcbd76130b2551e864083d71d]
reverse link AbstractSeSelectionRequest to PoSelectionRequest--><path d="M417.15,567.5 C391.888,567.5 366.081,567.5 341.56,567.5 " fill="none" id="AbstractSeSelectionRequest&lt;-PoSelectionRequest" style="stroke: #A80036; stroke-width: 1.0;"/><polygon fill="none" points="417.258,560.5,437.258,567.5,417.258,574.5,417.258,560.5" style="stroke: #A80036; stroke-width: 1.0;"/><text fill="#000000" font-family="sans-serif" font-size="13" lengthAdjust="spacingAndGlyphs" textLength="46" x="366.5" y="560.9951">extends</text><!--MD5=[fcc76ffbd8d5e4557932e340fc96ea0f]
reverse link AbstractMatchingSe to CalypsoPo--><path d="M401.509,825 C355.857,825 309.906,825 277.229,825 " fill="none" id="AbstractMatchingSe&lt;-CalypsoPo" style="stroke: #A80036; stroke-width: 1.0;"/><polygon fill="none" points="401.713,818,421.713,825,401.713,832,401.713,818" style="stroke: #A80036; stroke-width: 1.0;"/><text fill="#000000" font-family="sans-serif" font-size="13" lengthAdjust="spacingAndGlyphs" textLength="46" x="326.5" y="818.4951">extends</text><!--MD5=[38c690f248a7febb05fbc6ac05bd8ecf]
@startuml
package org.eclipse.keyple #FFFFFF {
  package core #FFFFFF {
    package seproxy #FFFFFF {
+class SeSelector {
  +SeSelector(SeProtocol seProtocol, AtrFilter atrFilter, AidSelector aidSelector)
  +SeProtocol getSeProtocol()
  +AtrFilter getAtrFilter()
  +AidSelector getAidSelector()
}
    }

    package selection #FFFFFF {
+class "<b>final</b> SeSelection" as SeSelection {
  +SeSelection(MultiSeRequestProcessing multiSeRequestProcessing,
    ChannelControl channelControl)

  +int prepareSelection(AbstractSeSelectionRequest seSelectionRequest)

  +SelectionsResult processExplicitSelection(SeReader seReader)

  +AbstractDefaultSelectionsRequest getSelectionOperation()
  +SelectionsResult processDefaultSelection(
    AbstractDefaultSelectionsResponse selectionResponse)
}
+abstract AbstractSeSelectionRequest {
  +AbstractSeSelectionRequest(SeSelector seSelector)

  #<b>final</b> addApduRequest(ApduRequest apduRequest)
  ~<b>final</b> SeRequest getSelectionRequest()
  {abstract} #AbstractMatchingSe parse(SeResponse seResponse)

  +SeSelector getSeSelector()
}

+abstract AbstractMatchingSe {
  #AbstractMatchingSe(SeResponse selectionResponse,
    TransmissionMode transmissionMode)

  +TransmissionMode getTransmissionMode()
  +boolean hasAtr()
  +byte[] getAtrBytes()
  +boolean hasFci()
  +byte[] getFciBytes()
}
+class "<b>final</b> SeResource<T extends AbstractMatchingSe>" as SeResource_T {
  #SeResource(SeReader seReader, T matchingSe);
  +SeReader getSeReader();
  +T getMatchingSe();
}

      AbstractSeSelectionRequest -down- AbstractMatchingSe : selects >
      SeSelection "1" o-up- "*" AbstractSeSelectionRequest
      SeResource_T "1" *-up- "1" AbstractMatchingSe
    }

    AbstractSeSelectionRequest "1" o-up- "1" SeSelector
  }

  package calypso.transaction #FFFFFF {
+enum InvalidatedPo {
  REJECT
  ACCEPT
}
+class "<b>final</b> PoSelector" as PoSelector {
  +PoSelector(SeProtocol seProtocol, AtrFilter atrFilter,
    AidSelector aidToSelect, InvalidatedPo invalidatedPo)
}

+class "<b>final</b> PoSelectionRequest" as PoSelectionRequest {
  +PoSelectionRequest(PoSelector seSelector)

  +prepareSelectFile(byte[] path)
  +prepareSelectFile(shord lid)
  +prepareSelectFile(SelectControl selectControl)

  +prepareReadRecordFile(byte sfi, int recordNumber)

  #CalypsoPo parse(SeResponse seResponse)
}

+class "<b>final</b> SeResource<CalypsoPo>" as PoResource {
}

    InvalidatedPo - -+ PoSelector
    InvalidatedPo "1" - -* "1" PoSelector

    PoSelectionRequest "1" o-up- "1" PoSelector
    PoSelectionRequest -down- CalypsoPo : selects >
    PoResource "1" *-up- "1" CalypsoPo
  }

  PoSelector -left-|> SeSelector : extends
  PoSelectionRequest -left-|> AbstractSeSelectionRequest : extends
  CalypsoPo -left-|> AbstractMatchingSe : extends
}
@enduml

PlantUML version 1.2020.07(Sun Apr 19 15:42:40 MUT 2020)
(GPL source distribution)
Java Runtime: OpenJDK Runtime Environment
JVM: OpenJDK 64-Bit Server VM
Java Version: 11.0.6+8-b765.40
Operating System: Windows 10
Default Encoding: Cp1252
Language: fr
Country: FR
--></g></svg>