<?xml version="1.0" encoding="UTF-8" standalone="no"?><svg xmlns="http://www.w3.org/2000/svg" xmlns:xlink="http://www.w3.org/1999/xlink" contentScriptType="application/ecmascript" contentStyleType="text/css" height="940px" preserveAspectRatio="none" style="width:1418px;height:940px;" version="1.1" viewBox="0 0 1418 940" width="1418px" zoomAndPan="magnify"><defs><filter height="300%" id="fhvcikadqwxy5" width="300%" x="-1" y="-1"><feGaussianBlur result="blurOut" stdDeviation="2.0"/><feColorMatrix in="blurOut" result="blurOut2" type="matrix" values="0 0 0 0 0 0 0 0 0 0 0 0 0 0 0 0 0 0 .4 0"/><feOffset dx="4.0" dy="4.0" in="blurOut2" result="blurOut3"/><feBlend in="SourceGraphic" in2="blurOut3" mode="normal"/></filter></defs><g><!--MD5=[51ec0a53efb936c50f40e088b2e2e6a8]
cluster org.eclipse.keyple.seproxy--><polygon fill="#FFFFFF" filter="url(#fhvcikadqwxy5)" points="22,24,217,24,224,47.6094,1299,47.6094,1299,928,22,928,22,24" style="stroke: #000000; stroke-width: 1.5;"/><line style="stroke: #000000; stroke-width: 1.5;" x1="22" x2="224" y1="47.6094" y2="47.6094"/><text fill="#000000" font-family="sans-serif" font-size="14" font-weight="bold" lengthAdjust="spacingAndGlyphs" textLength="189" x="26" y="40.5332">org.eclipse.keyple.seproxy</text><!--MD5=[88851b7b27e529b39ff5d3ce6ae79142]
cluster message--><polygon fill="#FFFFFF" filter="url(#fhvcikadqwxy5)" points="332,68,401,68,408,91.6094,1275,91.6094,1275,904,332,904,332,68" style="stroke: #000000; stroke-width: 1.5;"/><line style="stroke: #000000; stroke-width: 1.5;" x1="332" x2="408" y1="91.6094" y2="91.6094"/><text fill="#000000" font-family="sans-serif" font-size="14" font-weight="bold" lengthAdjust="spacingAndGlyphs" textLength="63" x="336" y="84.5332">message</text><!--MD5=[233c6f1f7c69be3daec88cbd55acc2d5]
class SeSelector--><rect fill="#FEFECE" filter="url(#fhvcikadqwxy5)" height="131.0156" id="SeSelector" style="stroke: #A80036; stroke-width: 1.5;" width="275" x="38.5" y="173"/><ellipse cx="136.25" cy="189" fill="#ADD1B2" rx="11" ry="11" style="stroke: #A80036; stroke-width: 1.0;"/><path d="M138.25,185.5 Q138.4531,185 138.6875,184.75 Q138.9219,184.5 139.1875,184.5 Q139.6563,184.5 139.9531,184.7813 Q140.25,185.0625 140.25,185.7188 L140.25,187.2813 Q140.25,187.9375 139.9688,188.2188 Q139.6875,188.5 139.25,188.5 Q138.8594,188.5 138.6094,188.3281 Q138.3594,188.1563 138.25,187.7031 Q138.2031,187.3906 138.0313,187.2188 Q137.7188,186.8906 137.1563,186.7031 Q136.5938,186.5 136.0313,186.5 Q135.3281,186.5 134.7344,186.7813 Q134.1563,187.0625 133.7031,187.6875 Q133.25,188.3125 133.25,189.1719 L133.25,190.0938 Q133.25,191.125 134.0938,191.8125 Q134.9375,192.5 136.4375,192.5 Q137.3281,192.5 137.9531,192.2969 Q138.3125,192.1875 138.7188,191.8281 Q138.9844,191.625 139.125,191.5625 Q139.2656,191.5 139.4375,191.5 Q139.7656,191.5 140,191.7656 Q140.25,192.0156 140.25,192.375 Q140.25,192.7188 139.9063,193.125 Q139.4063,193.7188 138.6094,194.0469 Q137.5625,194.5 136.2813,194.5 Q134.7813,194.5 133.5781,193.9063 Q132.6094,193.4375 131.9219,192.4219 Q131.25,191.4063 131.25,190.2031 L131.25,189.1094 Q131.25,187.8594 131.8438,186.7656 Q132.4531,185.6719 133.5,185.0938 Q134.5625,184.5 135.75,184.5 Q136.4688,184.5 137.0938,184.75 Q137.7188,185 138.25,185.5 Z "/><ellipse cx="161.75" cy="188.5" fill="#84BE84" rx="3" ry="3" style="stroke: #038048; stroke-width: 1.0;"/><text fill="#000000" font-family="sans-serif" font-size="12" lengthAdjust="spacingAndGlyphs" textLength="60" x="167.75" y="193.9102">SeSelector</text><line style="stroke: #A80036; stroke-width: 1.5;" x1="39.5" x2="312.5" y1="205" y2="205"/><line style="stroke: #A80036; stroke-width: 1.5;" x1="39.5" x2="312.5" y1="213" y2="213"/><ellipse cx="49.5" cy="224" fill="#84BE84" rx="3" ry="3" style="stroke: #038048; stroke-width: 1.0;"/><text fill="#000000" font-family="sans-serif" font-size="11" lengthAdjust="spacingAndGlyphs" textLength="249" x="58.5" y="228.4189">SeSelector(SeProtocol seProtocol, AtrFilter atrFilter,</text><text fill="#000000" font-family="sans-serif" font-size="11" lengthAdjust="spacingAndGlyphs" textLength="197" x="58.5" y="242.2549">AidSelector aidSelector, String extraInfo)</text><ellipse cx="49.5" cy="251.6719" fill="#84BE84" rx="3" ry="3" style="stroke: #038048; stroke-width: 1.0;"/><text fill="#000000" font-family="sans-serif" font-size="11" lengthAdjust="spacingAndGlyphs" textLength="130" x="58.5" y="256.0908">SeProtocol getSeProtocol()</text><ellipse cx="49.5" cy="265.5078" fill="#84BE84" rx="3" ry="3" style="stroke: #038048; stroke-width: 1.0;"/><text fill="#000000" font-family="sans-serif" font-size="11" lengthAdjust="spacingAndGlyphs" textLength="102" x="58.5" y="269.9268">AtrFilter getAtrFilter()</text><ellipse cx="49.5" cy="279.3438" fill="#84BE84" rx="3" ry="3" style="stroke: #038048; stroke-width: 1.0;"/><text fill="#000000" font-family="sans-serif" font-size="11" lengthAdjust="spacingAndGlyphs" textLength="138" x="58.5" y="283.7627">AidSelector getAidSelector()</text><ellipse cx="49.5" cy="293.1797" fill="#84BE84" rx="3" ry="3" style="stroke: #038048; stroke-width: 1.0;"/><text fill="#000000" font-family="sans-serif" font-size="11" lengthAdjust="spacingAndGlyphs" textLength="120" x="58.5" y="297.5986">final String getExtraInfo()</text><!--MD5=[ee0d3336d8d2c9dd88a5ad188defe636]
class ChannelControl--><rect fill="#FEFECE" filter="url(#fhvcikadqwxy5)" height="75.6719" id="ChannelControl" style="stroke: #A80036; stroke-width: 1.5;" width="130" x="183" y="478.5"/><ellipse cx="198" cy="494.5" fill="#EB937F" rx="11" ry="11" style="stroke: #A80036; stroke-width: 1.0;"/><path d="M196.5,495.5 L196.5,497.5 L200.5,497.5 L200.5,496.5 L200.5,496.0156 L201.125,495.5 L201.5,495.5 L201.875,495.5 L202.5,496.0156 L202.5,496.5 L202.5,499.5 L194.5,499.5 L194.0156,499.5 L193.5,498.875 L193.5,498.5 L193.5,498.125 L194.0156,497.5 L194.5,497.5 L194.5,497.5 L194.5,491.5 L194.5,491.5 L194.0156,491.5 L193.5,490.875 L193.5,490.5 L193.5,490.125 L194.0156,489.5 L194.5,489.5 L202.5,489.5 L202.5,492.5 L202.5,492.9844 L201.875,493.5 L201.5,493.5 L201.125,493.5 L200.5,492.9844 L200.5,492.5 L200.5,491.5 L196.5,491.5 L196.5,493.5 L197.5,493.5 L197.5,493.0156 L197.5,493.0156 L198.125,492.5 L198.5,492.5 L198.875,492.5 L199.5,493.0156 L199.5,493.5 L199.5,495.5 L199.5,495.9844 L198.875,496.5 L198.875,496.5 L198.5,496.5 L198.125,496.5 L197.5,495.9844 L197.5,495.9844 L197.5,495.5 L196.5,495.5 Z "/><ellipse cx="217" cy="494" fill="#84BE84" rx="3" ry="3" style="stroke: #038048; stroke-width: 1.0;"/><text fill="#000000" font-family="sans-serif" font-size="12" lengthAdjust="spacingAndGlyphs" textLength="87" x="223" y="499.4102">ChannelControl</text><line style="stroke: #A80036; stroke-width: 1.5;" x1="184" x2="312" y1="510.5" y2="510.5"/><text fill="#000000" font-family="sans-serif" font-size="11" lengthAdjust="spacingAndGlyphs" textLength="58" x="189" y="525.9189">KEEP_OPEN</text><text fill="#000000" font-family="sans-serif" font-size="11" lengthAdjust="spacingAndGlyphs" textLength="73" x="189" y="539.7549">CLOSE_AFTER</text><line style="stroke: #A80036; stroke-width: 1.5;" x1="184" x2="312" y1="546.1719" y2="546.1719"/><!--MD5=[96a4004012a1c08588eb87adf87ec875]
class ProxyReader--><rect fill="#FEFECE" filter="url(#fhvcikadqwxy5)" height="131.0156" id="ProxyReader" style="stroke: #A80036; stroke-width: 1.5;" width="452" x="348" y="451"/><ellipse cx="528.25" cy="467" fill="#B4A7E5" rx="11" ry="11" style="stroke: #A80036; stroke-width: 1.0;"/><path d="M529.25,464 L529.25,470 L531.25,470 L531.7344,470 L532.25,470.625 L532.25,471 L532.25,471.375 L531.7344,472 L531.25,472 L525.25,472 L524.7656,472 L524.25,471.375 L524.25,471 L524.25,470.625 L524.7656,470 L525.25,470 L527.25,470 L527.25,464 L525.25,464 L524.7656,464 L524.25,463.375 L524.25,463 L524.25,462.625 L524.7656,462 L525.25,462 L531.25,462 L531.7344,462 L532.25,462.625 L532.25,463 L532.25,463.375 L531.7344,464 L531.25,464 L529.25,464 Z "/><ellipse cx="553.75" cy="466.5" fill="#84BE84" rx="3" ry="3" style="stroke: #038048; stroke-width: 1.0;"/><text fill="#000000" font-family="sans-serif" font-size="12" font-style="italic" lengthAdjust="spacingAndGlyphs" textLength="72" x="559.75" y="471.9102">ProxyReader</text><line style="stroke: #A80036; stroke-width: 1.5;" x1="349" x2="799" y1="483" y2="483"/><line style="stroke: #A80036; stroke-width: 1.5;" x1="349" x2="799" y1="491" y2="491"/><ellipse cx="359" cy="502" fill="#84BE84" rx="3" ry="3" style="stroke: #038048; stroke-width: 1.0;"/><text fill="#000000" font-family="sans-serif" font-size="11" lengthAdjust="spacingAndGlyphs" textLength="344" x="368" y="506.4189">List&lt;SeResponse&gt; transmitSet(Set&lt;SeRequest&gt; seApplicationRequest,</text><text fill="#000000" font-family="sans-serif" font-size="11" lengthAdjust="spacingAndGlyphs" textLength="417" x="368" y="520.2549">MultiSeRequestProcessing multiSeRequestProcessing, ChannelControl channelControl)</text><ellipse cx="359" cy="529.6719" fill="#84BE84" rx="3" ry="3" style="stroke: #038048; stroke-width: 1.0;"/><text fill="#000000" font-family="sans-serif" font-size="11" lengthAdjust="spacingAndGlyphs" textLength="345" x="368" y="534.0908">List&lt;SeResponse&gt; transmitSet(Set&lt;SeRequest&gt; seApplicationRequest)</text><text fill="#000000" font-family="sans-serif" font-size="11" lengthAdjust="spacingAndGlyphs" textLength="0" x="371" y="547.9268"/><ellipse cx="359" cy="557.3438" fill="#84BE84" rx="3" ry="3" style="stroke: #038048; stroke-width: 1.0;"/><text fill="#000000" font-family="sans-serif" font-size="11" lengthAdjust="spacingAndGlyphs" textLength="426" x="368" y="561.7627">SeResponse transmit(SeRequest seApplicationRequest, ChannelControl channelControl)</text><ellipse cx="359" cy="571.1797" fill="#84BE84" rx="3" ry="3" style="stroke: #038048; stroke-width: 1.0;"/><text fill="#000000" font-family="sans-serif" font-size="11" lengthAdjust="spacingAndGlyphs" textLength="272" x="368" y="575.5986">SeResponse transmit(SeRequest seApplicationRequest)</text><!--MD5=[aac5a6cf7ecd97a8ea894835343aad05]
class SeRequest--><rect fill="#FEFECE" filter="url(#fhvcikadqwxy5)" height="131.0156" id="SeRequest" style="stroke: #A80036; stroke-width: 1.5;" width="367" x="348.5" y="173"/><ellipse cx="477.75" cy="189" fill="#ADD1B2" rx="11" ry="11" style="stroke: #A80036; stroke-width: 1.0;"/><path d="M479.75,185.5 Q479.9531,185 480.1875,184.75 Q480.4219,184.5 480.6875,184.5 Q481.1563,184.5 481.4531,184.7813 Q481.75,185.0625 481.75,185.7188 L481.75,187.2813 Q481.75,187.9375 481.4688,188.2188 Q481.1875,188.5 480.75,188.5 Q480.3594,188.5 480.1094,188.3281 Q479.8594,188.1563 479.75,187.7031 Q479.7031,187.3906 479.5313,187.2188 Q479.2188,186.8906 478.6563,186.7031 Q478.0938,186.5 477.5313,186.5 Q476.8281,186.5 476.2344,186.7813 Q475.6563,187.0625 475.2031,187.6875 Q474.75,188.3125 474.75,189.1719 L474.75,190.0938 Q474.75,191.125 475.5938,191.8125 Q476.4375,192.5 477.9375,192.5 Q478.8281,192.5 479.4531,192.2969 Q479.8125,192.1875 480.2188,191.8281 Q480.4844,191.625 480.625,191.5625 Q480.7656,191.5 480.9375,191.5 Q481.2656,191.5 481.5,191.7656 Q481.75,192.0156 481.75,192.375 Q481.75,192.7188 481.4063,193.125 Q480.9063,193.7188 480.1094,194.0469 Q479.0625,194.5 477.7813,194.5 Q476.2813,194.5 475.0781,193.9063 Q474.1094,193.4375 473.4219,192.4219 Q472.75,191.4063 472.75,190.2031 L472.75,189.1094 Q472.75,187.8594 473.3438,186.7656 Q473.9531,185.6719 475,185.0938 Q476.0625,184.5 477.25,184.5 Q477.9688,184.5 478.5938,184.75 Q479.2188,185 479.75,185.5 Z "/><ellipse cx="503.25" cy="188.5" fill="#84BE84" rx="3" ry="3" style="stroke: #038048; stroke-width: 1.0;"/><text fill="#000000" font-family="sans-serif" font-size="12" font-weight="bold" lengthAdjust="spacingAndGlyphs" textLength="24" x="509.25" y="193.9102">final</text><text fill="#000000" font-family="sans-serif" font-size="12" lengthAdjust="spacingAndGlyphs" textLength="62" x="536.25" y="193.9102">SeRequest</text><line style="stroke: #A80036; stroke-width: 1.5;" x1="349.5" x2="714.5" y1="205" y2="205"/><rect fill="none" height="6" style="stroke: #C82930; stroke-width: 1.0;" width="6" x="356.5" y="213"/><text fill="#000000" font-family="sans-serif" font-size="11" font-weight="bold" lengthAdjust="spacingAndGlyphs" textLength="23" x="368.5" y="220.4189">final</text><text fill="#000000" font-family="sans-serif" font-size="11" lengthAdjust="spacingAndGlyphs" textLength="106" x="394.5" y="220.4189">Selector[0..1] selector</text><rect fill="none" height="6" style="stroke: #C82930; stroke-width: 1.0;" width="6" x="356.5" y="226.8359"/><text fill="#000000" font-family="sans-serif" font-size="11" font-weight="bold" lengthAdjust="spacingAndGlyphs" textLength="23" x="368.5" y="234.2549">final</text><text fill="#000000" font-family="sans-serif" font-size="11" lengthAdjust="spacingAndGlyphs" textLength="168" x="394.5" y="234.2549">List&lt;ApduRequest&gt; apduRequests</text><line style="stroke: #A80036; stroke-width: 1.5;" x1="349.5" x2="714.5" y1="240.6719" y2="240.6719"/><ellipse cx="359.5" cy="251.6719" fill="#84BE84" rx="3" ry="3" style="stroke: #038048; stroke-width: 1.0;"/><text fill="#000000" font-family="sans-serif" font-size="11" lengthAdjust="spacingAndGlyphs" textLength="341" x="368.5" y="256.0908">SeRequest(Selector[0..1] selector, List&lt;ApduRequest&gt; apduRequests)</text><text fill="#000000" font-family="sans-serif" font-size="11" lengthAdjust="spacingAndGlyphs" textLength="0" x="371.5" y="269.9268"/><ellipse cx="359.5" cy="279.3438" fill="#84BE84" rx="3" ry="3" style="stroke: #038048; stroke-width: 1.0;"/><text fill="#000000" font-family="sans-serif" font-size="11" lengthAdjust="spacingAndGlyphs" textLength="132" x="368.5" y="283.7627">SeSelector getSeSelector()</text><ellipse cx="359.5" cy="293.1797" fill="#84BE84" rx="3" ry="3" style="stroke: #038048; stroke-width: 1.0;"/><text fill="#000000" font-family="sans-serif" font-size="11" lengthAdjust="spacingAndGlyphs" textLength="193" x="368.5" y="297.5986">List&lt;ApduRequest&gt; getApduRequests()</text><!--MD5=[5be80dcd0b79afe0527b7f5d314ff4a2]
class SeResponse--><rect fill="#FEFECE" filter="url(#fhvcikadqwxy5)" height="227.8672" id="SeResponse" style="stroke: #A80036; stroke-width: 1.5;" width="400" x="374" y="660"/><ellipse cx="514.25" cy="676" fill="#ADD1B2" rx="11" ry="11" style="stroke: #A80036; stroke-width: 1.0;"/><path d="M516.25,672.5 Q516.4531,672 516.6875,671.75 Q516.9219,671.5 517.1875,671.5 Q517.6563,671.5 517.9531,671.7813 Q518.25,672.0625 518.25,672.7188 L518.25,674.2813 Q518.25,674.9375 517.9688,675.2188 Q517.6875,675.5 517.25,675.5 Q516.8594,675.5 516.6094,675.3281 Q516.3594,675.1563 516.25,674.7031 Q516.2031,674.3906 516.0313,674.2188 Q515.7188,673.8906 515.1563,673.7031 Q514.5938,673.5 514.0313,673.5 Q513.3281,673.5 512.7344,673.7813 Q512.1563,674.0625 511.7031,674.6875 Q511.25,675.3125 511.25,676.1719 L511.25,677.0938 Q511.25,678.125 512.0938,678.8125 Q512.9375,679.5 514.4375,679.5 Q515.3281,679.5 515.9531,679.2969 Q516.3125,679.1875 516.7188,678.8281 Q516.9844,678.625 517.125,678.5625 Q517.2656,678.5 517.4375,678.5 Q517.7656,678.5 518,678.7656 Q518.25,679.0156 518.25,679.375 Q518.25,679.7188 517.9063,680.125 Q517.4063,680.7188 516.6094,681.0469 Q515.5625,681.5 514.2813,681.5 Q512.7813,681.5 511.5781,680.9063 Q510.6094,680.4375 509.9219,679.4219 Q509.25,678.4063 509.25,677.2031 L509.25,676.1094 Q509.25,674.8594 509.8438,673.7656 Q510.4531,672.6719 511.5,672.0938 Q512.5625,671.5 513.75,671.5 Q514.4688,671.5 515.0938,671.75 Q515.7188,672 516.25,672.5 Z "/><ellipse cx="539.75" cy="675.5" fill="#84BE84" rx="3" ry="3" style="stroke: #038048; stroke-width: 1.0;"/><text fill="#000000" font-family="sans-serif" font-size="12" font-weight="bold" lengthAdjust="spacingAndGlyphs" textLength="24" x="545.75" y="680.9102">final</text><text fill="#000000" font-family="sans-serif" font-size="12" lengthAdjust="spacingAndGlyphs" textLength="73" x="572.75" y="680.9102">SeResponse</text><line style="stroke: #A80036; stroke-width: 1.5;" x1="375" x2="773" y1="692" y2="692"/><rect fill="none" height="6" style="stroke: #C82930; stroke-width: 1.0;" width="6" x="382" y="700"/><text fill="#000000" font-family="sans-serif" font-size="11" font-weight="bold" lengthAdjust="spacingAndGlyphs" textLength="23" x="394" y="707.4189">final</text><text fill="#000000" font-family="sans-serif" font-size="11" lengthAdjust="spacingAndGlyphs" textLength="155" x="420" y="707.4189">boolean channelPreviouslyOpen</text><rect fill="none" height="6" style="stroke: #C82930; stroke-width: 1.0;" width="6" x="382" y="713.8359"/><text fill="#000000" font-family="sans-serif" font-size="11" font-weight="bold" lengthAdjust="spacingAndGlyphs" textLength="23" x="394" y="721.2549">final</text><text fill="#000000" font-family="sans-serif" font-size="11" lengthAdjust="spacingAndGlyphs" textLength="144" x="420" y="721.2549">boolean logicalChannelIsOpen</text><rect fill="none" height="6" style="stroke: #C82930; stroke-width: 1.0;" width="6" x="382" y="727.6719"/><text fill="#000000" font-family="sans-serif" font-size="11" font-weight="bold" lengthAdjust="spacingAndGlyphs" textLength="23" x="394" y="735.0908">final</text><text fill="#000000" font-family="sans-serif" font-size="11" lengthAdjust="spacingAndGlyphs" textLength="152" x="420" y="735.0908">SelectionStatus selectionStatus</text><rect fill="none" height="6" style="stroke: #C82930; stroke-width: 1.0;" width="6" x="382" y="741.5078"/><text fill="#000000" font-family="sans-serif" font-size="11" font-weight="bold" lengthAdjust="spacingAndGlyphs" textLength="23" x="394" y="748.9268">final</text><text fill="#000000" font-family="sans-serif" font-size="11" lengthAdjust="spacingAndGlyphs" textLength="186" x="420" y="748.9268">List&lt;ApduResponse&gt; apduResponses</text><line style="stroke: #A80036; stroke-width: 1.5;" x1="375" x2="773" y1="755.3438" y2="755.3438"/><ellipse cx="385" cy="766.3438" fill="#84BE84" rx="3" ry="3" style="stroke: #038048; stroke-width: 1.0;"/><text fill="#000000" font-family="sans-serif" font-size="11" lengthAdjust="spacingAndGlyphs" textLength="374" x="394" y="770.7627">SeResponse(boolean logicalChannelIsOpen, boolean channelPreviouslyOpen,</text><text fill="#000000" font-family="sans-serif" font-size="11" lengthAdjust="spacingAndGlyphs" textLength="348" x="394" y="784.5986">SelectionStatus selectionStatus, List&lt;ApduResponse&gt; apduResponses)</text><ellipse cx="385" cy="794.0156" fill="#84BE84" rx="3" ry="3" style="stroke: #038048; stroke-width: 1.0;"/><text fill="#000000" font-family="sans-serif" font-size="11" lengthAdjust="spacingAndGlyphs" textLength="186" x="394" y="798.4346">boolean wasChannelPreviouslyOpen()</text><ellipse cx="385" cy="807.8516" fill="#84BE84" rx="3" ry="3" style="stroke: #038048; stroke-width: 1.0;"/><text fill="#000000" font-family="sans-serif" font-size="11" lengthAdjust="spacingAndGlyphs" textLength="156" x="394" y="812.2705">boolean isLogicalChannelOpen()</text><ellipse cx="385" cy="821.6875" fill="#84BE84" rx="3" ry="3" style="stroke: #038048; stroke-width: 1.0;"/><text fill="#000000" font-family="sans-serif" font-size="11" lengthAdjust="spacingAndGlyphs" textLength="176" x="394" y="826.1064">SelectionStatus getSelectionStatus()</text><ellipse cx="385" cy="835.5234" fill="#84BE84" rx="3" ry="3" style="stroke: #038048; stroke-width: 1.0;"/><text fill="#000000" font-family="sans-serif" font-size="11" lengthAdjust="spacingAndGlyphs" textLength="211" x="394" y="839.9424">List&lt;ApduResponse&gt; getApduResponses()</text><ellipse cx="385" cy="849.3594" fill="#84BE84" rx="3" ry="3" style="stroke: #038048; stroke-width: 1.0;"/><text fill="#000000" font-family="sans-serif" font-size="11" lengthAdjust="spacingAndGlyphs" textLength="76" x="394" y="853.7783">String toString()</text><ellipse cx="385" cy="863.1953" fill="#84BE84" rx="3" ry="3" style="stroke: #038048; stroke-width: 1.0;"/><text fill="#000000" font-family="sans-serif" font-size="11" lengthAdjust="spacingAndGlyphs" textLength="121" x="394" y="867.6143">boolean equals(Object o)</text><ellipse cx="385" cy="877.0313" fill="#84BE84" rx="3" ry="3" style="stroke: #038048; stroke-width: 1.0;"/><text fill="#000000" font-family="sans-serif" font-size="11" lengthAdjust="spacingAndGlyphs" textLength="71" x="394" y="881.4502">int hashCode()</text><!--MD5=[8d2debdbb32bf9c83697f345c4529e73]
class ApduRequest--><rect fill="#FEFECE" filter="url(#fhvcikadqwxy5)" height="269.375" id="ApduRequest" style="stroke: #A80036; stroke-width: 1.5;" width="423" x="835.5" y="104"/><ellipse cx="986.25" cy="120" fill="#ADD1B2" rx="11" ry="11" style="stroke: #A80036; stroke-width: 1.0;"/><path d="M988.25,116.5 Q988.4531,116 988.6875,115.75 Q988.9219,115.5 989.1875,115.5 Q989.6563,115.5 989.9531,115.7813 Q990.25,116.0625 990.25,116.7188 L990.25,118.2813 Q990.25,118.9375 989.9688,119.2188 Q989.6875,119.5 989.25,119.5 Q988.8594,119.5 988.6094,119.3281 Q988.3594,119.1563 988.25,118.7031 Q988.2031,118.3906 988.0313,118.2188 Q987.7188,117.8906 987.1563,117.7031 Q986.5938,117.5 986.0313,117.5 Q985.3281,117.5 984.7344,117.7813 Q984.1563,118.0625 983.7031,118.6875 Q983.25,119.3125 983.25,120.1719 L983.25,121.0938 Q983.25,122.125 984.0938,122.8125 Q984.9375,123.5 986.4375,123.5 Q987.3281,123.5 987.9531,123.2969 Q988.3125,123.1875 988.7188,122.8281 Q988.9844,122.625 989.125,122.5625 Q989.2656,122.5 989.4375,122.5 Q989.7656,122.5 990,122.7656 Q990.25,123.0156 990.25,123.375 Q990.25,123.7188 989.9063,124.125 Q989.4063,124.7188 988.6094,125.0469 Q987.5625,125.5 986.2813,125.5 Q984.7813,125.5 983.5781,124.9063 Q982.6094,124.4375 981.9219,123.4219 Q981.25,122.4063 981.25,121.2031 L981.25,120.1094 Q981.25,118.8594 981.8438,117.7656 Q982.4531,116.6719 983.5,116.0938 Q984.5625,115.5 985.75,115.5 Q986.4688,115.5 987.0938,115.75 Q987.7188,116 988.25,116.5 Z "/><ellipse cx="1011.75" cy="119.5" fill="#84BE84" rx="3" ry="3" style="stroke: #038048; stroke-width: 1.0;"/><text fill="#000000" font-family="sans-serif" font-size="12" font-weight="bold" lengthAdjust="spacingAndGlyphs" textLength="24" x="1017.75" y="124.9102">final</text><text fill="#000000" font-family="sans-serif" font-size="12" lengthAdjust="spacingAndGlyphs" textLength="75" x="1044.75" y="124.9102">ApduRequest</text><line style="stroke: #A80036; stroke-width: 1.5;" x1="836.5" x2="1257.5" y1="136" y2="136"/><rect fill="none" height="6" style="stroke: #C82930; stroke-width: 1.0;" width="6" x="843.5" y="144"/><text fill="#000000" font-family="sans-serif" font-size="11" lengthAdjust="spacingAndGlyphs" textLength="57" x="855.5" y="151.4189">byte[] bytes</text><rect fill="none" height="6" style="stroke: #C82930; stroke-width: 1.0;" width="6" x="843.5" y="157.8359"/><text fill="#000000" font-family="sans-serif" font-size="11" font-weight="bold" lengthAdjust="spacingAndGlyphs" textLength="23" x="855.5" y="165.2549">final</text><text fill="#000000" font-family="sans-serif" font-size="11" lengthAdjust="spacingAndGlyphs" textLength="71" x="881.5" y="165.2549">boolean case4</text><rect fill="none" height="6" style="stroke: #C82930; stroke-width: 1.0;" width="6" x="843.5" y="171.6719"/><text fill="#000000" font-family="sans-serif" font-size="11" font-weight="bold" lengthAdjust="spacingAndGlyphs" textLength="23" x="855.5" y="179.0908">final</text><text fill="#000000" font-family="sans-serif" font-size="11" lengthAdjust="spacingAndGlyphs" textLength="180" x="878.5" y="179.0908">Set&lt;Integer&gt; successfulStatusCodes</text><rect fill="none" height="6" style="stroke: #C82930; stroke-width: 1.0;" width="6" x="843.5" y="185.5078"/><text fill="#000000" font-family="sans-serif" font-size="11" lengthAdjust="spacingAndGlyphs" textLength="57" x="855.5" y="192.9268">String name</text><line style="stroke: #A80036; stroke-width: 1.5;" x1="836.5" x2="1257.5" y1="199.3438" y2="199.3438"/><ellipse cx="846.5" cy="210.3438" fill="#84BE84" rx="3" ry="3" style="stroke: #038048; stroke-width: 1.0;"/><text fill="#000000" font-family="sans-serif" font-size="11" lengthAdjust="spacingAndGlyphs" textLength="397" x="855.5" y="214.7627">ApduRequest(byte[] buffer, boolean case4, Set&lt;Integer&gt; successfulStatusCodes)</text><ellipse cx="846.5" cy="224.1797" fill="#84BE84" rx="3" ry="3" style="stroke: #038048; stroke-width: 1.0;"/><text fill="#000000" font-family="sans-serif" font-size="11" lengthAdjust="spacingAndGlyphs" textLength="273" x="855.5" y="228.5986">ApduRequest(String name, byte[] buffer, boolean case4,</text><text fill="#000000" font-family="sans-serif" font-size="11" lengthAdjust="spacingAndGlyphs" textLength="184" x="855.5" y="242.4346">Set&lt;Integer&gt; successfulStatusCodes)</text><ellipse cx="846.5" cy="251.8516" fill="#84BE84" rx="3" ry="3" style="stroke: #038048; stroke-width: 1.0;"/><text fill="#000000" font-family="sans-serif" font-size="11" lengthAdjust="spacingAndGlyphs" textLength="211" x="855.5" y="256.2705">ApduRequest(byte[] buffer, boolean case4)</text><ellipse cx="846.5" cy="265.6875" fill="#84BE84" rx="3" ry="3" style="stroke: #038048; stroke-width: 1.0;"/><text fill="#000000" font-family="sans-serif" font-size="11" lengthAdjust="spacingAndGlyphs" textLength="274" x="855.5" y="270.1064">ApduRequest(String name, byte[] buffer, boolean case4)</text><ellipse cx="846.5" cy="279.5234" fill="#84BE84" rx="3" ry="3" style="stroke: #038048; stroke-width: 1.0;"/><text fill="#000000" font-family="sans-serif" font-size="11" lengthAdjust="spacingAndGlyphs" textLength="88" x="855.5" y="283.9424">boolean isCase4()</text><text fill="#000000" font-family="sans-serif" font-size="11" lengthAdjust="spacingAndGlyphs" textLength="0" x="858.5" y="297.7783"/><ellipse cx="846.5" cy="307.1953" fill="#84BE84" rx="3" ry="3" style="stroke: #038048; stroke-width: 1.0;"/><text fill="#000000" font-family="sans-serif" font-size="11" lengthAdjust="spacingAndGlyphs" textLength="88" x="855.5" y="311.6143">boolean isCase4()</text><ellipse cx="846.5" cy="321.0313" fill="#84BE84" rx="3" ry="3" style="stroke: #038048; stroke-width: 1.0;"/><text fill="#000000" font-family="sans-serif" font-size="11" lengthAdjust="spacingAndGlyphs" textLength="130" x="855.5" y="325.4502">setName(final String name)</text><ellipse cx="846.5" cy="334.8672" fill="#84BE84" rx="3" ry="3" style="stroke: #038048; stroke-width: 1.0;"/><text fill="#000000" font-family="sans-serif" font-size="11" lengthAdjust="spacingAndGlyphs" textLength="204" x="855.5" y="339.2861">Set&lt;Integer&gt; getSuccessfulStatusCodes()</text><ellipse cx="846.5" cy="348.7031" fill="#84BE84" rx="3" ry="3" style="stroke: #038048; stroke-width: 1.0;"/><text fill="#000000" font-family="sans-serif" font-size="11" lengthAdjust="spacingAndGlyphs" textLength="81" x="855.5" y="353.1221">String getName()</text><ellipse cx="846.5" cy="362.5391" fill="#84BE84" rx="3" ry="3" style="stroke: #038048; stroke-width: 1.0;"/><text fill="#000000" font-family="sans-serif" font-size="11" lengthAdjust="spacingAndGlyphs" textLength="81" x="855.5" y="366.958">byte[] getBytes()</text><!--MD5=[020bc233d237158d8be37d9dae17a65e]
class ApduResponse--><rect fill="#FEFECE" filter="url(#fhvcikadqwxy5)" height="227.8672" id="ApduResponse" style="stroke: #A80036; stroke-width: 1.5;" width="355" x="903.5" y="660"/><ellipse cx="1014.75" cy="676" fill="#ADD1B2" rx="11" ry="11" style="stroke: #A80036; stroke-width: 1.0;"/><path d="M1016.75,672.5 Q1016.9531,672 1017.1875,671.75 Q1017.4219,671.5 1017.6875,671.5 Q1018.1563,671.5 1018.4531,671.7813 Q1018.75,672.0625 1018.75,672.7188 L1018.75,674.2813 Q1018.75,674.9375 1018.4688,675.2188 Q1018.1875,675.5 1017.75,675.5 Q1017.3594,675.5 1017.1094,675.3281 Q1016.8594,675.1563 1016.75,674.7031 Q1016.7031,674.3906 1016.5313,674.2188 Q1016.2188,673.8906 1015.6563,673.7031 Q1015.0938,673.5 1014.5313,673.5 Q1013.8281,673.5 1013.2344,673.7813 Q1012.6563,674.0625 1012.2031,674.6875 Q1011.75,675.3125 1011.75,676.1719 L1011.75,677.0938 Q1011.75,678.125 1012.5938,678.8125 Q1013.4375,679.5 1014.9375,679.5 Q1015.8281,679.5 1016.4531,679.2969 Q1016.8125,679.1875 1017.2188,678.8281 Q1017.4844,678.625 1017.625,678.5625 Q1017.7656,678.5 1017.9375,678.5 Q1018.2656,678.5 1018.5,678.7656 Q1018.75,679.0156 1018.75,679.375 Q1018.75,679.7188 1018.4063,680.125 Q1017.9063,680.7188 1017.1094,681.0469 Q1016.0625,681.5 1014.7813,681.5 Q1013.2813,681.5 1012.0781,680.9063 Q1011.1094,680.4375 1010.4219,679.4219 Q1009.75,678.4063 1009.75,677.2031 L1009.75,676.1094 Q1009.75,674.8594 1010.3438,673.7656 Q1010.9531,672.6719 1012,672.0938 Q1013.0625,671.5 1014.25,671.5 Q1014.9688,671.5 1015.5938,671.75 Q1016.2188,672 1016.75,672.5 Z "/><ellipse cx="1040.25" cy="675.5" fill="#84BE84" rx="3" ry="3" style="stroke: #038048; stroke-width: 1.0;"/><text fill="#000000" font-family="sans-serif" font-size="12" font-weight="bold" lengthAdjust="spacingAndGlyphs" textLength="24" x="1046.25" y="680.9102">final</text><text fill="#000000" font-family="sans-serif" font-size="12" lengthAdjust="spacingAndGlyphs" textLength="86" x="1073.25" y="680.9102">ApduResponse</text><line style="stroke: #A80036; stroke-width: 1.5;" x1="904.5" x2="1257.5" y1="692" y2="692"/><rect fill="none" height="6" style="stroke: #C82930; stroke-width: 1.0;" width="6" x="911.5" y="700"/><text fill="#000000" font-family="sans-serif" font-size="11" font-weight="bold" lengthAdjust="spacingAndGlyphs" textLength="23" x="923.5" y="707.4189">final</text><text fill="#000000" font-family="sans-serif" font-size="11" lengthAdjust="spacingAndGlyphs" textLength="57" x="949.5" y="707.4189">byte[] bytes</text><rect fill="none" height="6" style="stroke: #C82930; stroke-width: 1.0;" width="6" x="911.5" y="713.8359"/><text fill="#000000" font-family="sans-serif" font-size="11" font-weight="bold" lengthAdjust="spacingAndGlyphs" textLength="23" x="923.5" y="721.2549">final</text><text fill="#000000" font-family="sans-serif" font-size="11" lengthAdjust="spacingAndGlyphs" textLength="95" x="949.5" y="721.2549">boolean successful</text><ellipse cx="914.5" cy="730.6719" fill="#84BE84" rx="3" ry="3" style="stroke: #038048; stroke-width: 1.0;"/><text fill="#000000" font-family="sans-serif" font-size="11" lengthAdjust="spacingAndGlyphs" textLength="329" x="923.5" y="735.0908">ApduResponse(byte[] buffer, Set&lt;Integer&gt; successfulStatusCodes)</text><ellipse cx="914.5" cy="744.5078" fill="#84BE84" rx="3" ry="3" style="stroke: #038048; stroke-width: 1.0;"/><text fill="#000000" font-family="sans-serif" font-size="11" lengthAdjust="spacingAndGlyphs" textLength="112" x="923.5" y="748.9268">boolean isSuccessful()</text><ellipse cx="914.5" cy="758.3438" fill="#84BE84" rx="3" ry="3" style="stroke: #038048; stroke-width: 1.0;"/><text fill="#000000" font-family="sans-serif" font-size="11" lengthAdjust="spacingAndGlyphs" textLength="93" x="923.5" y="762.7627">int getStatusCode()</text><ellipse cx="914.5" cy="772.1797" fill="#84BE84" rx="3" ry="3" style="stroke: #038048; stroke-width: 1.0;"/><text fill="#000000" font-family="sans-serif" font-size="11" lengthAdjust="spacingAndGlyphs" textLength="81" x="923.5" y="776.5986">byte[] getBytes()</text><text fill="#000000" font-family="sans-serif" font-size="11" lengthAdjust="spacingAndGlyphs" textLength="0" x="926.5" y="790.4346"/><ellipse cx="914.5" cy="817.6875" fill="#84BE84" rx="3" ry="3" style="stroke: #038048; stroke-width: 1.0;"/><text fill="#000000" font-family="sans-serif" font-size="11" lengthAdjust="spacingAndGlyphs" textLength="92" x="923.5" y="822.1064">byte[] getDataOut()</text><text fill="#000000" font-family="sans-serif" font-size="11" lengthAdjust="spacingAndGlyphs" textLength="0" x="926.5" y="835.9424"/><line style="stroke: #A80036; stroke-width: 1.0; stroke-dasharray: 1.0,2.0;" x1="904.5" x2="1025" y1="803.7695" y2="803.7695"/><text fill="#000000" font-family="sans-serif" font-size="11" lengthAdjust="spacingAndGlyphs" textLength="112" x="1025" y="807.7705">To review - array copy</text><line style="stroke: #A80036; stroke-width: 1.0; stroke-dasharray: 1.0,2.0;" x1="1137" x2="1257.5" y1="803.7695" y2="803.7695"/><ellipse cx="914.5" cy="863.1953" fill="#84BE84" rx="3" ry="3" style="stroke: #038048; stroke-width: 1.0;"/><text fill="#000000" font-family="sans-serif" font-size="11" lengthAdjust="spacingAndGlyphs" textLength="121" x="923.5" y="867.6143">boolean equals(Object o)</text><ellipse cx="914.5" cy="877.0313" fill="#84BE84" rx="3" ry="3" style="stroke: #038048; stroke-width: 1.0;"/><text fill="#000000" font-family="sans-serif" font-size="11" lengthAdjust="spacingAndGlyphs" textLength="71" x="923.5" y="881.4502">int hashCode()</text><line style="stroke: #A80036; stroke-width: 1.0; stroke-dasharray: 1.0,2.0;" x1="904.5" x2="1039.5" y1="849.2773" y2="849.2773"/><text fill="#000000" font-family="sans-serif" font-size="11" lengthAdjust="spacingAndGlyphs" textLength="83" x="1039.5" y="853.2783">To review - need</text><line style="stroke: #A80036; stroke-width: 1.0; stroke-dasharray: 1.0,2.0;" x1="1122.5" x2="1257.5" y1="849.2773" y2="849.2773"/><!--MD5=[029eeeb5f037d1cad7d1ad059afd3aa0]
class SeProtocol--><rect fill="#FEFECE" filter="url(#fhvcikadqwxy5)" height="48" id="SeProtocol" style="stroke: #A80036; stroke-width: 1.5;" width="92" x="1315" y="214.5"/><ellipse cx="1330" cy="230.5" fill="#ADD1B2" rx="11" ry="11" style="stroke: #A80036; stroke-width: 1.0;"/><path d="M1332,227 Q1332.2031,226.5 1332.4375,226.25 Q1332.6719,226 1332.9375,226 Q1333.4063,226 1333.7031,226.2813 Q1334,226.5625 1334,227.2188 L1334,228.7813 Q1334,229.4375 1333.7188,229.7188 Q1333.4375,230 1333,230 Q1332.6094,230 1332.3594,229.8281 Q1332.1094,229.6563 1332,229.2031 Q1331.9531,228.8906 1331.7813,228.7188 Q1331.4688,228.3906 1330.9063,228.2031 Q1330.3438,228 1329.7813,228 Q1329.0781,228 1328.4844,228.2813 Q1327.9063,228.5625 1327.4531,229.1875 Q1327,229.8125 1327,230.6719 L1327,231.5938 Q1327,232.625 1327.8438,233.3125 Q1328.6875,234 1330.1875,234 Q1331.0781,234 1331.7031,233.7969 Q1332.0625,233.6875 1332.4688,233.3281 Q1332.7344,233.125 1332.875,233.0625 Q1333.0156,233 1333.1875,233 Q1333.5156,233 1333.75,233.2656 Q1334,233.5156 1334,233.875 Q1334,234.2188 1333.6563,234.625 Q1333.1563,235.2188 1332.3594,235.5469 Q1331.3125,236 1330.0313,236 Q1328.5313,236 1327.3281,235.4063 Q1326.3594,234.9375 1325.6719,233.9219 Q1325,232.9063 1325,231.7031 L1325,230.6094 Q1325,229.3594 1325.5938,228.2656 Q1326.2031,227.1719 1327.25,226.5938 Q1328.3125,226 1329.5,226 Q1330.2188,226 1330.8438,226.25 Q1331.4688,226.5 1332,227 Z "/><text fill="#000000" font-family="sans-serif" font-size="12" lengthAdjust="spacingAndGlyphs" textLength="60" x="1344" y="235.4102">SeProtocol</text><line style="stroke: #A80036; stroke-width: 1.5;" x1="1316" x2="1406" y1="246.5" y2="246.5"/><line style="stroke: #A80036; stroke-width: 1.5;" x1="1316" x2="1406" y1="254.5" y2="254.5"/><!--MD5=[e4f572bf50eea03c248ac813cab70dad]
link SeRequest to ProxyReader--><path d="M541.847,304.21 C548.563,348.344 557.423,406.568 564.142,450.718 " fill="none" id="SeRequest-ProxyReader" style="stroke: #A80036; stroke-width: 1.0;"/><polygon fill="#000000" points="573,414,576,408,579,414,573,414" style="stroke: #000000; stroke-width: 1.0;"/><text fill="#000000" font-family="sans-serif" font-size="13" lengthAdjust="spacingAndGlyphs" textLength="35" x="560" y="430.4951">sends</text><text fill="#000000" font-family="sans-serif" font-size="13" lengthAdjust="spacingAndGlyphs" textLength="8" x="534.45" y="325.3238">+</text><text fill="#000000" font-family="sans-serif" font-size="13" lengthAdjust="spacingAndGlyphs" textLength="22" x="539.8607" y="440.1616">0..1</text><!--MD5=[0d7205b5e2e0e972f66009d5f5360eb0]
link ProxyReader to SeResponse--><path d="M574,582.304 C574,605.81 574,633.108 574,659.575 " fill="none" id="ProxyReader-SeResponse" style="stroke: #A80036; stroke-width: 1.0;"/><text fill="#000000" font-family="sans-serif" font-size="13" lengthAdjust="spacingAndGlyphs" textLength="47" x="575" y="626.4951">receives</text><polygon fill="#000000" points="594,635.3516,597,641.3516,600,635.3516,594,635.3516" style="stroke: #000000; stroke-width: 1.0;"/><text fill="#000000" font-family="sans-serif" font-size="13" lengthAdjust="spacingAndGlyphs" textLength="22" x="550.8656" y="603.4275">0..1</text><text fill="#000000" font-family="sans-serif" font-size="13" lengthAdjust="spacingAndGlyphs" textLength="8" x="565.7438" y="649.2428">+</text><!--MD5=[f2a189b9c1aaca94cfda8cb7f338ac73]
link SeRequest to ApduRequest--><path d="M727.746,238.5 C727.746,238.5 791.024,238.5 822.002,238.5 " fill="none" id="SeRequest-ApduRequest" style="stroke: #A80036; stroke-width: 1.0;"/><polygon fill="#A80036" points="835.234,238.5,826.234,234.5,830.234,238.5,826.234,242.5,835.234,238.5" style="stroke: #A80036; stroke-width: 1.0;"/><line style="stroke: #A80036; stroke-width: 1.0;" x1="830.234" x2="822.2335" y1="238.5" y2="238.5"/><polygon fill="#FFFFFF" points="715.746,238.5,721.746,242.5,727.746,238.5,721.746,234.5,715.746,238.5" style="stroke: #A80036; stroke-width: 1.0;"/><text fill="#000000" font-family="sans-serif" font-size="13" lengthAdjust="spacingAndGlyphs" textLength="83" x="734" y="231.9951">apduRequests</text><text fill="#000000" font-family="sans-serif" font-size="13" lengthAdjust="spacingAndGlyphs" textLength="22" x="723.3533" y="252.3142">0..1</text><text fill="#000000" font-family="sans-serif" font-size="13" lengthAdjust="spacingAndGlyphs" textLength="5" x="822.5338" y="235.7072">*</text><!--MD5=[c5dba62ff8fe09e2ca6fe5dad33389aa]
link SeResponse to ApduResponse--><path d="M786.016,774 C786.016,774 856.328,774 889.901,774 " fill="none" id="SeResponse-ApduResponse" style="stroke: #A80036; stroke-width: 1.0;"/><polygon fill="#A80036" points="903.182,774,894.182,770,898.182,774,894.182,778,903.182,774" style="stroke: #A80036; stroke-width: 1.0;"/><line style="stroke: #A80036; stroke-width: 1.0;" x1="898.182" x2="890.182" y1="774" y2="774"/><polygon fill="#FFFFFF" points="774.016,774,780.016,778,786.016,774,780.016,770,774.016,774" style="stroke: #A80036; stroke-width: 1.0;"/><text fill="#000000" font-family="sans-serif" font-size="13" lengthAdjust="spacingAndGlyphs" textLength="93" x="792.25" y="767.4951">apduResponses</text><text fill="#000000" font-family="sans-serif" font-size="13" lengthAdjust="spacingAndGlyphs" textLength="22" x="782.2588" y="787.8171">0..1</text><text fill="#000000" font-family="sans-serif" font-size="13" lengthAdjust="spacingAndGlyphs" textLength="5" x="890.5748" y="771.1678">*</text><!--MD5=[4668f57ead09c7060ecd045d8de80b60]
link SeSelector to SeRequest--><path d="M313.672,238.5 C325.185,238.5 336.699,238.5 348.212,238.5 " fill="none" id="SeSelector-SeRequest" style="stroke: #A80036; stroke-width: 1.0;"/><!--MD5=[54bf7d93c0d5a4ae5f90815e1c5319c6]
link ChannelControl to ProxyReader--><path d="M313.264,516.5 C324.807,516.5 336.35,516.5 347.893,516.5 " fill="none" id="ChannelControl-ProxyReader" style="stroke: #A80036; stroke-width: 1.0;"/><!--MD5=[7af35e85591be70f174807588a3d67f6]
link SeProtocol to ApduRequest--><!--MD5=[47a4b9dcabed00df4a9bc69a89607e2c]
@startuml
package org.eclipse.keyple.seproxy #FFFFFF {

+class SeSelector {
  +SeSelector(SeProtocol seProtocol, AtrFilter atrFilter,
    AidSelector aidSelector, String extraInfo)
  +SeProtocol getSeProtocol()
  +AtrFilter getAtrFilter()
  +AidSelector getAidSelector()
  +final String getExtraInfo()
}
+enum ChannelControl {
	KEEP_OPEN
	CLOSE_AFTER
}

  package message #FFFFFF {
+interface ProxyReader {
  +List<SeResponse> transmitSet(Set<SeRequest> seApplicationRequest,
    MultiSeRequestProcessing multiSeRequestProcessing, ChannelControl channelControl)
  +List<SeResponse> transmitSet(Set<SeRequest> seApplicationRequest)

  +SeResponse transmit(SeRequest seApplicationRequest, ChannelControl channelControl)
  +SeResponse transmit(SeRequest seApplicationRequest)
}
+class "<b>final</b> SeRequest" as SeRequest {
  -<b>final</b> Selector[0..1] selector
  -<b>final</b> List<ApduRequest> apduRequests

  +SeRequest(Selector[0..1] selector, List<ApduRequest> apduRequests)

  +SeSelector getSeSelector()
  +List<ApduRequest> getApduRequests()
}

+class "<b>final</b> SeResponse" as SeResponse {
  -<b>final</b> boolean channelPreviouslyOpen
  -<b>final</b> boolean logicalChannelIsOpen
  -<b>final</b> SelectionStatus selectionStatus
  -<b>final</b> List<ApduResponse> apduResponses

  +SeResponse(boolean logicalChannelIsOpen, boolean channelPreviouslyOpen,
    SelectionStatus selectionStatus, List<ApduResponse> apduResponses)
  +boolean wasChannelPreviouslyOpen()
  +boolean isLogicalChannelOpen()
  +SelectionStatus getSelectionStatus()
  +List<ApduResponse> getApduResponses()
  +String toString()
  +boolean equals(Object o)
  +int hashCode()
}
+class "<b>final</b> ApduRequest" as ApduRequest {
  -byte[] bytes
  -<b>final</b> boolean case4
  -<b>final</b>Set<Integer> successfulStatusCodes
  -String name


  +ApduRequest(byte[] buffer, boolean case4, Set<Integer> successfulStatusCodes)
  +ApduRequest(String name, byte[] buffer, boolean case4,
    Set<Integer> successfulStatusCodes)
  +ApduRequest(byte[] buffer, boolean case4)
  +ApduRequest(String name, byte[] buffer, boolean case4)



  +boolean isCase4()

  +boolean isCase4()
  +setName(final String name)
  +Set<Integer> getSuccessfulStatusCodes()
  +String getName()
  +byte[] getBytes()
}

+class "<b>final</b> ApduResponse" as ApduResponse {
  -<b>final</b> byte[] bytes
  -<b>final</b> boolean successful
  +ApduResponse(byte[] buffer, Set<Integer> successfulStatusCodes)
  +boolean isSuccessful()
  +int getStatusCode()
  +byte[] getBytes()

  .. To review - array copy ..
  +byte[] getDataOut()

  .. To review - need ..
  +boolean equals(Object o)
  +int hashCode()
}

    ProxyReader "0..1" -up- "+" SeRequest : sends >
    ProxyReader "0..1" -down- "+" SeResponse : receives >
    SeRequest "0..1" o-right-> "*" ApduRequest : apduRequests
    SeResponse "0..1" o-right-> "*" ApduResponse : apduResponses
  }

  SeSelector -right- SeRequest
  ChannelControl -right- ProxyReader




}



SeProtocol -right[hidden]- ApduRequest
@enduml

PlantUML version 1.2020.07(Sun Apr 19 15:42:40 MUT 2020)
(GPL source distribution)
Java Runtime: OpenJDK Runtime Environment
JVM: OpenJDK 64-Bit Server VM
Java Version: 11.0.6+8-b765.40
Operating System: Windows 10
Default Encoding: Cp1252
Language: fr
Country: FR
--></g></svg>