<?xml version="1.0" encoding="UTF-8" standalone="no"?><svg xmlns="http://www.w3.org/2000/svg" xmlns:xlink="http://www.w3.org/1999/xlink" contentScriptType="application/ecmascript" contentStyleType="text/css" height="1067px" preserveAspectRatio="none" style="width:1250px;height:1067px;" version="1.1" viewBox="0 0 1250 1067" width="1250px" zoomAndPan="magnify"><defs><filter height="300%" id="f1w9ddaqijl6zx" width="300%" x="-1" y="-1"><feGaussianBlur result="blurOut" stdDeviation="2.0"/><feColorMatrix in="blurOut" result="blurOut2" type="matrix" values="0 0 0 0 0 0 0 0 0 0 0 0 0 0 0 0 0 0 .4 0"/><feOffset dx="4.0" dy="4.0" in="blurOut2" result="blurOut3"/><feBlend in="SourceGraphic" in2="blurOut3" mode="normal"/></filter></defs><g><!--MD5=[c3c915b379c717332e210d38dcd6e8a2]
cluster org.eclipse.keyple.core--><polygon fill="#FFFFFF" filter="url(#f1w9ddaqijl6zx)" points="22,24,193,24,200,47.6094,1228,47.6094,1228,1055,22,1055,22,24" style="stroke: #000000; stroke-width: 1.5;"/><line style="stroke: #000000; stroke-width: 1.5;" x1="22" x2="200" y1="47.6094" y2="47.6094"/><text fill="#000000" font-family="sans-serif" font-size="14" font-weight="bold" lengthAdjust="spacingAndGlyphs" textLength="165" x="26" y="40.5332">org.eclipse.keyple.core</text><!--MD5=[3e81cc6ee7da4fa8b6adc12b329096f6]
cluster util--><polygon fill="#FFFFFF" filter="url(#f1w9ddaqijl6zx)" points="434,76,462,76,469,99.6094,900,99.6094,900,234,434,234,434,76" style="stroke: #000000; stroke-width: 1.5;"/><line style="stroke: #000000; stroke-width: 1.5;" x1="434" x2="469" y1="99.6094" y2="99.6094"/><text fill="#000000" font-family="sans-serif" font-size="14" font-weight="bold" lengthAdjust="spacingAndGlyphs" textLength="22" x="438" y="92.5332">util</text><!--MD5=[50877fe469a156400d2d04beeda3ce9c]
cluster seproxy--><polygon fill="#FFFFFF" filter="url(#f1w9ddaqijl6zx)" points="54,283,116,283,123,306.6094,1196,306.6094,1196,1023,54,1023,54,283" style="stroke: #000000; stroke-width: 1.5;"/><line style="stroke: #000000; stroke-width: 1.5;" x1="54" x2="123" y1="306.6094" y2="306.6094"/><text fill="#000000" font-family="sans-serif" font-size="14" font-weight="bold" lengthAdjust="spacingAndGlyphs" textLength="56" x="58" y="299.5332">seproxy</text><!--MD5=[2e31800f208179cab94650aeb782e4d8]
cluster event--><polygon fill="#FFFFFF" filter="url(#f1w9ddaqijl6zx)" points="373,725,420,725,427,748.6094,1164,748.6094,1164,991,373,991,373,725" style="stroke: #000000; stroke-width: 1.5;"/><line style="stroke: #000000; stroke-width: 1.5;" x1="373" x2="427" y1="748.6094" y2="748.6094"/><text fill="#000000" font-family="sans-serif" font-size="14" font-weight="bold" lengthAdjust="spacingAndGlyphs" textLength="41" x="377" y="741.5332">event</text><!--MD5=[8e936f9b0c8a405e1c674edc8f191d2f]
class Nameable--><rect fill="#FEFECE" filter="url(#f1w9ddaqijl6zx)" height="61.8359" id="Nameable" style="stroke: #A80036; stroke-width: 1.5;" width="107" x="477.5" y="134"/><ellipse cx="494.75" cy="150" fill="#B4A7E5" rx="11" ry="11" style="stroke: #A80036; stroke-width: 1.0;"/><path d="M495.75,147 L495.75,153 L497.75,153 L498.2344,153 L498.75,153.625 L498.75,154 L498.75,154.375 L498.2344,155 L497.75,155 L491.75,155 L491.2656,155 L490.75,154.375 L490.75,154 L490.75,153.625 L491.2656,153 L491.75,153 L493.75,153 L493.75,147 L491.75,147 L491.2656,147 L490.75,146.375 L490.75,146 L490.75,145.625 L491.2656,145 L491.75,145 L497.75,145 L498.2344,145 L498.75,145.625 L498.75,146 L498.75,146.375 L498.2344,147 L497.75,147 L495.75,147 Z "/><ellipse cx="514.25" cy="149.5" fill="#84BE84" rx="3" ry="3" style="stroke: #038048; stroke-width: 1.0;"/><text fill="#000000" font-family="sans-serif" font-size="12" font-style="italic" lengthAdjust="spacingAndGlyphs" textLength="59" x="520.25" y="154.9102">Nameable</text><line style="stroke: #A80036; stroke-width: 1.5;" x1="478.5" x2="583.5" y1="166" y2="166"/><line style="stroke: #A80036; stroke-width: 1.5;" x1="478.5" x2="583.5" y1="174" y2="174"/><ellipse cx="488.5" cy="185" fill="#84BE84" rx="3" ry="3" style="stroke: #038048; stroke-width: 1.0;"/><text fill="#000000" font-family="sans-serif" font-size="11" lengthAdjust="spacingAndGlyphs" textLength="81" x="497.5" y="189.4189">String getName()</text><!--MD5=[d4973a117951818d974fd20d0c16c2e4]
class Configurable--><rect fill="#FEFECE" filter="url(#f1w9ddaqijl6zx)" height="89.5078" id="Configurable" style="stroke: #A80036; stroke-width: 1.5;" width="256" x="620" y="120"/><ellipse cx="702.25" cy="136" fill="#B4A7E5" rx="11" ry="11" style="stroke: #A80036; stroke-width: 1.0;"/><path d="M703.25,133 L703.25,139 L705.25,139 L705.7344,139 L706.25,139.625 L706.25,140 L706.25,140.375 L705.7344,141 L705.25,141 L699.25,141 L698.7656,141 L698.25,140.375 L698.25,140 L698.25,139.625 L698.7656,139 L699.25,139 L701.25,139 L701.25,133 L699.25,133 L698.7656,133 L698.25,132.375 L698.25,132 L698.25,131.625 L698.7656,131 L699.25,131 L705.25,131 L705.7344,131 L706.25,131.625 L706.25,132 L706.25,132.375 L705.7344,133 L705.25,133 L703.25,133 Z "/><ellipse cx="727.75" cy="135.5" fill="#84BE84" rx="3" ry="3" style="stroke: #038048; stroke-width: 1.0;"/><text fill="#000000" font-family="sans-serif" font-size="12" font-style="italic" lengthAdjust="spacingAndGlyphs" textLength="72" x="733.75" y="140.9102">Configurable</text><line style="stroke: #A80036; stroke-width: 1.5;" x1="621" x2="875" y1="152" y2="152"/><line style="stroke: #A80036; stroke-width: 1.5;" x1="621" x2="875" y1="160" y2="160"/><ellipse cx="631" cy="171" fill="#84BE84" rx="3" ry="3" style="stroke: #038048; stroke-width: 1.0;"/><text fill="#000000" font-family="sans-serif" font-size="11" lengthAdjust="spacingAndGlyphs" textLength="178" x="640" y="175.4189">Map&lt;String, String&gt; getParameters();</text><ellipse cx="631" cy="184.8359" fill="#84BE84" rx="3" ry="3" style="stroke: #038048; stroke-width: 1.0;"/><text fill="#000000" font-family="sans-serif" font-size="11" lengthAdjust="spacingAndGlyphs" textLength="183" x="640" y="189.2549">setParameter(String key, String value)</text><ellipse cx="631" cy="198.6719" fill="#84BE84" rx="3" ry="3" style="stroke: #038048; stroke-width: 1.0;"/><text fill="#000000" font-family="sans-serif" font-size="11" lengthAdjust="spacingAndGlyphs" textLength="230" x="640" y="203.0908">setParameters(Map&lt;String, String&gt; parameters)</text><!--MD5=[f0c44d4c6fb415056b2c0aabd573961b]
class SeProxyService--><rect fill="#FEFECE" filter="url(#f1w9ddaqijl6zx)" height="153.0391" id="SeProxyService" style="stroke: #A80036; stroke-width: 1.5;" width="340" x="100" y="327"/><ellipse cx="204.75" cy="347.0938" fill="#ADD1B2" rx="11" ry="11" style="stroke: #A80036; stroke-width: 1.0;"/><path d="M206.75,343.5938 Q206.9531,343.0938 207.1875,342.8438 Q207.4219,342.5938 207.6875,342.5938 Q208.1563,342.5938 208.4531,342.875 Q208.75,343.1563 208.75,343.8125 L208.75,345.375 Q208.75,346.0313 208.4688,346.3125 Q208.1875,346.5938 207.75,346.5938 Q207.3594,346.5938 207.1094,346.4219 Q206.8594,346.25 206.75,345.7969 Q206.7031,345.4844 206.5313,345.3125 Q206.2188,344.9844 205.6563,344.7969 Q205.0938,344.5938 204.5313,344.5938 Q203.8281,344.5938 203.2344,344.875 Q202.6563,345.1563 202.2031,345.7813 Q201.75,346.4063 201.75,347.2656 L201.75,348.1875 Q201.75,349.2188 202.5938,349.9063 Q203.4375,350.5938 204.9375,350.5938 Q205.8281,350.5938 206.4531,350.3906 Q206.8125,350.2813 207.2188,349.9219 Q207.4844,349.7188 207.625,349.6563 Q207.7656,349.5938 207.9375,349.5938 Q208.2656,349.5938 208.5,349.8594 Q208.75,350.1094 208.75,350.4688 Q208.75,350.8125 208.4063,351.2188 Q207.9063,351.8125 207.1094,352.1406 Q206.0625,352.5938 204.7813,352.5938 Q203.2813,352.5938 202.0781,352 Q201.1094,351.5313 200.4219,350.5156 Q199.75,349.5 199.75,348.2969 L199.75,347.2031 Q199.75,345.9531 200.3438,344.8594 Q200.9531,343.7656 202,343.1875 Q203.0625,342.5938 204.25,342.5938 Q204.9688,342.5938 205.5938,342.8438 Q206.2188,343.0938 206.75,343.5938 Z "/><text fill="#000000" font-family="sans-serif" font-size="12" font-style="italic" lengthAdjust="spacingAndGlyphs" textLength="66" x="253.25" y="344.457">«Singleton»</text><ellipse cx="230.25" cy="354.1406" fill="#84BE84" rx="3" ry="3" style="stroke: #038048; stroke-width: 1.0;"/><text fill="#000000" font-family="sans-serif" font-size="12" font-weight="bold" lengthAdjust="spacingAndGlyphs" textLength="24" x="236.25" y="359.5508">final</text><text fill="#000000" font-family="sans-serif" font-size="12" lengthAdjust="spacingAndGlyphs" textLength="84" x="263.25" y="359.5508">SeProxyService</text><line style="stroke: #A80036; stroke-width: 1.5;" x1="101" x2="439" y1="367.1875" y2="367.1875"/><line style="stroke: #A80036; stroke-width: 1.5;" x1="101" x2="439" y1="375.1875" y2="375.1875"/><ellipse cx="111" cy="386.1875" fill="#84BE84" rx="3" ry="3" style="stroke: #038048; stroke-width: 1.0;"/><text fill="#000000" font-family="sans-serif" font-size="11" lengthAdjust="spacingAndGlyphs" text-decoration="underline" textLength="145" x="120" y="390.6064">SeProxyService getInstance()</text><ellipse cx="111" cy="400.0234" fill="#84BE84" rx="3" ry="3" style="stroke: #038048; stroke-width: 1.0;"/><text fill="#000000" font-family="sans-serif" font-size="11" lengthAdjust="spacingAndGlyphs" textLength="92" x="120" y="404.4424">String getVersion()</text><ellipse cx="111" cy="413.8594" fill="#84BE84" rx="3" ry="3" style="stroke: #038048; stroke-width: 1.0;"/><text fill="#000000" font-family="sans-serif" font-size="11" lengthAdjust="spacingAndGlyphs" textLength="314" x="120" y="418.2783">ReaderPlugin registerPlugin(AbstractPluginFactory pluginFactory)</text><ellipse cx="111" cy="427.6953" fill="#84BE84" rx="3" ry="3" style="stroke: #038048; stroke-width: 1.0;"/><text fill="#000000" font-family="sans-serif" font-size="11" lengthAdjust="spacingAndGlyphs" textLength="195" x="120" y="432.1143">boolean isRegistered(String pluginName)</text><ellipse cx="111" cy="441.5313" fill="#84BE84" rx="3" ry="3" style="stroke: #038048; stroke-width: 1.0;"/><text fill="#000000" font-family="sans-serif" font-size="11" lengthAdjust="spacingAndGlyphs" textLength="212" x="120" y="445.9502">boolean unregisterPlugin(String pluginName)</text><ellipse cx="111" cy="455.3672" fill="#84BE84" rx="3" ry="3" style="stroke: #038048; stroke-width: 1.0;"/><text fill="#000000" font-family="sans-serif" font-size="11" lengthAdjust="spacingAndGlyphs" textLength="174" x="120" y="459.7861">ReaderPlugin getPlugin(String name)</text><ellipse cx="111" cy="469.2031" fill="#84BE84" rx="3" ry="3" style="stroke: #038048; stroke-width: 1.0;"/><text fill="#000000" font-family="sans-serif" font-size="11" lengthAdjust="spacingAndGlyphs" textLength="151" x="120" y="473.6221">Set&lt;ReaderPlugin&gt; getPlugins()</text><!--MD5=[589e28272a74d38b4e0a352c82e7b326]
class AbstractPluginFactory--><rect fill="#FEFECE" filter="url(#f1w9ddaqijl6zx)" height="75.6719" id="AbstractPluginFactory" style="stroke: #A80036; stroke-width: 1.5;" width="192" x="138" y="571.5"/><ellipse cx="166.05" cy="587.5" fill="#A9DCDF" rx="11" ry="11" style="stroke: #A80036; stroke-width: 1.0;"/><path d="M167.8,589 L164.5031,589 L164.0656,590 L164.0656,590 L164.5344,590 L165.05,590.625 L165.05,591 L165.05,591.375 L164.5344,592 L164.0656,592 L162.175,592 L161.5656,592 L161.05,591.375 L161.05,591 L161.05,590.625 L161.5656,590 L162.175,590 L164.4875,584 L163.6125,584 L162.5656,584 L162.05,583.375 L162.05,583 L162.05,582.625 L162.5656,582 L163.6125,582 L167.2844,582 L169.9719,590 L170.5344,590 L170.5344,590 L171.05,590.625 L171.05,591 L171.05,591.375 L170.5344,592 L169.9719,592 L168.0813,592 L167.5656,592 L167.05,591.375 L167.05,591 L167.05,590.625 L167.5656,590 L168.0813,590 L168.0813,590 L167.8,589 Z M167.2531,587 L166.05,583.4219 L165.0188,587 L167.2531,587 Z "/><ellipse cx="187.95" cy="587" fill="#84BE84" rx="3" ry="3" style="stroke: #038048; stroke-width: 1.0;"/><text fill="#000000" font-family="sans-serif" font-size="12" font-style="italic" lengthAdjust="spacingAndGlyphs" textLength="120" x="193.95" y="592.4102">AbstractPluginFactory</text><line style="stroke: #A80036; stroke-width: 1.5;" x1="139" x2="329" y1="603.5" y2="603.5"/><line style="stroke: #A80036; stroke-width: 1.5;" x1="139" x2="329" y1="611.5" y2="611.5"/><polygon fill="#FFFF44" points="149,617.5,153,621.5,149,625.5,145,621.5" style="stroke: #B38D22; stroke-width: 1.0;"/><text fill="#000000" font-family="sans-serif" font-size="11" font-style="italic" lengthAdjust="spacingAndGlyphs" textLength="115" x="158" y="626.9189">String getPluginName()</text><polygon fill="#FFFF44" points="149,631.3359,153,635.3359,149,639.3359,145,635.3359" style="stroke: #B38D22; stroke-width: 1.0;"/><text fill="#000000" font-family="sans-serif" font-size="11" font-style="italic" lengthAdjust="spacingAndGlyphs" textLength="166" x="158" y="640.7549">ReaderPlugin getPluginInstance()</text><!--MD5=[a0e88443257adb8def549c32ec694d43]
class ReaderPlugin--><rect fill="#FEFECE" filter="url(#f1w9ddaqijl6zx)" height="89.5078" id="ReaderPlugin" style="stroke: #A80036; stroke-width: 1.5;" width="207" x="409.5" y="564.5"/><ellipse cx="465.25" cy="580.5" fill="#B4A7E5" rx="11" ry="11" style="stroke: #A80036; stroke-width: 1.0;"/><path d="M466.25,577.5 L466.25,583.5 L468.25,583.5 L468.7344,583.5 L469.25,584.125 L469.25,584.5 L469.25,584.875 L468.7344,585.5 L468.25,585.5 L462.25,585.5 L461.7656,585.5 L461.25,584.875 L461.25,584.5 L461.25,584.125 L461.7656,583.5 L462.25,583.5 L464.25,583.5 L464.25,577.5 L462.25,577.5 L461.7656,577.5 L461.25,576.875 L461.25,576.5 L461.25,576.125 L461.7656,575.5 L462.25,575.5 L468.25,575.5 L468.7344,575.5 L469.25,576.125 L469.25,576.5 L469.25,576.875 L468.7344,577.5 L468.25,577.5 L466.25,577.5 Z "/><ellipse cx="490.75" cy="580" fill="#84BE84" rx="3" ry="3" style="stroke: #038048; stroke-width: 1.0;"/><text fill="#000000" font-family="sans-serif" font-size="12" font-style="italic" lengthAdjust="spacingAndGlyphs" textLength="76" x="496.75" y="585.4102">ReaderPlugin</text><line style="stroke: #A80036; stroke-width: 1.5;" x1="410.5" x2="615.5" y1="596.5" y2="596.5"/><line style="stroke: #A80036; stroke-width: 1.5;" x1="410.5" x2="615.5" y1="604.5" y2="604.5"/><ellipse cx="420.5" cy="615.5" fill="#84BE84" rx="3" ry="3" style="stroke: #038048; stroke-width: 1.0;"/><text fill="#000000" font-family="sans-serif" font-size="11" lengthAdjust="spacingAndGlyphs" textLength="181" x="429.5" y="619.9189">Map&lt;String, SeReader&gt; getReaders()</text><ellipse cx="420.5" cy="629.3359" fill="#84BE84" rx="3" ry="3" style="stroke: #038048; stroke-width: 1.0;"/><text fill="#000000" font-family="sans-serif" font-size="11" lengthAdjust="spacingAndGlyphs" textLength="150" x="429.5" y="633.7549">Set&lt;String&gt; getReaderNames()</text><ellipse cx="420.5" cy="643.1719" fill="#84BE84" rx="3" ry="3" style="stroke: #038048; stroke-width: 1.0;"/><text fill="#000000" font-family="sans-serif" font-size="11" lengthAdjust="spacingAndGlyphs" textLength="166" x="429.5" y="647.5908">SeReader getReader(String name)</text><!--MD5=[dd49942b1f02350b5568646d3da64c49]
class SeReader--><rect fill="#FEFECE" filter="url(#f1w9ddaqijl6zx)" height="103.3438" id="SeReader" style="stroke: #A80036; stroke-width: 1.5;" width="340" x="696" y="558"/><ellipse cx="828.25" cy="574" fill="#B4A7E5" rx="11" ry="11" style="stroke: #A80036; stroke-width: 1.0;"/><path d="M829.25,571 L829.25,577 L831.25,577 L831.7344,577 L832.25,577.625 L832.25,578 L832.25,578.375 L831.7344,579 L831.25,579 L825.25,579 L824.7656,579 L824.25,578.375 L824.25,578 L824.25,577.625 L824.7656,577 L825.25,577 L827.25,577 L827.25,571 L825.25,571 L824.7656,571 L824.25,570.375 L824.25,570 L824.25,569.625 L824.7656,569 L825.25,569 L831.25,569 L831.7344,569 L832.25,569.625 L832.25,570 L832.25,570.375 L831.7344,571 L831.25,571 L829.25,571 Z "/><ellipse cx="853.75" cy="573.5" fill="#84BE84" rx="3" ry="3" style="stroke: #038048; stroke-width: 1.0;"/><text fill="#000000" font-family="sans-serif" font-size="12" font-style="italic" lengthAdjust="spacingAndGlyphs" textLength="56" x="859.75" y="578.9102">SeReader</text><line style="stroke: #A80036; stroke-width: 1.5;" x1="697" x2="1035" y1="590" y2="590"/><line style="stroke: #A80036; stroke-width: 1.5;" x1="697" x2="1035" y1="598" y2="598"/><ellipse cx="707" cy="609" fill="#84BE84" rx="3" ry="3" style="stroke: #038048; stroke-width: 1.0;"/><text fill="#000000" font-family="sans-serif" font-size="11" lengthAdjust="spacingAndGlyphs" textLength="107" x="716" y="613.4189">boolean isSePresent()</text><ellipse cx="707" cy="622.8359" fill="#84BE84" rx="3" ry="3" style="stroke: #038048; stroke-width: 1.0;"/><text fill="#000000" font-family="sans-serif" font-size="11" lengthAdjust="spacingAndGlyphs" textLength="314" x="716" y="627.2549">addSeProtocolSetting(SeProtocol seProtocol, String protocolRule)</text><ellipse cx="707" cy="636.6719" fill="#84BE84" rx="3" ry="3" style="stroke: #038048; stroke-width: 1.0;"/><text fill="#000000" font-family="sans-serif" font-size="11" lengthAdjust="spacingAndGlyphs" textLength="301" x="716" y="641.0908">setSeProtocolSetting(Map&lt;SeProtocol, String&gt; protocolSetting)</text><ellipse cx="707" cy="650.5078" fill="#84BE84" rx="3" ry="3" style="stroke: #038048; stroke-width: 1.0;"/><text fill="#000000" font-family="sans-serif" font-size="11" lengthAdjust="spacingAndGlyphs" textLength="206" x="716" y="654.9268">TransmissionMode getTransmissionMode()</text><!--MD5=[ec495f5f6ae18812fb155b23e8e93f55]
class ReaderPoolPlugin--><rect fill="#FEFECE" filter="url(#f1w9ddaqijl6zx)" height="89.5078" id="ReaderPoolPlugin" style="stroke: #A80036; stroke-width: 1.5;" width="267" x="86.5" y="823"/><ellipse cx="159.75" cy="839" fill="#B4A7E5" rx="11" ry="11" style="stroke: #A80036; stroke-width: 1.0;"/><path d="M160.75,836 L160.75,842 L162.75,842 L163.2344,842 L163.75,842.625 L163.75,843 L163.75,843.375 L163.2344,844 L162.75,844 L156.75,844 L156.2656,844 L155.75,843.375 L155.75,843 L155.75,842.625 L156.2656,842 L156.75,842 L158.75,842 L158.75,836 L156.75,836 L156.2656,836 L155.75,835.375 L155.75,835 L155.75,834.625 L156.2656,834 L156.75,834 L162.75,834 L163.2344,834 L163.75,834.625 L163.75,835 L163.75,835.375 L163.2344,836 L162.75,836 L160.75,836 Z "/><ellipse cx="185.25" cy="838.5" fill="#84BE84" rx="3" ry="3" style="stroke: #038048; stroke-width: 1.0;"/><text fill="#000000" font-family="sans-serif" font-size="12" font-style="italic" lengthAdjust="spacingAndGlyphs" textLength="101" x="191.25" y="843.9102">ReaderPoolPlugin</text><line style="stroke: #A80036; stroke-width: 1.5;" x1="87.5" x2="352.5" y1="855" y2="855"/><line style="stroke: #A80036; stroke-width: 1.5;" x1="87.5" x2="352.5" y1="863" y2="863"/><ellipse cx="97.5" cy="874" fill="#84BE84" rx="3" ry="3" style="stroke: #038048; stroke-width: 1.0;"/><text fill="#000000" font-family="sans-serif" font-size="11" lengthAdjust="spacingAndGlyphs" textLength="236" x="106.5" y="878.4189">SortedSet&lt;String&gt; getReaderGroupReferences()</text><ellipse cx="97.5" cy="887.8359" fill="#84BE84" rx="3" ry="3" style="stroke: #038048; stroke-width: 1.0;"/><text fill="#000000" font-family="sans-serif" font-size="11" lengthAdjust="spacingAndGlyphs" textLength="241" x="106.5" y="892.2549">SeReader allocateReader(String groupReference)</text><ellipse cx="97.5" cy="901.6719" fill="#84BE84" rx="3" ry="3" style="stroke: #038048; stroke-width: 1.0;"/><text fill="#000000" font-family="sans-serif" font-size="11" lengthAdjust="spacingAndGlyphs" textLength="177" x="106.5" y="906.0908">releaseReader(SeReader seReader)</text><!--MD5=[1fa9a61019755e60a0cb03f0bc3590aa]
class ObservablePlugin--><rect fill="#FEFECE" filter="url(#f1w9ddaqijl6zx)" height="89.5078" id="ObservablePlugin" style="stroke: #A80036; stroke-width: 1.5;" width="266" x="389" y="823"/><ellipse cx="462.25" cy="839" fill="#B4A7E5" rx="11" ry="11" style="stroke: #A80036; stroke-width: 1.0;"/><path d="M463.25,836 L463.25,842 L465.25,842 L465.7344,842 L466.25,842.625 L466.25,843 L466.25,843.375 L465.7344,844 L465.25,844 L459.25,844 L458.7656,844 L458.25,843.375 L458.25,843 L458.25,842.625 L458.7656,842 L459.25,842 L461.25,842 L461.25,836 L459.25,836 L458.7656,836 L458.25,835.375 L458.25,835 L458.25,834.625 L458.7656,834 L459.25,834 L465.25,834 L465.7344,834 L466.25,834.625 L466.25,835 L466.25,835.375 L465.7344,836 L465.25,836 L463.25,836 Z "/><ellipse cx="487.75" cy="838.5" fill="#84BE84" rx="3" ry="3" style="stroke: #038048; stroke-width: 1.0;"/><text fill="#000000" font-family="sans-serif" font-size="12" font-style="italic" lengthAdjust="spacingAndGlyphs" textLength="100" x="493.75" y="843.9102">ObservablePlugin</text><line style="stroke: #A80036; stroke-width: 1.5;" x1="390" x2="654" y1="855" y2="855"/><line style="stroke: #A80036; stroke-width: 1.5;" x1="390" x2="654" y1="863" y2="863"/><ellipse cx="400" cy="874" fill="#84BE84" rx="3" ry="3" style="stroke: #038048; stroke-width: 1.0;"/><text fill="#000000" font-family="sans-serif" font-size="11" lengthAdjust="spacingAndGlyphs" textLength="68" x="409" y="878.4189">addObserver(</text><text fill="#000000" font-family="sans-serif" font-size="11" font-weight="bold" lengthAdjust="spacingAndGlyphs" textLength="23" x="477" y="878.4189">final</text><text fill="#000000" font-family="sans-serif" font-size="11" lengthAdjust="spacingAndGlyphs" textLength="128" x="503" y="878.4189">PluginObserver observer);</text><ellipse cx="400" cy="887.8359" fill="#84BE84" rx="3" ry="3" style="stroke: #038048; stroke-width: 1.0;"/><text fill="#000000" font-family="sans-serif" font-size="11" lengthAdjust="spacingAndGlyphs" textLength="86" x="409" y="892.2549">removeObserver(</text><text fill="#000000" font-family="sans-serif" font-size="11" font-weight="bold" lengthAdjust="spacingAndGlyphs" textLength="23" x="495" y="892.2549">final</text><text fill="#000000" font-family="sans-serif" font-size="11" lengthAdjust="spacingAndGlyphs" textLength="128" x="521" y="892.2549">PluginObserver observer);</text><ellipse cx="400" cy="901.6719" fill="#84BE84" rx="3" ry="3" style="stroke: #038048; stroke-width: 1.0;"/><text fill="#000000" font-family="sans-serif" font-size="11" lengthAdjust="spacingAndGlyphs" textLength="83" x="409" y="906.0908">notifyObservers(</text><text fill="#000000" font-family="sans-serif" font-size="11" font-weight="bold" lengthAdjust="spacingAndGlyphs" textLength="23" x="492" y="906.0908">final</text><text fill="#000000" font-family="sans-serif" font-size="11" lengthAdjust="spacingAndGlyphs" textLength="92" x="518" y="906.0908">PluginEvent event);</text><!--MD5=[e2341a3d5316e117132fc49473ae3219]
class ObservableReader--><rect fill="#FEFECE" filter="url(#f1w9ddaqijl6zx)" height="214.0313" id="ObservableReader" style="stroke: #A80036; stroke-width: 1.5;" width="458" x="690" y="761"/><ellipse cx="856.25" cy="777" fill="#B4A7E5" rx="11" ry="11" style="stroke: #A80036; stroke-width: 1.0;"/><path d="M857.25,774 L857.25,780 L859.25,780 L859.7344,780 L860.25,780.625 L860.25,781 L860.25,781.375 L859.7344,782 L859.25,782 L853.25,782 L852.7656,782 L852.25,781.375 L852.25,781 L852.25,780.625 L852.7656,780 L853.25,780 L855.25,780 L855.25,774 L853.25,774 L852.7656,774 L852.25,773.375 L852.25,773 L852.25,772.625 L852.7656,772 L853.25,772 L859.25,772 L859.7344,772 L860.25,772.625 L860.25,773 L860.25,773.375 L859.7344,774 L859.25,774 L857.25,774 Z "/><ellipse cx="881.75" cy="776.5" fill="#84BE84" rx="3" ry="3" style="stroke: #038048; stroke-width: 1.0;"/><text fill="#000000" font-family="sans-serif" font-size="12" font-style="italic" lengthAdjust="spacingAndGlyphs" textLength="106" x="887.75" y="781.9102">ObservableReader</text><line style="stroke: #A80036; stroke-width: 1.5;" x1="691" x2="1147" y1="793" y2="793"/><line style="stroke: #A80036; stroke-width: 1.5;" x1="691" x2="1147" y1="801" y2="801"/><ellipse cx="701" cy="812" fill="#84BE84" rx="3" ry="3" style="stroke: #038048; stroke-width: 1.0;"/><text fill="#000000" font-family="sans-serif" font-size="11" lengthAdjust="spacingAndGlyphs" textLength="68" x="710" y="816.4189">addObserver(</text><text fill="#000000" font-family="sans-serif" font-size="11" font-weight="bold" lengthAdjust="spacingAndGlyphs" textLength="23" x="778" y="816.4189">final</text><text fill="#000000" font-family="sans-serif" font-size="11" lengthAdjust="spacingAndGlyphs" textLength="135" x="804" y="816.4189">ReaderObserver observer);</text><ellipse cx="701" cy="825.8359" fill="#84BE84" rx="3" ry="3" style="stroke: #038048; stroke-width: 1.0;"/><text fill="#000000" font-family="sans-serif" font-size="11" lengthAdjust="spacingAndGlyphs" textLength="86" x="710" y="830.2549">removeObserver(</text><text fill="#000000" font-family="sans-serif" font-size="11" font-weight="bold" lengthAdjust="spacingAndGlyphs" textLength="23" x="796" y="830.2549">final</text><text fill="#000000" font-family="sans-serif" font-size="11" lengthAdjust="spacingAndGlyphs" textLength="135" x="822" y="830.2549">ReaderObserver observer);</text><ellipse cx="701" cy="839.6719" fill="#84BE84" rx="3" ry="3" style="stroke: #038048; stroke-width: 1.0;"/><text fill="#000000" font-family="sans-serif" font-size="11" lengthAdjust="spacingAndGlyphs" textLength="83" x="710" y="844.0908">notifyObservers(</text><text fill="#000000" font-family="sans-serif" font-size="11" font-weight="bold" lengthAdjust="spacingAndGlyphs" textLength="23" x="793" y="844.0908">final</text><text fill="#000000" font-family="sans-serif" font-size="11" lengthAdjust="spacingAndGlyphs" textLength="99" x="819" y="844.0908">ReaderEvent event);</text><text fill="#000000" font-family="sans-serif" font-size="11" lengthAdjust="spacingAndGlyphs" textLength="0" x="713" y="857.9268"/><ellipse cx="701" cy="867.3438" fill="#84BE84" rx="3" ry="3" style="stroke: #038048; stroke-width: 1.0;"/><text fill="#000000" font-family="sans-serif" font-size="11" lengthAdjust="spacingAndGlyphs" textLength="432" x="710" y="871.7627">setDefaultSelectionRequest(AbstractDefaultSelectionsRequest defaultSelectionsRequest,</text><text fill="#000000" font-family="sans-serif" font-size="11" lengthAdjust="spacingAndGlyphs" textLength="167" x="710" y="885.5986">NotificationMode notificationMode);</text><ellipse cx="701" cy="895.0156" fill="#84BE84" rx="3" ry="3" style="stroke: #038048; stroke-width: 1.0;"/><text fill="#000000" font-family="sans-serif" font-size="11" lengthAdjust="spacingAndGlyphs" textLength="432" x="710" y="899.4346">setDefaultSelectionRequest(AbstractDefaultSelectionsRequest defaultSelectionsRequest,</text><text fill="#000000" font-family="sans-serif" font-size="11" lengthAdjust="spacingAndGlyphs" textLength="288" x="710" y="913.2705">NotificationMode notificationMode, PollingMode pollingMode);</text><text fill="#000000" font-family="sans-serif" font-size="11" lengthAdjust="spacingAndGlyphs" textLength="0" x="713" y="927.1064"/><ellipse cx="701" cy="936.5234" fill="#84BE84" rx="3" ry="3" style="stroke: #038048; stroke-width: 1.0;"/><text fill="#000000" font-family="sans-serif" font-size="11" lengthAdjust="spacingAndGlyphs" textLength="206" x="710" y="940.9424">startSeDetection(PollingMode pollingMode);</text><ellipse cx="701" cy="950.3594" fill="#84BE84" rx="3" ry="3" style="stroke: #038048; stroke-width: 1.0;"/><text fill="#000000" font-family="sans-serif" font-size="11" lengthAdjust="spacingAndGlyphs" textLength="90" x="710" y="954.7783">stopSeDetection();</text><ellipse cx="701" cy="964.1953" fill="#84BE84" rx="3" ry="3" style="stroke: #038048; stroke-width: 1.0;"/><text fill="#000000" font-family="sans-serif" font-size="11" lengthAdjust="spacingAndGlyphs" textLength="103" x="710" y="968.6143">notifySeProcessed();</text><!--MD5=[628c6eb29572115a3ae82dff7e7e6b47]
link SeProxyService to AbstractPluginFactory--><path d="M254.5613,491.9895 C254.5613,491.9895 246.345,538.545 242.873,558.222 " fill="none" id="SeProxyService-AbstractPluginFactory" style="stroke: #A80036; stroke-width: 1.0;"/><polygon fill="#A80036" points="240.577,571.232,246.0797,563.0638,241.4456,566.308,238.2014,561.6739,240.577,571.232" style="stroke: #A80036; stroke-width: 1.0;"/><line style="stroke: #A80036; stroke-width: 1.0;" x1="241.4456" x2="242.836" y1="566.308" y2="558.4305"/><polygon fill="#A80036" points="256.646,480.172,251.6645,485.3858,254.5613,491.9895,259.5428,486.7757,256.646,480.172" style="stroke: #A80036; stroke-width: 1.0;"/><text fill="#000000" font-family="sans-serif" font-size="13" lengthAdjust="spacingAndGlyphs" textLength="50" x="252" y="524.4951">registers</text><text fill="#000000" font-family="sans-serif" font-size="13" lengthAdjust="spacingAndGlyphs" textLength="7" x="248.0923" y="501.4872">1</text><text fill="#000000" font-family="sans-serif" font-size="13" lengthAdjust="spacingAndGlyphs" textLength="5" x="236.3032" y="560.5462">*</text><!--MD5=[98fb93546a7dc75f66b7a26283e02bb5]
link SeProxyService to ReaderPlugin--><path d="M369.3299,487.8874 C369.3299,487.8874 425.806,535.3 450.218,555.794 " fill="none" id="SeProxyService-ReaderPlugin" style="stroke: #A80036; stroke-width: 1.0;"/><polygon fill="#A80036" points="460.409,564.35,456.0876,555.4998,456.5794,561.1353,450.944,561.6271,460.409,564.35" style="stroke: #A80036; stroke-width: 1.0;"/><line style="stroke: #A80036; stroke-width: 1.0;" x1="456.5794" x2="450.4525" y1="561.1353" y2="555.991"/><polygon fill="#A80036" points="360.139,480.172,362.1627,487.0933,369.3299,487.8874,367.3063,480.966,360.139,480.172" style="stroke: #A80036; stroke-width: 1.0;"/><text fill="#000000" font-family="sans-serif" font-size="13" lengthAdjust="spacingAndGlyphs" textLength="41" x="414" y="524.4951">plugins</text><text fill="#000000" font-family="sans-serif" font-size="13" lengthAdjust="spacingAndGlyphs" textLength="7" x="361.126" y="501.4872">1</text><text fill="#000000" font-family="sans-serif" font-size="13" lengthAdjust="spacingAndGlyphs" textLength="5" x="446.9732" y="553.7711">*</text><!--MD5=[ed432611766c8e88b892041f7da1367f]
link AbstractPluginFactory to ReaderPlugin--><path d="M330.016,609.5 C353.856,609.5 379.578,609.5 403.991,609.5 " fill="none" id="AbstractPluginFactory-&gt;ReaderPlugin" style="stroke: #A80036; stroke-width: 1.0;"/><polygon fill="#A80036" points="409.179,609.5,400.179,605.5,404.179,609.5,400.179,613.5,409.179,609.5" style="stroke: #A80036; stroke-width: 1.0;"/><text fill="#000000" font-family="sans-serif" font-size="13" lengthAdjust="spacingAndGlyphs" textLength="43" x="348.25" y="602.9951">creates</text><text fill="#000000" font-family="sans-serif" font-size="13" lengthAdjust="spacingAndGlyphs" textLength="7" x="337.9462" y="606.3847">1</text><text fill="#000000" font-family="sans-serif" font-size="13" lengthAdjust="spacingAndGlyphs" textLength="7" x="394.633" y="606.4623">1</text><!--MD5=[c88fac8de0d16551763276c4b9088a93]
link ReaderPlugin to SeReader--><path d="M628.526,609.5 C628.526,609.5 664.616,609.5 682.659,609.5 " fill="none" id="ReaderPlugin-SeReader" style="stroke: #A80036; stroke-width: 1.0;"/><polygon fill="#A80036" points="695.803,609.5,686.803,605.5,690.803,609.5,686.803,613.5,695.803,609.5" style="stroke: #A80036; stroke-width: 1.0;"/><line style="stroke: #A80036; stroke-width: 1.0;" x1="690.803" x2="682.803" y1="609.5" y2="609.5"/><polygon fill="#A80036" points="616.526,609.5,622.526,613.5,628.526,609.5,622.526,605.5,616.526,609.5" style="stroke: #A80036; stroke-width: 1.0;"/><text fill="#000000" font-family="sans-serif" font-size="13" lengthAdjust="spacingAndGlyphs" textLength="43" x="634.75" y="602.9951">readers</text><text fill="#000000" font-family="sans-serif" font-size="13" lengthAdjust="spacingAndGlyphs" textLength="7" x="624.3857" y="606.4386">1</text><text fill="#000000" font-family="sans-serif" font-size="13" lengthAdjust="spacingAndGlyphs" textLength="5" x="682.9777" y="606.6328">*</text><!--MD5=[bc25a197e36279471f37427b8b5d69b0]
reverse link ReaderPlugin to ReaderPoolPlugin--><path d="M435.209,666.946 C414.576,682.65 392.596,700.058 373,717 C333.886,750.818 292.141,792.134 262.153,822.835 " fill="none" id="ReaderPlugin&lt;-ReaderPoolPlugin" style="stroke: #A80036; stroke-width: 1.0;"/><polygon fill="none" points="431.209,661.196,451.397,654.758,439.63,672.38,431.209,661.196" style="stroke: #A80036; stroke-width: 1.0;"/><text fill="#000000" font-family="sans-serif" font-size="13" lengthAdjust="spacingAndGlyphs" textLength="46" x="403" y="705.4951">extends</text><!--MD5=[a087c8f219181ff1dbe7adabc28b3231]
reverse link ReaderPlugin to ObservablePlugin--><path d="M515.25,674.615 C516.868,720.747 519.01,781.788 520.443,822.623 " fill="none" id="ReaderPlugin&lt;-ObservablePlugin" style="stroke: #A80036; stroke-width: 1.0;"/><polygon fill="none" points="508.253,674.827,514.547,654.594,522.244,674.336,508.253,674.827" style="stroke: #A80036; stroke-width: 1.0;"/><text fill="#000000" font-family="sans-serif" font-size="13" lengthAdjust="spacingAndGlyphs" textLength="46" x="517" y="705.4951">extends</text><!--MD5=[9bde350185f61a8992bbce085951af21]
reverse link SeReader to ObservableReader--><path d="M880.552,680.924 C885.644,705.571 891.482,733.823 897.044,760.742 " fill="none" id="SeReader&lt;-ObservableReader" style="stroke: #A80036; stroke-width: 1.0;"/><polygon fill="none" points="873.663,682.179,876.471,661.176,887.373,679.346,873.663,682.179" style="stroke: #A80036; stroke-width: 1.0;"/><text fill="#000000" font-family="sans-serif" font-size="13" lengthAdjust="spacingAndGlyphs" textLength="46" x="887" y="705.4951">extends</text><!--MD5=[897f17351740312ceb51b9749ab6c928]
link util to seproxy--><!--MD5=[4b596ce586c6e03701d3903509465507]
reverse link Nameable to ReaderPlugin--><path d="M528.959,216.171 C525.411,303.404 518.161,481.615 514.794,564.407 " fill="none" id="Nameable&lt;-ReaderPlugin" style="stroke: #A80036; stroke-width: 1.0;"/><polygon fill="none" points="521.97,215.766,529.777,196.067,535.958,216.335,521.97,215.766" style="stroke: #A80036; stroke-width: 1.0;"/><text fill="#000000" font-family="sans-serif" font-size="13" lengthAdjust="spacingAndGlyphs" textLength="46" x="527" y="408.9951">extends</text><!--MD5=[2c94e8471fd98724761199e1e043fbf0]
reverse link Nameable to SeReader--><path d="M558.176,213.816 C566.712,230.286 575.574,249.097 582,267 C614.785,358.335 571.51,402.567 630,480 C654.955,513.038 690.972,538.613 727.381,557.928 " fill="none" id="Nameable&lt;-SeReader" style="stroke: #A80036; stroke-width: 1.0;"/><polygon fill="none" points="551.943,217.004,548.649,196.072,564.277,210.382,551.943,217.004" style="stroke: #A80036; stroke-width: 1.0;"/><text fill="#000000" font-family="sans-serif" font-size="13" lengthAdjust="spacingAndGlyphs" textLength="46" x="631" y="408.9951">extends</text><!--MD5=[af7be7d180606cc193e4d48bcb216bb1]
reverse link Configurable to ReaderPlugin--><path d="M748.526,230.61 C746.198,297.82 734.203,403.699 686,480 C664.119,514.635 629.305,543.151 596.625,564.446 " fill="none" id="Configurable&lt;-ReaderPlugin" style="stroke: #A80036; stroke-width: 1.0;"/><polygon fill="none" points="741.536,230.074,748.976,210.234,755.533,230.383,741.536,230.074" style="stroke: #A80036; stroke-width: 1.0;"/><text fill="#000000" font-family="sans-serif" font-size="13" lengthAdjust="spacingAndGlyphs" textLength="46" x="747" y="408.9951">extends</text><!--MD5=[4041f5451312927f98f72078ec6163bb]
reverse link Configurable to SeReader--><path d="M786.484,227.977 C793.099,240.55 799.335,253.933 804,267 C839.558,366.594 855.501,490.132 862.012,557.977 " fill="none" id="Configurable&lt;-SeReader" style="stroke: #A80036; stroke-width: 1.0;"/><polygon fill="none" points="780.24,231.151,776.658,210.266,792.482,224.359,780.24,231.151" style="stroke: #A80036; stroke-width: 1.0;"/><text fill="#000000" font-family="sans-serif" font-size="13" lengthAdjust="spacingAndGlyphs" textLength="46" x="853" y="408.9951">extends</text><!--MD5=[5a7ff43fcc216a812bcaf83bf4bd7738]
@startuml

package org.eclipse.keyple.core #FFFFFF {
package util #FFFFFF {
  +interface Nameable {
    +String getName()
  }

  +interface Configurable {
    +Map<String, String> getParameters();
    +setParameter(String key, String value)
    +setParameters(Map<String, String> parameters)
  }
}

  package seproxy #FFFFFF {
+class "<b>final</b> SeProxyService" as SeProxyService << Singleton >> {
  +{static}SeProxyService getInstance()
  +String getVersion()
  +ReaderPlugin registerPlugin(AbstractPluginFactory pluginFactory)
  +boolean isRegistered(String pluginName)
  +boolean unregisterPlugin(String pluginName)
  +ReaderPlugin getPlugin(String name)
  +Set<ReaderPlugin> getPlugins()
}
+abstract AbstractPluginFactory {
  {abstract} #String getPluginName()
  {abstract} #ReaderPlugin getPluginInstance()
}
    interface ReaderPlugin #Blue
+interface ReaderPlugin {
  +Map<String, SeReader> getReaders()
  +Set<String> getReaderNames()
  +SeReader getReader(String name)
}
+interface SeReader {
  +boolean isSePresent()
  +addSeProtocolSetting(SeProtocol seProtocol, String protocolRule)
  +setSeProtocolSetting(Map<SeProtocol, String> protocolSetting)
  +TransmissionMode getTransmissionMode()
}

    SeProxyService "1" *- -> "*" AbstractPluginFactory : registers
    SeProxyService "1" *-down-> "*" ReaderPlugin : plugins
    AbstractPluginFactory "1" -right-> "1" ReaderPlugin : creates
    ReaderPlugin "1" *-right-> "*" SeReader : readers

+interface ReaderPoolPlugin {
  +SortedSet<String> getReaderGroupReferences()
  +SeReader allocateReader(String groupReference)
  +releaseReader(SeReader seReader)
}
    ReaderPlugin <|- - ReaderPoolPlugin : extends

    package event #FFFFFF {
+interface ObservablePlugin {
  +addObserver(<b>final</b> PluginObserver observer);
  +removeObserver(<b>final</b> PluginObserver observer);
  +notifyObservers(<b>final</b> PluginEvent event);
}
+interface ObservableReader {
  +addObserver(<b>final</b> ReaderObserver observer);
  +removeObserver(<b>final</b> ReaderObserver observer);
  +notifyObservers(<b>final</b> ReaderEvent event);

  +setDefaultSelectionRequest(AbstractDefaultSelectionsRequest defaultSelectionsRequest,
    NotificationMode notificationMode);
  +setDefaultSelectionRequest(AbstractDefaultSelectionsRequest defaultSelectionsRequest,
    NotificationMode notificationMode, PollingMode pollingMode);

  +startSeDetection(PollingMode pollingMode);
  +stopSeDetection();
  +notifySeProcessed();
}
    }
    ReaderPlugin <|- - ObservablePlugin : extends
    SeReader <|- - ObservableReader : extends
  }
}
util -down[hidden]- seproxy

Nameable <|- - ReaderPlugin : extends
Nameable <|- - SeReader : extends
Configurable <|- - ReaderPlugin : extends
Configurable <|- - SeReader : extends
@enduml

PlantUML version 1.2020.07(Sun Apr 19 15:42:40 MUT 2020)
(GPL source distribution)
Java Runtime: OpenJDK Runtime Environment
JVM: OpenJDK 64-Bit Server VM
Java Version: 11.0.6+8-b765.40
Operating System: Windows 10
Default Encoding: Cp1252
Language: fr
Country: FR
--></g></svg>