<?xml version="1.0" encoding="UTF-8" standalone="no"?><svg xmlns="http://www.w3.org/2000/svg" xmlns:xlink="http://www.w3.org/1999/xlink" contentScriptType="application/ecmascript" contentStyleType="text/css" height="786px" preserveAspectRatio="none" style="width:974px;height:786px;" version="1.1" viewBox="0 0 974 786" width="974px" zoomAndPan="magnify"><defs><filter height="300%" id="f1owrwenfdbx4m" width="300%" x="-1" y="-1"><feGaussianBlur result="blurOut" stdDeviation="2.0"/><feColorMatrix in="blurOut" result="blurOut2" type="matrix" values="0 0 0 0 0 0 0 0 0 0 0 0 0 0 0 0 0 0 .4 0"/><feOffset dx="4.0" dy="4.0" in="blurOut2" result="blurOut3"/><feBlend in="SourceGraphic" in2="blurOut3" mode="normal"/></filter></defs><g><!--MD5=[43faeb760e7b9692ab91f636f0cf3388]
cluster external.terminalapplication--><polygon fill="#3399FF" filter="url(#f1owrwenfdbx4m)" points="111,24,313,24,320,47.6094,323,47.6094,323,124,111,124,111,24" style="stroke: #000000; stroke-width: 1.5;"/><line style="stroke: #000000; stroke-width: 1.5;" x1="111" x2="320" y1="47.6094" y2="47.6094"/><text fill="#000000" font-family="sans-serif" font-size="14" font-weight="bold" lengthAdjust="spacingAndGlyphs" textLength="196" x="115" y="40.5332">external.terminalapplication</text><!--MD5=[2bcc54f38766b998c5e88efdbc7d1696]
cluster org.eclipse.keyple.core.seproxy--><polygon fill="#FFFFFF" filter="url(#f1owrwenfdbx4m)" points="22,174,253,174,260,197.6094,952,197.6094,952,560,22,560,22,174" style="stroke: #000000; stroke-width: 1.5;"/><line style="stroke: #000000; stroke-width: 1.5;" x1="22" x2="260" y1="197.6094" y2="197.6094"/><text fill="#000000" font-family="sans-serif" font-size="14" font-weight="bold" lengthAdjust="spacingAndGlyphs" textLength="225" x="26" y="190.5332">org.eclipse.keyple.core.seproxy</text><!--MD5=[fcbadcad9a28152c89ed5c4d71dbb045]
cluster plugin.specific--><polygon fill="#FFCCFF" filter="url(#f1owrwenfdbx4m)" points="50,610,159,610,166,633.6094,722,633.6094,722,774,50,774,50,610" style="stroke: #000000; stroke-width: 1.5;"/><line style="stroke: #000000; stroke-width: 1.5;" x1="50" x2="166" y1="633.6094" y2="633.6094"/><text fill="#000000" font-family="sans-serif" font-size="14" font-weight="bold" lengthAdjust="spacingAndGlyphs" textLength="103" x="54" y="626.5332">plugin.specific</text><!--MD5=[36749fbd9f1718a5265922a19e14c350]
class SpecificTerminal--><rect fill="#FEFECE" filter="url(#f1owrwenfdbx4m)" height="48" id="SpecificTerminal" style="stroke: #A80036; stroke-width: 1.5;" width="124" x="155" y="60"/><ellipse cx="170" cy="76" fill="#ADD1B2" rx="11" ry="11" style="stroke: #A80036; stroke-width: 1.0;"/><path d="M172,72.5 Q172.2031,72 172.4375,71.75 Q172.6719,71.5 172.9375,71.5 Q173.4063,71.5 173.7031,71.7813 Q174,72.0625 174,72.7188 L174,74.2813 Q174,74.9375 173.7188,75.2188 Q173.4375,75.5 173,75.5 Q172.6094,75.5 172.3594,75.3281 Q172.1094,75.1563 172,74.7031 Q171.9531,74.3906 171.7813,74.2188 Q171.4688,73.8906 170.9063,73.7031 Q170.3438,73.5 169.7813,73.5 Q169.0781,73.5 168.4844,73.7813 Q167.9063,74.0625 167.4531,74.6875 Q167,75.3125 167,76.1719 L167,77.0938 Q167,78.125 167.8438,78.8125 Q168.6875,79.5 170.1875,79.5 Q171.0781,79.5 171.7031,79.2969 Q172.0625,79.1875 172.4688,78.8281 Q172.7344,78.625 172.875,78.5625 Q173.0156,78.5 173.1875,78.5 Q173.5156,78.5 173.75,78.7656 Q174,79.0156 174,79.375 Q174,79.7188 173.6563,80.125 Q173.1563,80.7188 172.3594,81.0469 Q171.3125,81.5 170.0313,81.5 Q168.5313,81.5 167.3281,80.9063 Q166.3594,80.4375 165.6719,79.4219 Q165,78.4063 165,77.2031 L165,76.1094 Q165,74.8594 165.5938,73.7656 Q166.2031,72.6719 167.25,72.0938 Q168.3125,71.5 169.5,71.5 Q170.2188,71.5 170.8438,71.75 Q171.4688,72 172,72.5 Z "/><text fill="#000000" font-family="sans-serif" font-size="12" lengthAdjust="spacingAndGlyphs" textLength="92" x="184" y="80.9102">SpecificTerminal</text><line style="stroke: #A80036; stroke-width: 1.5;" x1="156" x2="278" y1="92" y2="92"/><line style="stroke: #A80036; stroke-width: 1.5;" x1="156" x2="278" y1="100" y2="100"/><!--MD5=[f0c44d4c6fb415056b2c0aabd573961b]
class SeProxyService--><rect fill="#FEFECE" filter="url(#f1owrwenfdbx4m)" height="153.0391" id="SeProxyService" style="stroke: #A80036; stroke-width: 1.5;" width="340" x="47" y="210"/><ellipse cx="151.75" cy="230.0938" fill="#ADD1B2" rx="11" ry="11" style="stroke: #A80036; stroke-width: 1.0;"/><path d="M153.75,226.5938 Q153.9531,226.0938 154.1875,225.8438 Q154.4219,225.5938 154.6875,225.5938 Q155.1563,225.5938 155.4531,225.875 Q155.75,226.1563 155.75,226.8125 L155.75,228.375 Q155.75,229.0313 155.4688,229.3125 Q155.1875,229.5938 154.75,229.5938 Q154.3594,229.5938 154.1094,229.4219 Q153.8594,229.25 153.75,228.7969 Q153.7031,228.4844 153.5313,228.3125 Q153.2188,227.9844 152.6563,227.7969 Q152.0938,227.5938 151.5313,227.5938 Q150.8281,227.5938 150.2344,227.875 Q149.6563,228.1563 149.2031,228.7813 Q148.75,229.4063 148.75,230.2656 L148.75,231.1875 Q148.75,232.2188 149.5938,232.9063 Q150.4375,233.5938 151.9375,233.5938 Q152.8281,233.5938 153.4531,233.3906 Q153.8125,233.2813 154.2188,232.9219 Q154.4844,232.7188 154.625,232.6563 Q154.7656,232.5938 154.9375,232.5938 Q155.2656,232.5938 155.5,232.8594 Q155.75,233.1094 155.75,233.4688 Q155.75,233.8125 155.4063,234.2188 Q154.9063,234.8125 154.1094,235.1406 Q153.0625,235.5938 151.7813,235.5938 Q150.2813,235.5938 149.0781,235 Q148.1094,234.5313 147.4219,233.5156 Q146.75,232.5 146.75,231.2969 L146.75,230.2031 Q146.75,228.9531 147.3438,227.8594 Q147.9531,226.7656 149,226.1875 Q150.0625,225.5938 151.25,225.5938 Q151.9688,225.5938 152.5938,225.8438 Q153.2188,226.0938 153.75,226.5938 Z "/><text fill="#000000" font-family="sans-serif" font-size="12" font-style="italic" lengthAdjust="spacingAndGlyphs" textLength="66" x="200.25" y="227.457">«Singleton»</text><ellipse cx="177.25" cy="237.1406" fill="#84BE84" rx="3" ry="3" style="stroke: #038048; stroke-width: 1.0;"/><text fill="#000000" font-family="sans-serif" font-size="12" font-weight="bold" lengthAdjust="spacingAndGlyphs" textLength="24" x="183.25" y="242.5508">final</text><text fill="#000000" font-family="sans-serif" font-size="12" lengthAdjust="spacingAndGlyphs" textLength="84" x="210.25" y="242.5508">SeProxyService</text><line style="stroke: #A80036; stroke-width: 1.5;" x1="48" x2="386" y1="250.1875" y2="250.1875"/><line style="stroke: #A80036; stroke-width: 1.5;" x1="48" x2="386" y1="258.1875" y2="258.1875"/><ellipse cx="58" cy="269.1875" fill="#84BE84" rx="3" ry="3" style="stroke: #038048; stroke-width: 1.0;"/><text fill="#000000" font-family="sans-serif" font-size="11" lengthAdjust="spacingAndGlyphs" text-decoration="underline" textLength="145" x="67" y="273.6064">SeProxyService getInstance()</text><ellipse cx="58" cy="283.0234" fill="#84BE84" rx="3" ry="3" style="stroke: #038048; stroke-width: 1.0;"/><text fill="#000000" font-family="sans-serif" font-size="11" lengthAdjust="spacingAndGlyphs" textLength="92" x="67" y="287.4424">String getVersion()</text><ellipse cx="58" cy="296.8594" fill="#84BE84" rx="3" ry="3" style="stroke: #038048; stroke-width: 1.0;"/><text fill="#000000" font-family="sans-serif" font-size="11" lengthAdjust="spacingAndGlyphs" textLength="314" x="67" y="301.2783">ReaderPlugin registerPlugin(AbstractPluginFactory pluginFactory)</text><ellipse cx="58" cy="310.6953" fill="#84BE84" rx="3" ry="3" style="stroke: #038048; stroke-width: 1.0;"/><text fill="#000000" font-family="sans-serif" font-size="11" lengthAdjust="spacingAndGlyphs" textLength="195" x="67" y="315.1143">boolean isRegistered(String pluginName)</text><ellipse cx="58" cy="324.5313" fill="#84BE84" rx="3" ry="3" style="stroke: #038048; stroke-width: 1.0;"/><text fill="#000000" font-family="sans-serif" font-size="11" lengthAdjust="spacingAndGlyphs" textLength="212" x="67" y="328.9502">boolean unregisterPlugin(String pluginName)</text><ellipse cx="58" cy="338.3672" fill="#84BE84" rx="3" ry="3" style="stroke: #038048; stroke-width: 1.0;"/><text fill="#000000" font-family="sans-serif" font-size="11" lengthAdjust="spacingAndGlyphs" textLength="174" x="67" y="342.7861">ReaderPlugin getPlugin(String name)</text><ellipse cx="58" cy="352.2031" fill="#84BE84" rx="3" ry="3" style="stroke: #038048; stroke-width: 1.0;"/><text fill="#000000" font-family="sans-serif" font-size="11" lengthAdjust="spacingAndGlyphs" textLength="151" x="67" y="356.6221">Set&lt;ReaderPlugin&gt; getPlugins()</text><!--MD5=[589e28272a74d38b4e0a352c82e7b326]
class AbstractPluginFactory--><rect fill="#FEFECE" filter="url(#f1owrwenfdbx4m)" height="75.6719" id="AbstractPluginFactory" style="stroke: #A80036; stroke-width: 1.5;" width="192" x="38" y="454.5"/><ellipse cx="66.05" cy="470.5" fill="#A9DCDF" rx="11" ry="11" style="stroke: #A80036; stroke-width: 1.0;"/><path d="M67.8,472 L64.5031,472 L64.0656,473 L64.0656,473 L64.5344,473 L65.05,473.625 L65.05,474 L65.05,474.375 L64.5344,475 L64.0656,475 L62.175,475 L61.5656,475 L61.05,474.375 L61.05,474 L61.05,473.625 L61.5656,473 L62.175,473 L64.4875,467 L63.6125,467 L62.5656,467 L62.05,466.375 L62.05,466 L62.05,465.625 L62.5656,465 L63.6125,465 L67.2844,465 L69.9719,473 L70.5344,473 L70.5344,473 L71.05,473.625 L71.05,474 L71.05,474.375 L70.5344,475 L69.9719,475 L68.0813,475 L67.5656,475 L67.05,474.375 L67.05,474 L67.05,473.625 L67.5656,473 L68.0813,473 L68.0813,473 L67.8,472 Z M67.2531,470 L66.05,466.4219 L65.0188,470 L67.2531,470 Z "/><ellipse cx="87.95" cy="470" fill="#84BE84" rx="3" ry="3" style="stroke: #038048; stroke-width: 1.0;"/><text fill="#000000" font-family="sans-serif" font-size="12" font-style="italic" lengthAdjust="spacingAndGlyphs" textLength="120" x="93.95" y="475.4102">AbstractPluginFactory</text><line style="stroke: #A80036; stroke-width: 1.5;" x1="39" x2="229" y1="486.5" y2="486.5"/><line style="stroke: #A80036; stroke-width: 1.5;" x1="39" x2="229" y1="494.5" y2="494.5"/><polygon fill="#FFFF44" points="49,500.5,53,504.5,49,508.5,45,504.5" style="stroke: #B38D22; stroke-width: 1.0;"/><text fill="#000000" font-family="sans-serif" font-size="11" font-style="italic" lengthAdjust="spacingAndGlyphs" textLength="115" x="58" y="509.9189">String getPluginName()</text><polygon fill="#FFFF44" points="49,514.3359,53,518.3359,49,522.3359,45,518.3359" style="stroke: #B38D22; stroke-width: 1.0;"/><text fill="#000000" font-family="sans-serif" font-size="11" font-style="italic" lengthAdjust="spacingAndGlyphs" textLength="166" x="58" y="523.7549">ReaderPlugin getPluginInstance()</text><!--MD5=[a0e88443257adb8def549c32ec694d43]
class ReaderPlugin--><rect fill="#FEFECE" filter="url(#f1owrwenfdbx4m)" height="89.5078" id="ReaderPlugin" style="stroke: #A80036; stroke-width: 1.5;" width="207" x="309.5" y="447.5"/><ellipse cx="365.25" cy="463.5" fill="#B4A7E5" rx="11" ry="11" style="stroke: #A80036; stroke-width: 1.0;"/><path d="M366.25,460.5 L366.25,466.5 L368.25,466.5 L368.7344,466.5 L369.25,467.125 L369.25,467.5 L369.25,467.875 L368.7344,468.5 L368.25,468.5 L362.25,468.5 L361.7656,468.5 L361.25,467.875 L361.25,467.5 L361.25,467.125 L361.7656,466.5 L362.25,466.5 L364.25,466.5 L364.25,460.5 L362.25,460.5 L361.7656,460.5 L361.25,459.875 L361.25,459.5 L361.25,459.125 L361.7656,458.5 L362.25,458.5 L368.25,458.5 L368.7344,458.5 L369.25,459.125 L369.25,459.5 L369.25,459.875 L368.7344,460.5 L368.25,460.5 L366.25,460.5 Z "/><ellipse cx="390.75" cy="463" fill="#84BE84" rx="3" ry="3" style="stroke: #038048; stroke-width: 1.0;"/><text fill="#000000" font-family="sans-serif" font-size="12" font-style="italic" lengthAdjust="spacingAndGlyphs" textLength="76" x="396.75" y="468.4102">ReaderPlugin</text><line style="stroke: #A80036; stroke-width: 1.5;" x1="310.5" x2="515.5" y1="479.5" y2="479.5"/><line style="stroke: #A80036; stroke-width: 1.5;" x1="310.5" x2="515.5" y1="487.5" y2="487.5"/><ellipse cx="320.5" cy="498.5" fill="#84BE84" rx="3" ry="3" style="stroke: #038048; stroke-width: 1.0;"/><text fill="#000000" font-family="sans-serif" font-size="11" lengthAdjust="spacingAndGlyphs" textLength="181" x="329.5" y="502.9189">Map&lt;String, SeReader&gt; getReaders()</text><ellipse cx="320.5" cy="512.3359" fill="#84BE84" rx="3" ry="3" style="stroke: #038048; stroke-width: 1.0;"/><text fill="#000000" font-family="sans-serif" font-size="11" lengthAdjust="spacingAndGlyphs" textLength="150" x="329.5" y="516.7549">Set&lt;String&gt; getReaderNames()</text><ellipse cx="320.5" cy="526.1719" fill="#84BE84" rx="3" ry="3" style="stroke: #038048; stroke-width: 1.0;"/><text fill="#000000" font-family="sans-serif" font-size="11" lengthAdjust="spacingAndGlyphs" textLength="166" x="329.5" y="530.5908">SeReader getReader(String name)</text><!--MD5=[dd49942b1f02350b5568646d3da64c49]
class SeReader--><rect fill="#FEFECE" filter="url(#f1owrwenfdbx4m)" height="103.3438" id="SeReader" style="stroke: #A80036; stroke-width: 1.5;" width="340" x="596" y="441"/><ellipse cx="728.25" cy="457" fill="#B4A7E5" rx="11" ry="11" style="stroke: #A80036; stroke-width: 1.0;"/><path d="M729.25,454 L729.25,460 L731.25,460 L731.7344,460 L732.25,460.625 L732.25,461 L732.25,461.375 L731.7344,462 L731.25,462 L725.25,462 L724.7656,462 L724.25,461.375 L724.25,461 L724.25,460.625 L724.7656,460 L725.25,460 L727.25,460 L727.25,454 L725.25,454 L724.7656,454 L724.25,453.375 L724.25,453 L724.25,452.625 L724.7656,452 L725.25,452 L731.25,452 L731.7344,452 L732.25,452.625 L732.25,453 L732.25,453.375 L731.7344,454 L731.25,454 L729.25,454 Z "/><ellipse cx="753.75" cy="456.5" fill="#84BE84" rx="3" ry="3" style="stroke: #038048; stroke-width: 1.0;"/><text fill="#000000" font-family="sans-serif" font-size="12" font-style="italic" lengthAdjust="spacingAndGlyphs" textLength="56" x="759.75" y="461.9102">SeReader</text><line style="stroke: #A80036; stroke-width: 1.5;" x1="597" x2="935" y1="473" y2="473"/><line style="stroke: #A80036; stroke-width: 1.5;" x1="597" x2="935" y1="481" y2="481"/><ellipse cx="607" cy="492" fill="#84BE84" rx="3" ry="3" style="stroke: #038048; stroke-width: 1.0;"/><text fill="#000000" font-family="sans-serif" font-size="11" lengthAdjust="spacingAndGlyphs" textLength="107" x="616" y="496.4189">boolean isSePresent()</text><ellipse cx="607" cy="505.8359" fill="#84BE84" rx="3" ry="3" style="stroke: #038048; stroke-width: 1.0;"/><text fill="#000000" font-family="sans-serif" font-size="11" lengthAdjust="spacingAndGlyphs" textLength="314" x="616" y="510.2549">addSeProtocolSetting(SeProtocol seProtocol, String protocolRule)</text><ellipse cx="607" cy="519.6719" fill="#84BE84" rx="3" ry="3" style="stroke: #038048; stroke-width: 1.0;"/><text fill="#000000" font-family="sans-serif" font-size="11" lengthAdjust="spacingAndGlyphs" textLength="301" x="616" y="524.0908">setSeProtocolSetting(Map&lt;SeProtocol, String&gt; protocolSetting)</text><ellipse cx="607" cy="533.5078" fill="#84BE84" rx="3" ry="3" style="stroke: #038048; stroke-width: 1.0;"/><text fill="#000000" font-family="sans-serif" font-size="11" lengthAdjust="spacingAndGlyphs" textLength="206" x="616" y="537.9268">TransmissionMode getTransmissionMode()</text><!--MD5=[273228bd21fa37477fe0813cbe95870a]
class SpecificPluginFactory--><rect fill="#FEFECE" filter="url(#f1owrwenfdbx4m)" height="75.6719" id="SpecificPluginFactory" style="stroke: #A80036; stroke-width: 1.5;" width="187" x="66.5" y="664"/><ellipse cx="81.5" cy="680" fill="#ADD1B2" rx="11" ry="11" style="stroke: #A80036; stroke-width: 1.0;"/><path d="M83.5,676.5 Q83.7031,676 83.9375,675.75 Q84.1719,675.5 84.4375,675.5 Q84.9063,675.5 85.2031,675.7813 Q85.5,676.0625 85.5,676.7188 L85.5,678.2813 Q85.5,678.9375 85.2188,679.2188 Q84.9375,679.5 84.5,679.5 Q84.1094,679.5 83.8594,679.3281 Q83.6094,679.1563 83.5,678.7031 Q83.4531,678.3906 83.2813,678.2188 Q82.9688,677.8906 82.4063,677.7031 Q81.8438,677.5 81.2813,677.5 Q80.5781,677.5 79.9844,677.7813 Q79.4063,678.0625 78.9531,678.6875 Q78.5,679.3125 78.5,680.1719 L78.5,681.0938 Q78.5,682.125 79.3438,682.8125 Q80.1875,683.5 81.6875,683.5 Q82.5781,683.5 83.2031,683.2969 Q83.5625,683.1875 83.9688,682.8281 Q84.2344,682.625 84.375,682.5625 Q84.5156,682.5 84.6875,682.5 Q85.0156,682.5 85.25,682.7656 Q85.5,683.0156 85.5,683.375 Q85.5,683.7188 85.1563,684.125 Q84.6563,684.7188 83.8594,685.0469 Q82.8125,685.5 81.5313,685.5 Q80.0313,685.5 78.8281,684.9063 Q77.8594,684.4375 77.1719,683.4219 Q76.5,682.4063 76.5,681.2031 L76.5,680.1094 Q76.5,678.8594 77.0938,677.7656 Q77.7031,676.6719 78.75,676.0938 Q79.8125,675.5 81,675.5 Q81.7188,675.5 82.3438,675.75 Q82.9688,676 83.5,676.5 Z "/><ellipse cx="100.5" cy="679.5" fill="#84BE84" rx="3" ry="3" style="stroke: #038048; stroke-width: 1.0;"/><text fill="#000000" font-family="sans-serif" font-size="12" font-weight="bold" lengthAdjust="spacingAndGlyphs" textLength="24" x="106.5" y="684.9102">final</text><text fill="#000000" font-family="sans-serif" font-size="12" lengthAdjust="spacingAndGlyphs" textLength="117" x="133.5" y="684.9102">SpecificPluginFactory</text><line style="stroke: #A80036; stroke-width: 1.5;" x1="67.5" x2="252.5" y1="696" y2="696"/><line style="stroke: #A80036; stroke-width: 1.5;" x1="67.5" x2="252.5" y1="704" y2="704"/><polygon fill="#FFFF44" points="77.5,710,81.5,714,77.5,718,73.5,714" style="stroke: #B38D22; stroke-width: 1.0;"/><text fill="#000000" font-family="sans-serif" font-size="11" lengthAdjust="spacingAndGlyphs" textLength="109" x="86.5" y="719.4189">String getPluginName()</text><polygon fill="#FFFF44" points="77.5,723.8359,81.5,727.8359,77.5,731.8359,73.5,727.8359" style="stroke: #B38D22; stroke-width: 1.0;"/><text fill="#000000" font-family="sans-serif" font-size="11" lengthAdjust="spacingAndGlyphs" textLength="158" x="86.5" y="733.2549">ReaderPlugin getPluginInstance()</text><!--MD5=[0f8b8cab079f94c46492aeaa0dde1551]
class SpecificPlugin--><rect fill="#FEFECE" filter="url(#f1owrwenfdbx4m)" height="111.5313" id="SpecificPlugin" style="stroke: #A80036; stroke-width: 1.5;" width="160" x="333" y="646"/><ellipse cx="365.55" cy="666.0938" fill="#ADD1B2" rx="11" ry="11" style="stroke: #A80036; stroke-width: 1.0;"/><path d="M367.55,662.5938 Q367.7531,662.0938 367.9875,661.8438 Q368.2219,661.5938 368.4875,661.5938 Q368.9563,661.5938 369.2531,661.875 Q369.55,662.1563 369.55,662.8125 L369.55,664.375 Q369.55,665.0313 369.2688,665.3125 Q368.9875,665.5938 368.55,665.5938 Q368.1594,665.5938 367.9094,665.4219 Q367.6594,665.25 367.55,664.7969 Q367.5031,664.4844 367.3313,664.3125 Q367.0188,663.9844 366.4563,663.7969 Q365.8938,663.5938 365.3313,663.5938 Q364.6281,663.5938 364.0344,663.875 Q363.4563,664.1563 363.0031,664.7813 Q362.55,665.4063 362.55,666.2656 L362.55,667.1875 Q362.55,668.2188 363.3938,668.9063 Q364.2375,669.5938 365.7375,669.5938 Q366.6281,669.5938 367.2531,669.3906 Q367.6125,669.2813 368.0188,668.9219 Q368.2844,668.7188 368.425,668.6563 Q368.5656,668.5938 368.7375,668.5938 Q369.0656,668.5938 369.3,668.8594 Q369.55,669.1094 369.55,669.4688 Q369.55,669.8125 369.2063,670.2188 Q368.7063,670.8125 367.9094,671.1406 Q366.8625,671.5938 365.5813,671.5938 Q364.0813,671.5938 362.8781,671 Q361.9094,670.5313 361.2219,669.5156 Q360.55,668.5 360.55,667.2969 L360.55,666.2031 Q360.55,664.9531 361.1438,663.8594 Q361.7531,662.7656 362.8,662.1875 Q363.8625,661.5938 365.05,661.5938 Q365.7688,661.5938 366.3938,661.8438 Q367.0188,662.0938 367.55,662.5938 Z "/><text fill="#000000" font-family="sans-serif" font-size="12" font-style="italic" lengthAdjust="spacingAndGlyphs" textLength="66" x="394.95" y="663.457">«Singleton»</text><polygon fill="#4177AF" points="388.45,669.1406,384.45,675.1406,392.45,675.1406" style="stroke: #1963A0; stroke-width: 1.0;"/><text fill="#000000" font-family="sans-serif" font-size="12" lengthAdjust="spacingAndGlyphs" textLength="78" x="394.45" y="678.5508">SpecificPlugin</text><line style="stroke: #A80036; stroke-width: 1.5;" x1="334" x2="492" y1="686.1875" y2="686.1875"/><rect fill="none" height="6" style="stroke: #C82930; stroke-width: 1.0;" width="6" x="341" y="694.1875"/><text fill="#000000" font-family="sans-serif" font-size="11" lengthAdjust="spacingAndGlyphs" textLength="57" x="353" y="701.6064">String name</text><line style="stroke: #A80036; stroke-width: 1.5;" x1="334" x2="492" y1="708.0234" y2="708.0234"/><rect fill="#F24D5C" height="6" style="stroke: #C82930; stroke-width: 1.0;" width="6" x="341" y="716.0234"/><text fill="#000000" font-family="sans-serif" font-size="11" lengthAdjust="spacingAndGlyphs" textLength="75" x="353" y="723.4424">SpecificPlugin()</text><ellipse cx="344" cy="732.8594" fill="#84BE84" rx="3" ry="3" style="stroke: #038048; stroke-width: 1.0;"/><text fill="#000000" font-family="sans-serif" font-size="11" lengthAdjust="spacingAndGlyphs" text-decoration="underline" textLength="134" x="353" y="737.2783">SpecificPlugin getInstance()</text><ellipse cx="344" cy="746.6953" fill="#84BE84" rx="3" ry="3" style="stroke: #038048; stroke-width: 1.0;"/><text fill="#000000" font-family="sans-serif" font-size="11" font-weight="bold" lengthAdjust="spacingAndGlyphs" textLength="23" x="353" y="751.1143">final</text><text fill="#000000" font-family="sans-serif" font-size="11" lengthAdjust="spacingAndGlyphs" textLength="81" x="379" y="751.1143">String getName()</text><!--MD5=[4ab0a37e4eea002adccb7015b38062eb]
class SpecificReader--><rect fill="#FEFECE" filter="url(#f1owrwenfdbx4m)" height="89.5078" id="SpecificReader" style="stroke: #A80036; stroke-width: 1.5;" width="133" x="572.5" y="657"/><ellipse cx="590.2" cy="673" fill="#ADD1B2" rx="11" ry="11" style="stroke: #A80036; stroke-width: 1.0;"/><path d="M592.2,669.5 Q592.4031,669 592.6375,668.75 Q592.8719,668.5 593.1375,668.5 Q593.6063,668.5 593.9031,668.7813 Q594.2,669.0625 594.2,669.7188 L594.2,671.2813 Q594.2,671.9375 593.9188,672.2188 Q593.6375,672.5 593.2,672.5 Q592.8094,672.5 592.5594,672.3281 Q592.3094,672.1563 592.2,671.7031 Q592.1531,671.3906 591.9813,671.2188 Q591.6688,670.8906 591.1063,670.7031 Q590.5438,670.5 589.9813,670.5 Q589.2781,670.5 588.6844,670.7813 Q588.1063,671.0625 587.6531,671.6875 Q587.2,672.3125 587.2,673.1719 L587.2,674.0938 Q587.2,675.125 588.0438,675.8125 Q588.8875,676.5 590.3875,676.5 Q591.2781,676.5 591.9031,676.2969 Q592.2625,676.1875 592.6688,675.8281 Q592.9344,675.625 593.075,675.5625 Q593.2156,675.5 593.3875,675.5 Q593.7156,675.5 593.95,675.7656 Q594.2,676.0156 594.2,676.375 Q594.2,676.7188 593.8563,677.125 Q593.3563,677.7188 592.5594,678.0469 Q591.5125,678.5 590.2313,678.5 Q588.7313,678.5 587.5281,677.9063 Q586.5594,677.4375 585.8719,676.4219 Q585.2,675.4063 585.2,674.2031 L585.2,673.1094 Q585.2,671.8594 585.7938,670.7656 Q586.4031,669.6719 587.45,669.0938 Q588.5125,668.5 589.7,668.5 Q590.4188,668.5 591.0438,668.75 Q591.6688,669 592.2,669.5 Z "/><polygon fill="#4177AF" points="609.8,668.5,605.8,674.5,613.8,674.5" style="stroke: #1963A0; stroke-width: 1.0;"/><text fill="#000000" font-family="sans-serif" font-size="12" lengthAdjust="spacingAndGlyphs" textLength="84" x="615.8" y="677.9102">SpecificReader</text><line style="stroke: #A80036; stroke-width: 1.5;" x1="573.5" x2="704.5" y1="689" y2="689"/><rect fill="none" height="6" style="stroke: #C82930; stroke-width: 1.0;" width="6" x="580.5" y="697"/><text fill="#000000" font-family="sans-serif" font-size="11" lengthAdjust="spacingAndGlyphs" textLength="57" x="592.5" y="704.4189">String name</text><line style="stroke: #A80036; stroke-width: 1.5;" x1="573.5" x2="704.5" y1="710.8359" y2="710.8359"/><polygon fill="#FFFF44" points="583.5,716.8359,587.5,720.8359,583.5,724.8359,579.5,720.8359" style="stroke: #B38D22; stroke-width: 1.0;"/><text fill="#000000" font-family="sans-serif" font-size="11" lengthAdjust="spacingAndGlyphs" textLength="82" x="592.5" y="726.2549">SpecificReader()</text><ellipse cx="583.5" cy="735.6719" fill="#84BE84" rx="3" ry="3" style="stroke: #038048; stroke-width: 1.0;"/><text fill="#000000" font-family="sans-serif" font-size="11" font-weight="bold" lengthAdjust="spacingAndGlyphs" textLength="23" x="592.5" y="740.0908">final</text><text fill="#000000" font-family="sans-serif" font-size="11" lengthAdjust="spacingAndGlyphs" textLength="81" x="618.5" y="740.0908">String getName()</text><!--MD5=[98fb93546a7dc75f66b7a26283e02bb5]
link SeProxyService to ReaderPlugin--><path d="M298.0191,371.825 C298.0191,371.825 342.238,417.85 361.427,437.822 " fill="none" id="SeProxyService-ReaderPlugin" style="stroke: #A80036; stroke-width: 1.0;"/><polygon fill="#A80036" points="370.581,447.35,367.2304,438.0886,367.117,443.7443,361.4613,443.6309,370.581,447.35" style="stroke: #A80036; stroke-width: 1.0;"/><line style="stroke: #A80036; stroke-width: 1.0;" x1="367.117" x2="361.5745" y1="443.7443" y2="437.9755"/><polygon fill="#A80036" points="289.705,363.172,290.9777,370.2699,298.0191,371.825,296.7464,364.7271,289.705,363.172" style="stroke: #A80036; stroke-width: 1.0;"/><text fill="#000000" font-family="sans-serif" font-size="13" lengthAdjust="spacingAndGlyphs" textLength="41" x="333" y="407.4951">plugins</text><text fill="#000000" font-family="sans-serif" font-size="13" lengthAdjust="spacingAndGlyphs" textLength="7" x="289.0848" y="384.4872">1</text><text fill="#000000" font-family="sans-serif" font-size="13" lengthAdjust="spacingAndGlyphs" textLength="5" x="358.7028" y="436.7711">*</text><!--MD5=[c88fac8de0d16551763276c4b9088a93]
link ReaderPlugin to SeReader--><path d="M528.526,492.5 C528.526,492.5 564.616,492.5 582.659,492.5 " fill="none" id="ReaderPlugin-SeReader" style="stroke: #A80036; stroke-width: 1.0;"/><polygon fill="#A80036" points="595.803,492.5,586.803,488.5,590.803,492.5,586.803,496.5,595.803,492.5" style="stroke: #A80036; stroke-width: 1.0;"/><line style="stroke: #A80036; stroke-width: 1.0;" x1="590.803" x2="582.803" y1="492.5" y2="492.5"/><polygon fill="#A80036" points="516.526,492.5,522.526,496.5,528.526,492.5,522.526,488.5,516.526,492.5" style="stroke: #A80036; stroke-width: 1.0;"/><text fill="#000000" font-family="sans-serif" font-size="13" lengthAdjust="spacingAndGlyphs" textLength="43" x="534.75" y="485.9951">readers</text><text fill="#000000" font-family="sans-serif" font-size="13" lengthAdjust="spacingAndGlyphs" textLength="7" x="524.3857" y="489.4386">1</text><text fill="#000000" font-family="sans-serif" font-size="13" lengthAdjust="spacingAndGlyphs" textLength="5" x="582.9777" y="489.6328">*</text><!--MD5=[628c6eb29572115a3ae82dff7e7e6b47]
link SeProxyService to AbstractPluginFactory--><path d="M181.6901,374.2874 C181.6901,374.2874 162.316,421.905 154.158,441.956 " fill="none" id="SeProxyService-AbstractPluginFactory" style="stroke: #A80036; stroke-width: 1.0;"/><polygon fill="#A80036" points="149.163,454.232,156.2602,447.4034,151.0476,449.6008,148.8503,444.3881,149.163,454.232" style="stroke: #A80036; stroke-width: 1.0;"/><line style="stroke: #A80036; stroke-width: 1.0;" x1="151.0476" x2="154.0625" y1="449.6008" y2="442.191"/><polygon fill="#A80036" points="186.212,363.172,180.2459,367.2224,181.6901,374.2874,187.6562,370.237,186.212,363.172" style="stroke: #A80036; stroke-width: 1.0;"/><text fill="#000000" font-family="sans-serif" font-size="13" lengthAdjust="spacingAndGlyphs" textLength="50" x="175" y="407.4951">registers</text><text fill="#000000" font-family="sans-serif" font-size="13" lengthAdjust="spacingAndGlyphs" textLength="7" x="176.0511" y="384.4872">1</text><text fill="#000000" font-family="sans-serif" font-size="13" lengthAdjust="spacingAndGlyphs" textLength="5" x="146.4186" y="443.5462">*</text><!--MD5=[ed432611766c8e88b892041f7da1367f]
link AbstractPluginFactory to ReaderPlugin--><path d="M230.016,492.5 C253.856,492.5 279.578,492.5 303.991,492.5 " fill="none" id="AbstractPluginFactory-&gt;ReaderPlugin" style="stroke: #A80036; stroke-width: 1.0;"/><polygon fill="#A80036" points="309.179,492.5,300.179,488.5,304.179,492.5,300.179,496.5,309.179,492.5" style="stroke: #A80036; stroke-width: 1.0;"/><text fill="#000000" font-family="sans-serif" font-size="13" lengthAdjust="spacingAndGlyphs" textLength="43" x="248.25" y="485.9951">creates</text><text fill="#000000" font-family="sans-serif" font-size="13" lengthAdjust="spacingAndGlyphs" textLength="7" x="237.9462" y="489.3847">1</text><text fill="#000000" font-family="sans-serif" font-size="13" lengthAdjust="spacingAndGlyphs" textLength="7" x="294.633" y="489.4623">1</text><!--MD5=[606af266cb1c3ee5489afec7c4e81055]
link SpecificPluginFactory to SpecificPlugin--><path d="M253.848,702 C278.005,702 303.868,702 327.572,702 " fill="none" id="SpecificPluginFactory-&gt;SpecificPlugin" style="stroke: #A80036; stroke-width: 1.0;"/><polygon fill="#A80036" points="332.596,702,323.596,698,327.596,702,323.596,706,332.596,702" style="stroke: #A80036; stroke-width: 1.0;"/><text fill="#000000" font-family="sans-serif" font-size="13" lengthAdjust="spacingAndGlyphs" textLength="43" x="271.75" y="695.4951">creates</text><text fill="#000000" font-family="sans-serif" font-size="13" lengthAdjust="spacingAndGlyphs" textLength="7" x="261.6054" y="698.8847">1</text><text fill="#000000" font-family="sans-serif" font-size="13" lengthAdjust="spacingAndGlyphs" textLength="7" x="318.1233" y="698.8191">1</text><!--MD5=[c0f848f1ce686e4cacbc8a0551faf0fe]
link SpecificPlugin to SpecificReader--><path d="M505.315,702 C505.315,702 542.219,702 559.27,702 " fill="none" id="SpecificPlugin-SpecificReader" style="stroke: #A80036; stroke-width: 1.0;"/><polygon fill="#A80036" points="572.367,702,563.367,698,567.367,702,563.367,706,572.367,702" style="stroke: #A80036; stroke-width: 1.0;"/><line style="stroke: #A80036; stroke-width: 1.0;" x1="567.367" x2="559.367" y1="702" y2="701.9999"/><polygon fill="#A80036" points="493.315,702,499.315,706,505.315,702,499.315,698,493.315,702" style="stroke: #A80036; stroke-width: 1.0;"/><text fill="#000000" font-family="sans-serif" font-size="13" lengthAdjust="spacingAndGlyphs" textLength="43" x="511.25" y="695.4951">readers</text><text fill="#000000" font-family="sans-serif" font-size="13" lengthAdjust="spacingAndGlyphs" textLength="7" x="501.0417" y="698.7954">1</text><text fill="#000000" font-family="sans-serif" font-size="13" lengthAdjust="spacingAndGlyphs" textLength="5" x="559.3735" y="698.6189">*</text><!--MD5=[f8c43c6217b3f7a11e63ade92879ea46]
link SpecificTerminal to SeProxyService--><path d="M217,108.392 C217,132.022 217,169.89 217,204.557 " fill="none" id="SpecificTerminal-&gt;SeProxyService" style="stroke: #A80036; stroke-width: 1.0;"/><polygon fill="#A80036" points="217,209.646,221,200.646,217,204.646,213,200.646,217,209.646" style="stroke: #A80036; stroke-width: 1.0;"/><text fill="#000000" font-family="sans-serif" font-size="13" lengthAdjust="spacingAndGlyphs" textLength="28" x="218" y="154.4951">uses</text><polygon fill="#000000" points="227.5,163.3516,230.5,169.3516,233.5,163.3516,227.5,163.3516" style="stroke: #000000; stroke-width: 1.0;"/><!--MD5=[5e2e42b3428cab7eb3f2532a1d684e48]
reverse link AbstractPluginFactory to SpecificPluginFactory--><path d="M141.153,550.59 C145.681,586.722 151.403,632.392 155.348,663.875 " fill="none" id="AbstractPluginFactory&lt;-SpecificPluginFactory" style="stroke: #A80036; stroke-width: 1.0;"/><polygon fill="none" points="134.189,551.312,138.648,530.597,148.081,549.571,134.189,551.312" style="stroke: #A80036; stroke-width: 1.0;"/><text fill="#000000" font-family="sans-serif" font-size="13" lengthAdjust="spacingAndGlyphs" textLength="46" x="148" y="590.4951">extends</text><!--MD5=[7c148b1c73f50606d6f270d6e2289f39]
reverse link ReaderPlugin to SpecificPlugin--><path d="M413,557.597 C413,585.884 413,618.799 413,645.956 " fill="none" id="ReaderPlugin&lt;-SpecificPlugin" style="stroke: #A80036; stroke-width: 1.0; stroke-dasharray: 7.0,7.0;"/><polygon fill="none" points="406,557.505,413,537.505,420,557.505,406,557.505" style="stroke: #A80036; stroke-width: 1.0;"/><text fill="#000000" font-family="sans-serif" font-size="13" lengthAdjust="spacingAndGlyphs" textLength="67" x="414" y="590.4951">implements</text><!--MD5=[4afba5938fcadf10f22a5ff47d317fb7]
reverse link SeReader to SpecificReader--><path d="M724.362,561.531 C705.209,592.824 683.034,629.055 666.086,656.746 " fill="none" id="SeReader&lt;-SpecificReader" style="stroke: #A80036; stroke-width: 1.0; stroke-dasharray: 7.0,7.0;"/><polygon fill="none" points="718.521,557.665,734.932,544.26,730.462,564.973,718.521,557.665" style="stroke: #A80036; stroke-width: 1.0;"/><text fill="#000000" font-family="sans-serif" font-size="13" lengthAdjust="spacingAndGlyphs" textLength="67" x="714" y="590.4951">implements</text><!--MD5=[132fd6f0ffcb741561da3f8aac111d98]
@startuml
package external.terminalapplication #3399FF {
  class SpecificTerminal
}

package org.eclipse.keyple.core.seproxy #FFFFFF {
+class "<b>final</b> SeProxyService" as SeProxyService << Singleton >> {
  +{static}SeProxyService getInstance()
  +String getVersion()
  +ReaderPlugin registerPlugin(AbstractPluginFactory pluginFactory)
  +boolean isRegistered(String pluginName)
  +boolean unregisterPlugin(String pluginName)
  +ReaderPlugin getPlugin(String name)
  +Set<ReaderPlugin> getPlugins()
}
+abstract AbstractPluginFactory {
  {abstract} #String getPluginName()
  {abstract} #ReaderPlugin getPluginInstance()
}
+interface ReaderPlugin {
  +Map<String, SeReader> getReaders()
  +Set<String> getReaderNames()
  +SeReader getReader(String name)
}
+interface SeReader {
  +boolean isSePresent()
  +addSeProtocolSetting(SeProtocol seProtocol, String protocolRule)
  +setSeProtocolSetting(Map<SeProtocol, String> protocolSetting)
  +TransmissionMode getTransmissionMode()
}

  SeProxyService "1" *-down-> "*" ReaderPlugin : plugins
  ReaderPlugin "1" *-right-> "*" SeReader : readers

  SeProxyService "1" *- -> "*" AbstractPluginFactory : registers
  AbstractPluginFactory "1" -right-> "1" ReaderPlugin : creates
}

package plugin.specific #FFCCFF {
  +class "<b>final</b> SpecificPluginFactory" as SpecificPluginFactory {
    #String getPluginName()
    #ReaderPlugin getPluginInstance()
  }

  ~class SpecificPlugin << Singleton >> {
    -String name
    -SpecificPlugin()
    +{static} SpecificPlugin getInstance()
    +<b>final</b> String getName()
  }

  ~class SpecificReader {
    -String name
    #SpecificReader()
    +<b>final</b> String getName()
  }

  SpecificPluginFactory "1" -right-> "1" SpecificPlugin : creates
  SpecificPlugin "1" *-right-> "*" SpecificReader : readers
}

SpecificTerminal -down-> SeProxyService : uses >

AbstractPluginFactory <|-down- SpecificPluginFactory : extends
ReaderPlugin <|.. SpecificPlugin : implements
SeReader <|.. SpecificReader : implements
@enduml

PlantUML version 1.2020.07(Sun Apr 19 15:42:40 MUT 2020)
(GPL source distribution)
Java Runtime: OpenJDK Runtime Environment
JVM: OpenJDK 64-Bit Server VM
Java Version: 11.0.6+8-b765.40
Operating System: Windows 10
Default Encoding: Cp1252
Language: fr
Country: FR
--></g></svg>