<?xml version="1.0" encoding="UTF-8" standalone="no"?><svg xmlns="http://www.w3.org/2000/svg" xmlns:xlink="http://www.w3.org/1999/xlink" contentScriptType="application/ecmascript" contentStyleType="text/css" height="1195px" preserveAspectRatio="none" style="width:705px;height:1195px;" version="1.1" viewBox="0 0 705 1195" width="705px" zoomAndPan="magnify"><defs><filter height="300%" id="f1we9z3pikwtbt" width="300%" x="-1" y="-1"><feGaussianBlur result="blurOut" stdDeviation="2.0"/><feColorMatrix in="blurOut" result="blurOut2" type="matrix" values="0 0 0 0 0 0 0 0 0 0 0 0 0 0 0 0 0 0 .4 0"/><feOffset dx="4.0" dy="4.0" in="blurOut2" result="blurOut3"/><feBlend in="SourceGraphic" in2="blurOut3" mode="normal"/></filter></defs><g><!--MD5=[2bcc54f38766b998c5e88efdbc7d1696]
cluster org.eclipse.keyple.core.seproxy--><polygon fill="#FFFFFF" filter="url(#f1we9z3pikwtbt)" points="22,24,253,24,260,47.6094,683,47.6094,683,1183,22,1183,22,24" style="stroke: #000000; stroke-width: 1.5;"/><line style="stroke: #000000; stroke-width: 1.5;" x1="22" x2="260" y1="47.6094" y2="47.6094"/><text fill="#000000" font-family="sans-serif" font-size="14" font-weight="bold" lengthAdjust="spacingAndGlyphs" textLength="225" x="26" y="40.5332">org.eclipse.keyple.core.seproxy</text><!--MD5=[59e9faf83e5ffb743ef5750f57e8e967]
cluster protocol--><polygon fill="#FFFFFF" filter="url(#f1we9z3pikwtbt)" points="46,616,111,616,118,639.6094,659,639.6094,659,1159,46,1159,46,616" style="stroke: #000000; stroke-width: 1.5;"/><line style="stroke: #000000; stroke-width: 1.5;" x1="46" x2="118" y1="639.6094" y2="639.6094"/><text fill="#000000" font-family="sans-serif" font-size="14" font-weight="bold" lengthAdjust="spacingAndGlyphs" textLength="59" x="50" y="632.5332">protocol</text><!--MD5=[986279e3cfc2043660398b1cf71c65a2]
class FileOccurrence--><rect fill="#FEFECE" filter="url(#f1we9z3pikwtbt)" height="103.3438" id="FileOccurrence" style="stroke: #A80036; stroke-width: 1.5;" width="126" x="117" y="60"/><ellipse cx="132" cy="76" fill="#EB937F" rx="11" ry="11" style="stroke: #A80036; stroke-width: 1.0;"/><path d="M130.5,77 L130.5,79 L134.5,79 L134.5,78 L134.5,77.5156 L135.125,77 L135.5,77 L135.875,77 L136.5,77.5156 L136.5,78 L136.5,81 L128.5,81 L128.0156,81 L127.5,80.375 L127.5,80 L127.5,79.625 L128.0156,79 L128.5,79 L128.5,79 L128.5,73 L128.5,73 L128.0156,73 L127.5,72.375 L127.5,72 L127.5,71.625 L128.0156,71 L128.5,71 L136.5,71 L136.5,74 L136.5,74.4844 L135.875,75 L135.5,75 L135.125,75 L134.5,74.4844 L134.5,74 L134.5,73 L130.5,73 L130.5,75 L131.5,75 L131.5,74.5156 L131.5,74.5156 L132.125,74 L132.5,74 L132.875,74 L133.5,74.5156 L133.5,75 L133.5,77 L133.5,77.4844 L132.875,78 L132.875,78 L132.5,78 L132.125,78 L131.5,77.4844 L131.5,77.4844 L131.5,77 L130.5,77 Z "/><ellipse cx="151" cy="75.5" fill="#84BE84" rx="3" ry="3" style="stroke: #038048; stroke-width: 1.0;"/><text fill="#000000" font-family="sans-serif" font-size="12" lengthAdjust="spacingAndGlyphs" textLength="83" x="157" y="80.9102">FileOccurrence</text><line style="stroke: #A80036; stroke-width: 1.5;" x1="118" x2="242" y1="92" y2="92"/><text fill="#000000" font-family="sans-serif" font-size="11" lengthAdjust="spacingAndGlyphs" textLength="28" x="123" y="107.4189">FIRST</text><text fill="#000000" font-family="sans-serif" font-size="11" lengthAdjust="spacingAndGlyphs" textLength="27" x="123" y="121.2549">LAST</text><text fill="#000000" font-family="sans-serif" font-size="11" lengthAdjust="spacingAndGlyphs" textLength="26" x="123" y="135.0908">NEXT</text><text fill="#000000" font-family="sans-serif" font-size="11" lengthAdjust="spacingAndGlyphs" textLength="51" x="123" y="148.9268">PREVIOUS</text><line style="stroke: #A80036; stroke-width: 1.5;" x1="118" x2="242" y1="155.3438" y2="155.3438"/><!--MD5=[7db03ef0d09735de9c956eac87f10fc3]
class FileControlInformation--><rect fill="#FEFECE" filter="url(#f1we9z3pikwtbt)" height="103.3438" id="FileControlInformation" style="stroke: #A80036; stroke-width: 1.5;" width="165" x="278.5" y="60"/><ellipse cx="293.5" cy="76" fill="#EB937F" rx="11" ry="11" style="stroke: #A80036; stroke-width: 1.0;"/><path d="M292,77 L292,79 L296,79 L296,78 L296,77.5156 L296.625,77 L297,77 L297.375,77 L298,77.5156 L298,78 L298,81 L290,81 L289.5156,81 L289,80.375 L289,80 L289,79.625 L289.5156,79 L290,79 L290,79 L290,73 L290,73 L289.5156,73 L289,72.375 L289,72 L289,71.625 L289.5156,71 L290,71 L298,71 L298,74 L298,74.4844 L297.375,75 L297,75 L296.625,75 L296,74.4844 L296,74 L296,73 L292,73 L292,75 L293,75 L293,74.5156 L293,74.5156 L293.625,74 L294,74 L294.375,74 L295,74.5156 L295,75 L295,77 L295,77.4844 L294.375,78 L294.375,78 L294,78 L293.625,78 L293,77.4844 L293,77.4844 L293,77 L292,77 Z "/><ellipse cx="312.5" cy="75.5" fill="#84BE84" rx="3" ry="3" style="stroke: #038048; stroke-width: 1.0;"/><text fill="#000000" font-family="sans-serif" font-size="12" lengthAdjust="spacingAndGlyphs" textLength="122" x="318.5" y="80.9102">FileControlInformation</text><line style="stroke: #A80036; stroke-width: 1.5;" x1="279.5" x2="442.5" y1="92" y2="92"/><text fill="#000000" font-family="sans-serif" font-size="11" lengthAdjust="spacingAndGlyphs" textLength="15" x="284.5" y="107.4189">FCI</text><text fill="#000000" font-family="sans-serif" font-size="11" lengthAdjust="spacingAndGlyphs" textLength="19" x="284.5" y="121.2549">FCP</text><text fill="#000000" font-family="sans-serif" font-size="11" lengthAdjust="spacingAndGlyphs" textLength="21" x="284.5" y="135.0908">FMD</text><text fill="#000000" font-family="sans-serif" font-size="11" lengthAdjust="spacingAndGlyphs" textLength="75" x="284.5" y="148.9268">NO_RESPONSE</text><line style="stroke: #A80036; stroke-width: 1.5;" x1="279.5" x2="442.5" y1="155.3438" y2="155.3438"/><!--MD5=[f428c4dc64511916316291419143e8fc]
class AtrSelector--><rect fill="#FEFECE" filter="url(#f1we9z3pikwtbt)" height="111.5313" id="AtrSelector" style="stroke: #A80036; stroke-width: 1.5;" width="220" x="444" y="447.5"/><ellipse cx="501.25" cy="467.5938" fill="#ADD1B2" rx="11" ry="11" style="stroke: #A80036; stroke-width: 1.0;"/><path d="M503.25,464.0938 Q503.4531,463.5938 503.6875,463.3438 Q503.9219,463.0938 504.1875,463.0938 Q504.6563,463.0938 504.9531,463.375 Q505.25,463.6563 505.25,464.3125 L505.25,465.875 Q505.25,466.5313 504.9688,466.8125 Q504.6875,467.0938 504.25,467.0938 Q503.8594,467.0938 503.6094,466.9219 Q503.3594,466.75 503.25,466.2969 Q503.2031,465.9844 503.0313,465.8125 Q502.7188,465.4844 502.1563,465.2969 Q501.5938,465.0938 501.0313,465.0938 Q500.3281,465.0938 499.7344,465.375 Q499.1563,465.6563 498.7031,466.2813 Q498.25,466.9063 498.25,467.7656 L498.25,468.6875 Q498.25,469.7188 499.0938,470.4063 Q499.9375,471.0938 501.4375,471.0938 Q502.3281,471.0938 502.9531,470.8906 Q503.3125,470.7813 503.7188,470.4219 Q503.9844,470.2188 504.125,470.1563 Q504.2656,470.0938 504.4375,470.0938 Q504.7656,470.0938 505,470.3594 Q505.25,470.6094 505.25,470.9688 Q505.25,471.3125 504.9063,471.7188 Q504.4063,472.3125 503.6094,472.6406 Q502.5625,473.0938 501.2813,473.0938 Q499.7813,473.0938 498.5781,472.5 Q497.6094,472.0313 496.9219,471.0156 Q496.25,470 496.25,468.7969 L496.25,467.7031 Q496.25,466.4531 496.8438,465.3594 Q497.4531,464.2656 498.5,463.6875 Q499.5625,463.0938 500.75,463.0938 Q501.4688,463.0938 502.0938,463.3438 Q502.7188,463.5938 503.25,464.0938 Z "/><text fill="#000000" font-family="sans-serif" font-size="12" font-style="italic" lengthAdjust="spacingAndGlyphs" textLength="42" x="549.25" y="464.957">«static»</text><ellipse cx="526.75" cy="474.6406" fill="#84BE84" rx="3" ry="3" style="stroke: #038048; stroke-width: 1.0;"/><text fill="#000000" font-family="sans-serif" font-size="12" font-weight="bold" lengthAdjust="spacingAndGlyphs" textLength="24" x="532.75" y="480.0508">final</text><text fill="#000000" font-family="sans-serif" font-size="12" lengthAdjust="spacingAndGlyphs" textLength="59" x="559.75" y="480.0508">AtrSelector</text><line style="stroke: #A80036; stroke-width: 1.5;" x1="445" x2="663" y1="487.6875" y2="487.6875"/><line style="stroke: #A80036; stroke-width: 1.5;" x1="445" x2="663" y1="495.6875" y2="495.6875"/><ellipse cx="455" cy="506.6875" fill="#84BE84" rx="3" ry="3" style="stroke: #038048; stroke-width: 1.0;"/><text fill="#000000" font-family="sans-serif" font-size="11" lengthAdjust="spacingAndGlyphs" textLength="121" x="464" y="511.1064">AtrFilter(String atrRegex)</text><ellipse cx="455" cy="520.5234" fill="#84BE84" rx="3" ry="3" style="stroke: #038048; stroke-width: 1.0;"/><text fill="#000000" font-family="sans-serif" font-size="11" lengthAdjust="spacingAndGlyphs" textLength="194" x="464" y="524.9424">void setAtrRegex(String atrRegex) ????</text><ellipse cx="455" cy="534.3594" fill="#84BE84" rx="3" ry="3" style="stroke: #038048; stroke-width: 1.0;"/><text fill="#000000" font-family="sans-serif" font-size="11" lengthAdjust="spacingAndGlyphs" textLength="100" x="464" y="538.7783">String getAtrRegex()</text><ellipse cx="455" cy="548.1953" fill="#84BE84" rx="3" ry="3" style="stroke: #038048; stroke-width: 1.0;"/><text fill="#000000" font-family="sans-serif" font-size="11" lengthAdjust="spacingAndGlyphs" textLength="146" x="464" y="552.6143">boolean atrMatches(byte[] atr)</text><!--MD5=[0c38ce21b8fe3613f2a22c03c2bb1923]
class AidSelector--><rect fill="#FEFECE" filter="url(#f1we9z3pikwtbt)" height="153.0391" id="AidSelector" style="stroke: #A80036; stroke-width: 1.5;" width="459" x="41.5" y="224"/><ellipse cx="216.75" cy="244.0938" fill="#ADD1B2" rx="11" ry="11" style="stroke: #A80036; stroke-width: 1.0;"/><path d="M218.75,240.5938 Q218.9531,240.0938 219.1875,239.8438 Q219.4219,239.5938 219.6875,239.5938 Q220.1563,239.5938 220.4531,239.875 Q220.75,240.1563 220.75,240.8125 L220.75,242.375 Q220.75,243.0313 220.4688,243.3125 Q220.1875,243.5938 219.75,243.5938 Q219.3594,243.5938 219.1094,243.4219 Q218.8594,243.25 218.75,242.7969 Q218.7031,242.4844 218.5313,242.3125 Q218.2188,241.9844 217.6563,241.7969 Q217.0938,241.5938 216.5313,241.5938 Q215.8281,241.5938 215.2344,241.875 Q214.6563,242.1563 214.2031,242.7813 Q213.75,243.4063 213.75,244.2656 L213.75,245.1875 Q213.75,246.2188 214.5938,246.9063 Q215.4375,247.5938 216.9375,247.5938 Q217.8281,247.5938 218.4531,247.3906 Q218.8125,247.2813 219.2188,246.9219 Q219.4844,246.7188 219.625,246.6563 Q219.7656,246.5938 219.9375,246.5938 Q220.2656,246.5938 220.5,246.8594 Q220.75,247.1094 220.75,247.4688 Q220.75,247.8125 220.4063,248.2188 Q219.9063,248.8125 219.1094,249.1406 Q218.0625,249.5938 216.7813,249.5938 Q215.2813,249.5938 214.0781,249 Q213.1094,248.5313 212.4219,247.5156 Q211.75,246.5 211.75,245.2969 L211.75,244.2031 Q211.75,242.9531 212.3438,241.8594 Q212.9531,240.7656 214,240.1875 Q215.0625,239.5938 216.25,239.5938 Q216.9688,239.5938 217.5938,239.8438 Q218.2188,240.0938 218.75,240.5938 Z "/><text fill="#000000" font-family="sans-serif" font-size="12" font-style="italic" lengthAdjust="spacingAndGlyphs" textLength="42" x="266.25" y="241.457">«static»</text><ellipse cx="242.25" cy="251.1406" fill="#84BE84" rx="3" ry="3" style="stroke: #038048; stroke-width: 1.0;"/><text fill="#000000" font-family="sans-serif" font-size="12" font-weight="bold" lengthAdjust="spacingAndGlyphs" textLength="24" x="248.25" y="256.5508">final</text><text fill="#000000" font-family="sans-serif" font-size="12" lengthAdjust="spacingAndGlyphs" textLength="62" x="275.25" y="256.5508">AidSelector</text><line style="stroke: #A80036; stroke-width: 1.5;" x1="42.5" x2="499.5" y1="264.1875" y2="264.1875"/><ellipse cx="52.5" cy="275.1875" fill="none" rx="3" ry="3" style="stroke: #038048; stroke-width: 1.0;"/><text fill="#000000" font-family="sans-serif" font-size="11" lengthAdjust="spacingAndGlyphs" text-decoration="underline" textLength="144" x="61.5" y="279.6064">final int AID_MIN_LENGTH = 5;</text><ellipse cx="52.5" cy="289.0234" fill="none" rx="3" ry="3" style="stroke: #038048; stroke-width: 1.0;"/><text fill="#000000" font-family="sans-serif" font-size="11" lengthAdjust="spacingAndGlyphs" text-decoration="underline" textLength="156" x="61.5" y="293.4424">final int AID_MAX_LENGTH = 16;</text><line style="stroke: #A80036; stroke-width: 1.5;" x1="42.5" x2="499.5" y1="299.8594" y2="299.8594"/><ellipse cx="52.5" cy="310.8594" fill="#84BE84" rx="3" ry="3" style="stroke: #038048; stroke-width: 1.0;"/><text fill="#000000" font-family="sans-serif" font-size="11" lengthAdjust="spacingAndGlyphs" textLength="379" x="61.5" y="315.2783">AidSelector(byte[] aidToSelect, Set&lt;Integer&gt; successfulSelectionStatusCodes,</text><text fill="#000000" font-family="sans-serif" font-size="11" lengthAdjust="spacingAndGlyphs" textLength="433" x="61.5" y="329.1143">FileOccurrence fileOccurrence = FIRST, FileControlInformation fileControlInformation = FCI)</text><ellipse cx="52.5" cy="338.5313" fill="#84BE84" rx="3" ry="3" style="stroke: #038048; stroke-width: 1.0;"/><text fill="#000000" font-family="sans-serif" font-size="11" lengthAdjust="spacingAndGlyphs" textLength="111" x="61.5" y="342.9502">byte[] getAidToSelect()</text><ellipse cx="52.5" cy="352.3672" fill="#84BE84" rx="3" ry="3" style="stroke: #038048; stroke-width: 1.0;"/><text fill="#000000" font-family="sans-serif" font-size="11" lengthAdjust="spacingAndGlyphs" textLength="109" x="61.5" y="356.7861">boolean isSelectNext()</text><ellipse cx="52.5" cy="366.2031" fill="#84BE84" rx="3" ry="3" style="stroke: #038048; stroke-width: 1.0;"/><text fill="#000000" font-family="sans-serif" font-size="11" lengthAdjust="spacingAndGlyphs" textLength="248" x="61.5" y="370.6221">Set&lt;Integer&gt; getSuccessfulSelectionStatusCodes()</text><!--MD5=[233c6f1f7c69be3daec88cbd55acc2d5]
class SeSelector--><rect fill="#FEFECE" filter="url(#f1we9z3pikwtbt)" height="131.0156" id="SeSelector" style="stroke: #A80036; stroke-width: 1.5;" width="275" x="133.5" y="438"/><ellipse cx="231.25" cy="454" fill="#ADD1B2" rx="11" ry="11" style="stroke: #A80036; stroke-width: 1.0;"/><path d="M233.25,450.5 Q233.4531,450 233.6875,449.75 Q233.9219,449.5 234.1875,449.5 Q234.6563,449.5 234.9531,449.7813 Q235.25,450.0625 235.25,450.7188 L235.25,452.2813 Q235.25,452.9375 234.9688,453.2188 Q234.6875,453.5 234.25,453.5 Q233.8594,453.5 233.6094,453.3281 Q233.3594,453.1563 233.25,452.7031 Q233.2031,452.3906 233.0313,452.2188 Q232.7188,451.8906 232.1563,451.7031 Q231.5938,451.5 231.0313,451.5 Q230.3281,451.5 229.7344,451.7813 Q229.1563,452.0625 228.7031,452.6875 Q228.25,453.3125 228.25,454.1719 L228.25,455.0938 Q228.25,456.125 229.0938,456.8125 Q229.9375,457.5 231.4375,457.5 Q232.3281,457.5 232.9531,457.2969 Q233.3125,457.1875 233.7188,456.8281 Q233.9844,456.625 234.125,456.5625 Q234.2656,456.5 234.4375,456.5 Q234.7656,456.5 235,456.7656 Q235.25,457.0156 235.25,457.375 Q235.25,457.7188 234.9063,458.125 Q234.4063,458.7188 233.6094,459.0469 Q232.5625,459.5 231.2813,459.5 Q229.7813,459.5 228.5781,458.9063 Q227.6094,458.4375 226.9219,457.4219 Q226.25,456.4063 226.25,455.2031 L226.25,454.1094 Q226.25,452.8594 226.8438,451.7656 Q227.4531,450.6719 228.5,450.0938 Q229.5625,449.5 230.75,449.5 Q231.4688,449.5 232.0938,449.75 Q232.7188,450 233.25,450.5 Z "/><ellipse cx="256.75" cy="453.5" fill="#84BE84" rx="3" ry="3" style="stroke: #038048; stroke-width: 1.0;"/><text fill="#000000" font-family="sans-serif" font-size="12" lengthAdjust="spacingAndGlyphs" textLength="60" x="262.75" y="458.9102">SeSelector</text><line style="stroke: #A80036; stroke-width: 1.5;" x1="134.5" x2="407.5" y1="470" y2="470"/><line style="stroke: #A80036; stroke-width: 1.5;" x1="134.5" x2="407.5" y1="478" y2="478"/><ellipse cx="144.5" cy="489" fill="#84BE84" rx="3" ry="3" style="stroke: #038048; stroke-width: 1.0;"/><text fill="#000000" font-family="sans-serif" font-size="11" lengthAdjust="spacingAndGlyphs" textLength="249" x="153.5" y="493.4189">SeSelector(SeProtocol seProtocol, AtrFilter atrFilter,</text><text fill="#000000" font-family="sans-serif" font-size="11" lengthAdjust="spacingAndGlyphs" textLength="197" x="153.5" y="507.2549">AidSelector aidSelector, String extraInfo)</text><ellipse cx="144.5" cy="516.6719" fill="#84BE84" rx="3" ry="3" style="stroke: #038048; stroke-width: 1.0;"/><text fill="#000000" font-family="sans-serif" font-size="11" lengthAdjust="spacingAndGlyphs" textLength="130" x="153.5" y="521.0908">SeProtocol getSeProtocol()</text><ellipse cx="144.5" cy="530.5078" fill="#84BE84" rx="3" ry="3" style="stroke: #038048; stroke-width: 1.0;"/><text fill="#000000" font-family="sans-serif" font-size="11" lengthAdjust="spacingAndGlyphs" textLength="102" x="153.5" y="534.9268">AtrFilter getAtrFilter()</text><ellipse cx="144.5" cy="544.3438" fill="#84BE84" rx="3" ry="3" style="stroke: #038048; stroke-width: 1.0;"/><text fill="#000000" font-family="sans-serif" font-size="11" lengthAdjust="spacingAndGlyphs" textLength="138" x="153.5" y="548.7627">AidSelector getAidSelector()</text><ellipse cx="144.5" cy="558.1797" fill="#84BE84" rx="3" ry="3" style="stroke: #038048; stroke-width: 1.0;"/><text fill="#000000" font-family="sans-serif" font-size="11" lengthAdjust="spacingAndGlyphs" textLength="120" x="153.5" y="562.5986">final String getExtraInfo()</text><!--MD5=[102d0f3d638ad6309248ed4bfa481bde]
class SeCommonProtocols--><rect fill="#FEFECE" filter="url(#f1we9z3pikwtbt)" height="336.7188" id="SeCommonProtocols" style="stroke: #A80036; stroke-width: 1.5;" width="395" x="247.5" y="806"/><ellipse cx="381.25" cy="822" fill="#EB937F" rx="11" ry="11" style="stroke: #A80036; stroke-width: 1.0;"/><path d="M379.75,823 L379.75,825 L383.75,825 L383.75,824 L383.75,823.5156 L384.375,823 L384.75,823 L385.125,823 L385.75,823.5156 L385.75,824 L385.75,827 L377.75,827 L377.2656,827 L376.75,826.375 L376.75,826 L376.75,825.625 L377.2656,825 L377.75,825 L377.75,825 L377.75,819 L377.75,819 L377.2656,819 L376.75,818.375 L376.75,818 L376.75,817.625 L377.2656,817 L377.75,817 L385.75,817 L385.75,820 L385.75,820.4844 L385.125,821 L384.75,821 L384.375,821 L383.75,820.4844 L383.75,820 L383.75,819 L379.75,819 L379.75,821 L380.75,821 L380.75,820.5156 L380.75,820.5156 L381.375,820 L381.75,820 L382.125,820 L382.75,820.5156 L382.75,821 L382.75,823 L382.75,823.4844 L382.125,824 L382.125,824 L381.75,824 L381.375,824 L380.75,823.4844 L380.75,823.4844 L380.75,823 L379.75,823 Z "/><text fill="#000000" font-family="sans-serif" font-size="12" lengthAdjust="spacingAndGlyphs" textLength="119" x="401.75" y="826.9102">SeCommonProtocols</text><line style="stroke: #A80036; stroke-width: 1.5;" x1="248.5" x2="641.5" y1="838" y2="838"/><text fill="#000000" font-family="sans-serif" font-size="11" lengthAdjust="spacingAndGlyphs" textLength="278" x="253.5" y="871.2549">PROTOCOL_ISO14443_4("ISO 14443-4", CONTACTLESS)</text><text fill="#000000" font-family="sans-serif" font-size="11" lengthAdjust="spacingAndGlyphs" textLength="294" x="253.5" y="885.0908">PROTOCOL_ISO15693("ISO 15693 Type V", CONTACTLESS)</text><line style="stroke: #A80036; stroke-width: 1.0; stroke-dasharray: 1.0,2.0;" x1="248.5" x2="345.5" y1="852.918" y2="852.918"/><text fill="#000000" font-family="sans-serif" font-size="11" lengthAdjust="spacingAndGlyphs" textLength="199" x="345.5" y="856.9189">contactless ISO standard / NFC compliant</text><line style="stroke: #A80036; stroke-width: 1.0; stroke-dasharray: 1.0,2.0;" x1="544.5" x2="641.5" y1="852.918" y2="852.918"/><text fill="#000000" font-family="sans-serif" font-size="11" lengthAdjust="spacingAndGlyphs" textLength="324" x="253.5" y="916.7627">PROTOCOL_ISO14443_3A("ISO 14443-3 Type A", CONTACTLESS)</text><text fill="#000000" font-family="sans-serif" font-size="11" lengthAdjust="spacingAndGlyphs" textLength="322" x="253.5" y="930.5986">PROTOCOL_ISO14443_3B("ISO 14443-3 Type B", CONTACTLESS)</text><text fill="#000000" font-family="sans-serif" font-size="11" lengthAdjust="spacingAndGlyphs" textLength="297" x="253.5" y="944.4346">PROTOCOL_JIS_6319_4("JIS 6319-4 Felica", CONTACTLESS)</text><text fill="#000000" font-family="sans-serif" font-size="11" lengthAdjust="spacingAndGlyphs" textLength="259" x="253.5" y="958.2705">PROTOCOL_NDEF("NFC NDEF TAG", CONTACTLESS)</text><text fill="#000000" font-family="sans-serif" font-size="11" lengthAdjust="spacingAndGlyphs" textLength="383" x="253.5" y="972.1064">PROTOCOL_NDEF_FORMATABLE("NFC NDEF FORMATABLE", CONTACTLESS)</text><text fill="#000000" font-family="sans-serif" font-size="11" lengthAdjust="spacingAndGlyphs" textLength="304" x="253.5" y="985.9424">PROTOCOL_NFC_BARCODE("NFC BARCODE, CONTACTLESS)</text><text fill="#000000" font-family="sans-serif" font-size="11" lengthAdjust="spacingAndGlyphs" textLength="296" x="253.5" y="999.7783">PROTOCOL_MIFARE_UL("Mifare Ultra Light", CONTACTLESS)</text><text fill="#000000" font-family="sans-serif" font-size="11" lengthAdjust="spacingAndGlyphs" textLength="314" x="253.5" y="1013.6143">PROTOCOL_MIFARE_CLASSIC("Mifare Classic", CONTACTLESS)</text><text fill="#000000" font-family="sans-serif" font-size="11" lengthAdjust="spacingAndGlyphs" textLength="314" x="253.5" y="1027.4502">PROTOCOL_MIFARE_DESFIRE("Mifare DESFire", CONTACTLESS)</text><line style="stroke: #A80036; stroke-width: 1.0; stroke-dasharray: 1.0,2.0;" x1="248.5" x2="353.5" y1="898.4258" y2="898.4258"/><text fill="#000000" font-family="sans-serif" font-size="11" lengthAdjust="spacingAndGlyphs" textLength="183" x="353.5" y="902.4268">contactless proprietary NFC compliant</text><line style="stroke: #A80036; stroke-width: 1.0; stroke-dasharray: 1.0,2.0;" x1="536.5" x2="641.5" y1="898.4258" y2="898.4258"/><text fill="#000000" font-family="sans-serif" font-size="11" lengthAdjust="spacingAndGlyphs" textLength="323" x="253.5" y="1059.1221">PROTOCOL_B_PRIME("Old Calypso card B prime", CONTACTLESS)</text><text fill="#000000" font-family="sans-serif" font-size="11" lengthAdjust="spacingAndGlyphs" textLength="301" x="253.5" y="1072.958">PROTOCOL_MEMORY_ST25("Memory ST25", CONTACTLESS)</text><line style="stroke: #A80036; stroke-width: 1.0; stroke-dasharray: 1.0,2.0;" x1="248.5" x2="344.5" y1="1040.7852" y2="1040.7852"/><text fill="#000000" font-family="sans-serif" font-size="11" lengthAdjust="spacingAndGlyphs" textLength="201" x="344.5" y="1044.7861">contactless proprietary not NFC compliant</text><line style="stroke: #A80036; stroke-width: 1.0; stroke-dasharray: 1.0,2.0;" x1="545.5" x2="641.5" y1="1040.7852" y2="1040.7852"/><text fill="#000000" font-family="sans-serif" font-size="11" lengthAdjust="spacingAndGlyphs" textLength="247" x="253.5" y="1104.6299">PROTOCOL_ISO7816_3("ISO 7816-3", CONTACTS)</text><line style="stroke: #A80036; stroke-width: 1.0; stroke-dasharray: 1.0,2.0;" x1="248.5" x2="391" y1="1086.293" y2="1086.293"/><text fill="#000000" font-family="sans-serif" font-size="11" lengthAdjust="spacingAndGlyphs" textLength="108" x="391" y="1090.2939">contacts ISO standard</text><line style="stroke: #A80036; stroke-width: 1.0; stroke-dasharray: 1.0,2.0;" x1="499" x2="641.5" y1="1086.293" y2="1086.293"/><text fill="#000000" font-family="sans-serif" font-size="11" lengthAdjust="spacingAndGlyphs" textLength="267" x="253.5" y="1136.3018">PROTOCOL_HSP("Old Calypso SAM HSP", CONTACTS)</text><line style="stroke: #A80036; stroke-width: 1.0; stroke-dasharray: 1.0,2.0;" x1="248.5" x2="396" y1="1117.9648" y2="1117.9648"/><text fill="#000000" font-family="sans-serif" font-size="11" lengthAdjust="spacingAndGlyphs" textLength="98" x="396" y="1121.9658">contacts proprietary</text><line style="stroke: #A80036; stroke-width: 1.0; stroke-dasharray: 1.0,2.0;" x1="494" x2="641.5" y1="1117.9648" y2="1117.9648"/><!--MD5=[029eeeb5f037d1cad7d1ad059afd3aa0]
class SeProtocol--><rect fill="#FEFECE" filter="url(#f1we9z3pikwtbt)" height="75.6719" id="SeProtocol" style="stroke: #A80036; stroke-width: 1.5;" width="232" x="155" y="652"/><ellipse cx="231.25" cy="668" fill="#B4A7E5" rx="11" ry="11" style="stroke: #A80036; stroke-width: 1.0;"/><path d="M232.25,665 L232.25,671 L234.25,671 L234.7344,671 L235.25,671.625 L235.25,672 L235.25,672.375 L234.7344,673 L234.25,673 L228.25,673 L227.7656,673 L227.25,672.375 L227.25,672 L227.25,671.625 L227.7656,671 L228.25,671 L230.25,671 L230.25,665 L228.25,665 L227.7656,665 L227.25,664.375 L227.25,664 L227.25,663.625 L227.7656,663 L228.25,663 L234.25,663 L234.7344,663 L235.25,663.625 L235.25,664 L235.25,664.375 L234.7344,665 L234.25,665 L232.25,665 Z "/><ellipse cx="256.75" cy="667.5" fill="#84BE84" rx="3" ry="3" style="stroke: #038048; stroke-width: 1.0;"/><text fill="#000000" font-family="sans-serif" font-size="12" font-style="italic" lengthAdjust="spacingAndGlyphs" textLength="60" x="262.75" y="672.9102">SeProtocol</text><line style="stroke: #A80036; stroke-width: 1.5;" x1="156" x2="386" y1="684" y2="684"/><line style="stroke: #A80036; stroke-width: 1.5;" x1="156" x2="386" y1="692" y2="692"/><ellipse cx="166" cy="703" fill="#84BE84" rx="3" ry="3" style="stroke: #038048; stroke-width: 1.0;"/><text fill="#000000" font-family="sans-serif" font-size="11" lengthAdjust="spacingAndGlyphs" textLength="81" x="175" y="707.4189">String getName()</text><ellipse cx="166" cy="716.8359" fill="#84BE84" rx="3" ry="3" style="stroke: #038048; stroke-width: 1.0;"/><text fill="#000000" font-family="sans-serif" font-size="11" lengthAdjust="spacingAndGlyphs" textLength="206" x="175" y="721.2549">TransmissionMode getTransmissionMode()</text><!--MD5=[389c8dd8ff10073965d91444c463f0b3]
class TransmissionMode--><rect fill="#FEFECE" filter="url(#f1we9z3pikwtbt)" height="75.6719" id="TransmissionMode" style="stroke: #A80036; stroke-width: 1.5;" width="150" x="62" y="936.5"/><ellipse cx="77" cy="952.5" fill="#EB937F" rx="11" ry="11" style="stroke: #A80036; stroke-width: 1.0;"/><path d="M75.5,953.5 L75.5,955.5 L79.5,955.5 L79.5,954.5 L79.5,954.0156 L80.125,953.5 L80.5,953.5 L80.875,953.5 L81.5,954.0156 L81.5,954.5 L81.5,957.5 L73.5,957.5 L73.0156,957.5 L72.5,956.875 L72.5,956.5 L72.5,956.125 L73.0156,955.5 L73.5,955.5 L73.5,955.5 L73.5,949.5 L73.5,949.5 L73.0156,949.5 L72.5,948.875 L72.5,948.5 L72.5,948.125 L73.0156,947.5 L73.5,947.5 L81.5,947.5 L81.5,950.5 L81.5,950.9844 L80.875,951.5 L80.5,951.5 L80.125,951.5 L79.5,950.9844 L79.5,950.5 L79.5,949.5 L75.5,949.5 L75.5,951.5 L76.5,951.5 L76.5,951.0156 L76.5,951.0156 L77.125,950.5 L77.5,950.5 L77.875,950.5 L78.5,951.0156 L78.5,951.5 L78.5,953.5 L78.5,953.9844 L77.875,954.5 L77.875,954.5 L77.5,954.5 L77.125,954.5 L76.5,953.9844 L76.5,953.9844 L76.5,953.5 L75.5,953.5 Z "/><ellipse cx="96" cy="952" fill="#84BE84" rx="3" ry="3" style="stroke: #038048; stroke-width: 1.0;"/><text fill="#000000" font-family="sans-serif" font-size="12" lengthAdjust="spacingAndGlyphs" textLength="107" x="102" y="957.4102">TransmissionMode</text><line style="stroke: #A80036; stroke-width: 1.5;" x1="63" x2="211" y1="968.5" y2="968.5"/><text fill="#000000" font-family="sans-serif" font-size="11" lengthAdjust="spacingAndGlyphs" textLength="56" x="68" y="983.9189">CONTACTS</text><text fill="#000000" font-family="sans-serif" font-size="11" lengthAdjust="spacingAndGlyphs" textLength="75" x="68" y="997.7549">CONTACTLESS</text><line style="stroke: #A80036; stroke-width: 1.5;" x1="63" x2="211" y1="1004.1719" y2="1004.1719"/><!--MD5=[71d3e5b5a3908be09db32650c419a9a0]
link FileOccurrence to AidSelector--><path d="M193.152,163.1 C199.332,177.72 206.894,194.13 214.884,210.36 " fill="none" id="FileOccurrence-&gt;AidSelector" style="stroke: #A80036; stroke-width: 1.0;"/><ellipse cx="218.0903" cy="216.7561" fill="#FFFFFF" rx="8" ry="8" style="stroke: #A80036; stroke-width: 1.0;"/><line style="stroke: #A80036; stroke-width: 1.0;" x1="214.5056" x2="221.675" y1="209.6042" y2="223.908"/><line style="stroke: #A80036; stroke-width: 1.0;" x1="225.2422" x2="210.9384" y1="213.1714" y2="220.3408"/><!--MD5=[71d3e5b5a3908be09db32650c419a9a0]
link FileOccurrence to AidSelector--><path d="M216.774,163.1 C225.121,178.16 233.814,195.12 241.809,211.82 " fill="none" id="FileOccurrence-&gt;AidSelector-1" style="stroke: #A80036; stroke-width: 1.0;"/><polygon fill="#A80036" points="247.492,223.908,248.5592,216.7763,242.3865,213.0483,241.3193,220.18,247.492,223.908" style="stroke: #A80036; stroke-width: 1.0;"/><text fill="#000000" font-family="sans-serif" font-size="13" lengthAdjust="spacingAndGlyphs" textLength="7" x="214.4532" y="184.9769">1</text><text fill="#000000" font-family="sans-serif" font-size="13" lengthAdjust="spacingAndGlyphs" textLength="7" x="237.8334" y="213.0915">1</text><!--MD5=[cbb2875f3a0c8787423f0c72d98b8ce6]
link FileControlInformation to AidSelector--><path d="M325.171,163.1 C317.28,177.58 309.05,193.8 301.396,209.873 " fill="none" id="FileControlInformation-&gt;AidSelector" style="stroke: #A80036; stroke-width: 1.0;"/><ellipse cx="298.226" cy="216.6594" fill="#FFFFFF" rx="8" ry="8" style="stroke: #A80036; stroke-width: 1.0;"/><line style="stroke: #A80036; stroke-width: 1.0;" x1="301.6111" x2="294.841" y1="209.4109" y2="223.908"/><line style="stroke: #A80036; stroke-width: 1.0;" x1="305.4746" x2="290.9775" y1="220.0445" y2="213.2744"/><!--MD5=[cbb2875f3a0c8787423f0c72d98b8ce6]
link FileControlInformation to AidSelector--><path d="M348.793,163.1 C342.565,178.16 334.849,195.12 326.676,211.82 " fill="none" id="FileControlInformation-&gt;AidSelector-1" style="stroke: #A80036; stroke-width: 1.0;"/><polygon fill="#A80036" points="320.658,223.908,326.9125,220.3189,326.005,213.1651,319.7506,216.7542,320.658,223.908" style="stroke: #A80036; stroke-width: 1.0;"/><text fill="#000000" font-family="sans-serif" font-size="13" lengthAdjust="spacingAndGlyphs" textLength="7" x="339.5842" y="184.9769">1</text><text fill="#000000" font-family="sans-serif" font-size="13" lengthAdjust="spacingAndGlyphs" textLength="7" x="318.2017" y="213.0915">1</text><!--MD5=[7520d0856e2ce14d109088419cdfb33d]
link AidSelector to SeSelector--><path d="M258.601,377.203 C258.174,391.987 258.137,407.535 258.488,422.455 " fill="none" id="AidSelector-&gt;SeSelector" style="stroke: #A80036; stroke-width: 1.0;"/><ellipse cx="258.7281" cy="429.7214" fill="#FFFFFF" rx="8" ry="8" style="stroke: #A80036; stroke-width: 1.0;"/><line style="stroke: #A80036; stroke-width: 1.0;" x1="258.4622" x2="258.994" y1="421.7258" y2="437.717"/><line style="stroke: #A80036; stroke-width: 1.0;" x1="266.7237" x2="250.7325" y1="429.4555" y2="429.9873"/><!--MD5=[7520d0856e2ce14d109088419cdfb33d]
link AidSelector to SeSelector--><path d="M284.128,377.203 C284.599,392.61 284.623,408.846 284.199,424.336 " fill="none" id="AidSelector-&gt;SeSelector-1" style="stroke: #A80036; stroke-width: 1.0;"/><polygon fill="#FFFFFF" points="283.712,437.717,287.9282,431.8669,284.1498,425.725,279.9336,431.5751,283.712,437.717" style="stroke: #A80036; stroke-width: 1.0;"/><text fill="#000000" font-family="sans-serif" font-size="13" lengthAdjust="spacingAndGlyphs" textLength="22" x="262.3242" y="398.5211">0..1</text><text fill="#000000" font-family="sans-serif" font-size="13" lengthAdjust="spacingAndGlyphs" textLength="7" x="277.7196" y="427.1605">1</text><!--MD5=[7e580d85c7f03a9e2d842cf78913e3e3]
reverse link SeSelector to AtrSelector--><path d="M423.759,552.314 C430.452,551.944 437.145,551.245 443.837,550.216 " fill="none" id="SeSelector&lt;-AtrSelector" style="stroke: #A80036; stroke-width: 1.0;"/><ellipse cx="416.6297" cy="552.4425" fill="#FFFFFF" rx="8" ry="8" style="stroke: #A80036; stroke-width: 1.0;"/><line style="stroke: #A80036; stroke-width: 1.0;" x1="424.6284" x2="408.631" y1="552.2969" y2="552.588"/><line style="stroke: #A80036; stroke-width: 1.0;" x1="416.7752" x2="416.4841" y1="560.4411" y2="544.4438"/><!--MD5=[7e580d85c7f03a9e2d842cf78913e3e3]
reverse link SeSelector to AtrSelector--><path d="M421.833,454.589 C429.168,454.925 436.503,455.657 443.837,456.784 " fill="none" id="SeSelector&lt;-AtrSelector-1" style="stroke: #A80036; stroke-width: 1.0;"/><polygon fill="#FFFFFF" points="408.631,454.412,414.5768,458.4921,420.6299,454.5729,414.6841,450.4928,408.631,454.412" style="stroke: #A80036; stroke-width: 1.0;"/><text fill="#000000" font-family="sans-serif" font-size="13" lengthAdjust="spacingAndGlyphs" textLength="7" x="416.3491" y="448.7943">1</text><text fill="#000000" font-family="sans-serif" font-size="13" lengthAdjust="spacingAndGlyphs" textLength="22" x="416.7232" y="449.8028">0..1</text><!--MD5=[bd28fb3706d2642fabfc924682f1d3a6]
reverse link SeProtocol to TransmissionMode--><path d="M247.626,740.277 C221.142,796.112 178.567,885.868 154.695,936.195 " fill="none" id="SeProtocol&lt;-TransmissionMode" style="stroke: #A80036; stroke-width: 1.0;"/><polygon fill="#A80036" points="253.344,728.222,247.1586,731.9288,248.2012,739.0641,254.3866,735.3573,253.344,728.222" style="stroke: #A80036; stroke-width: 1.0;"/><text fill="#000000" font-family="sans-serif" font-size="13" lengthAdjust="spacingAndGlyphs" textLength="7" x="242.9723" y="749.1379">1</text><text fill="#000000" font-family="sans-serif" font-size="13" lengthAdjust="spacingAndGlyphs" textLength="7" x="150.2235" y="925.5026">1</text><!--MD5=[009dd821b618541acedfd889e51c7fb4]
reverse link SeProtocol to SeCommonProtocols--><path d="M304.451,745.31 C315.447,763.162 328.31,784.047 341.708,805.799 " fill="none" id="SeProtocol&lt;-SeCommonProtocols" style="stroke: #A80036; stroke-width: 1.0; stroke-dasharray: 7.0,7.0;"/><polygon fill="none" points="298.455,748.923,293.926,728.222,310.375,741.58,298.455,748.923" style="stroke: #A80036; stroke-width: 1.0;"/><text fill="#000000" font-family="sans-serif" font-size="13" lengthAdjust="spacingAndGlyphs" textLength="67" x="323" y="772.4951">implements</text><!--MD5=[85c6f18c96ceb47132f2d645c1ed1753]
link TransmissionMode to SeCommonProtocols--><!--MD5=[848abd0da787c3898c4771a3838e6941]
reverse link SeSelector to SeProtocol--><path d="M271,582.261 C271,606.409 271,631.916 271,651.938 " fill="none" id="SeSelector&lt;-SeProtocol" style="stroke: #A80036; stroke-width: 1.0;"/><polygon fill="#FFFFFF" points="271,569.029,267,575.029,271,581.029,275,575.029,271,569.029" style="stroke: #A80036; stroke-width: 1.0;"/><text fill="#000000" font-family="sans-serif" font-size="13" lengthAdjust="spacingAndGlyphs" textLength="7" x="263.6172" y="590.5847">1</text><text fill="#000000" font-family="sans-serif" font-size="13" lengthAdjust="spacingAndGlyphs" textLength="22" x="246.9719" y="641.0031">0..1</text><!--MD5=[4d73e579065c2eb5a1e18ab88a0e456f]
@startuml
package org.eclipse.keyple.core.seproxy #FFFFFF {

+enum FileOccurrence {
  FIRST
  LAST
  NEXT
  PREVIOUS
}

+enum FileControlInformation {
  FCI
  FCP
  FMD
  NO_RESPONSE
}

+class "<b>final</b> AtrSelector" as AtrSelector <<static>> {
  +AtrFilter(String atrRegex)
  +void setAtrRegex(String atrRegex) ????
  +String getAtrRegex()
  +boolean atrMatches(byte[] atr)
}
+class "<b>final</b> AidSelector" as AidSelector <<static>> {
  +{static} final int AID_MIN_LENGTH = 5;
  +{static} final int AID_MAX_LENGTH = 16;

  +AidSelector(byte[] aidToSelect, Set<Integer> successfulSelectionStatusCodes,
    FileOccurrence fileOccurrence = FIRST, FileControlInformation fileControlInformation = FCI)
  +byte[] getAidToSelect()
  +boolean isSelectNext()
  +Set<Integer> getSuccessfulSelectionStatusCodes()
}
  AidSelector +-up- FileOccurrence
  AidSelector +-up- FileControlInformation
  AidSelector "1" *-up- "1" FileOccurrence
  AidSelector "1" *-up- "1" FileControlInformation

+class SeSelector {
  +SeSelector(SeProtocol seProtocol, AtrFilter atrFilter,
    AidSelector aidSelector, String extraInfo)
  +SeProtocol getSeProtocol()
  +AtrFilter getAtrFilter()
  +AidSelector getAidSelector()
  +final String getExtraInfo()
}
  SeSelector +-up- AidSelector
  SeSelector "1" o-up- "0..1" AidSelector
  SeSelector +-right- AtrSelector
  SeSelector "1" o-right- "0..1" AtrSelector

  package protocol #FFFFFF {
enum SeCommonProtocols {
  .. contactless ISO standard / NFC compliant ..
  PROTOCOL_ISO14443_4("ISO 14443-4", CONTACTLESS)
  PROTOCOL_ISO15693("ISO 15693 Type V", CONTACTLESS)
  .. contactless proprietary NFC compliant ..
  PROTOCOL_ISO14443_3A("ISO 14443-3 Type A", CONTACTLESS)
  PROTOCOL_ISO14443_3B("ISO 14443-3 Type B", CONTACTLESS)
  PROTOCOL_JIS_6319_4("JIS 6319-4 Felica", CONTACTLESS)
  PROTOCOL_NDEF("NFC NDEF TAG", CONTACTLESS)
  PROTOCOL_NDEF_FORMATABLE("NFC NDEF FORMATABLE", CONTACTLESS)
  PROTOCOL_NFC_BARCODE("NFC BARCODE, CONTACTLESS)
  PROTOCOL_MIFARE_UL("Mifare Ultra Light", CONTACTLESS)
  PROTOCOL_MIFARE_CLASSIC("Mifare Classic", CONTACTLESS)
  PROTOCOL_MIFARE_DESFIRE("Mifare DESFire", CONTACTLESS)
  .. contactless proprietary not NFC compliant ..
  PROTOCOL_B_PRIME("Old Calypso card B prime", CONTACTLESS)
  PROTOCOL_MEMORY_ST25("Memory ST25", CONTACTLESS)
  .. contacts ISO standard ..
  PROTOCOL_ISO7816_3("ISO 7816-3", CONTACTS)
  .. contacts proprietary  ..
  PROTOCOL_HSP("Old Calypso SAM HSP", CONTACTS)
}

+interface SeProtocol {
  +String getName()
  +TransmissionMode getTransmissionMode()
}
+enum TransmissionMode {
  CONTACTS
  CONTACTLESS
}

    SeProtocol "1" *-down- "1" TransmissionMode
    SeCommonProtocols .up.|> SeProtocol : implements
    TransmissionMode -right[hidden]- SeCommonProtocols
  }

  SeSelector "1" o-down- "0..1" SeProtocol
}
@enduml

PlantUML version 1.2020.07(Sun Apr 19 15:42:40 MUT 2020)
(GPL source distribution)
Java Runtime: OpenJDK Runtime Environment
JVM: OpenJDK 64-Bit Server VM
Java Version: 11.0.6+8-b765.40
Operating System: Windows 10
Default Encoding: Cp1252
Language: fr
Country: FR
--></g></svg>