<?xml version="1.0" encoding="UTF-8" standalone="no"?><svg xmlns="http://www.w3.org/2000/svg" xmlns:xlink="http://www.w3.org/1999/xlink" contentScriptType="application/ecmascript" contentStyleType="text/css" height="636px" preserveAspectRatio="none" style="width:988px;height:636px;" version="1.1" viewBox="0 0 988 636" width="988px" zoomAndPan="magnify"><defs><filter height="300%" id="f13gi6n53lm7z2" width="300%" x="-1" y="-1"><feGaussianBlur result="blurOut" stdDeviation="2.0"/><feColorMatrix in="blurOut" result="blurOut2" type="matrix" values="0 0 0 0 0 0 0 0 0 0 0 0 0 0 0 0 0 0 .4 0"/><feOffset dx="4.0" dy="4.0" in="blurOut2" result="blurOut3"/><feBlend in="SourceGraphic" in2="blurOut3" mode="normal"/></filter></defs><g><!--MD5=[2bcc54f38766b998c5e88efdbc7d1696]
cluster org.eclipse.keyple.core.seproxy--><polygon fill="#FFFFFF" filter="url(#f13gi6n53lm7z2)" points="22,24,253,24,260,47.6094,966,47.6094,966,410,22,410,22,24" style="stroke: #000000; stroke-width: 1.5;"/><line style="stroke: #000000; stroke-width: 1.5;" x1="22" x2="260" y1="47.6094" y2="47.6094"/><text fill="#000000" font-family="sans-serif" font-size="14" font-weight="bold" lengthAdjust="spacingAndGlyphs" textLength="225" x="26" y="40.5332">org.eclipse.keyple.core.seproxy</text><!--MD5=[fcbadcad9a28152c89ed5c4d71dbb045]
cluster plugin.specific--><polygon fill="#FFCCFF" filter="url(#f13gi6n53lm7z2)" points="57,460,166,460,173,483.6094,729,483.6094,729,624,57,624,57,460" style="stroke: #000000; stroke-width: 1.5;"/><line style="stroke: #000000; stroke-width: 1.5;" x1="57" x2="173" y1="483.6094" y2="483.6094"/><text fill="#000000" font-family="sans-serif" font-size="14" font-weight="bold" lengthAdjust="spacingAndGlyphs" textLength="103" x="61" y="476.5332">plugin.specific</text><!--MD5=[f0c44d4c6fb415056b2c0aabd573961b]
class SeProxyService--><rect fill="#FEFECE" filter="url(#f13gi6n53lm7z2)" height="153.0391" id="SeProxyService" style="stroke: #A80036; stroke-width: 1.5;" width="274" x="160" y="60"/><ellipse cx="231.75" cy="80.0938" fill="#ADD1B2" rx="11" ry="11" style="stroke: #A80036; stroke-width: 1.0;"/><path d="M233.75,76.5938 Q233.9531,76.0938 234.1875,75.8438 Q234.4219,75.5938 234.6875,75.5938 Q235.1563,75.5938 235.4531,75.875 Q235.75,76.1563 235.75,76.8125 L235.75,78.375 Q235.75,79.0313 235.4688,79.3125 Q235.1875,79.5938 234.75,79.5938 Q234.3594,79.5938 234.1094,79.4219 Q233.8594,79.25 233.75,78.7969 Q233.7031,78.4844 233.5313,78.3125 Q233.2188,77.9844 232.6563,77.7969 Q232.0938,77.5938 231.5313,77.5938 Q230.8281,77.5938 230.2344,77.875 Q229.6563,78.1563 229.2031,78.7813 Q228.75,79.4063 228.75,80.2656 L228.75,81.1875 Q228.75,82.2188 229.5938,82.9063 Q230.4375,83.5938 231.9375,83.5938 Q232.8281,83.5938 233.4531,83.3906 Q233.8125,83.2813 234.2188,82.9219 Q234.4844,82.7188 234.625,82.6563 Q234.7656,82.5938 234.9375,82.5938 Q235.2656,82.5938 235.5,82.8594 Q235.75,83.1094 235.75,83.4688 Q235.75,83.8125 235.4063,84.2188 Q234.9063,84.8125 234.1094,85.1406 Q233.0625,85.5938 231.7813,85.5938 Q230.2813,85.5938 229.0781,85 Q228.1094,84.5313 227.4219,83.5156 Q226.75,82.5 226.75,81.2969 L226.75,80.2031 Q226.75,78.9531 227.3438,77.8594 Q227.9531,76.7656 229,76.1875 Q230.0625,75.5938 231.25,75.5938 Q231.9688,75.5938 232.5938,75.8438 Q233.2188,76.0938 233.75,76.5938 Z "/><text fill="#000000" font-family="sans-serif" font-size="12" font-style="italic" lengthAdjust="spacingAndGlyphs" textLength="66" x="280.25" y="77.457">«Singleton»</text><ellipse cx="257.25" cy="87.1406" fill="#84BE84" rx="3" ry="3" style="stroke: #038048; stroke-width: 1.0;"/><text fill="#000000" font-family="sans-serif" font-size="12" font-weight="bold" lengthAdjust="spacingAndGlyphs" textLength="24" x="263.25" y="92.5508">final</text><text fill="#000000" font-family="sans-serif" font-size="12" lengthAdjust="spacingAndGlyphs" textLength="84" x="290.25" y="92.5508">SeProxyService</text><line style="stroke: #A80036; stroke-width: 1.5;" x1="161" x2="433" y1="100.1875" y2="100.1875"/><line style="stroke: #A80036; stroke-width: 1.5;" x1="161" x2="433" y1="108.1875" y2="108.1875"/><ellipse cx="171" cy="119.1875" fill="#84BE84" rx="3" ry="3" style="stroke: #038048; stroke-width: 1.0;"/><text fill="#000000" font-family="sans-serif" font-size="11" lengthAdjust="spacingAndGlyphs" text-decoration="underline" textLength="145" x="180" y="123.6064">SeProxyService getInstance()</text><ellipse cx="171" cy="133.0234" fill="#84BE84" rx="3" ry="3" style="stroke: #038048; stroke-width: 1.0;"/><text fill="#000000" font-family="sans-serif" font-size="11" lengthAdjust="spacingAndGlyphs" textLength="92" x="180" y="137.4424">String getVersion()</text><ellipse cx="171" cy="146.8594" fill="#84BE84" rx="3" ry="3" style="stroke: #038048; stroke-width: 1.0;"/><text fill="#000000" font-family="sans-serif" font-size="11" lengthAdjust="spacingAndGlyphs" textLength="248" x="180" y="151.2783">registerPlugin(AbstractPluginFactory pluginFactory)</text><ellipse cx="171" cy="160.6953" fill="#84BE84" rx="3" ry="3" style="stroke: #038048; stroke-width: 1.0;"/><text fill="#000000" font-family="sans-serif" font-size="11" lengthAdjust="spacingAndGlyphs" textLength="195" x="180" y="165.1143">boolean isRegistered(String pluginName)</text><ellipse cx="171" cy="174.5313" fill="#84BE84" rx="3" ry="3" style="stroke: #038048; stroke-width: 1.0;"/><text fill="#000000" font-family="sans-serif" font-size="11" lengthAdjust="spacingAndGlyphs" textLength="212" x="180" y="178.9502">boolean unregisterPlugin(String pluginName)</text><ellipse cx="171" cy="188.3672" fill="#84BE84" rx="3" ry="3" style="stroke: #038048; stroke-width: 1.0;"/><text fill="#000000" font-family="sans-serif" font-size="11" lengthAdjust="spacingAndGlyphs" textLength="174" x="180" y="192.7861">ReaderPlugin getPlugin(String name)</text><ellipse cx="171" cy="202.2031" fill="#84BE84" rx="3" ry="3" style="stroke: #038048; stroke-width: 1.0;"/><text fill="#000000" font-family="sans-serif" font-size="11" lengthAdjust="spacingAndGlyphs" textLength="183" x="180" y="206.6221">SortedSet&lt;ReaderPlugin&gt; getPlugins()</text><!--MD5=[589e28272a74d38b4e0a352c82e7b326]
class AbstractPluginFactory--><rect fill="#FEFECE" filter="url(#f13gi6n53lm7z2)" height="75.6719" id="AbstractPluginFactory" style="stroke: #A80036; stroke-width: 1.5;" width="192" x="38" y="304.5"/><ellipse cx="66.05" cy="320.5" fill="#A9DCDF" rx="11" ry="11" style="stroke: #A80036; stroke-width: 1.0;"/><path d="M67.8,322 L64.5031,322 L64.0656,323 L64.0656,323 L64.5344,323 L65.05,323.625 L65.05,324 L65.05,324.375 L64.5344,325 L64.0656,325 L62.175,325 L61.5656,325 L61.05,324.375 L61.05,324 L61.05,323.625 L61.5656,323 L62.175,323 L64.4875,317 L63.6125,317 L62.5656,317 L62.05,316.375 L62.05,316 L62.05,315.625 L62.5656,315 L63.6125,315 L67.2844,315 L69.9719,323 L70.5344,323 L70.5344,323 L71.05,323.625 L71.05,324 L71.05,324.375 L70.5344,325 L69.9719,325 L68.0813,325 L67.5656,325 L67.05,324.375 L67.05,324 L67.05,323.625 L67.5656,323 L68.0813,323 L68.0813,323 L67.8,322 Z M67.2531,320 L66.05,316.4219 L65.0188,320 L67.2531,320 Z "/><ellipse cx="87.95" cy="320" fill="#84BE84" rx="3" ry="3" style="stroke: #038048; stroke-width: 1.0;"/><text fill="#000000" font-family="sans-serif" font-size="12" font-style="italic" lengthAdjust="spacingAndGlyphs" textLength="120" x="93.95" y="325.4102">AbstractPluginFactory</text><line style="stroke: #A80036; stroke-width: 1.5;" x1="39" x2="229" y1="336.5" y2="336.5"/><line style="stroke: #A80036; stroke-width: 1.5;" x1="39" x2="229" y1="344.5" y2="344.5"/><polygon fill="#FFFF44" points="49,350.5,53,354.5,49,358.5,45,354.5" style="stroke: #B38D22; stroke-width: 1.0;"/><text fill="#000000" font-family="sans-serif" font-size="11" font-style="italic" lengthAdjust="spacingAndGlyphs" textLength="115" x="58" y="359.9189">String getPluginName()</text><polygon fill="#FFFF44" points="49,364.3359,53,368.3359,49,372.3359,45,368.3359" style="stroke: #B38D22; stroke-width: 1.0;"/><text fill="#000000" font-family="sans-serif" font-size="11" font-style="italic" lengthAdjust="spacingAndGlyphs" textLength="166" x="58" y="373.7549">ReaderPlugin getPluginInstance()</text><!--MD5=[a0e88443257adb8def549c32ec694d43]
class ReaderPlugin--><rect fill="#FEFECE" filter="url(#f13gi6n53lm7z2)" height="89.5078" id="ReaderPlugin" style="stroke: #A80036; stroke-width: 1.5;" width="220" x="310" y="297.5"/><ellipse cx="372.25" cy="313.5" fill="#B4A7E5" rx="11" ry="11" style="stroke: #A80036; stroke-width: 1.0;"/><path d="M373.25,310.5 L373.25,316.5 L375.25,316.5 L375.7344,316.5 L376.25,317.125 L376.25,317.5 L376.25,317.875 L375.7344,318.5 L375.25,318.5 L369.25,318.5 L368.7656,318.5 L368.25,317.875 L368.25,317.5 L368.25,317.125 L368.7656,316.5 L369.25,316.5 L371.25,316.5 L371.25,310.5 L369.25,310.5 L368.7656,310.5 L368.25,309.875 L368.25,309.5 L368.25,309.125 L368.7656,308.5 L369.25,308.5 L375.25,308.5 L375.7344,308.5 L376.25,309.125 L376.25,309.5 L376.25,309.875 L375.7344,310.5 L375.25,310.5 L373.25,310.5 Z "/><ellipse cx="397.75" cy="313" fill="#84BE84" rx="3" ry="3" style="stroke: #038048; stroke-width: 1.0;"/><text fill="#000000" font-family="sans-serif" font-size="12" font-style="italic" lengthAdjust="spacingAndGlyphs" textLength="76" x="403.75" y="318.4102">ReaderPlugin</text><line style="stroke: #A80036; stroke-width: 1.5;" x1="311" x2="529" y1="329.5" y2="329.5"/><line style="stroke: #A80036; stroke-width: 1.5;" x1="311" x2="529" y1="337.5" y2="337.5"/><ellipse cx="321" cy="348.5" fill="#84BE84" rx="3" ry="3" style="stroke: #038048; stroke-width: 1.0;"/><text fill="#000000" font-family="sans-serif" font-size="11" lengthAdjust="spacingAndGlyphs" textLength="182" x="330" y="352.9189">SortedSet&lt;String&gt; getReaderNames()</text><ellipse cx="321" cy="362.3359" fill="#84BE84" rx="3" ry="3" style="stroke: #038048; stroke-width: 1.0;"/><text fill="#000000" font-family="sans-serif" font-size="11" lengthAdjust="spacingAndGlyphs" textLength="166" x="330" y="366.7549">SeReader getReader(String name)</text><ellipse cx="321" cy="376.1719" fill="#84BE84" rx="3" ry="3" style="stroke: #038048; stroke-width: 1.0;"/><text fill="#000000" font-family="sans-serif" font-size="11" lengthAdjust="spacingAndGlyphs" textLength="194" x="330" y="380.5908">Set&lt;? extends SeReader&gt; getReaders()</text><!--MD5=[dd49942b1f02350b5568646d3da64c49]
class SeReader--><rect fill="#FEFECE" filter="url(#f13gi6n53lm7z2)" height="103.3438" id="SeReader" style="stroke: #A80036; stroke-width: 1.5;" width="340" x="610" y="291"/><ellipse cx="742.25" cy="307" fill="#B4A7E5" rx="11" ry="11" style="stroke: #A80036; stroke-width: 1.0;"/><path d="M743.25,304 L743.25,310 L745.25,310 L745.7344,310 L746.25,310.625 L746.25,311 L746.25,311.375 L745.7344,312 L745.25,312 L739.25,312 L738.7656,312 L738.25,311.375 L738.25,311 L738.25,310.625 L738.7656,310 L739.25,310 L741.25,310 L741.25,304 L739.25,304 L738.7656,304 L738.25,303.375 L738.25,303 L738.25,302.625 L738.7656,302 L739.25,302 L745.25,302 L745.7344,302 L746.25,302.625 L746.25,303 L746.25,303.375 L745.7344,304 L745.25,304 L743.25,304 Z "/><ellipse cx="767.75" cy="306.5" fill="#84BE84" rx="3" ry="3" style="stroke: #038048; stroke-width: 1.0;"/><text fill="#000000" font-family="sans-serif" font-size="12" font-style="italic" lengthAdjust="spacingAndGlyphs" textLength="56" x="773.75" y="311.9102">SeReader</text><line style="stroke: #A80036; stroke-width: 1.5;" x1="611" x2="949" y1="323" y2="323"/><line style="stroke: #A80036; stroke-width: 1.5;" x1="611" x2="949" y1="331" y2="331"/><ellipse cx="621" cy="342" fill="#84BE84" rx="3" ry="3" style="stroke: #038048; stroke-width: 1.0;"/><text fill="#000000" font-family="sans-serif" font-size="11" lengthAdjust="spacingAndGlyphs" textLength="107" x="630" y="346.4189">boolean isSePresent()</text><ellipse cx="621" cy="355.8359" fill="#84BE84" rx="3" ry="3" style="stroke: #038048; stroke-width: 1.0;"/><text fill="#000000" font-family="sans-serif" font-size="11" lengthAdjust="spacingAndGlyphs" textLength="314" x="630" y="360.2549">addSeProtocolSetting(SeProtocol seProtocol, String protocolRule)</text><ellipse cx="621" cy="369.6719" fill="#84BE84" rx="3" ry="3" style="stroke: #038048; stroke-width: 1.0;"/><text fill="#000000" font-family="sans-serif" font-size="11" lengthAdjust="spacingAndGlyphs" textLength="301" x="630" y="374.0908">setSeProtocolSetting(Map&lt;SeProtocol, String&gt; protocolSetting)</text><ellipse cx="621" cy="383.5078" fill="#84BE84" rx="3" ry="3" style="stroke: #038048; stroke-width: 1.0;"/><text fill="#000000" font-family="sans-serif" font-size="11" lengthAdjust="spacingAndGlyphs" textLength="206" x="630" y="387.9268">TransmissionMode getTransmissionMode()</text><!--MD5=[273228bd21fa37477fe0813cbe95870a]
class SpecificPluginFactory--><rect fill="#FEFECE" filter="url(#f13gi6n53lm7z2)" height="75.6719" id="SpecificPluginFactory" style="stroke: #A80036; stroke-width: 1.5;" width="187" x="73.5" y="514"/><ellipse cx="88.5" cy="530" fill="#ADD1B2" rx="11" ry="11" style="stroke: #A80036; stroke-width: 1.0;"/><path d="M90.5,526.5 Q90.7031,526 90.9375,525.75 Q91.1719,525.5 91.4375,525.5 Q91.9063,525.5 92.2031,525.7813 Q92.5,526.0625 92.5,526.7188 L92.5,528.2813 Q92.5,528.9375 92.2188,529.2188 Q91.9375,529.5 91.5,529.5 Q91.1094,529.5 90.8594,529.3281 Q90.6094,529.1563 90.5,528.7031 Q90.4531,528.3906 90.2813,528.2188 Q89.9688,527.8906 89.4063,527.7031 Q88.8438,527.5 88.2813,527.5 Q87.5781,527.5 86.9844,527.7813 Q86.4063,528.0625 85.9531,528.6875 Q85.5,529.3125 85.5,530.1719 L85.5,531.0938 Q85.5,532.125 86.3438,532.8125 Q87.1875,533.5 88.6875,533.5 Q89.5781,533.5 90.2031,533.2969 Q90.5625,533.1875 90.9688,532.8281 Q91.2344,532.625 91.375,532.5625 Q91.5156,532.5 91.6875,532.5 Q92.0156,532.5 92.25,532.7656 Q92.5,533.0156 92.5,533.375 Q92.5,533.7188 92.1563,534.125 Q91.6563,534.7188 90.8594,535.0469 Q89.8125,535.5 88.5313,535.5 Q87.0313,535.5 85.8281,534.9063 Q84.8594,534.4375 84.1719,533.4219 Q83.5,532.4063 83.5,531.2031 L83.5,530.1094 Q83.5,528.8594 84.0938,527.7656 Q84.7031,526.6719 85.75,526.0938 Q86.8125,525.5 88,525.5 Q88.7188,525.5 89.3438,525.75 Q89.9688,526 90.5,526.5 Z "/><ellipse cx="107.5" cy="529.5" fill="#84BE84" rx="3" ry="3" style="stroke: #038048; stroke-width: 1.0;"/><text fill="#000000" font-family="sans-serif" font-size="12" font-weight="bold" lengthAdjust="spacingAndGlyphs" textLength="24" x="113.5" y="534.9102">final</text><text fill="#000000" font-family="sans-serif" font-size="12" lengthAdjust="spacingAndGlyphs" textLength="117" x="140.5" y="534.9102">SpecificPluginFactory</text><line style="stroke: #A80036; stroke-width: 1.5;" x1="74.5" x2="259.5" y1="546" y2="546"/><line style="stroke: #A80036; stroke-width: 1.5;" x1="74.5" x2="259.5" y1="554" y2="554"/><polygon fill="#FFFF44" points="84.5,560,88.5,564,84.5,568,80.5,564" style="stroke: #B38D22; stroke-width: 1.0;"/><text fill="#000000" font-family="sans-serif" font-size="11" lengthAdjust="spacingAndGlyphs" textLength="109" x="93.5" y="569.4189">String getPluginName()</text><polygon fill="#FFFF44" points="84.5,573.8359,88.5,577.8359,84.5,581.8359,80.5,577.8359" style="stroke: #B38D22; stroke-width: 1.0;"/><text fill="#000000" font-family="sans-serif" font-size="11" lengthAdjust="spacingAndGlyphs" textLength="158" x="93.5" y="583.2549">ReaderPlugin getPluginInstance()</text><!--MD5=[0f8b8cab079f94c46492aeaa0dde1551]
class SpecificPlugin--><rect fill="#FEFECE" filter="url(#f13gi6n53lm7z2)" height="111.5313" id="SpecificPlugin" style="stroke: #A80036; stroke-width: 1.5;" width="160" x="340" y="496"/><ellipse cx="372.55" cy="516.0938" fill="#ADD1B2" rx="11" ry="11" style="stroke: #A80036; stroke-width: 1.0;"/><path d="M374.55,512.5938 Q374.7531,512.0938 374.9875,511.8438 Q375.2219,511.5938 375.4875,511.5938 Q375.9563,511.5938 376.2531,511.875 Q376.55,512.1563 376.55,512.8125 L376.55,514.375 Q376.55,515.0313 376.2688,515.3125 Q375.9875,515.5938 375.55,515.5938 Q375.1594,515.5938 374.9094,515.4219 Q374.6594,515.25 374.55,514.7969 Q374.5031,514.4844 374.3313,514.3125 Q374.0188,513.9844 373.4563,513.7969 Q372.8938,513.5938 372.3313,513.5938 Q371.6281,513.5938 371.0344,513.875 Q370.4563,514.1563 370.0031,514.7813 Q369.55,515.4063 369.55,516.2656 L369.55,517.1875 Q369.55,518.2188 370.3938,518.9063 Q371.2375,519.5938 372.7375,519.5938 Q373.6281,519.5938 374.2531,519.3906 Q374.6125,519.2813 375.0188,518.9219 Q375.2844,518.7188 375.425,518.6563 Q375.5656,518.5938 375.7375,518.5938 Q376.0656,518.5938 376.3,518.8594 Q376.55,519.1094 376.55,519.4688 Q376.55,519.8125 376.2063,520.2188 Q375.7063,520.8125 374.9094,521.1406 Q373.8625,521.5938 372.5813,521.5938 Q371.0813,521.5938 369.8781,521 Q368.9094,520.5313 368.2219,519.5156 Q367.55,518.5 367.55,517.2969 L367.55,516.2031 Q367.55,514.9531 368.1438,513.8594 Q368.7531,512.7656 369.8,512.1875 Q370.8625,511.5938 372.05,511.5938 Q372.7688,511.5938 373.3938,511.8438 Q374.0188,512.0938 374.55,512.5938 Z "/><text fill="#000000" font-family="sans-serif" font-size="12" font-style="italic" lengthAdjust="spacingAndGlyphs" textLength="66" x="401.95" y="513.457">«Singleton»</text><polygon fill="#4177AF" points="395.45,519.1406,391.45,525.1406,399.45,525.1406" style="stroke: #1963A0; stroke-width: 1.0;"/><text fill="#000000" font-family="sans-serif" font-size="12" lengthAdjust="spacingAndGlyphs" textLength="78" x="401.45" y="528.5508">SpecificPlugin</text><line style="stroke: #A80036; stroke-width: 1.5;" x1="341" x2="499" y1="536.1875" y2="536.1875"/><rect fill="none" height="6" style="stroke: #C82930; stroke-width: 1.0;" width="6" x="348" y="544.1875"/><text fill="#000000" font-family="sans-serif" font-size="11" lengthAdjust="spacingAndGlyphs" textLength="57" x="360" y="551.6064">String name</text><line style="stroke: #A80036; stroke-width: 1.5;" x1="341" x2="499" y1="558.0234" y2="558.0234"/><rect fill="#F24D5C" height="6" style="stroke: #C82930; stroke-width: 1.0;" width="6" x="348" y="566.0234"/><text fill="#000000" font-family="sans-serif" font-size="11" lengthAdjust="spacingAndGlyphs" textLength="75" x="360" y="573.4424">SpecificPlugin()</text><ellipse cx="351" cy="582.8594" fill="#84BE84" rx="3" ry="3" style="stroke: #038048; stroke-width: 1.0;"/><text fill="#000000" font-family="sans-serif" font-size="11" lengthAdjust="spacingAndGlyphs" text-decoration="underline" textLength="134" x="360" y="587.2783">SpecificPlugin getInstance()</text><ellipse cx="351" cy="596.6953" fill="#84BE84" rx="3" ry="3" style="stroke: #038048; stroke-width: 1.0;"/><text fill="#000000" font-family="sans-serif" font-size="11" font-weight="bold" lengthAdjust="spacingAndGlyphs" textLength="23" x="360" y="601.1143">final</text><text fill="#000000" font-family="sans-serif" font-size="11" lengthAdjust="spacingAndGlyphs" textLength="81" x="386" y="601.1143">String getName()</text><!--MD5=[4ab0a37e4eea002adccb7015b38062eb]
class SpecificReader--><rect fill="#FEFECE" filter="url(#f13gi6n53lm7z2)" height="89.5078" id="SpecificReader" style="stroke: #A80036; stroke-width: 1.5;" width="133" x="579.5" y="507"/><ellipse cx="597.2" cy="523" fill="#ADD1B2" rx="11" ry="11" style="stroke: #A80036; stroke-width: 1.0;"/><path d="M599.2,519.5 Q599.4031,519 599.6375,518.75 Q599.8719,518.5 600.1375,518.5 Q600.6063,518.5 600.9031,518.7813 Q601.2,519.0625 601.2,519.7188 L601.2,521.2813 Q601.2,521.9375 600.9188,522.2188 Q600.6375,522.5 600.2,522.5 Q599.8094,522.5 599.5594,522.3281 Q599.3094,522.1563 599.2,521.7031 Q599.1531,521.3906 598.9813,521.2188 Q598.6688,520.8906 598.1063,520.7031 Q597.5438,520.5 596.9813,520.5 Q596.2781,520.5 595.6844,520.7813 Q595.1063,521.0625 594.6531,521.6875 Q594.2,522.3125 594.2,523.1719 L594.2,524.0938 Q594.2,525.125 595.0438,525.8125 Q595.8875,526.5 597.3875,526.5 Q598.2781,526.5 598.9031,526.2969 Q599.2625,526.1875 599.6688,525.8281 Q599.9344,525.625 600.075,525.5625 Q600.2156,525.5 600.3875,525.5 Q600.7156,525.5 600.95,525.7656 Q601.2,526.0156 601.2,526.375 Q601.2,526.7188 600.8563,527.125 Q600.3563,527.7188 599.5594,528.0469 Q598.5125,528.5 597.2313,528.5 Q595.7313,528.5 594.5281,527.9063 Q593.5594,527.4375 592.8719,526.4219 Q592.2,525.4063 592.2,524.2031 L592.2,523.1094 Q592.2,521.8594 592.7938,520.7656 Q593.4031,519.6719 594.45,519.0938 Q595.5125,518.5 596.7,518.5 Q597.4188,518.5 598.0438,518.75 Q598.6688,519 599.2,519.5 Z "/><polygon fill="#4177AF" points="616.8,518.5,612.8,524.5,620.8,524.5" style="stroke: #1963A0; stroke-width: 1.0;"/><text fill="#000000" font-family="sans-serif" font-size="12" lengthAdjust="spacingAndGlyphs" textLength="84" x="622.8" y="527.9102">SpecificReader</text><line style="stroke: #A80036; stroke-width: 1.5;" x1="580.5" x2="711.5" y1="539" y2="539"/><rect fill="none" height="6" style="stroke: #C82930; stroke-width: 1.0;" width="6" x="587.5" y="547"/><text fill="#000000" font-family="sans-serif" font-size="11" lengthAdjust="spacingAndGlyphs" textLength="57" x="599.5" y="554.4189">String name</text><line style="stroke: #A80036; stroke-width: 1.5;" x1="580.5" x2="711.5" y1="560.8359" y2="560.8359"/><polygon fill="#FFFF44" points="590.5,566.8359,594.5,570.8359,590.5,574.8359,586.5,570.8359" style="stroke: #B38D22; stroke-width: 1.0;"/><text fill="#000000" font-family="sans-serif" font-size="11" lengthAdjust="spacingAndGlyphs" textLength="82" x="599.5" y="576.2549">SpecificReader()</text><ellipse cx="590.5" cy="585.6719" fill="#84BE84" rx="3" ry="3" style="stroke: #038048; stroke-width: 1.0;"/><text fill="#000000" font-family="sans-serif" font-size="11" font-weight="bold" lengthAdjust="spacingAndGlyphs" textLength="23" x="599.5" y="590.0908">final</text><text fill="#000000" font-family="sans-serif" font-size="11" lengthAdjust="spacingAndGlyphs" textLength="81" x="625.5" y="590.0908">String getName()</text><!--MD5=[98fb93546a7dc75f66b7a26283e02bb5]
link SeProxyService to ReaderPlugin--><path d="M348.8224,223.4484 C348.8224,223.4484 375.097,267.026 386.506,285.95 " fill="none" id="SeProxyService-ReaderPlugin" style="stroke: #A80036; stroke-width: 1.0;"/><polygon fill="#A80036" points="393.38,297.35,392.1591,287.5771,390.7986,293.0679,385.3077,291.7074,393.38,297.35" style="stroke: #A80036; stroke-width: 1.0;"/><line style="stroke: #A80036; stroke-width: 1.0;" x1="390.7986" x2="386.6675" y1="293.0679" y2="286.217"/><polygon fill="#A80036" points="342.626,213.172,342.2988,220.3757,348.8224,223.4484,349.1497,216.2447,342.626,213.172" style="stroke: #A80036; stroke-width: 1.0;"/><text fill="#000000" font-family="sans-serif" font-size="13" lengthAdjust="spacingAndGlyphs" textLength="41" x="370" y="257.4951">plugins</text><text fill="#000000" font-family="sans-serif" font-size="13" lengthAdjust="spacingAndGlyphs" textLength="7" x="339.5095" y="234.4872">1</text><text fill="#000000" font-family="sans-serif" font-size="13" lengthAdjust="spacingAndGlyphs" textLength="5" x="383.921" y="286.7711">*</text><!--MD5=[628c6eb29572115a3ae82dff7e7e6b47]
link SeProxyService to AbstractPluginFactory--><path d="M229.0446,222.5464 C229.0446,222.5464 188.747,272.983 171.964,293.987 " fill="none" id="SeProxyService-AbstractPluginFactory" style="stroke: #A80036; stroke-width: 1.0;"/><polygon fill="#A80036" points="163.777,304.232,172.5203,299.6983,166.8984,300.326,166.2707,294.7041,163.777,304.232" style="stroke: #A80036; stroke-width: 1.0;"/><line style="stroke: #A80036; stroke-width: 1.0;" x1="166.8984" x2="171.8925" y1="300.326" y2="294.0765"/><polygon fill="#A80036" points="236.536,213.172,229.6655,215.3621,229.0446,222.5464,235.9151,220.3563,236.536,213.172" style="stroke: #A80036; stroke-width: 1.0;"/><text fill="#000000" font-family="sans-serif" font-size="13" lengthAdjust="spacingAndGlyphs" textLength="50" x="212" y="257.4951">registers</text><text fill="#000000" font-family="sans-serif" font-size="13" lengthAdjust="spacingAndGlyphs" textLength="7" x="223.6393" y="234.4872">1</text><text fill="#000000" font-family="sans-serif" font-size="13" lengthAdjust="spacingAndGlyphs" textLength="5" x="163.6357" y="293.5462">*</text><!--MD5=[c88fac8de0d16551763276c4b9088a93]
link ReaderPlugin to SeReader--><path d="M542.458,342.5 C542.458,342.5 578.697,342.5 596.679,342.5 " fill="none" id="ReaderPlugin-SeReader" style="stroke: #A80036; stroke-width: 1.0;"/><polygon fill="#A80036" points="609.771,342.5,600.771,338.5,604.771,342.5,600.771,346.5,609.771,342.5" style="stroke: #A80036; stroke-width: 1.0;"/><line style="stroke: #A80036; stroke-width: 1.0;" x1="604.771" x2="596.771" y1="342.5" y2="342.5"/><polygon fill="#A80036" points="530.458,342.5,536.458,346.5,542.458,342.5,536.458,338.5,530.458,342.5" style="stroke: #A80036; stroke-width: 1.0;"/><text fill="#000000" font-family="sans-serif" font-size="13" lengthAdjust="spacingAndGlyphs" textLength="43" x="548.5" y="335.9951">readers</text><text fill="#000000" font-family="sans-serif" font-size="13" lengthAdjust="spacingAndGlyphs" textLength="7" x="538.1146" y="339.486">1</text><text fill="#000000" font-family="sans-serif" font-size="13" lengthAdjust="spacingAndGlyphs" textLength="5" x="596.9442" y="339.6328">*</text><!--MD5=[ed432611766c8e88b892041f7da1367f]
link AbstractPluginFactory to ReaderPlugin--><path d="M230.029,342.5 C253.967,342.5 279.879,342.5 304.642,342.5 " fill="none" id="AbstractPluginFactory-&gt;ReaderPlugin" style="stroke: #A80036; stroke-width: 1.0;"/><polygon fill="#A80036" points="309.908,342.5,300.908,338.5,304.908,342.5,300.908,346.5,309.908,342.5" style="stroke: #A80036; stroke-width: 1.0;"/><text fill="#000000" font-family="sans-serif" font-size="13" lengthAdjust="spacingAndGlyphs" textLength="43" x="248.5" y="335.9951">creates</text><text fill="#000000" font-family="sans-serif" font-size="13" lengthAdjust="spacingAndGlyphs" textLength="7" x="237.9602" y="339.3847">1</text><text fill="#000000" font-family="sans-serif" font-size="13" lengthAdjust="spacingAndGlyphs" textLength="7" x="294.9211" y="339.4623">1</text><!--MD5=[606af266cb1c3ee5489afec7c4e81055]
link SpecificPluginFactory to SpecificPlugin--><path d="M260.848,552 C285.005,552 310.868,552 334.572,552 " fill="none" id="SpecificPluginFactory-&gt;SpecificPlugin" style="stroke: #A80036; stroke-width: 1.0;"/><polygon fill="#A80036" points="339.596,552,330.596,548,334.596,552,330.596,556,339.596,552" style="stroke: #A80036; stroke-width: 1.0;"/><text fill="#000000" font-family="sans-serif" font-size="13" lengthAdjust="spacingAndGlyphs" textLength="43" x="278.75" y="545.4951">creates</text><text fill="#000000" font-family="sans-serif" font-size="13" lengthAdjust="spacingAndGlyphs" textLength="7" x="268.6054" y="548.8847">1</text><text fill="#000000" font-family="sans-serif" font-size="13" lengthAdjust="spacingAndGlyphs" textLength="7" x="325.1233" y="548.8191">1</text><!--MD5=[c0f848f1ce686e4cacbc8a0551faf0fe]
link SpecificPlugin to SpecificReader--><path d="M512.315,552 C512.315,552 549.219,552 566.27,552 " fill="none" id="SpecificPlugin-SpecificReader" style="stroke: #A80036; stroke-width: 1.0;"/><polygon fill="#A80036" points="579.367,552,570.367,548,574.367,552,570.367,556,579.367,552" style="stroke: #A80036; stroke-width: 1.0;"/><line style="stroke: #A80036; stroke-width: 1.0;" x1="574.367" x2="566.367" y1="552" y2="551.9999"/><polygon fill="#A80036" points="500.315,552,506.315,556,512.315,552,506.315,548,500.315,552" style="stroke: #A80036; stroke-width: 1.0;"/><text fill="#000000" font-family="sans-serif" font-size="13" lengthAdjust="spacingAndGlyphs" textLength="43" x="518.25" y="545.4951">readers</text><text fill="#000000" font-family="sans-serif" font-size="13" lengthAdjust="spacingAndGlyphs" textLength="7" x="508.0417" y="548.7954">1</text><text fill="#000000" font-family="sans-serif" font-size="13" lengthAdjust="spacingAndGlyphs" textLength="5" x="566.3735" y="548.6189">*</text><!--MD5=[5e2e42b3428cab7eb3f2532a1d684e48]
reverse link AbstractPluginFactory to SpecificPluginFactory--><path d="M143.079,400.59 C148.826,436.722 156.089,482.392 161.096,513.875 " fill="none" id="AbstractPluginFactory&lt;-SpecificPluginFactory" style="stroke: #A80036; stroke-width: 1.0;"/><polygon fill="none" points="136.128,401.448,139.9,380.597,149.954,399.249,136.128,401.448" style="stroke: #A80036; stroke-width: 1.0;"/><text fill="#000000" font-family="sans-serif" font-size="13" lengthAdjust="spacingAndGlyphs" textLength="46" x="151" y="440.4951">extends</text><!--MD5=[7c148b1c73f50606d6f270d6e2289f39]
reverse link ReaderPlugin to SpecificPlugin--><path d="M420,407.597 C420,435.884 420,468.799 420,495.956 " fill="none" id="ReaderPlugin&lt;-SpecificPlugin" style="stroke: #A80036; stroke-width: 1.0; stroke-dasharray: 7.0,7.0;"/><polygon fill="none" points="413,407.505,420,387.505,427,407.505,413,407.505" style="stroke: #A80036; stroke-width: 1.0;"/><text fill="#000000" font-family="sans-serif" font-size="13" lengthAdjust="spacingAndGlyphs" textLength="67" x="421" y="440.4951">implements</text><!--MD5=[4afba5938fcadf10f22a5ff47d317fb7]
reverse link SeReader to SpecificReader--><path d="M736.349,411.094 C716.076,442.486 692.544,478.926 674.579,506.746 " fill="none" id="SeReader&lt;-SpecificReader" style="stroke: #A80036; stroke-width: 1.0; stroke-dasharray: 7.0,7.0;"/><polygon fill="none" points="730.49,407.264,747.22,394.26,742.25,414.859,730.49,407.264" style="stroke: #A80036; stroke-width: 1.0;"/><text fill="#000000" font-family="sans-serif" font-size="13" lengthAdjust="spacingAndGlyphs" textLength="67" x="726" y="440.4951">implements</text><!--MD5=[2584b9fa91ff1862125ec7fba796ab00]
@startuml
package org.eclipse.keyple.core.seproxy #FFFFFF {

+class "<b>final</b> SeProxyService" as SeProxyService << Singleton >> {
  +{static}SeProxyService getInstance()
  +String getVersion()
  +registerPlugin(AbstractPluginFactory pluginFactory)
  +boolean isRegistered(String pluginName)
  +boolean unregisterPlugin(String pluginName)
  +ReaderPlugin getPlugin(String name)
  +SortedSet<ReaderPlugin> getPlugins()
}
+abstract AbstractPluginFactory {
  {abstract} #String getPluginName()
  {abstract} #ReaderPlugin getPluginInstance()
}
+interface ReaderPlugin {
  +SortedSet<String> getReaderNames()
  +SeReader getReader(String name)
  +Set<? extends SeReader> getReaders()
}
+interface SeReader {
  +boolean isSePresent()
  +addSeProtocolSetting(SeProtocol seProtocol, String protocolRule)
  +setSeProtocolSetting(Map<SeProtocol, String> protocolSetting)
  +TransmissionMode getTransmissionMode()
}

  SeProxyService "1" *-down-> "*" ReaderPlugin : plugins
  SeProxyService "1" *- -> "*" AbstractPluginFactory : registers
  ReaderPlugin "1" *-right-> "*" SeReader : readers
  AbstractPluginFactory "1" -right-> "1" ReaderPlugin : creates
}

package plugin.specific #FFCCFF {
  +class "<b>final</b> SpecificPluginFactory" as SpecificPluginFactory {
    #String getPluginName()
    #ReaderPlugin getPluginInstance()
  }

  ~class SpecificPlugin << Singleton >> {
    -String name
    -SpecificPlugin()
    +{static} SpecificPlugin getInstance()
    +<b>final</b> String getName()
  }

  ~class SpecificReader {
    -String name
    #SpecificReader()
    +<b>final</b> String getName()
  }

  SpecificPluginFactory "1" -right-> "1" SpecificPlugin : creates
  SpecificPlugin "1" *-right-> "*" SpecificReader : readers
}

AbstractPluginFactory <|- - SpecificPluginFactory : extends
ReaderPlugin <|.. SpecificPlugin : implements
SeReader <|.. SpecificReader : implements
@enduml

PlantUML version 1.2020.07(Sun Apr 19 15:42:40 MUT 2020)
(GPL source distribution)
Java Runtime: OpenJDK Runtime Environment
JVM: OpenJDK 64-Bit Server VM
Java Version: 11.0.6+8-b765.40
Operating System: Windows 10
Default Encoding: Cp1252
Language: fr
Country: FR
--></g></svg>