<?xml version="1.0" encoding="UTF-8" standalone="no"?><svg xmlns="http://www.w3.org/2000/svg" xmlns:xlink="http://www.w3.org/1999/xlink" contentScriptType="application/ecmascript" contentStyleType="text/css" height="826px" preserveAspectRatio="none" style="width:1066px;height:826px;" version="1.1" viewBox="0 0 1066 826" width="1066px" zoomAndPan="magnify"><defs><filter height="300%" id="f14hardimxoeu2" width="300%" x="-1" y="-1"><feGaussianBlur result="blurOut" stdDeviation="2.0"/><feColorMatrix in="blurOut" result="blurOut2" type="matrix" values="0 0 0 0 0 0 0 0 0 0 0 0 0 0 0 0 0 0 .4 0"/><feOffset dx="4.0" dy="4.0" in="blurOut2" result="blurOut3"/><feBlend in="SourceGraphic" in2="blurOut3" mode="normal"/></filter></defs><g><!--MD5=[43faeb760e7b9692ab91f636f0cf3388]
cluster external.terminalapplication--><polygon fill="#3399FF" filter="url(#f14hardimxoeu2)" points="414,55,616,55,623,78.6094,626,78.6094,626,155,414,155,414,55" style="stroke: #000000; stroke-width: 1.5;"/><line style="stroke: #000000; stroke-width: 1.5;" x1="414" x2="623" y1="78.6094" y2="78.6094"/><text fill="#000000" font-family="sans-serif" font-size="14" font-weight="bold" lengthAdjust="spacingAndGlyphs" textLength="196" x="418" y="71.5332">external.terminalapplication</text><!--MD5=[7db3c59d38ae5b37b484eb2df9368145]
cluster java.util--><polygon fill="#FFFFFF" filter="url(#f14hardimxoeu2)" points="650,48,711,48,718,71.6094,800,71.6094,800,162,650,162,650,48" style="stroke: #000000; stroke-width: 1.5;"/><line style="stroke: #000000; stroke-width: 1.5;" x1="650" x2="718" y1="71.6094" y2="71.6094"/><text fill="#000000" font-family="sans-serif" font-size="14" font-weight="bold" lengthAdjust="spacingAndGlyphs" textLength="55" x="654" y="64.5332">java.util</text><!--MD5=[2bcc54f38766b998c5e88efdbc7d1696]
cluster org.eclipse.keyple.core.seproxy--><polygon fill="#FFFFFF" filter="url(#f14hardimxoeu2)" points="22,236,253,236,260,259.6094,1044,259.6094,1044,622,22,622,22,236" style="stroke: #000000; stroke-width: 1.5;"/><line style="stroke: #000000; stroke-width: 1.5;" x1="22" x2="260" y1="259.6094" y2="259.6094"/><text fill="#000000" font-family="sans-serif" font-size="14" font-weight="bold" lengthAdjust="spacingAndGlyphs" textLength="225" x="26" y="252.5332">org.eclipse.keyple.core.seproxy</text><!--MD5=[3e81cc6ee7da4fa8b6adc12b329096f6]
cluster util--><polygon fill="#FFFFFF" filter="url(#f14hardimxoeu2)" points="457,672,485,672,492,695.6094,888,695.6094,888,814,457,814,457,672" style="stroke: #000000; stroke-width: 1.5;"/><line style="stroke: #000000; stroke-width: 1.5;" x1="457" x2="492" y1="695.6094" y2="695.6094"/><text fill="#000000" font-family="sans-serif" font-size="14" font-weight="bold" lengthAdjust="spacingAndGlyphs" textLength="22" x="461" y="688.5332">util</text><!--MD5=[36749fbd9f1718a5265922a19e14c350]
class SpecificTerminal--><rect fill="#FEFECE" filter="url(#f14hardimxoeu2)" height="48" id="SpecificTerminal" style="stroke: #A80036; stroke-width: 1.5;" width="124" x="436" y="91"/><ellipse cx="451" cy="107" fill="#ADD1B2" rx="11" ry="11" style="stroke: #A80036; stroke-width: 1.0;"/><path d="M453,103.5 Q453.2031,103 453.4375,102.75 Q453.6719,102.5 453.9375,102.5 Q454.4063,102.5 454.7031,102.7813 Q455,103.0625 455,103.7188 L455,105.2813 Q455,105.9375 454.7188,106.2188 Q454.4375,106.5 454,106.5 Q453.6094,106.5 453.3594,106.3281 Q453.1094,106.1563 453,105.7031 Q452.9531,105.3906 452.7813,105.2188 Q452.4688,104.8906 451.9063,104.7031 Q451.3438,104.5 450.7813,104.5 Q450.0781,104.5 449.4844,104.7813 Q448.9063,105.0625 448.4531,105.6875 Q448,106.3125 448,107.1719 L448,108.0938 Q448,109.125 448.8438,109.8125 Q449.6875,110.5 451.1875,110.5 Q452.0781,110.5 452.7031,110.2969 Q453.0625,110.1875 453.4688,109.8281 Q453.7344,109.625 453.875,109.5625 Q454.0156,109.5 454.1875,109.5 Q454.5156,109.5 454.75,109.7656 Q455,110.0156 455,110.375 Q455,110.7188 454.6563,111.125 Q454.1563,111.7188 453.3594,112.0469 Q452.3125,112.5 451.0313,112.5 Q449.5313,112.5 448.3281,111.9063 Q447.3594,111.4375 446.6719,110.4219 Q446,109.4063 446,108.2031 L446,107.1094 Q446,105.8594 446.5938,104.7656 Q447.2031,103.6719 448.25,103.0938 Q449.3125,102.5 450.5,102.5 Q451.2188,102.5 451.8438,102.75 Q452.4688,103 453,103.5 Z "/><text fill="#000000" font-family="sans-serif" font-size="12" lengthAdjust="spacingAndGlyphs" textLength="92" x="465" y="111.9102">SpecificTerminal</text><line style="stroke: #A80036; stroke-width: 1.5;" x1="437" x2="559" y1="123" y2="123"/><line style="stroke: #A80036; stroke-width: 1.5;" x1="437" x2="559" y1="131" y2="131"/><!--MD5=[7a4729d26b999f6a4650b01106c103c5]
class Comparable--><rect fill="#FEFECE" filter="url(#f14hardimxoeu2)" height="61.8359" id="Comparable" style="stroke: #A80036; stroke-width: 1.5;" width="117" x="666.5" y="84"/><ellipse cx="683.3" cy="100" fill="#B4A7E5" rx="11" ry="11" style="stroke: #A80036; stroke-width: 1.0;"/><path d="M684.3,97 L684.3,103 L686.3,103 L686.7844,103 L687.3,103.625 L687.3,104 L687.3,104.375 L686.7844,105 L686.3,105 L680.3,105 L679.8156,105 L679.3,104.375 L679.3,104 L679.3,103.625 L679.8156,103 L680.3,103 L682.3,103 L682.3,97 L680.3,97 L679.8156,97 L679.3,96.375 L679.3,96 L679.3,95.625 L679.8156,95 L680.3,95 L686.3,95 L686.7844,95 L687.3,95.625 L687.3,96 L687.3,96.375 L686.7844,97 L686.3,97 L684.3,97 Z "/><text fill="#000000" font-family="sans-serif" font-size="12" font-style="italic" lengthAdjust="spacingAndGlyphs" textLength="70" x="697.7" y="104.9102">Comparable</text><rect fill="#FFFFFF" height="17.0938" style="stroke: #000000; stroke-width: 1.0; stroke-dasharray: 2.0,2.0;" width="9" x="777.5" y="81"/><text fill="#000000" font-family="sans-serif" font-size="12" font-style="italic" lengthAdjust="spacingAndGlyphs" textLength="7" x="778.5" y="94.457">T</text><line style="stroke: #A80036; stroke-width: 1.5;" x1="667.5" x2="782.5" y1="116" y2="116"/><line style="stroke: #A80036; stroke-width: 1.5;" x1="667.5" x2="782.5" y1="124" y2="124"/><ellipse cx="677.5" cy="135" fill="#84BE84" rx="3" ry="3" style="stroke: #038048; stroke-width: 1.0;"/><text fill="#000000" font-family="sans-serif" font-size="11" lengthAdjust="spacingAndGlyphs" textLength="91" x="686.5" y="139.4189">int compareTo(T o)</text><!--MD5=[f0c44d4c6fb415056b2c0aabd573961b]
class SeProxyService--><rect fill="#FEFECE" filter="url(#f14hardimxoeu2)" height="153.0391" id="SeProxyService" style="stroke: #A80036; stroke-width: 1.5;" width="274" x="361" y="272"/><ellipse cx="432.75" cy="292.0938" fill="#ADD1B2" rx="11" ry="11" style="stroke: #A80036; stroke-width: 1.0;"/><path d="M434.75,288.5938 Q434.9531,288.0938 435.1875,287.8438 Q435.4219,287.5938 435.6875,287.5938 Q436.1563,287.5938 436.4531,287.875 Q436.75,288.1563 436.75,288.8125 L436.75,290.375 Q436.75,291.0313 436.4688,291.3125 Q436.1875,291.5938 435.75,291.5938 Q435.3594,291.5938 435.1094,291.4219 Q434.8594,291.25 434.75,290.7969 Q434.7031,290.4844 434.5313,290.3125 Q434.2188,289.9844 433.6563,289.7969 Q433.0938,289.5938 432.5313,289.5938 Q431.8281,289.5938 431.2344,289.875 Q430.6563,290.1563 430.2031,290.7813 Q429.75,291.4063 429.75,292.2656 L429.75,293.1875 Q429.75,294.2188 430.5938,294.9063 Q431.4375,295.5938 432.9375,295.5938 Q433.8281,295.5938 434.4531,295.3906 Q434.8125,295.2813 435.2188,294.9219 Q435.4844,294.7188 435.625,294.6563 Q435.7656,294.5938 435.9375,294.5938 Q436.2656,294.5938 436.5,294.8594 Q436.75,295.1094 436.75,295.4688 Q436.75,295.8125 436.4063,296.2188 Q435.9063,296.8125 435.1094,297.1406 Q434.0625,297.5938 432.7813,297.5938 Q431.2813,297.5938 430.0781,297 Q429.1094,296.5313 428.4219,295.5156 Q427.75,294.5 427.75,293.2969 L427.75,292.2031 Q427.75,290.9531 428.3438,289.8594 Q428.9531,288.7656 430,288.1875 Q431.0625,287.5938 432.25,287.5938 Q432.9688,287.5938 433.5938,287.8438 Q434.2188,288.0938 434.75,288.5938 Z "/><text fill="#000000" font-family="sans-serif" font-size="12" font-style="italic" lengthAdjust="spacingAndGlyphs" textLength="66" x="481.25" y="289.457">«Singleton»</text><ellipse cx="458.25" cy="299.1406" fill="#84BE84" rx="3" ry="3" style="stroke: #038048; stroke-width: 1.0;"/><text fill="#000000" font-family="sans-serif" font-size="12" font-weight="bold" lengthAdjust="spacingAndGlyphs" textLength="24" x="464.25" y="304.5508">final</text><text fill="#000000" font-family="sans-serif" font-size="12" lengthAdjust="spacingAndGlyphs" textLength="84" x="491.25" y="304.5508">SeProxyService</text><line style="stroke: #A80036; stroke-width: 1.5;" x1="362" x2="634" y1="312.1875" y2="312.1875"/><line style="stroke: #A80036; stroke-width: 1.5;" x1="362" x2="634" y1="320.1875" y2="320.1875"/><ellipse cx="372" cy="331.1875" fill="#84BE84" rx="3" ry="3" style="stroke: #038048; stroke-width: 1.0;"/><text fill="#000000" font-family="sans-serif" font-size="11" lengthAdjust="spacingAndGlyphs" text-decoration="underline" textLength="145" x="381" y="335.6064">SeProxyService getInstance()</text><ellipse cx="372" cy="345.0234" fill="#84BE84" rx="3" ry="3" style="stroke: #038048; stroke-width: 1.0;"/><text fill="#000000" font-family="sans-serif" font-size="11" lengthAdjust="spacingAndGlyphs" textLength="92" x="381" y="349.4424">String getVersion()</text><ellipse cx="372" cy="358.8594" fill="#84BE84" rx="3" ry="3" style="stroke: #038048; stroke-width: 1.0;"/><text fill="#000000" font-family="sans-serif" font-size="11" lengthAdjust="spacingAndGlyphs" textLength="248" x="381" y="363.2783">registerPlugin(AbstractPluginFactory pluginFactory)</text><ellipse cx="372" cy="372.6953" fill="#84BE84" rx="3" ry="3" style="stroke: #038048; stroke-width: 1.0;"/><text fill="#000000" font-family="sans-serif" font-size="11" lengthAdjust="spacingAndGlyphs" textLength="195" x="381" y="377.1143">boolean isRegistered(String pluginName)</text><ellipse cx="372" cy="386.5313" fill="#84BE84" rx="3" ry="3" style="stroke: #038048; stroke-width: 1.0;"/><text fill="#000000" font-family="sans-serif" font-size="11" lengthAdjust="spacingAndGlyphs" textLength="212" x="381" y="390.9502">boolean unregisterPlugin(String pluginName)</text><ellipse cx="372" cy="400.3672" fill="#84BE84" rx="3" ry="3" style="stroke: #038048; stroke-width: 1.0;"/><text fill="#000000" font-family="sans-serif" font-size="11" lengthAdjust="spacingAndGlyphs" textLength="174" x="381" y="404.7861">ReaderPlugin getPlugin(String name)</text><ellipse cx="372" cy="414.2031" fill="#84BE84" rx="3" ry="3" style="stroke: #038048; stroke-width: 1.0;"/><text fill="#000000" font-family="sans-serif" font-size="11" lengthAdjust="spacingAndGlyphs" textLength="183" x="381" y="418.6221">SortedSet&lt;ReaderPlugin&gt; getPlugins()</text><!--MD5=[ec495f5f6ae18812fb155b23e8e93f55]
class ReaderPoolPlugin--><rect fill="#FEFECE" filter="url(#f14hardimxoeu2)" height="89.5078" id="ReaderPoolPlugin" style="stroke: #A80036; stroke-width: 1.5;" width="267" x="38.5" y="509.5"/><ellipse cx="111.75" cy="525.5" fill="#B4A7E5" rx="11" ry="11" style="stroke: #A80036; stroke-width: 1.0;"/><path d="M112.75,522.5 L112.75,528.5 L114.75,528.5 L115.2344,528.5 L115.75,529.125 L115.75,529.5 L115.75,529.875 L115.2344,530.5 L114.75,530.5 L108.75,530.5 L108.2656,530.5 L107.75,529.875 L107.75,529.5 L107.75,529.125 L108.2656,528.5 L108.75,528.5 L110.75,528.5 L110.75,522.5 L108.75,522.5 L108.2656,522.5 L107.75,521.875 L107.75,521.5 L107.75,521.125 L108.2656,520.5 L108.75,520.5 L114.75,520.5 L115.2344,520.5 L115.75,521.125 L115.75,521.5 L115.75,521.875 L115.2344,522.5 L114.75,522.5 L112.75,522.5 Z "/><ellipse cx="137.25" cy="525" fill="#84BE84" rx="3" ry="3" style="stroke: #038048; stroke-width: 1.0;"/><text fill="#000000" font-family="sans-serif" font-size="12" font-style="italic" lengthAdjust="spacingAndGlyphs" textLength="101" x="143.25" y="530.4102">ReaderPoolPlugin</text><line style="stroke: #A80036; stroke-width: 1.5;" x1="39.5" x2="304.5" y1="541.5" y2="541.5"/><line style="stroke: #A80036; stroke-width: 1.5;" x1="39.5" x2="304.5" y1="549.5" y2="549.5"/><ellipse cx="49.5" cy="560.5" fill="#84BE84" rx="3" ry="3" style="stroke: #038048; stroke-width: 1.0;"/><text fill="#000000" font-family="sans-serif" font-size="11" lengthAdjust="spacingAndGlyphs" textLength="236" x="58.5" y="564.9189">SortedSet&lt;String&gt; getReaderGroupReferences()</text><ellipse cx="49.5" cy="574.3359" fill="#84BE84" rx="3" ry="3" style="stroke: #038048; stroke-width: 1.0;"/><text fill="#000000" font-family="sans-serif" font-size="11" lengthAdjust="spacingAndGlyphs" textLength="241" x="58.5" y="578.7549">SeReader allocateReader(String groupReference)</text><ellipse cx="49.5" cy="588.1719" fill="#84BE84" rx="3" ry="3" style="stroke: #038048; stroke-width: 1.0;"/><text fill="#000000" font-family="sans-serif" font-size="11" lengthAdjust="spacingAndGlyphs" textLength="177" x="58.5" y="592.5908">releaseReader(SeReader seReader)</text><!--MD5=[a0e88443257adb8def549c32ec694d43]
class ReaderPlugin--><rect fill="#FEFECE" filter="url(#f14hardimxoeu2)" height="89.5078" id="ReaderPlugin" style="stroke: #A80036; stroke-width: 1.5;" width="220" x="388" y="509.5"/><ellipse cx="450.25" cy="525.5" fill="#B4A7E5" rx="11" ry="11" style="stroke: #A80036; stroke-width: 1.0;"/><path d="M451.25,522.5 L451.25,528.5 L453.25,528.5 L453.7344,528.5 L454.25,529.125 L454.25,529.5 L454.25,529.875 L453.7344,530.5 L453.25,530.5 L447.25,530.5 L446.7656,530.5 L446.25,529.875 L446.25,529.5 L446.25,529.125 L446.7656,528.5 L447.25,528.5 L449.25,528.5 L449.25,522.5 L447.25,522.5 L446.7656,522.5 L446.25,521.875 L446.25,521.5 L446.25,521.125 L446.7656,520.5 L447.25,520.5 L453.25,520.5 L453.7344,520.5 L454.25,521.125 L454.25,521.5 L454.25,521.875 L453.7344,522.5 L453.25,522.5 L451.25,522.5 Z "/><ellipse cx="475.75" cy="525" fill="#84BE84" rx="3" ry="3" style="stroke: #038048; stroke-width: 1.0;"/><text fill="#000000" font-family="sans-serif" font-size="12" font-style="italic" lengthAdjust="spacingAndGlyphs" textLength="76" x="481.75" y="530.4102">ReaderPlugin</text><line style="stroke: #A80036; stroke-width: 1.5;" x1="389" x2="607" y1="541.5" y2="541.5"/><line style="stroke: #A80036; stroke-width: 1.5;" x1="389" x2="607" y1="549.5" y2="549.5"/><ellipse cx="399" cy="560.5" fill="#84BE84" rx="3" ry="3" style="stroke: #038048; stroke-width: 1.0;"/><text fill="#000000" font-family="sans-serif" font-size="11" lengthAdjust="spacingAndGlyphs" textLength="182" x="408" y="564.9189">SortedSet&lt;String&gt; getReaderNames()</text><ellipse cx="399" cy="574.3359" fill="#84BE84" rx="3" ry="3" style="stroke: #038048; stroke-width: 1.0;"/><text fill="#000000" font-family="sans-serif" font-size="11" lengthAdjust="spacingAndGlyphs" textLength="166" x="408" y="578.7549">SeReader getReader(String name)</text><ellipse cx="399" cy="588.1719" fill="#84BE84" rx="3" ry="3" style="stroke: #038048; stroke-width: 1.0;"/><text fill="#000000" font-family="sans-serif" font-size="11" lengthAdjust="spacingAndGlyphs" textLength="194" x="408" y="592.5908">Set&lt;? extends SeReader&gt; getReaders()</text><!--MD5=[dd49942b1f02350b5568646d3da64c49]
class SeReader--><rect fill="#FEFECE" filter="url(#f14hardimxoeu2)" height="103.3438" id="SeReader" style="stroke: #A80036; stroke-width: 1.5;" width="340" x="688" y="503"/><ellipse cx="820.25" cy="519" fill="#B4A7E5" rx="11" ry="11" style="stroke: #A80036; stroke-width: 1.0;"/><path d="M821.25,516 L821.25,522 L823.25,522 L823.7344,522 L824.25,522.625 L824.25,523 L824.25,523.375 L823.7344,524 L823.25,524 L817.25,524 L816.7656,524 L816.25,523.375 L816.25,523 L816.25,522.625 L816.7656,522 L817.25,522 L819.25,522 L819.25,516 L817.25,516 L816.7656,516 L816.25,515.375 L816.25,515 L816.25,514.625 L816.7656,514 L817.25,514 L823.25,514 L823.7344,514 L824.25,514.625 L824.25,515 L824.25,515.375 L823.7344,516 L823.25,516 L821.25,516 Z "/><ellipse cx="845.75" cy="518.5" fill="#84BE84" rx="3" ry="3" style="stroke: #038048; stroke-width: 1.0;"/><text fill="#000000" font-family="sans-serif" font-size="12" font-style="italic" lengthAdjust="spacingAndGlyphs" textLength="56" x="851.75" y="523.9102">SeReader</text><line style="stroke: #A80036; stroke-width: 1.5;" x1="689" x2="1027" y1="535" y2="535"/><line style="stroke: #A80036; stroke-width: 1.5;" x1="689" x2="1027" y1="543" y2="543"/><ellipse cx="699" cy="554" fill="#84BE84" rx="3" ry="3" style="stroke: #038048; stroke-width: 1.0;"/><text fill="#000000" font-family="sans-serif" font-size="11" lengthAdjust="spacingAndGlyphs" textLength="107" x="708" y="558.4189">boolean isSePresent()</text><ellipse cx="699" cy="567.8359" fill="#84BE84" rx="3" ry="3" style="stroke: #038048; stroke-width: 1.0;"/><text fill="#000000" font-family="sans-serif" font-size="11" lengthAdjust="spacingAndGlyphs" textLength="314" x="708" y="572.2549">addSeProtocolSetting(SeProtocol seProtocol, String protocolRule)</text><ellipse cx="699" cy="581.6719" fill="#84BE84" rx="3" ry="3" style="stroke: #038048; stroke-width: 1.0;"/><text fill="#000000" font-family="sans-serif" font-size="11" lengthAdjust="spacingAndGlyphs" textLength="301" x="708" y="586.0908">setSeProtocolSetting(Map&lt;SeProtocol, String&gt; protocolSetting)</text><ellipse cx="699" cy="595.5078" fill="#84BE84" rx="3" ry="3" style="stroke: #038048; stroke-width: 1.0;"/><text fill="#000000" font-family="sans-serif" font-size="11" lengthAdjust="spacingAndGlyphs" textLength="206" x="708" y="599.9268">TransmissionMode getTransmissionMode()</text><!--MD5=[8e936f9b0c8a405e1c674edc8f191d2f]
class Nameable--><rect fill="#FEFECE" filter="url(#f14hardimxoeu2)" height="61.8359" id="Nameable" style="stroke: #A80036; stroke-width: 1.5;" width="107" x="473.5" y="722"/><ellipse cx="490.75" cy="738" fill="#B4A7E5" rx="11" ry="11" style="stroke: #A80036; stroke-width: 1.0;"/><path d="M491.75,735 L491.75,741 L493.75,741 L494.2344,741 L494.75,741.625 L494.75,742 L494.75,742.375 L494.2344,743 L493.75,743 L487.75,743 L487.2656,743 L486.75,742.375 L486.75,742 L486.75,741.625 L487.2656,741 L487.75,741 L489.75,741 L489.75,735 L487.75,735 L487.2656,735 L486.75,734.375 L486.75,734 L486.75,733.625 L487.2656,733 L487.75,733 L493.75,733 L494.2344,733 L494.75,733.625 L494.75,734 L494.75,734.375 L494.2344,735 L493.75,735 L491.75,735 Z "/><ellipse cx="510.25" cy="737.5" fill="#84BE84" rx="3" ry="3" style="stroke: #038048; stroke-width: 1.0;"/><text fill="#000000" font-family="sans-serif" font-size="12" font-style="italic" lengthAdjust="spacingAndGlyphs" textLength="59" x="516.25" y="742.9102">Nameable</text><line style="stroke: #A80036; stroke-width: 1.5;" x1="474.5" x2="579.5" y1="754" y2="754"/><line style="stroke: #A80036; stroke-width: 1.5;" x1="474.5" x2="579.5" y1="762" y2="762"/><ellipse cx="484.5" cy="773" fill="#84BE84" rx="3" ry="3" style="stroke: #038048; stroke-width: 1.0;"/><text fill="#000000" font-family="sans-serif" font-size="11" lengthAdjust="spacingAndGlyphs" textLength="81" x="493.5" y="777.4189">String getName()</text><!--MD5=[d4973a117951818d974fd20d0c16c2e4]
class Configurable--><rect fill="#FEFECE" filter="url(#f14hardimxoeu2)" height="89.5078" id="Configurable" style="stroke: #A80036; stroke-width: 1.5;" width="256" x="616" y="708"/><ellipse cx="698.25" cy="724" fill="#B4A7E5" rx="11" ry="11" style="stroke: #A80036; stroke-width: 1.0;"/><path d="M699.25,721 L699.25,727 L701.25,727 L701.7344,727 L702.25,727.625 L702.25,728 L702.25,728.375 L701.7344,729 L701.25,729 L695.25,729 L694.7656,729 L694.25,728.375 L694.25,728 L694.25,727.625 L694.7656,727 L695.25,727 L697.25,727 L697.25,721 L695.25,721 L694.7656,721 L694.25,720.375 L694.25,720 L694.25,719.625 L694.7656,719 L695.25,719 L701.25,719 L701.7344,719 L702.25,719.625 L702.25,720 L702.25,720.375 L701.7344,721 L701.25,721 L699.25,721 Z "/><ellipse cx="723.75" cy="723.5" fill="#84BE84" rx="3" ry="3" style="stroke: #038048; stroke-width: 1.0;"/><text fill="#000000" font-family="sans-serif" font-size="12" font-style="italic" lengthAdjust="spacingAndGlyphs" textLength="72" x="729.75" y="728.9102">Configurable</text><line style="stroke: #A80036; stroke-width: 1.5;" x1="617" x2="871" y1="740" y2="740"/><line style="stroke: #A80036; stroke-width: 1.5;" x1="617" x2="871" y1="748" y2="748"/><ellipse cx="627" cy="759" fill="#84BE84" rx="3" ry="3" style="stroke: #038048; stroke-width: 1.0;"/><text fill="#000000" font-family="sans-serif" font-size="11" lengthAdjust="spacingAndGlyphs" textLength="178" x="636" y="763.4189">Map&lt;String, String&gt; getParameters();</text><ellipse cx="627" cy="772.8359" fill="#84BE84" rx="3" ry="3" style="stroke: #038048; stroke-width: 1.0;"/><text fill="#000000" font-family="sans-serif" font-size="11" lengthAdjust="spacingAndGlyphs" textLength="183" x="636" y="777.2549">setParameter(String key, String value)</text><ellipse cx="627" cy="786.6719" fill="#84BE84" rx="3" ry="3" style="stroke: #038048; stroke-width: 1.0;"/><text fill="#000000" font-family="sans-serif" font-size="11" lengthAdjust="spacingAndGlyphs" textLength="230" x="636" y="791.0908">setParameters(Map&lt;String, String&gt; parameters)</text><!--MD5=[98fb93546a7dc75f66b7a26283e02bb5]
link SeProxyService to ReaderPlugin--><path d="M498,437.172 C498,437.172 498,478.152 498,496.113 " fill="none" id="SeProxyService-ReaderPlugin" style="stroke: #A80036; stroke-width: 1.0;"/><polygon fill="#A80036" points="498,509.35,502,500.35,498,504.35,494,500.35,498,509.35" style="stroke: #A80036; stroke-width: 1.0;"/><line style="stroke: #A80036; stroke-width: 1.0;" x1="498" x2="498" y1="504.35" y2="496.35"/><polygon fill="#A80036" points="498,425.172,494,431.172,498,437.172,502,431.172,498,425.172" style="stroke: #A80036; stroke-width: 1.0;"/><text fill="#000000" font-family="sans-serif" font-size="13" lengthAdjust="spacingAndGlyphs" textLength="41" x="499" y="469.4951">plugins</text><text fill="#000000" font-family="sans-serif" font-size="13" lengthAdjust="spacingAndGlyphs" textLength="7" x="490.6773" y="446.4872">1</text><text fill="#000000" font-family="sans-serif" font-size="13" lengthAdjust="spacingAndGlyphs" textLength="5" x="492.6172" y="498.7711">*</text><!--MD5=[4f7f04d81ce91b383557dc30cd7047a0]
link ReaderPoolPlugin to ReaderPlugin--><path d="M305.537,554.5 C326.044,554.5 347.195,554.5 367.632,554.5 " fill="none" id="ReaderPoolPlugin-&gt;ReaderPlugin" style="stroke: #A80036; stroke-width: 1.0;"/><polygon fill="none" points="367.781,547.5,387.781,554.5,367.781,561.5,367.781,547.5" style="stroke: #A80036; stroke-width: 1.0;"/><text fill="#000000" font-family="sans-serif" font-size="13" lengthAdjust="spacingAndGlyphs" textLength="46" x="323.75" y="547.9951">extends</text><!--MD5=[c88fac8de0d16551763276c4b9088a93]
link ReaderPlugin to SeReader--><path d="M620.458,554.5 C620.458,554.5 656.697,554.5 674.679,554.5 " fill="none" id="ReaderPlugin-SeReader" style="stroke: #A80036; stroke-width: 1.0;"/><polygon fill="#A80036" points="687.771,554.5,678.771,550.5,682.771,554.5,678.771,558.5,687.771,554.5" style="stroke: #A80036; stroke-width: 1.0;"/><line style="stroke: #A80036; stroke-width: 1.0;" x1="682.771" x2="674.771" y1="554.5" y2="554.5"/><polygon fill="#A80036" points="608.458,554.5,614.458,558.5,620.458,554.5,614.458,550.5,608.458,554.5" style="stroke: #A80036; stroke-width: 1.0;"/><text fill="#000000" font-family="sans-serif" font-size="13" lengthAdjust="spacingAndGlyphs" textLength="43" x="626.5" y="547.9951">readers</text><text fill="#000000" font-family="sans-serif" font-size="13" lengthAdjust="spacingAndGlyphs" textLength="7" x="616.1146" y="551.486">1</text><text fill="#000000" font-family="sans-serif" font-size="13" lengthAdjust="spacingAndGlyphs" textLength="5" x="674.9442" y="551.6328">*</text><!--MD5=[f8c43c6217b3f7a11e63ade92879ea46]
link SpecificTerminal to SeProxyService--><path d="M498,139.043 C498,168.666 498,221.667 498,266.811 " fill="none" id="SpecificTerminal-&gt;SeProxyService" style="stroke: #A80036; stroke-width: 1.0;"/><polygon fill="#A80036" points="498,271.994,502,262.994,498,266.994,494,262.994,498,271.994" style="stroke: #A80036; stroke-width: 1.0;"/><text fill="#000000" font-family="sans-serif" font-size="13" lengthAdjust="spacingAndGlyphs" textLength="28" x="499" y="216.4951">uses</text><polygon fill="#000000" points="508.5,225.3516,511.5,231.3516,514.5,225.3516,508.5,225.3516" style="stroke: #000000; stroke-width: 1.0;"/><!--MD5=[ec9dba54342ff9332a3d986f9a58d731]
link ReaderPlugin to Nameable--><path d="M504.508,599.598 C508.972,629.846 514.906,670.051 519.558,701.572 " fill="none" id="ReaderPlugin-&gt;Nameable" style="stroke: #A80036; stroke-width: 1.0;"/><polygon fill="none" points="526.544,700.969,522.54,721.777,512.695,703.013,526.544,700.969" style="stroke: #A80036; stroke-width: 1.0;"/><text fill="#000000" font-family="sans-serif" font-size="13" lengthAdjust="spacingAndGlyphs" textLength="46" x="513" y="652.4951">extends</text><!--MD5=[2c94e8471fd98724761199e1e043fbf0]
reverse link Nameable to SeReader--><path d="M554.542,705.172 C566.214,689.473 581.256,673.548 599,664 C629.688,647.488 643.755,666.449 677,656 C713.86,644.414 751.68,624.837 783.154,606.023 " fill="none" id="Nameable&lt;-SeReader" style="stroke: #A80036; stroke-width: 1.0;"/><polygon fill="none" points="560.265,709.204,543.23,721.805,548.689,701.33,560.265,709.204" style="stroke: #A80036; stroke-width: 1.0;"/><text fill="#000000" font-family="sans-serif" font-size="13" lengthAdjust="spacingAndGlyphs" textLength="46" x="720" y="652.4951">extends</text><!--MD5=[deb23c20a85b85f6166f6f36efa4ac2d]
link ReaderPlugin to Configurable--><path d="M553.207,599.598 C588.533,627.816 634.709,664.7 672.785,695.115 " fill="none" id="ReaderPlugin-&gt;Configurable" style="stroke: #A80036; stroke-width: 1.0;"/><polygon fill="none" points="677.294,689.758,688.552,707.709,668.557,700.696,677.294,689.758" style="stroke: #A80036; stroke-width: 1.0;"/><text fill="#000000" font-family="sans-serif" font-size="13" lengthAdjust="spacingAndGlyphs" textLength="46" x="622" y="652.4951">extends</text><!--MD5=[4041f5451312927f98f72078ec6163bb]
reverse link Configurable to SeReader--><path d="M786.348,690.969 C793.821,679.51 801.335,667.511 808,656 C817.179,640.147 826.358,622.386 834.3,606.255 " fill="none" id="Configurable&lt;-SeReader" style="stroke: #A80036; stroke-width: 1.0;"/><polygon fill="none" points="792.053,695.032,775.151,707.813,780.394,687.282,792.053,695.032" style="stroke: #A80036; stroke-width: 1.0;"/><text fill="#000000" font-family="sans-serif" font-size="13" lengthAdjust="spacingAndGlyphs" textLength="46" x="817" y="652.4951">extends</text><!--MD5=[1e3cb17105e1bb1ece1cc559abf685ba]
reverse link Comparable to ReaderPlugin--><path d="M723.043,166.298 C718.459,230.717 703.25,343.728 653,425 C632.228,458.596 599.594,487.57 569.616,509.456 " fill="none" id="Comparable&lt;-ReaderPlugin" style="stroke: #A80036; stroke-width: 1.0;"/><polygon fill="none" points="716.072,165.6,724.244,146.05,730.048,166.429,716.072,165.6" style="stroke: #A80036; stroke-width: 1.0;"/><text fill="#000000" font-family="sans-serif" font-size="13" lengthAdjust="spacingAndGlyphs" textLength="46" x="717" y="353.9951">extends</text><!--MD5=[78d3bddb9583ba0db02a971cfde2af88]
reverse link Comparable to SeReader--><path d="M748.254,164.531 C757.04,183.985 766.674,206.785 774,228 C806.907,323.299 833.653,438.201 847.568,502.855 " fill="none" id="Comparable&lt;-SeReader" style="stroke: #A80036; stroke-width: 1.0;"/><polygon fill="none" points="741.899,167.466,739.867,146.373,754.608,161.595,741.899,167.466" style="stroke: #A80036; stroke-width: 1.0;"/><text fill="#000000" font-family="sans-serif" font-size="13" lengthAdjust="spacingAndGlyphs" textLength="46" x="830" y="353.9951">extends</text><!--MD5=[7d94ab10142a1b9213837eab60a4e7dd]
@startuml
together {
  package external.terminalapplication #3399FF {
    class SpecificTerminal
  }

package java.util #FFFFFF {
  interface Comparable<T> {
    +int compareTo(T o)
  }
}
}

package org.eclipse.keyple.core.seproxy #FFFFFF {
+class "<b>final</b> SeProxyService" as SeProxyService << Singleton >> {
  +{static}SeProxyService getInstance()
  +String getVersion()
  +registerPlugin(AbstractPluginFactory pluginFactory)
  +boolean isRegistered(String pluginName)
  +boolean unregisterPlugin(String pluginName)
  +ReaderPlugin getPlugin(String name)
  +SortedSet<ReaderPlugin> getPlugins()
}
+interface ReaderPoolPlugin {
  +SortedSet<String> getReaderGroupReferences()
  +SeReader allocateReader(String groupReference)
  +releaseReader(SeReader seReader)
}
+interface ReaderPlugin {
  +SortedSet<String> getReaderNames()
  +SeReader getReader(String name)
  +Set<? extends SeReader> getReaders()
}
+interface SeReader {
  +boolean isSePresent()
  +addSeProtocolSetting(SeProtocol seProtocol, String protocolRule)
  +setSeProtocolSetting(Map<SeProtocol, String> protocolSetting)
  +TransmissionMode getTransmissionMode()
}

  SeProxyService "1" *-down-> "*" ReaderPlugin : plugins
  ReaderPlugin <|-left- ReaderPoolPlugin : extends
  ReaderPlugin "1" *-right-> "*" SeReader : readers
}

SpecificTerminal -down-> SeProxyService : uses >

package util #FFFFFF {
  +interface Nameable {
    +String getName()
  }

  +interface Configurable {
    +Map<String, String> getParameters();
    +setParameter(String key, String value)
    +setParameters(Map<String, String> parameters)
  }
}
Nameable <|-up- ReaderPlugin : extends
Nameable <|- - SeReader : extends
Configurable <|-up- ReaderPlugin : extends
Configurable <|- - SeReader : extends

Comparable <|- - ReaderPlugin : extends
Comparable <|- - SeReader : extends
@enduml

PlantUML version 1.2020.07(Sun Apr 19 15:42:40 MUT 2020)
(GPL source distribution)
Java Runtime: OpenJDK Runtime Environment
JVM: OpenJDK 64-Bit Server VM
Java Version: 11.0.6+8-b765.40
Operating System: Windows 10
Default Encoding: Cp1252
Language: fr
Country: FR
--></g></svg>