<?xml version="1.0" encoding="UTF-8" standalone="no"?><svg xmlns="http://www.w3.org/2000/svg" xmlns:xlink="http://www.w3.org/1999/xlink" contentScriptType="application/ecmascript" contentStyleType="text/css" height="940px" preserveAspectRatio="none" style="width:807px;height:940px;" version="1.1" viewBox="0 0 807 940" width="807px" zoomAndPan="magnify"><defs><filter height="300%" id="f3gtkekggl04h" width="300%" x="-1" y="-1"><feGaussianBlur result="blurOut" stdDeviation="2.0"/><feColorMatrix in="blurOut" result="blurOut2" type="matrix" values="0 0 0 0 0 0 0 0 0 0 0 0 0 0 0 0 0 0 .4 0"/><feOffset dx="4.0" dy="4.0" in="blurOut2" result="blurOut3"/><feBlend in="SourceGraphic" in2="blurOut3" mode="normal"/></filter></defs><g><!--MD5=[3f544705c2d16c925a2869dc8b1fd45c]
cluster org.eclipse.keyple.core.seproxy.event--><polygon fill="#FFFFFF" filter="url(#f3gtkekggl04h)" points="22,24,298,24,305,47.6094,785,47.6094,785,928,22,928,22,24" style="stroke: #000000; stroke-width: 1.5;"/><line style="stroke: #000000; stroke-width: 1.5;" x1="22" x2="305" y1="47.6094" y2="47.6094"/><text fill="#000000" font-family="sans-serif" font-size="14" font-weight="bold" lengthAdjust="spacingAndGlyphs" textLength="270" x="26" y="40.5332">org.eclipse.keyple.core.seproxy.event</text><!--MD5=[071fb05b602bfdbfba7de3999663c7de]
class EventType_Reader--><rect fill="#FEFECE" filter="url(#f3gtkekggl04h)" height="144.8516" id="EventType_Reader" style="stroke: #A80036; stroke-width: 1.5;" width="184" x="342" y="60"/><ellipse cx="396.25" cy="76" fill="#EB937F" rx="11" ry="11" style="stroke: #A80036; stroke-width: 1.0;"/><path d="M394.75,77 L394.75,79 L398.75,79 L398.75,78 L398.75,77.5156 L399.375,77 L399.75,77 L400.125,77 L400.75,77.5156 L400.75,78 L400.75,81 L392.75,81 L392.2656,81 L391.75,80.375 L391.75,80 L391.75,79.625 L392.2656,79 L392.75,79 L392.75,79 L392.75,73 L392.75,73 L392.2656,73 L391.75,72.375 L391.75,72 L391.75,71.625 L392.2656,71 L392.75,71 L400.75,71 L400.75,74 L400.75,74.4844 L400.125,75 L399.75,75 L399.375,75 L398.75,74.4844 L398.75,74 L398.75,73 L394.75,73 L394.75,75 L395.75,75 L395.75,74.5156 L395.75,74.5156 L396.375,74 L396.75,74 L397.125,74 L397.75,74.5156 L397.75,75 L397.75,77 L397.75,77.4844 L397.125,78 L397.125,78 L396.75,78 L396.375,78 L395.75,77.4844 L395.75,77.4844 L395.75,77 L394.75,77 Z "/><ellipse cx="421.75" cy="75.5" fill="#84BE84" rx="3" ry="3" style="stroke: #038048; stroke-width: 1.0;"/><text fill="#000000" font-family="sans-serif" font-size="12" lengthAdjust="spacingAndGlyphs" textLength="56" x="427.75" y="80.9102">EventType</text><line style="stroke: #A80036; stroke-width: 1.5;" x1="343" x2="525" y1="92" y2="92"/><line style="stroke: #A80036; stroke-width: 1.5;" x1="343" x2="525" y1="100" y2="100"/><text fill="#000000" font-family="sans-serif" font-size="11" lengthAdjust="spacingAndGlyphs" textLength="158" x="362" y="115.4189">IO_ERROR("SE Reader IO Error")</text><text fill="#000000" font-family="sans-serif" font-size="11" lengthAdjust="spacingAndGlyphs" textLength="140" x="362" y="129.2549">SE_INSERTED("SE insertion")</text><text fill="#000000" font-family="sans-serif" font-size="11" lengthAdjust="spacingAndGlyphs" textLength="141" x="362" y="143.0908">SE_MATCHED("SE matched")</text><text fill="#000000" font-family="sans-serif" font-size="11" lengthAdjust="spacingAndGlyphs" textLength="140" x="362" y="156.9268">SE_REMOVAL("SE removal")</text><text fill="#000000" font-family="sans-serif" font-size="11" lengthAdjust="spacingAndGlyphs" textLength="0" x="365" y="170.7627"/><ellipse cx="353" cy="180.1797" fill="#84BE84" rx="3" ry="3" style="stroke: #038048; stroke-width: 1.0;"/><text fill="#000000" font-family="sans-serif" font-size="11" lengthAdjust="spacingAndGlyphs" textLength="119" x="362" y="184.5986">EventType(String name);</text><ellipse cx="353" cy="194.0156" fill="#84BE84" rx="3" ry="3" style="stroke: #038048; stroke-width: 1.0;"/><text fill="#000000" font-family="sans-serif" font-size="11" lengthAdjust="spacingAndGlyphs" textLength="84" x="362" y="198.4346">String getName();</text><!--MD5=[9a5f54023274c57ee24edb1ade6872b1]
class ReaderEvent--><rect fill="#FEFECE" filter="url(#f3gtkekggl04h)" height="131.0156" id="ReaderEvent" style="stroke: #A80036; stroke-width: 1.5;" width="388" x="240" y="283"/><ellipse cx="375.25" cy="299" fill="#ADD1B2" rx="11" ry="11" style="stroke: #A80036; stroke-width: 1.0;"/><path d="M377.25,295.5 Q377.4531,295 377.6875,294.75 Q377.9219,294.5 378.1875,294.5 Q378.6563,294.5 378.9531,294.7813 Q379.25,295.0625 379.25,295.7188 L379.25,297.2813 Q379.25,297.9375 378.9688,298.2188 Q378.6875,298.5 378.25,298.5 Q377.8594,298.5 377.6094,298.3281 Q377.3594,298.1563 377.25,297.7031 Q377.2031,297.3906 377.0313,297.2188 Q376.7188,296.8906 376.1563,296.7031 Q375.5938,296.5 375.0313,296.5 Q374.3281,296.5 373.7344,296.7813 Q373.1563,297.0625 372.7031,297.6875 Q372.25,298.3125 372.25,299.1719 L372.25,300.0938 Q372.25,301.125 373.0938,301.8125 Q373.9375,302.5 375.4375,302.5 Q376.3281,302.5 376.9531,302.2969 Q377.3125,302.1875 377.7188,301.8281 Q377.9844,301.625 378.125,301.5625 Q378.2656,301.5 378.4375,301.5 Q378.7656,301.5 379,301.7656 Q379.25,302.0156 379.25,302.375 Q379.25,302.7188 378.9063,303.125 Q378.4063,303.7188 377.6094,304.0469 Q376.5625,304.5 375.2813,304.5 Q373.7813,304.5 372.5781,303.9063 Q371.6094,303.4375 370.9219,302.4219 Q370.25,301.4063 370.25,300.2031 L370.25,299.1094 Q370.25,297.8594 370.8438,296.7656 Q371.4531,295.6719 372.5,295.0938 Q373.5625,294.5 374.75,294.5 Q375.4688,294.5 376.0938,294.75 Q376.7188,295 377.25,295.5 Z "/><ellipse cx="400.75" cy="298.5" fill="#84BE84" rx="3" ry="3" style="stroke: #038048; stroke-width: 1.0;"/><text fill="#000000" font-family="sans-serif" font-size="12" font-weight="bold" lengthAdjust="spacingAndGlyphs" textLength="24" x="406.75" y="303.9102">final</text><text fill="#000000" font-family="sans-serif" font-size="12" lengthAdjust="spacingAndGlyphs" textLength="71" x="433.75" y="303.9102">ReaderEvent</text><line style="stroke: #A80036; stroke-width: 1.5;" x1="241" x2="627" y1="315" y2="315"/><line style="stroke: #A80036; stroke-width: 1.5;" x1="241" x2="627" y1="323" y2="323"/><ellipse cx="251" cy="334" fill="#84BE84" rx="3" ry="3" style="stroke: #038048; stroke-width: 1.0;"/><text fill="#000000" font-family="sans-serif" font-size="11" lengthAdjust="spacingAndGlyphs" textLength="362" x="260" y="338.4189">ReaderEvent(String pluginName, String readerName, EventType eventType,</text><text fill="#000000" font-family="sans-serif" font-size="11" lengthAdjust="spacingAndGlyphs" textLength="275" x="260" y="352.2549">DefaultSelectionsResponse defaultSelectionsResponse);</text><ellipse cx="251" cy="361.6719" fill="#84BE84" rx="3" ry="3" style="stroke: #038048; stroke-width: 1.0;"/><text fill="#000000" font-family="sans-serif" font-size="11" lengthAdjust="spacingAndGlyphs" textLength="112" x="260" y="366.0908">String getPluginName();</text><ellipse cx="251" cy="375.5078" fill="#84BE84" rx="3" ry="3" style="stroke: #038048; stroke-width: 1.0;"/><text fill="#000000" font-family="sans-serif" font-size="11" lengthAdjust="spacingAndGlyphs" textLength="119" x="260" y="379.9268">String getReaderName();</text><ellipse cx="251" cy="389.3438" fill="#84BE84" rx="3" ry="3" style="stroke: #038048; stroke-width: 1.0;"/><text fill="#000000" font-family="sans-serif" font-size="11" lengthAdjust="spacingAndGlyphs" textLength="131" x="260" y="393.7627">EventType getEventType();</text><ellipse cx="251" cy="403.1797" fill="#84BE84" rx="3" ry="3" style="stroke: #038048; stroke-width: 1.0;"/><text fill="#000000" font-family="sans-serif" font-size="11" lengthAdjust="spacingAndGlyphs" textLength="337" x="260" y="407.5986">AbstractDefaultSelectionsResponse getDefaultSelectionsResponse();</text><!--MD5=[35b709ead7a86e7b2780a25fdb99ded4]
class ReaderObserver--><rect fill="#FEFECE" filter="url(#f3gtkekggl04h)" height="61.8359" id="ReaderObserver" style="stroke: #A80036; stroke-width: 1.5;" width="159" x="123.5" y="101.5"/><ellipse cx="149.3" cy="117.5" fill="#B4A7E5" rx="11" ry="11" style="stroke: #A80036; stroke-width: 1.0;"/><path d="M150.3,114.5 L150.3,120.5 L152.3,120.5 L152.7844,120.5 L153.3,121.125 L153.3,121.5 L153.3,121.875 L152.7844,122.5 L152.3,122.5 L146.3,122.5 L145.8156,122.5 L145.3,121.875 L145.3,121.5 L145.3,121.125 L145.8156,120.5 L146.3,120.5 L148.3,120.5 L148.3,114.5 L146.3,114.5 L145.8156,114.5 L145.3,113.875 L145.3,113.5 L145.3,113.125 L145.8156,112.5 L146.3,112.5 L152.3,112.5 L152.7844,112.5 L153.3,113.125 L153.3,113.5 L153.3,113.875 L152.7844,114.5 L152.3,114.5 L150.3,114.5 Z "/><ellipse cx="170.7" cy="117" fill="#84BE84" rx="3" ry="3" style="stroke: #038048; stroke-width: 1.0;"/><text fill="#000000" font-family="sans-serif" font-size="12" font-style="italic" lengthAdjust="spacingAndGlyphs" textLength="92" x="176.7" y="122.4102">ReaderObserver</text><line style="stroke: #A80036; stroke-width: 1.5;" x1="124.5" x2="281.5" y1="133.5" y2="133.5"/><line style="stroke: #A80036; stroke-width: 1.5;" x1="124.5" x2="281.5" y1="141.5" y2="141.5"/><ellipse cx="134.5" cy="152.5" fill="#84BE84" rx="3" ry="3" style="stroke: #038048; stroke-width: 1.0;"/><text fill="#000000" font-family="sans-serif" font-size="11" lengthAdjust="spacingAndGlyphs" textLength="133" x="143.5" y="156.9189">update(ReaderEvent event)</text><!--MD5=[b4b6a5721e02f7cea6ba89274ea67351]
class NotificationMode--><rect fill="#FEFECE" filter="url(#f3gtkekggl04h)" height="131.0156" id="NotificationMode" style="stroke: #A80036; stroke-width: 1.5;" width="193" x="53.5" y="781"/><ellipse cx="95.05" cy="797" fill="#EB937F" rx="11" ry="11" style="stroke: #A80036; stroke-width: 1.0;"/><path d="M93.55,798 L93.55,800 L97.55,800 L97.55,799 L97.55,798.5156 L98.175,798 L98.55,798 L98.925,798 L99.55,798.5156 L99.55,799 L99.55,802 L91.55,802 L91.0656,802 L90.55,801.375 L90.55,801 L90.55,800.625 L91.0656,800 L91.55,800 L91.55,800 L91.55,794 L91.55,794 L91.0656,794 L90.55,793.375 L90.55,793 L90.55,792.625 L91.0656,792 L91.55,792 L99.55,792 L99.55,795 L99.55,795.4844 L98.925,796 L98.55,796 L98.175,796 L97.55,795.4844 L97.55,795 L97.55,794 L93.55,794 L93.55,796 L94.55,796 L94.55,795.5156 L94.55,795.5156 L95.175,795 L95.55,795 L95.925,795 L96.55,795.5156 L96.55,796 L96.55,798 L96.55,798.4844 L95.925,799 L95.925,799 L95.55,799 L95.175,799 L94.55,798.4844 L94.55,798.4844 L94.55,798 L93.55,798 Z "/><ellipse cx="119.95" cy="796.5" fill="#84BE84" rx="3" ry="3" style="stroke: #038048; stroke-width: 1.0;"/><text fill="#000000" font-family="sans-serif" font-size="12" lengthAdjust="spacingAndGlyphs" textLength="91" x="125.95" y="801.9102">NotificationMode</text><line style="stroke: #A80036; stroke-width: 1.5;" x1="54.5" x2="245.5" y1="813" y2="813"/><line style="stroke: #A80036; stroke-width: 1.5;" x1="54.5" x2="245.5" y1="821" y2="821"/><text fill="#000000" font-family="sans-serif" font-size="11" lengthAdjust="spacingAndGlyphs" textLength="99" x="73.5" y="836.4189">ALWAYS("always")</text><text fill="#000000" font-family="sans-serif" font-size="11" lengthAdjust="spacingAndGlyphs" textLength="167" x="73.5" y="850.2549">MATCHED_ONLY("matched_only")</text><text fill="#000000" font-family="sans-serif" font-size="11" lengthAdjust="spacingAndGlyphs" textLength="0" x="76.5" y="864.0908"/><ellipse cx="64.5" cy="873.5078" fill="#84BE84" rx="3" ry="3" style="stroke: #038048; stroke-width: 1.0;"/><text fill="#000000" font-family="sans-serif" font-size="11" lengthAdjust="spacingAndGlyphs" textLength="147" x="73.5" y="877.9268">NotificationMode(String name);</text><ellipse cx="64.5" cy="887.3438" fill="#84BE84" rx="3" ry="3" style="stroke: #038048; stroke-width: 1.0;"/><text fill="#000000" font-family="sans-serif" font-size="11" lengthAdjust="spacingAndGlyphs" textLength="84" x="73.5" y="891.7627">String getName();</text><ellipse cx="64.5" cy="901.1797" fill="#84BE84" rx="3" ry="3" style="stroke: #038048; stroke-width: 1.0;"/><text fill="#000000" font-family="sans-serif" font-size="11" lengthAdjust="spacingAndGlyphs" text-decoration="underline" textLength="165" x="73.5" y="905.5986">NotificationMode get(String name);</text><!--MD5=[4db98615c12e554c8946e39d7c0e78ca]
class PollingMode--><rect fill="#FEFECE" filter="url(#f3gtkekggl04h)" height="75.6719" id="PollingMode" style="stroke: #A80036; stroke-width: 1.5;" width="111" x="281.5" y="808.5"/><ellipse cx="296.5" cy="824.5" fill="#EB937F" rx="11" ry="11" style="stroke: #A80036; stroke-width: 1.0;"/><path d="M295,825.5 L295,827.5 L299,827.5 L299,826.5 L299,826.0156 L299.625,825.5 L300,825.5 L300.375,825.5 L301,826.0156 L301,826.5 L301,829.5 L293,829.5 L292.5156,829.5 L292,828.875 L292,828.5 L292,828.125 L292.5156,827.5 L293,827.5 L293,827.5 L293,821.5 L293,821.5 L292.5156,821.5 L292,820.875 L292,820.5 L292,820.125 L292.5156,819.5 L293,819.5 L301,819.5 L301,822.5 L301,822.9844 L300.375,823.5 L300,823.5 L299.625,823.5 L299,822.9844 L299,822.5 L299,821.5 L295,821.5 L295,823.5 L296,823.5 L296,823.0156 L296,823.0156 L296.625,822.5 L297,822.5 L297.375,822.5 L298,823.0156 L298,823.5 L298,825.5 L298,825.9844 L297.375,826.5 L297.375,826.5 L297,826.5 L296.625,826.5 L296,825.9844 L296,825.9844 L296,825.5 L295,825.5 Z "/><ellipse cx="315.5" cy="824" fill="#84BE84" rx="3" ry="3" style="stroke: #038048; stroke-width: 1.0;"/><text fill="#000000" font-family="sans-serif" font-size="12" lengthAdjust="spacingAndGlyphs" textLength="68" x="321.5" y="829.4102">PollingMode</text><line style="stroke: #A80036; stroke-width: 1.5;" x1="282.5" x2="391.5" y1="840.5" y2="840.5"/><text fill="#000000" font-family="sans-serif" font-size="11" lengthAdjust="spacingAndGlyphs" textLength="59" x="287.5" y="855.9189">REPEATING,</text><text fill="#000000" font-family="sans-serif" font-size="11" lengthAdjust="spacingAndGlyphs" textLength="64" x="287.5" y="869.7549">SINGLESHOT</text><line style="stroke: #A80036; stroke-width: 1.5;" x1="282.5" x2="391.5" y1="876.1719" y2="876.1719"/><!--MD5=[cfa5e1a9c30861ac5ad043f1201ace69]
class AbstractDefaultSelectionsRequest--><rect fill="#FEFECE" filter="url(#f3gtkekggl04h)" height="89.5078" id="AbstractDefaultSelectionsRequest" style="stroke: #A80036; stroke-width: 1.5;" width="320" x="449" y="544"/><ellipse cx="505.75" cy="560" fill="#A9DCDF" rx="11" ry="11" style="stroke: #A80036; stroke-width: 1.0;"/><path d="M507.5,561.5 L504.2031,561.5 L503.7656,562.5 L503.7656,562.5 L504.2344,562.5 L504.75,563.125 L504.75,563.5 L504.75,563.875 L504.2344,564.5 L503.7656,564.5 L501.875,564.5 L501.2656,564.5 L500.75,563.875 L500.75,563.5 L500.75,563.125 L501.2656,562.5 L501.875,562.5 L504.1875,556.5 L503.3125,556.5 L502.2656,556.5 L501.75,555.875 L501.75,555.5 L501.75,555.125 L502.2656,554.5 L503.3125,554.5 L506.9844,554.5 L509.6719,562.5 L510.2344,562.5 L510.2344,562.5 L510.75,563.125 L510.75,563.5 L510.75,563.875 L510.2344,564.5 L509.6719,564.5 L507.7813,564.5 L507.2656,564.5 L506.75,563.875 L506.75,563.5 L506.75,563.125 L507.2656,562.5 L507.7813,562.5 L507.7813,562.5 L507.5,561.5 Z M506.9531,559.5 L505.75,555.9219 L504.7188,559.5 L506.9531,559.5 Z "/><ellipse cx="531.25" cy="559.5" fill="#84BE84" rx="3" ry="3" style="stroke: #038048; stroke-width: 1.0;"/><text fill="#000000" font-family="sans-serif" font-size="12" font-style="italic" lengthAdjust="spacingAndGlyphs" textLength="187" x="537.25" y="564.9102">AbstractDefaultSelectionsRequest</text><line style="stroke: #A80036; stroke-width: 1.5;" x1="450" x2="768" y1="576" y2="576"/><line style="stroke: #A80036; stroke-width: 1.5;" x1="450" x2="768" y1="584" y2="584"/><polygon fill="#FFFF44" points="460,590,464,594,460,598,456,594" style="stroke: #B38D22; stroke-width: 1.0;"/><text fill="#000000" font-family="sans-serif" font-size="11" font-style="italic" lengthAdjust="spacingAndGlyphs" textLength="224" x="469" y="599.4189">Set&lt;SeRequest&gt; getSelectionSeRequestSet()</text><polygon fill="#FFFF44" points="460,603.8359,464,607.8359,460,611.8359,456,607.8359" style="stroke: #B38D22; stroke-width: 1.0;"/><text fill="#000000" font-family="sans-serif" font-size="11" font-style="italic" lengthAdjust="spacingAndGlyphs" textLength="294" x="469" y="613.2549">MultiSeRequestProcessing getMultiSeRequestProcessing()</text><polygon fill="#FFFF44" points="460,617.6719,464,621.6719,460,625.6719,456,621.6719" style="stroke: #B38D22; stroke-width: 1.0;"/><text fill="#000000" font-family="sans-serif" font-size="11" font-style="italic" lengthAdjust="spacingAndGlyphs" textLength="180" x="469" y="627.0908">ChannelControl getChannelControl()</text><!--MD5=[8f41c7e8d8e3ce316d782de639711bb6]
class AbstractDefaultSelectionsResponse--><rect fill="#FEFECE" filter="url(#f3gtkekggl04h)" height="61.8359" id="AbstractDefaultSelectionsResponse" style="stroke: #A80036; stroke-width: 1.5;" width="270" x="436" y="815.5"/><ellipse cx="464.5" cy="831.5" fill="#A9DCDF" rx="11" ry="11" style="stroke: #A80036; stroke-width: 1.0;"/><path d="M466.25,833 L462.9531,833 L462.5156,834 L462.5156,834 L462.9844,834 L463.5,834.625 L463.5,835 L463.5,835.375 L462.9844,836 L462.5156,836 L460.625,836 L460.0156,836 L459.5,835.375 L459.5,835 L459.5,834.625 L460.0156,834 L460.625,834 L462.9375,828 L462.0625,828 L461.0156,828 L460.5,827.375 L460.5,827 L460.5,826.625 L461.0156,826 L462.0625,826 L465.7344,826 L468.4219,834 L468.9844,834 L468.9844,834 L469.5,834.625 L469.5,835 L469.5,835.375 L468.9844,836 L468.4219,836 L466.5313,836 L466.0156,836 L465.5,835.375 L465.5,835 L465.5,834.625 L466.0156,834 L466.5313,834 L466.5313,834 L466.25,833 Z M465.7031,831 L464.5,827.4219 L463.4688,831 L465.7031,831 Z "/><ellipse cx="486.5" cy="831" fill="#84BE84" rx="3" ry="3" style="stroke: #038048; stroke-width: 1.0;"/><text fill="#000000" font-family="sans-serif" font-size="12" font-style="italic" lengthAdjust="spacingAndGlyphs" textLength="197" x="492.5" y="836.4102">AbstractDefaultSelectionsResponse</text><line style="stroke: #A80036; stroke-width: 1.5;" x1="437" x2="705" y1="847.5" y2="847.5"/><line style="stroke: #A80036; stroke-width: 1.5;" x1="437" x2="705" y1="855.5" y2="855.5"/><polygon fill="#FFFF44" points="447,861.5,451,865.5,447,869.5,443,865.5" style="stroke: #B38D22; stroke-width: 1.0;"/><text fill="#000000" font-family="sans-serif" font-size="11" font-style="italic" lengthAdjust="spacingAndGlyphs" textLength="244" x="456" y="870.9189">List&lt;SeResponse&gt; getSelectionSeResponseSet()</text><!--MD5=[e2341a3d5316e117132fc49473ae3219]
class ObservableReader--><rect fill="#FEFECE" filter="url(#f3gtkekggl04h)" height="227.8672" id="ObservableReader" style="stroke: #A80036; stroke-width: 1.5;" width="329" x="38.5" y="475"/><ellipse cx="140.25" cy="491" fill="#B4A7E5" rx="11" ry="11" style="stroke: #A80036; stroke-width: 1.0;"/><path d="M141.25,488 L141.25,494 L143.25,494 L143.7344,494 L144.25,494.625 L144.25,495 L144.25,495.375 L143.7344,496 L143.25,496 L137.25,496 L136.7656,496 L136.25,495.375 L136.25,495 L136.25,494.625 L136.7656,494 L137.25,494 L139.25,494 L139.25,488 L137.25,488 L136.7656,488 L136.25,487.375 L136.25,487 L136.25,486.625 L136.7656,486 L137.25,486 L143.25,486 L143.7344,486 L144.25,486.625 L144.25,487 L144.25,487.375 L143.7344,488 L143.25,488 L141.25,488 Z "/><ellipse cx="165.75" cy="490.5" fill="#84BE84" rx="3" ry="3" style="stroke: #038048; stroke-width: 1.0;"/><text fill="#000000" font-family="sans-serif" font-size="12" font-style="italic" lengthAdjust="spacingAndGlyphs" textLength="106" x="171.75" y="495.9102">ObservableReader</text><line style="stroke: #A80036; stroke-width: 1.5;" x1="39.5" x2="366.5" y1="507" y2="507"/><text fill="#000000" font-family="sans-serif" font-size="11" lengthAdjust="spacingAndGlyphs" textLength="292" x="44.5" y="522.4189">defaultSelectionsRequest, NotificationMode notificationMode,</text><line style="stroke: #A80036; stroke-width: 1.5;" x1="39.5" x2="366.5" y1="528.8359" y2="528.8359"/><ellipse cx="49.5" cy="539.8359" fill="#84BE84" rx="3" ry="3" style="stroke: #038048; stroke-width: 1.0;"/><text fill="#000000" font-family="sans-serif" font-size="11" lengthAdjust="spacingAndGlyphs" textLength="203" x="58.5" y="544.2549">addObserver(ReaderObserver observer);</text><ellipse cx="49.5" cy="553.6719" fill="#84BE84" rx="3" ry="3" style="stroke: #038048; stroke-width: 1.0;"/><text fill="#000000" font-family="sans-serif" font-size="11" lengthAdjust="spacingAndGlyphs" textLength="221" x="58.5" y="558.0908">removeObserver(ReaderObserver observer);</text><ellipse cx="49.5" cy="567.5078" fill="#84BE84" rx="3" ry="3" style="stroke: #038048; stroke-width: 1.0;"/><text fill="#000000" font-family="sans-serif" font-size="11" lengthAdjust="spacingAndGlyphs" textLength="182" x="58.5" y="571.9268">notifyObservers(ReaderEvent event);</text><text fill="#000000" font-family="sans-serif" font-size="11" lengthAdjust="spacingAndGlyphs" textLength="0" x="61.5" y="585.7627"/><ellipse cx="49.5" cy="595.1797" fill="#84BE84" rx="3" ry="3" style="stroke: #038048; stroke-width: 1.0;"/><text fill="#000000" font-family="sans-serif" font-size="11" lengthAdjust="spacingAndGlyphs" textLength="303" x="58.5" y="599.5986">setDefaultSelectionRequest(AbstractDefaultSelectionsRequest</text><text fill="#000000" font-family="sans-serif" font-size="11" lengthAdjust="spacingAndGlyphs" textLength="296" x="58.5" y="613.4346">defaultSelectionsRequest, NotificationMode notificationMode);</text><ellipse cx="49.5" cy="622.8516" fill="#84BE84" rx="3" ry="3" style="stroke: #038048; stroke-width: 1.0;"/><text fill="#000000" font-family="sans-serif" font-size="11" lengthAdjust="spacingAndGlyphs" textLength="303" x="58.5" y="627.2705">setDefaultSelectionRequest(AbstractDefaultSelectionsRequest</text><text fill="#000000" font-family="sans-serif" font-size="11" lengthAdjust="spacingAndGlyphs" textLength="122" x="58.5" y="641.1064">PollingMode pollingMode);</text><text fill="#000000" font-family="sans-serif" font-size="11" lengthAdjust="spacingAndGlyphs" textLength="0" x="61.5" y="654.9424"/><ellipse cx="49.5" cy="664.3594" fill="#84BE84" rx="3" ry="3" style="stroke: #038048; stroke-width: 1.0;"/><text fill="#000000" font-family="sans-serif" font-size="11" lengthAdjust="spacingAndGlyphs" textLength="206" x="58.5" y="668.7783">startSeDetection(PollingMode pollingMode);</text><ellipse cx="49.5" cy="678.1953" fill="#84BE84" rx="3" ry="3" style="stroke: #038048; stroke-width: 1.0;"/><text fill="#000000" font-family="sans-serif" font-size="11" lengthAdjust="spacingAndGlyphs" textLength="90" x="58.5" y="682.6143">stopSeDetection();</text><ellipse cx="49.5" cy="692.0313" fill="#84BE84" rx="3" ry="3" style="stroke: #038048; stroke-width: 1.0;"/><text fill="#000000" font-family="sans-serif" font-size="11" lengthAdjust="spacingAndGlyphs" textLength="103" x="58.5" y="696.4502">notifySeProcessed();</text><ellipse cx="203" cy="348.5" fill="#000000" rx="2" ry="2" style="stroke: none; stroke-width: 1.0;"/><!--MD5=[766d3442e39134c1882b7d68f6f3b242]
link EventType_Reader to ReaderEvent--><path d="M434,205.056 C434,225.198 434,247.228 434,267.812 " fill="none" id="EventType_Reader-&gt;ReaderEvent" style="stroke: #A80036; stroke-width: 1.0;"/><ellipse cx="434" cy="274.856" fill="#FFFFFF" rx="8" ry="8" style="stroke: #A80036; stroke-width: 1.0;"/><line style="stroke: #A80036; stroke-width: 1.0;" x1="434" x2="434" y1="266.856" y2="282.856"/><line style="stroke: #A80036; stroke-width: 1.0;" x1="442" x2="426" y1="274.856" y2="274.856"/><!--MD5=[ff05c798c0d0e38364e8144829ad24ca]
reverse link ObservableReader to NotificationMode--><path d="M176.41,718.182 C171.907,739.89 167.408,761.581 163.432,780.749 " fill="none" id="ObservableReader&lt;-NotificationMode" style="stroke: #A80036; stroke-width: 1.0;"/><ellipse cx="177.8976" cy="711.0153" fill="#FFFFFF" rx="8" ry="8" style="stroke: #A80036; stroke-width: 1.0;"/><line style="stroke: #A80036; stroke-width: 1.0;" x1="176.2732" x2="179.522" y1="718.8487" y2="703.182"/><line style="stroke: #A80036; stroke-width: 1.0;" x1="170.0642" x2="185.7309" y1="709.3909" y2="712.6398"/><!--MD5=[aa7d23f4fc0db106291b229919ad88ab]
reverse link ObservableReader to PollingMode--><path d="M269.35,716.511 C286.941,750.053 304.592,783.708 317.452,808.227 " fill="none" id="ObservableReader&lt;-PollingMode" style="stroke: #A80036; stroke-width: 1.0;"/><ellipse cx="266.0757" cy="710.2667" fill="#FFFFFF" rx="8" ry="8" style="stroke: #A80036; stroke-width: 1.0;"/><line style="stroke: #A80036; stroke-width: 1.0;" x1="269.7914" x2="262.36" y1="717.3515" y2="703.182"/><line style="stroke: #A80036; stroke-width: 1.0;" x1="258.991" x2="273.1604" y1="713.9824" y2="706.551"/><!--MD5=[d93d583e9630387e42bb0cdd49c8c645]
reverse link ReaderObserver to apoint12522--><path d="M203,176.912 C203,235.258 203,333.19 203,346.084 " fill="none" id="ReaderObserver&lt;-apoint12522" style="stroke: #A80036; stroke-width: 1.0;"/><polygon fill="#FFFFFF" points="203,163.707,199,169.707,203,175.707,207,169.707,203,163.707" style="stroke: #A80036; stroke-width: 1.0;"/><text fill="#000000" font-family="sans-serif" font-size="13" lengthAdjust="spacingAndGlyphs" textLength="51" x="204" y="249.4951">observes</text><polygon fill="#000000" points="225,258.3516,228,264.3516,231,258.3516,225,258.3516" style="stroke: #000000; stroke-width: 1.0;"/><text fill="#000000" font-family="sans-serif" font-size="13" lengthAdjust="spacingAndGlyphs" textLength="5" x="197.5234" y="184.7251">*</text><!--MD5=[df2e143b938366cdc89998c91c350784]
link apoint12522 to ObservableReader--><path d="M203,350.563 C203,358.364 203,407.898 203,459.719 " fill="none" id="apoint12522-&gt;ObservableReader" style="stroke: #A80036; stroke-width: 1.0;"/><ellipse cx="203" cy="466.728" fill="#FFFFFF" rx="8" ry="8" style="stroke: #A80036; stroke-width: 1.0;"/><line style="stroke: #A80036; stroke-width: 1.0;" x1="203" x2="203" y1="458.728" y2="474.728"/><line style="stroke: #A80036; stroke-width: 1.0;" x1="211" x2="195" y1="466.728" y2="466.728"/><text fill="#000000" font-family="sans-serif" font-size="13" lengthAdjust="spacingAndGlyphs" textLength="7" x="195.7648" y="464.0242">1</text><!--MD5=[1912fcb15eae63bbf6bbecd29a196a0a]
link apoint12522 to ReaderEvent--><path d="M205.256,348.5 C216.723,348.5 228.19,348.5 239.657,348.5 " fill="none" id="apoint12522-ReaderEvent" style="stroke: #A80036; stroke-width: 1.0; stroke-dasharray: 7.0,7.0;"/><!--MD5=[fad704757e92dcc281ead66b52a4dd7e]
reverse link ObservableReader to AbstractDefaultSelectionsRequest--><path d="M372.589,589 C397.831,589 423.782,589 448.823,589 " fill="none" id="ObservableReader&lt;-AbstractDefaultSelectionsRequest" style="stroke: #A80036; stroke-width: 1.0;"/><polygon fill="#A80036" points="367.55,589,376.55,593,372.55,589,376.55,585,367.55,589" style="stroke: #A80036; stroke-width: 1.0;"/><polygon fill="#000000" points="392.75,575.6758,386.75,578.6758,392.75,581.6758,392.75,575.6758" style="stroke: #000000; stroke-width: 1.0;"/><text fill="#000000" font-family="sans-serif" font-size="13" lengthAdjust="spacingAndGlyphs" textLength="32" x="398.75" y="582.4951">is set</text><text fill="#000000" font-family="sans-serif" font-size="13" lengthAdjust="spacingAndGlyphs" textLength="7" x="375.6899" y="586.1193">1</text><text fill="#000000" font-family="sans-serif" font-size="13" lengthAdjust="spacingAndGlyphs" textLength="7" x="433.8949" y="586.1281">1</text><!--MD5=[a9b71dddf3b48afb2529446a6f0fee22]
link AbstractDefaultSelectionsResponse to ObservableReader--><path d="M527.508,815.304 C488.322,788.097 428.132,746.308 370.185,706.076 " fill="none" id="AbstractDefaultSelectionsResponse-&gt;ObservableReader" style="stroke: #A80036; stroke-width: 1.0;"/><polygon fill="#A80036" points="366.017,703.182,371.1288,711.6004,370.1242,706.0335,375.6911,705.0289,366.017,703.182" style="stroke: #A80036; stroke-width: 1.0;"/><text fill="#000000" font-family="sans-serif" font-size="13" lengthAdjust="spacingAndGlyphs" textLength="40" x="431" y="747.4951">returns</text><polygon fill="#000000" points="474,740.6758,480,743.6758,474,746.6758,474,740.6758" style="stroke: #000000; stroke-width: 1.0;"/><text fill="#000000" font-family="sans-serif" font-size="13" lengthAdjust="spacingAndGlyphs" textLength="7" x="510.8159" y="804.7681">1</text><text fill="#000000" font-family="sans-serif" font-size="13" lengthAdjust="spacingAndGlyphs" textLength="7" x="369.2361" y="724.5199">1</text><!--MD5=[ccedb28a46d36cb0f26e61260b1180d8]
link AbstractDefaultSelectionsRequest to AbstractDefaultSelectionsResponse--><!--MD5=[21b597867e9ec6f0ba9cb1f4087592f0]
@startuml
package org.eclipse.keyple.core.seproxy.event #FFFFFF {
+enum "EventType" as EventType_Reader {
  IO_ERROR("SE Reader IO Error")
  SE_INSERTED("SE insertion")
  SE_MATCHED("SE matched")
  SE_REMOVAL("SE removal")

  +EventType(String name);
  +String getName();
}

+class "<b>final</b> ReaderEvent" as ReaderEvent {
  +ReaderEvent(String pluginName, String readerName, EventType eventType,
    DefaultSelectionsResponse defaultSelectionsResponse);
  +String getPluginName();
  +String getReaderName();
  +EventType getEventType();
  +AbstractDefaultSelectionsResponse getDefaultSelectionsResponse();
}

  EventType_Reader - -+ ReaderEvent

  +interface ReaderObserver {
    +update(ReaderEvent event)
  }

+enum NotificationMode {
  ALWAYS("always")
  MATCHED_ONLY("matched_only")

  +NotificationMode(String name);
  +String getName();
  +{static}NotificationMode get(String name);
}

+enum PollingMode {
  REPEATING,
  SINGLESHOT
}
+abstract AbstractDefaultSelectionsRequest {
  {abstract} #Set<SeRequest> getSelectionSeRequestSet()
  {abstract} #MultiSeRequestProcessing getMultiSeRequestProcessing()
  {abstract} #ChannelControl getChannelControl()
}

+abstract AbstractDefaultSelectionsResponse {
  {abstract} #List<SeResponse> getSelectionSeResponseSet()
}
+interface ObservableReader {
  +addObserver(ReaderObserver observer);
  +removeObserver(ReaderObserver observer);
  +notifyObservers(ReaderEvent event);

  +setDefaultSelectionRequest(AbstractDefaultSelectionsRequest
    defaultSelectionsRequest, NotificationMode notificationMode);
  +setDefaultSelectionRequest(AbstractDefaultSelectionsRequest
    defaultSelectionsRequest, NotificationMode notificationMode,
    PollingMode pollingMode);

  +startSeDetection(PollingMode pollingMode);
  +stopSeDetection();
  +notifySeProcessed();
}

  ObservableReader +-down- NotificationMode
  ObservableReader +-down- PollingMode

  ReaderObserver "1" +-down-o "*" ObservableReader : observes <
  (ReaderObserver, ObservableReader) . ReaderEvent

  AbstractDefaultSelectionsRequest "1" -left-> "1" ObservableReader : is set >
  AbstractDefaultSelectionsResponse "1" - -> "1" ObservableReader : returns <
  AbstractDefaultSelectionsRequest -down[hidden]- AbstractDefaultSelectionsResponse
}
@enduml

PlantUML version 1.2020.07(Sun Apr 19 15:42:40 MUT 2020)
(GPL source distribution)
Java Runtime: OpenJDK Runtime Environment
JVM: OpenJDK 64-Bit Server VM
Java Version: 11.0.6+8-b765.40
Operating System: Windows 10
Default Encoding: Cp1252
Language: fr
Country: FR
--></g></svg>